M48
;DRILL file {KiCad (5.0.1)-3} date 5/27/2019 4:35:59 PM
;FORMAT={-:-/ absolute / inch / decimal}
FMAT,2
INCH,TZ
T1C0.1260
%
G90
G05
M72
T1
X6.999Y-2.3172
X4.9123Y-3.8921
X4.9123Y-4.3097
X6.999Y-2.7349
X1.1514Y-3.8921
X4.9123Y-2.3172
X6.999Y-3.8921
X5.3247Y-1.16
X1.1514Y-5.4669
X2.8257Y-2.7349
X4.9123Y-1.16
X5.3247Y-2.3172
X2.8257Y-3.8921
X1.1514Y-2.3172
X4.9123Y-2.7349
X3.238Y-5.4669
X2.8257Y-4.3097
X6.999Y-5.4669
X2.8257Y-1.16
X3.238Y-4.3097
X5.3247Y-4.3097
X2.8257Y-5.4669
X4.9123Y-5.4669
X5.3247Y-2.7349
X1.1514Y-4.3097
X5.3247Y-3.8921
X3.238Y-2.3172
X3.238Y-2.7349
X2.8257Y-2.3172
X5.3247Y-5.4669
X6.999Y-1.16
X3.238Y-3.8921
X3.238Y-1.16
X1.1514Y-2.7349
X1.1514Y-1.16
X6.999Y-4.3097
T0
M30
