M48
;DRILL file {KiCad (5.0.1)-3} date 5/27/2019 4:35:59 PM
;FORMAT={-:-/ absolute / inch / decimal}
FMAT,2
INCH,TZ
T1C0.0157
T2C0.0374
T3C0.0394
%
G90
G05
M72
T1
X1.3067Y-2.183
X1.3067Y-3.7579
X1.3067Y-5.3327
X1.3068Y-1.2714
X1.3068Y-2.8463
X1.3068Y-4.4211
X1.3214Y-1.0536
X1.3214Y-2.6285
X1.3214Y-4.2033
X1.3403Y-1.3248
X1.3403Y-2.8997
X1.3403Y-4.4745
X1.3406Y-2.2614
X1.3406Y-3.8363
X1.3406Y-5.4111
X1.3415Y-2.3987
X1.3415Y-3.9736
X1.3415Y-5.5484
X1.3436Y-2.3354
X1.3436Y-3.9103
X1.3436Y-5.4851
X1.3679Y-1.8899
X1.3679Y-3.4648
X1.3679Y-5.0396
X1.378Y-1.5972
X1.378Y-3.1721
X1.378Y-4.7469
X1.3802Y-1.6446
X1.3802Y-3.2195
X1.3802Y-4.7943
X1.3813Y-1.549
X1.3813Y-3.1239
X1.3813Y-4.6987
X1.3968Y-1.8308
X1.3968Y-3.4057
X1.3968Y-4.9805
X1.6056Y-1.2439
X1.6056Y-2.8188
X1.6056Y-4.3936
X1.6122Y-1.3283
X1.6122Y-2.9032
X1.6122Y-4.478
X1.6306Y-1.5176
X1.6306Y-3.0925
X1.6306Y-4.6673
X1.6604Y-2.1539
X1.6604Y-3.7288
X1.6604Y-5.3036
X1.6629Y-1.2439
X1.6629Y-2.8188
X1.6629Y-4.3936
X1.7169Y-1.2439
X1.7169Y-2.8188
X1.7169Y-4.3936
X1.718Y-2.1975
X1.718Y-3.7724
X1.718Y-5.3472
X1.7395Y-2.3336
X1.7395Y-3.9085
X1.7395Y-5.4833
X1.7432Y-1.3303
X1.7432Y-2.9052
X1.7432Y-4.48
X1.7661Y-1.9277
X1.7661Y-3.5026
X1.7661Y-5.0774
X1.8162Y-1.5316
X1.8162Y-3.1064
X1.8162Y-4.6812
X1.9146Y-1.5512
X1.9146Y-1.9253
X1.9146Y-3.126
X1.9146Y-3.5001
X1.9146Y-4.7008
X1.9146Y-5.0749
X1.9343Y-1.6103
X1.9343Y-1.6497
X1.9343Y-3.1851
X1.9343Y-3.2245
X1.9343Y-4.7599
X1.9343Y-4.7993
X2.0721Y-1.9253
X2.0721Y-3.5001
X2.0721Y-5.0749
X2.1073Y-1.5453
X2.1073Y-3.1202
X2.1073Y-4.695
X2.1444Y-2.2422
X2.1444Y-3.8171
X2.1444Y-5.3919
X2.1462Y-2.3031
X2.1462Y-2.3587
X2.1462Y-3.878
X2.1462Y-3.9336
X2.1462Y-5.4528
X2.1462Y-5.5084
X2.1463Y-1.2477
X2.1463Y-2.8226
X2.1463Y-4.3974
X2.1509Y-2.1418
X2.1509Y-3.7166
X2.1509Y-5.2914
X2.2276Y-1.8445
X2.2276Y-3.4194
X2.2276Y-4.9942
X2.2493Y-1.6103
X2.2493Y-1.6497
X2.2493Y-3.1851
X2.2493Y-3.2245
X2.2493Y-4.7599
X2.2493Y-4.7993
X2.3083Y-1.5119
X2.3083Y-1.9253
X2.3083Y-3.0867
X2.3083Y-3.5001
X2.3083Y-4.6615
X2.3083Y-5.0749
X2.4265Y-1.9253
X2.4265Y-3.5001
X2.4265Y-5.0749
X2.4407Y-1.2522
X2.4407Y-2.8271
X2.4407Y-4.4019
X2.5052Y-1.9253
X2.5052Y-3.5001
X2.5052Y-5.0749
X2.517Y-1.2497
X2.517Y-2.8246
X2.517Y-4.3994
X2.5805Y-1.2486
X2.5805Y-2.8235
X2.5805Y-4.3983
X2.6345Y-1.2497
X2.6345Y-2.8246
X2.6345Y-4.3994
X2.6416Y-2.2277
X2.6416Y-2.291
X2.6416Y-2.3561
X2.6416Y-3.8026
X2.6416Y-3.8659
X2.6416Y-3.931
X2.6416Y-5.3774
X2.6416Y-5.4407
X2.6416Y-5.5058
X2.6627Y-1.4725
X2.6627Y-3.0473
X2.6627Y-4.6221
X3.3933Y-2.183
X3.3933Y-3.7579
X3.3933Y-5.3327
X3.3934Y-1.2714
X3.3934Y-2.8463
X3.3934Y-4.4211
X3.408Y-1.0536
X3.408Y-2.6285
X3.408Y-4.2033
X3.4269Y-1.3248
X3.4269Y-2.8997
X3.4269Y-4.4745
X3.4272Y-2.2614
X3.4272Y-3.8363
X3.4272Y-5.4111
X3.4281Y-2.3987
X3.4281Y-3.9736
X3.4281Y-5.5484
X3.4302Y-2.3354
X3.4302Y-3.9103
X3.4302Y-5.4851
X3.4545Y-1.8899
X3.4545Y-3.4648
X3.4545Y-5.0396
X3.4646Y-1.5972
X3.4646Y-3.1721
X3.4646Y-4.7469
X3.4668Y-1.6446
X3.4668Y-3.2195
X3.4668Y-4.7943
X3.4679Y-1.549
X3.4679Y-3.1239
X3.4679Y-4.6987
X3.4834Y-1.8308
X3.4834Y-3.4057
X3.4834Y-4.9805
X3.6922Y-1.2439
X3.6922Y-2.8188
X3.6922Y-4.3936
X3.6988Y-1.3283
X3.6988Y-2.9032
X3.6988Y-4.478
X3.7172Y-1.5176
X3.7172Y-3.0925
X3.7172Y-4.6673
X3.747Y-2.1539
X3.747Y-3.7288
X3.747Y-5.3036
X3.7495Y-1.2439
X3.7495Y-2.8188
X3.7495Y-4.3936
X3.8035Y-1.2439
X3.8035Y-2.8188
X3.8035Y-4.3936
X3.8046Y-2.1975
X3.8046Y-3.7724
X3.8046Y-5.3472
X3.8261Y-2.3336
X3.8261Y-3.9085
X3.8261Y-5.4833
X3.8298Y-1.3303
X3.8298Y-2.9052
X3.8298Y-4.48
X3.8527Y-1.9277
X3.8527Y-3.5026
X3.8527Y-5.0774
X3.9028Y-1.5316
X3.9028Y-3.1064
X3.9028Y-4.6812
X4.0013Y-1.5512
X4.0013Y-1.9253
X4.0013Y-3.126
X4.0013Y-3.5001
X4.0013Y-4.7008
X4.0013Y-5.0749
X4.0209Y-1.6103
X4.0209Y-1.6497
X4.0209Y-3.1851
X4.0209Y-3.2245
X4.0209Y-4.7599
X4.0209Y-4.7993
X4.1587Y-1.9253
X4.1587Y-3.5001
X4.1587Y-5.0749
X4.1939Y-1.5453
X4.1939Y-3.1202
X4.1939Y-4.695
X4.231Y-2.2422
X4.231Y-3.8171
X4.231Y-5.3919
X4.2328Y-2.3031
X4.2328Y-2.3587
X4.2328Y-3.878
X4.2328Y-3.9336
X4.2328Y-5.4528
X4.2328Y-5.5084
X4.2329Y-1.2477
X4.2329Y-2.8226
X4.2329Y-4.3974
X4.2375Y-2.1418
X4.2375Y-3.7166
X4.2375Y-5.2914
X4.3143Y-1.8445
X4.3143Y-3.4194
X4.3143Y-4.9942
X4.3359Y-1.6103
X4.3359Y-1.6497
X4.3359Y-3.1851
X4.3359Y-3.2245
X4.3359Y-4.7599
X4.3359Y-4.7993
X4.395Y-1.5119
X4.395Y-1.9253
X4.395Y-3.0867
X4.395Y-3.5001
X4.395Y-4.6615
X4.395Y-5.0749
X4.5131Y-1.9253
X4.5131Y-3.5001
X4.5131Y-5.0749
X4.5273Y-1.2522
X4.5273Y-2.8271
X4.5273Y-4.4019
X4.5918Y-1.9253
X4.5918Y-3.5001
X4.5918Y-5.0749
X4.6036Y-1.2497
X4.6036Y-2.8246
X4.6036Y-4.3994
X4.6671Y-1.2486
X4.6671Y-2.8235
X4.6671Y-4.3983
X4.7211Y-1.2497
X4.7211Y-2.8246
X4.7211Y-4.3994
X4.7282Y-2.2277
X4.7282Y-2.291
X4.7282Y-2.3561
X4.7282Y-3.8026
X4.7282Y-3.8659
X4.7282Y-3.931
X4.7282Y-5.3774
X4.7282Y-5.4407
X4.7282Y-5.5058
X4.7493Y-1.4725
X4.7493Y-3.0473
X4.7493Y-4.6221
X5.48Y-2.183
X5.48Y-3.7579
X5.48Y-5.3327
X5.4801Y-1.2714
X5.4801Y-2.8463
X5.4801Y-4.4211
X5.4947Y-1.0536
X5.4947Y-2.6285
X5.4947Y-4.2033
X5.5136Y-1.3248
X5.5136Y-2.8997
X5.5136Y-4.4745
X5.5139Y-2.2614
X5.5139Y-3.8363
X5.5139Y-5.4111
X5.5148Y-2.3987
X5.5148Y-3.9736
X5.5148Y-5.5484
X5.5169Y-2.3354
X5.5169Y-3.9103
X5.5169Y-5.4851
X5.5412Y-1.8899
X5.5412Y-3.4648
X5.5412Y-5.0396
X5.5513Y-1.5972
X5.5513Y-3.1721
X5.5513Y-4.7469
X5.5535Y-1.6446
X5.5535Y-3.2195
X5.5535Y-4.7943
X5.5546Y-1.549
X5.5546Y-3.1239
X5.5546Y-4.6987
X5.5701Y-1.8308
X5.5701Y-3.4057
X5.5701Y-4.9805
X5.7789Y-1.2439
X5.7789Y-2.8188
X5.7789Y-4.3936
X5.7855Y-1.3283
X5.7855Y-2.9032
X5.7855Y-4.478
X5.8039Y-1.5176
X5.8039Y-3.0925
X5.8039Y-4.6673
X5.8337Y-2.1539
X5.8337Y-3.7288
X5.8337Y-5.3036
X5.8362Y-1.2439
X5.8362Y-2.8188
X5.8362Y-4.3936
X5.8902Y-1.2439
X5.8902Y-2.8188
X5.8902Y-4.3936
X5.8913Y-2.1975
X5.8913Y-3.7724
X5.8913Y-5.3472
X5.9128Y-2.3336
X5.9128Y-3.9085
X5.9128Y-5.4833
X5.9165Y-1.3303
X5.9165Y-2.9052
X5.9165Y-4.48
X5.9394Y-1.9277
X5.9394Y-3.5026
X5.9394Y-5.0774
X5.9894Y-1.5316
X5.9894Y-3.1064
X5.9894Y-4.6812
X6.0879Y-1.5512
X6.0879Y-1.9253
X6.0879Y-3.126
X6.0879Y-3.5001
X6.0879Y-4.7008
X6.0879Y-5.0749
X6.1076Y-1.6103
X6.1076Y-1.6497
X6.1076Y-3.1851
X6.1076Y-3.2245
X6.1076Y-4.7599
X6.1076Y-4.7993
X6.2454Y-1.9253
X6.2454Y-3.5001
X6.2454Y-5.0749
X6.2806Y-1.5453
X6.2806Y-3.1202
X6.2806Y-4.695
X6.3177Y-2.2422
X6.3177Y-3.8171
X6.3177Y-5.3919
X6.3195Y-2.3031
X6.3195Y-2.3587
X6.3195Y-3.878
X6.3195Y-3.9336
X6.3195Y-5.4528
X6.3195Y-5.5084
X6.3196Y-1.2477
X6.3196Y-2.8226
X6.3196Y-4.3974
X6.3241Y-2.1418
X6.3241Y-3.7166
X6.3241Y-5.2914
X6.4009Y-1.8445
X6.4009Y-3.4194
X6.4009Y-4.9942
X6.4225Y-1.6103
X6.4225Y-1.6497
X6.4225Y-3.1851
X6.4225Y-3.2245
X6.4225Y-4.7599
X6.4225Y-4.7993
X6.4816Y-1.5119
X6.4816Y-1.9253
X6.4816Y-3.0867
X6.4816Y-3.5001
X6.4816Y-4.6615
X6.4816Y-5.0749
X6.5997Y-1.9253
X6.5997Y-3.5001
X6.5997Y-5.0749
X6.614Y-1.2522
X6.614Y-2.8271
X6.614Y-4.4019
X6.6784Y-1.9253
X6.6784Y-3.5001
X6.6784Y-5.0749
X6.6903Y-1.2497
X6.6903Y-2.8246
X6.6903Y-4.3994
X6.7538Y-1.2486
X6.7538Y-2.8235
X6.7538Y-4.3983
X6.8078Y-1.2497
X6.8078Y-2.8246
X6.8078Y-4.3994
X6.8149Y-2.2277
X6.8149Y-2.291
X6.8149Y-2.3561
X6.8149Y-3.8026
X6.8149Y-3.8659
X6.8149Y-3.931
X6.8149Y-5.3774
X6.8149Y-5.4407
X6.8149Y-5.5058
X6.8359Y-1.4725
X6.8359Y-3.0473
X6.8359Y-4.6221
T2
X2.2447Y-2.7127
X2.3431Y-2.7127
X2.4415Y-2.7127
X2.5399Y-2.7127
X1.4501Y-2.3268
X1.5485Y-2.3268
X1.6469Y-2.3268
X3.5367Y-2.3268
X3.6351Y-2.3268
X3.7335Y-2.3268
X1.4501Y-5.4764
X1.5485Y-5.4764
X1.6469Y-5.4764
X6.4186Y-5.4764
X6.517Y-5.4764
X6.6154Y-5.4764
X6.7139Y-5.4764
X2.2447Y-4.2875
X2.3431Y-4.2875
X2.4415Y-4.2875
X2.5399Y-4.2875
X6.4179Y-4.2875
X6.5163Y-4.2875
X6.6147Y-4.2875
X6.7132Y-4.2875
X1.4501Y-4.2875
X1.5485Y-4.2875
X1.6469Y-4.2875
X4.3313Y-1.1379
X4.4297Y-1.1379
X4.5281Y-1.1379
X4.6265Y-1.1379
X5.6233Y-4.2875
X5.7217Y-4.2875
X5.8202Y-4.2875
X4.3313Y-4.2875
X4.4297Y-4.2875
X4.5281Y-4.2875
X4.6265Y-4.2875
X3.5367Y-3.9016
X3.6351Y-3.9016
X3.7335Y-3.9016
X5.6233Y-3.9016
X5.7217Y-3.9016
X5.8202Y-3.9016
X4.332Y-3.9016
X4.4304Y-3.9016
X4.5288Y-3.9016
X4.6272Y-3.9016
X3.5367Y-2.7127
X3.6351Y-2.7127
X3.7335Y-2.7127
X4.3313Y-2.7127
X4.4297Y-2.7127
X4.5281Y-2.7127
X4.6265Y-2.7127
X5.6233Y-2.3268
X5.7217Y-2.3268
X5.8202Y-2.3268
X3.5367Y-5.4764
X3.6351Y-5.4764
X3.7335Y-5.4764
X6.4186Y-3.9016
X6.517Y-3.9016
X6.6154Y-3.9016
X6.7139Y-3.9016
X2.2454Y-5.4764
X2.3438Y-5.4764
X2.4422Y-5.4764
X2.5406Y-5.4764
X1.4501Y-2.7127
X1.5485Y-2.7127
X1.6469Y-2.7127
X5.6233Y-2.7127
X5.7217Y-2.7127
X5.8202Y-2.7127
X6.4179Y-1.1379
X6.5163Y-1.1379
X6.6147Y-1.1379
X6.7132Y-1.1379
X2.2447Y-1.1379
X2.3431Y-1.1379
X2.4415Y-1.1379
X2.5399Y-1.1379
X2.2454Y-3.9016
X2.3438Y-3.9016
X2.4422Y-3.9016
X2.5406Y-3.9016
X3.5367Y-4.2875
X3.6351Y-4.2875
X3.7335Y-4.2875
X5.6233Y-1.1379
X5.7217Y-1.1379
X5.8202Y-1.1379
X2.2454Y-2.3268
X2.3438Y-2.3268
X2.4422Y-2.3268
X2.5406Y-2.3268
X6.4186Y-2.3268
X6.517Y-2.3268
X6.6154Y-2.3268
X6.7139Y-2.3268
X6.4179Y-2.7127
X6.5163Y-2.7127
X6.6147Y-2.7127
X6.7132Y-2.7127
X1.4501Y-1.1379
X1.5485Y-1.1379
X1.6469Y-1.1379
X3.5367Y-1.1379
X3.6351Y-1.1379
X3.7335Y-1.1379
X1.4501Y-3.9016
X1.5485Y-3.9016
X1.6469Y-3.9016
X5.6233Y-5.4764
X5.7217Y-5.4764
X5.8202Y-5.4764
X4.332Y-5.4764
X4.4304Y-5.4764
X4.5288Y-5.4764
X4.6272Y-5.4764
X4.332Y-2.3268
X4.4304Y-2.3268
X4.5288Y-2.3268
X4.6272Y-2.3268
T3
X5.3726Y-3.0001
X5.3726Y-3.1001
X5.3726Y-3.2001
X3.2859Y-3.0001
X3.2859Y-3.1001
X3.2859Y-3.2001
X5.3742Y-3.379
X5.3742Y-3.479
X5.3742Y-3.579
X3.2875Y-1.8041
X3.2875Y-1.9041
X3.2875Y-2.0041
X1.2009Y-4.9538
X1.2009Y-5.0538
X1.2009Y-5.1538
X1.1993Y-1.4252
X1.1993Y-1.5252
X1.1993Y-1.6252
X5.3726Y-4.5749
X5.3726Y-4.6749
X5.3726Y-4.7749
X3.2859Y-1.4252
X3.2859Y-1.5252
X3.2859Y-1.6252
X1.1993Y-4.5749
X1.1993Y-4.6749
X1.1993Y-4.7749
X1.2009Y-1.8041
X1.2009Y-1.9041
X1.2009Y-2.0041
X5.3726Y-1.4252
X5.3726Y-1.5252
X5.3726Y-1.6252
X1.1993Y-3.0001
X1.1993Y-3.1001
X1.1993Y-3.2001
X3.2875Y-3.379
X3.2875Y-3.479
X3.2875Y-3.579
X3.2859Y-4.5749
X3.2859Y-4.6749
X3.2859Y-4.7749
X5.3742Y-4.9538
X5.3742Y-5.0538
X5.3742Y-5.1538
X1.2009Y-3.379
X1.2009Y-3.479
X1.2009Y-3.579
X3.2875Y-4.9538
X3.2875Y-5.0538
X3.2875Y-5.1538
X5.3742Y-1.8041
X5.3742Y-1.9041
X5.3742Y-2.0041
T0
M30
