M48
;DRILL file {KiCad (5.0.1)-3} date 3/7/2019 11:38:05 PM
;FORMAT={-:-/ absolute / inch / decimal}
FMAT,2
INCH,TZ
T1C0.0157
T2C0.0374
T3C0.0394
%
G90
G05
M72
T1
X4.5102Y-4.1948
X4.5103Y-3.2832
X4.5249Y-3.0654
X4.5438Y-3.3366
X4.5441Y-4.2732
X4.545Y-4.4105
X4.5471Y-4.3472
X4.5714Y-3.9017
X4.5815Y-3.609
X4.5837Y-3.6564
X4.5848Y-3.5608
X4.6003Y-3.8426
X4.8091Y-3.2557
X4.8157Y-3.3401
X4.8341Y-3.5294
X4.8639Y-4.1657
X4.8664Y-3.2557
X4.9204Y-3.2557
X4.9215Y-4.2093
X4.943Y-4.3454
X4.9467Y-3.3421
X5.0287Y-3.6248
X5.0304Y-3.8438
X5.1946Y-3.5322
X5.3108Y-3.5571
X5.3479Y-4.254
X5.3497Y-4.3149
X5.3497Y-4.3705
X5.3498Y-3.2595
X5.6252Y-3.9744
X5.6442Y-3.264
X5.6723Y-3.4338
X5.7205Y-3.2615
X5.784Y-3.2604
X5.838Y-3.2615
X5.8451Y-4.2395
X5.8451Y-4.3028
X5.8451Y-4.3679
T2
X4.6535Y-4.3386
X4.752Y-4.3386
X4.8504Y-4.3386
X4.6535Y-3.1496
X4.752Y-3.1496
X4.8504Y-3.1496
X5.4481Y-3.1496
X5.5465Y-3.1496
X5.645Y-3.1496
X5.7434Y-3.1496
X5.4488Y-4.3386
X5.5472Y-4.3386
X5.6457Y-4.3386
X5.7441Y-4.3386
T3
X4.4044Y-3.8159
X4.4044Y-3.9159
X4.4044Y-4.0159
X4.4028Y-3.437
X4.4028Y-3.537
X4.4028Y-3.637
T0
M30
