M48
;DRILL file {KiCad (5.0.1)-3} date 6/20/2019 9:19:42 PM
;FORMAT={-:-/ absolute / inch / decimal}
FMAT,2
INCH,TZ
T1C0.0157
T2C0.0374
T3C0.0394
%
G90
G05
M72
T1
X4.5102Y-4.1948
X4.5103Y-3.2832
X4.5249Y-3.0654
X4.5438Y-3.3366
X4.5441Y-4.2732
X4.545Y-4.4105
X4.5471Y-4.3472
X4.5714Y-3.9017
X4.5815Y-3.609
X4.5837Y-3.6564
X4.5848Y-3.5608
X4.6003Y-3.8426
X4.8157Y-3.361
X4.8341Y-3.5294
X4.8673Y-4.1921
X4.9215Y-4.2093
X4.943Y-4.3454
X4.9467Y-3.3421
X4.9878Y-3.1402
X4.9878Y-3.2122
X4.9878Y-3.2748
X4.9976Y-3.9154
X5.0197Y-3.5433
X5.06Y-3.25
X5.0969Y-3.5661
X5.0969Y-3.924
X5.1Y-4.2
X5.1Y-4.39
X5.1636Y-4.2376
X5.26Y-3.55
X5.29Y-4.23
X5.3Y-3.27
X5.3104Y-3.9175
X5.3479Y-4.254
X5.3497Y-4.3149
X5.3497Y-4.3705
X5.3594Y-3.5669
X5.43Y-3.61
X5.4311Y-3.8563
X5.49Y-3.84
X5.4972Y-3.8961
X5.6299Y-3.937
X5.645Y-3.235
X5.7335Y-3.9327
X5.84Y-3.0802
X5.84Y-3.1475
X5.84Y-3.2148
X5.8451Y-4.2395
X5.8451Y-4.3028
X5.8451Y-4.3679
X5.91Y-3.71
X5.9606Y-3.5588
X6.0717Y-3.8961
T2
X5.4481Y-3.1496
X5.5465Y-3.1496
X5.645Y-3.1496
X5.7434Y-3.1496
X5.4488Y-4.3386
X5.5472Y-4.3386
X5.6457Y-4.3386
X5.7441Y-4.3386
X4.6535Y-3.1909
X4.752Y-3.1909
X4.8504Y-3.1909
X4.6535Y-4.3386
X4.752Y-4.3386
X4.8504Y-4.3386
T3
X4.4044Y-3.8159
X4.4044Y-3.9159
X4.4044Y-4.0159
X4.4028Y-3.437
X4.4028Y-3.537
X4.4028Y-3.637
T0
M30
