G04 #@! TF.GenerationSoftware,KiCad,Pcbnew,(5.0.1)-3*
G04 #@! TF.CreationDate,2019-03-07T23:38:02-05:00*
G04 #@! TF.ProjectId,mars-aqua-adapter,6D6172732D617175612D616461707465,rev?*
G04 #@! TF.SameCoordinates,Original*
G04 #@! TF.FileFunction,Legend,Top*
G04 #@! TF.FilePolarity,Positive*
%FSLAX46Y46*%
G04 Gerber Fmt 4.6, Leading zero omitted, Abs format (unit mm)*
G04 Created by KiCad (PCBNEW (5.0.1)-3) date 3/7/2019 11:38:02 PM*
%MOMM*%
%LPD*%
G01*
G04 APERTURE LIST*
%ADD10C,0.200000*%
%ADD11C,0.150000*%
%ADD12C,0.120000*%
%ADD13C,0.203200*%
%ADD14C,0.010000*%
%ADD15C,0.127000*%
%ADD16C,0.100000*%
G04 APERTURE END LIST*
D10*
X114100954Y-101901782D02*
X115100954Y-101901782D01*
X114148573Y-101901782D02*
X114100954Y-101806544D01*
X114100954Y-101616068D01*
X114148573Y-101520830D01*
X114196192Y-101473211D01*
X114291430Y-101425592D01*
X114577144Y-101425592D01*
X114672382Y-101473211D01*
X114720001Y-101520830D01*
X114767620Y-101616068D01*
X114767620Y-101806544D01*
X114720001Y-101901782D01*
X114100954Y-101092259D02*
X114767620Y-100901782D01*
X114291430Y-100711306D01*
X114767620Y-100520830D01*
X114100954Y-100330354D01*
X114767620Y-99949401D02*
X114100954Y-99949401D01*
X114196192Y-99949401D02*
X114148573Y-99901782D01*
X114100954Y-99806544D01*
X114100954Y-99663687D01*
X114148573Y-99568449D01*
X114243811Y-99520830D01*
X114767620Y-99520830D01*
X114243811Y-99520830D02*
X114148573Y-99473211D01*
X114100954Y-99377973D01*
X114100954Y-99235116D01*
X114148573Y-99139878D01*
X114243811Y-99092259D01*
X114767620Y-99092259D01*
X114767620Y-97854163D02*
X114100954Y-97854163D01*
X113767620Y-97854163D02*
X113815240Y-97901782D01*
X113862859Y-97854163D01*
X113815240Y-97806544D01*
X113767620Y-97854163D01*
X113862859Y-97854163D01*
X114100954Y-97377973D02*
X114767620Y-97377973D01*
X114196192Y-97377973D02*
X114148573Y-97330354D01*
X114100954Y-97235116D01*
X114100954Y-97092259D01*
X114148573Y-96997020D01*
X114243811Y-96949401D01*
X114767620Y-96949401D01*
X114100954Y-96473211D02*
X115100954Y-96473211D01*
X114148573Y-96473211D02*
X114100954Y-96377973D01*
X114100954Y-96187497D01*
X114148573Y-96092259D01*
X114196192Y-96044640D01*
X114291430Y-95997020D01*
X114577144Y-95997020D01*
X114672382Y-96044640D01*
X114720001Y-96092259D01*
X114767620Y-96187497D01*
X114767620Y-96377973D01*
X114720001Y-96473211D01*
X114100954Y-95139878D02*
X114767620Y-95139878D01*
X114100954Y-95568449D02*
X114624763Y-95568449D01*
X114720001Y-95520830D01*
X114767620Y-95425592D01*
X114767620Y-95282735D01*
X114720001Y-95187497D01*
X114672382Y-95139878D01*
X114100954Y-94806544D02*
X114100954Y-94425592D01*
X113767620Y-94663687D02*
X114624763Y-94663687D01*
X114720001Y-94616068D01*
X114767620Y-94520830D01*
X114767620Y-94425592D01*
X114720001Y-92901782D02*
X114767620Y-92997020D01*
X114767620Y-93187497D01*
X114720001Y-93282735D01*
X114672382Y-93330354D01*
X114577144Y-93377973D01*
X114291430Y-93377973D01*
X114196192Y-93330354D01*
X114148573Y-93282735D01*
X114100954Y-93187497D01*
X114100954Y-92997020D01*
X114148573Y-92901782D01*
X114767620Y-92330354D02*
X114720001Y-92425592D01*
X114672382Y-92473211D01*
X114577144Y-92520830D01*
X114291430Y-92520830D01*
X114196192Y-92473211D01*
X114148573Y-92425592D01*
X114100954Y-92330354D01*
X114100954Y-92187497D01*
X114148573Y-92092259D01*
X114196192Y-92044640D01*
X114291430Y-91997020D01*
X114577144Y-91997020D01*
X114672382Y-92044640D01*
X114720001Y-92092259D01*
X114767620Y-92187497D01*
X114767620Y-92330354D01*
X114100954Y-91568449D02*
X114767620Y-91568449D01*
X114196192Y-91568449D02*
X114148573Y-91520830D01*
X114100954Y-91425592D01*
X114100954Y-91282735D01*
X114148573Y-91187497D01*
X114243811Y-91139878D01*
X114767620Y-91139878D01*
X114100954Y-90806544D02*
X114100954Y-90425592D01*
X114767620Y-90663687D02*
X113910478Y-90663687D01*
X113815240Y-90616068D01*
X113767620Y-90520830D01*
X113767620Y-90425592D01*
X114767620Y-90092259D02*
X114100954Y-90092259D01*
X113767620Y-90092259D02*
X113815240Y-90139878D01*
X113862859Y-90092259D01*
X113815240Y-90044640D01*
X113767620Y-90092259D01*
X113862859Y-90092259D01*
X114100954Y-89187497D02*
X114910478Y-89187497D01*
X115005716Y-89235116D01*
X115053335Y-89282735D01*
X115100954Y-89377973D01*
X115100954Y-89520830D01*
X115053335Y-89616068D01*
X114720001Y-89187497D02*
X114767620Y-89282735D01*
X114767620Y-89473211D01*
X114720001Y-89568449D01*
X114672382Y-89616068D01*
X114577144Y-89663687D01*
X114291430Y-89663687D01*
X114196192Y-89616068D01*
X114148573Y-89568449D01*
X114100954Y-89473211D01*
X114100954Y-89282735D01*
X114148573Y-89187497D01*
X108489500Y-93167817D02*
X108489500Y-93644007D01*
X108965691Y-93691626D01*
X108918072Y-93644007D01*
X108870453Y-93548769D01*
X108870453Y-93310674D01*
X108918072Y-93215436D01*
X108965691Y-93167817D01*
X109060929Y-93120198D01*
X109299024Y-93120198D01*
X109394262Y-93167817D01*
X109441881Y-93215436D01*
X109489500Y-93310674D01*
X109489500Y-93548769D01*
X109441881Y-93644007D01*
X109394262Y-93691626D01*
X108822834Y-92786864D02*
X109489500Y-92548769D01*
X108822834Y-92310674D01*
X108568240Y-102855377D02*
X108568240Y-103331567D01*
X109044431Y-103379186D01*
X108996812Y-103331567D01*
X108949193Y-103236329D01*
X108949193Y-102998234D01*
X108996812Y-102902996D01*
X109044431Y-102855377D01*
X109139669Y-102807758D01*
X109377764Y-102807758D01*
X109473002Y-102855377D01*
X109520621Y-102902996D01*
X109568240Y-102998234D01*
X109568240Y-103236329D01*
X109520621Y-103331567D01*
X109473002Y-103379186D01*
X108901574Y-102474424D02*
X109568240Y-102236329D01*
X108901574Y-101998234D01*
X108626660Y-98387991D02*
X108626660Y-97768943D01*
X109007613Y-98102277D01*
X109007613Y-97959420D01*
X109055232Y-97864181D01*
X109102851Y-97816562D01*
X109198089Y-97768943D01*
X109436184Y-97768943D01*
X109531422Y-97816562D01*
X109579041Y-97864181D01*
X109626660Y-97959420D01*
X109626660Y-98245134D01*
X109579041Y-98340372D01*
X109531422Y-98387991D01*
X109531422Y-97340372D02*
X109579041Y-97292753D01*
X109626660Y-97340372D01*
X109579041Y-97387991D01*
X109531422Y-97340372D01*
X109626660Y-97340372D01*
X108626660Y-96959420D02*
X108626660Y-96340372D01*
X109007613Y-96673705D01*
X109007613Y-96530848D01*
X109055232Y-96435610D01*
X109102851Y-96387991D01*
X109198089Y-96340372D01*
X109436184Y-96340372D01*
X109531422Y-96387991D01*
X109579041Y-96435610D01*
X109626660Y-96530848D01*
X109626660Y-96816562D01*
X109579041Y-96911800D01*
X109531422Y-96959420D01*
X108959994Y-96007039D02*
X109626660Y-95768943D01*
X108959994Y-95530848D01*
X108438700Y-88789331D02*
X108438700Y-88170283D01*
X108819653Y-88503617D01*
X108819653Y-88360760D01*
X108867272Y-88265521D01*
X108914891Y-88217902D01*
X109010129Y-88170283D01*
X109248224Y-88170283D01*
X109343462Y-88217902D01*
X109391081Y-88265521D01*
X109438700Y-88360760D01*
X109438700Y-88646474D01*
X109391081Y-88741712D01*
X109343462Y-88789331D01*
X109343462Y-87741712D02*
X109391081Y-87694093D01*
X109438700Y-87741712D01*
X109391081Y-87789331D01*
X109343462Y-87741712D01*
X109438700Y-87741712D01*
X108438700Y-87360760D02*
X108438700Y-86741712D01*
X108819653Y-87075045D01*
X108819653Y-86932188D01*
X108867272Y-86836950D01*
X108914891Y-86789331D01*
X109010129Y-86741712D01*
X109248224Y-86741712D01*
X109343462Y-86789331D01*
X109391081Y-86836950D01*
X109438700Y-86932188D01*
X109438700Y-87217902D01*
X109391081Y-87313140D01*
X109343462Y-87360760D01*
X108772034Y-86408379D02*
X109438700Y-86170283D01*
X108772034Y-85932188D01*
X136304667Y-94348300D02*
G75*
G03X136304667Y-94348300I-531507J0D01*
G01*
X125060087Y-94226380D02*
G75*
G03X125060087Y-94226380I-531507J0D01*
G01*
D11*
G04 #@! TO.C,U2*
X136775000Y-93175000D02*
X136775000Y-91775000D01*
X131675000Y-93175000D02*
X131675000Y-97325000D01*
X136825000Y-93175000D02*
X136825000Y-97325000D01*
X131675000Y-93175000D02*
X131820000Y-93175000D01*
X131675000Y-97325000D02*
X131820000Y-97325000D01*
X136825000Y-97325000D02*
X136680000Y-97325000D01*
X136825000Y-93175000D02*
X136775000Y-93175000D01*
D12*
G04 #@! TO.C,R16*
X138796300Y-98796267D02*
X138796300Y-98453733D01*
X139816300Y-98796267D02*
X139816300Y-98453733D01*
G04 #@! TO.C,D2*
X128736280Y-112339020D02*
X128736280Y-108039020D01*
X126736280Y-112339020D02*
X128736280Y-112339020D01*
X126736280Y-108039020D02*
X126736280Y-112339020D01*
G04 #@! TO.C,J2*
X125760000Y-112660000D02*
X125760000Y-106690000D01*
X125760000Y-106690000D02*
X115640000Y-106690000D01*
X115640000Y-106690000D02*
X115640000Y-112660000D01*
X115640000Y-112660000D02*
X125760000Y-112660000D01*
X122450000Y-112650000D02*
X122450000Y-111900000D01*
X122450000Y-111900000D02*
X118950000Y-111900000D01*
X118950000Y-111900000D02*
X118950000Y-112650000D01*
X118950000Y-112650000D02*
X122450000Y-112650000D01*
X125750000Y-112650000D02*
X125750000Y-111900000D01*
X125750000Y-111900000D02*
X123950000Y-111900000D01*
X123950000Y-111900000D02*
X123950000Y-112650000D01*
X123950000Y-112650000D02*
X125750000Y-112650000D01*
X117450000Y-112650000D02*
X117450000Y-111900000D01*
X117450000Y-111900000D02*
X115650000Y-111900000D01*
X115650000Y-111900000D02*
X115650000Y-112650000D01*
X115650000Y-112650000D02*
X117450000Y-112650000D01*
X125750000Y-110400000D02*
X125000000Y-110400000D01*
X125000000Y-110400000D02*
X125000000Y-107450000D01*
X125000000Y-107450000D02*
X120700000Y-107450000D01*
X115650000Y-110400000D02*
X116400000Y-110400000D01*
X116400000Y-110400000D02*
X116400000Y-107450000D01*
X116400000Y-107450000D02*
X120700000Y-107450000D01*
X124800000Y-112950000D02*
X126050000Y-112950000D01*
X126050000Y-112950000D02*
X126050000Y-111700000D01*
G04 #@! TO.C,C1*
X126806280Y-87801204D02*
X126806280Y-86597076D01*
X128626280Y-87801204D02*
X128626280Y-86597076D01*
G04 #@! TO.C,C2*
X121148760Y-87801204D02*
X121148760Y-86597076D01*
X119328760Y-87801204D02*
X119328760Y-86597076D01*
G04 #@! TO.C,C3*
X121148760Y-102172936D02*
X121148760Y-103377064D01*
X119328760Y-102172936D02*
X119328760Y-103377064D01*
G04 #@! TO.C,C4*
X126806280Y-102172936D02*
X126806280Y-103377064D01*
X128626280Y-102172936D02*
X128626280Y-103377064D01*
G04 #@! TO.C,J1*
X115350000Y-77250000D02*
X115350000Y-78500000D01*
X116600000Y-77250000D02*
X115350000Y-77250000D01*
X125000000Y-82750000D02*
X120700000Y-82750000D01*
X125000000Y-79800000D02*
X125000000Y-82750000D01*
X125750000Y-79800000D02*
X125000000Y-79800000D01*
X116400000Y-82750000D02*
X120700000Y-82750000D01*
X116400000Y-79800000D02*
X116400000Y-82750000D01*
X115650000Y-79800000D02*
X116400000Y-79800000D01*
X125750000Y-77550000D02*
X123950000Y-77550000D01*
X125750000Y-78300000D02*
X125750000Y-77550000D01*
X123950000Y-78300000D02*
X125750000Y-78300000D01*
X123950000Y-77550000D02*
X123950000Y-78300000D01*
X117450000Y-77550000D02*
X115650000Y-77550000D01*
X117450000Y-78300000D02*
X117450000Y-77550000D01*
X115650000Y-78300000D02*
X117450000Y-78300000D01*
X115650000Y-77550000D02*
X115650000Y-78300000D01*
X122450000Y-77550000D02*
X118950000Y-77550000D01*
X122450000Y-78300000D02*
X122450000Y-77550000D01*
X118950000Y-78300000D02*
X122450000Y-78300000D01*
X118950000Y-77550000D02*
X118950000Y-78300000D01*
X125760000Y-77540000D02*
X115640000Y-77540000D01*
X125760000Y-83510000D02*
X125760000Y-77540000D01*
X115640000Y-83510000D02*
X125760000Y-83510000D01*
X115640000Y-77540000D02*
X115640000Y-83510000D01*
G04 #@! TO.C,J3*
X135822360Y-77540000D02*
X135822360Y-83510000D01*
X135822360Y-83510000D02*
X148442360Y-83510000D01*
X148442360Y-83510000D02*
X148442360Y-77540000D01*
X148442360Y-77540000D02*
X135822360Y-77540000D01*
X139132360Y-77550000D02*
X139132360Y-78300000D01*
X139132360Y-78300000D02*
X145132360Y-78300000D01*
X145132360Y-78300000D02*
X145132360Y-77550000D01*
X145132360Y-77550000D02*
X139132360Y-77550000D01*
X135832360Y-77550000D02*
X135832360Y-78300000D01*
X135832360Y-78300000D02*
X137632360Y-78300000D01*
X137632360Y-78300000D02*
X137632360Y-77550000D01*
X137632360Y-77550000D02*
X135832360Y-77550000D01*
X146632360Y-77550000D02*
X146632360Y-78300000D01*
X146632360Y-78300000D02*
X148432360Y-78300000D01*
X148432360Y-78300000D02*
X148432360Y-77550000D01*
X148432360Y-77550000D02*
X146632360Y-77550000D01*
X135832360Y-79800000D02*
X136582360Y-79800000D01*
X136582360Y-79800000D02*
X136582360Y-82750000D01*
X136582360Y-82750000D02*
X142132360Y-82750000D01*
X148432360Y-79800000D02*
X147682360Y-79800000D01*
X147682360Y-79800000D02*
X147682360Y-82750000D01*
X147682360Y-82750000D02*
X142132360Y-82750000D01*
X136782360Y-77250000D02*
X135532360Y-77250000D01*
X135532360Y-77250000D02*
X135532360Y-78500000D01*
G04 #@! TO.C,J4*
X148750000Y-112950000D02*
X148750000Y-111700000D01*
X147500000Y-112950000D02*
X148750000Y-112950000D01*
X136600000Y-107450000D02*
X142150000Y-107450000D01*
X136600000Y-110400000D02*
X136600000Y-107450000D01*
X135850000Y-110400000D02*
X136600000Y-110400000D01*
X147700000Y-107450000D02*
X142150000Y-107450000D01*
X147700000Y-110400000D02*
X147700000Y-107450000D01*
X148450000Y-110400000D02*
X147700000Y-110400000D01*
X135850000Y-112650000D02*
X137650000Y-112650000D01*
X135850000Y-111900000D02*
X135850000Y-112650000D01*
X137650000Y-111900000D02*
X135850000Y-111900000D01*
X137650000Y-112650000D02*
X137650000Y-111900000D01*
X146650000Y-112650000D02*
X148450000Y-112650000D01*
X146650000Y-111900000D02*
X146650000Y-112650000D01*
X148450000Y-111900000D02*
X146650000Y-111900000D01*
X148450000Y-112650000D02*
X148450000Y-111900000D01*
X139150000Y-112650000D02*
X145150000Y-112650000D01*
X139150000Y-111900000D02*
X139150000Y-112650000D01*
X145150000Y-111900000D02*
X139150000Y-111900000D01*
X145150000Y-112650000D02*
X145150000Y-111900000D01*
X135840000Y-112660000D02*
X148460000Y-112660000D01*
X135840000Y-106690000D02*
X135840000Y-112660000D01*
X148460000Y-106690000D02*
X135840000Y-106690000D01*
X148460000Y-112660000D02*
X148460000Y-106690000D01*
G04 #@! TO.C,R1*
X115990000Y-87027873D02*
X115990000Y-87370407D01*
X117010000Y-87027873D02*
X117010000Y-87370407D01*
G04 #@! TO.C,R2*
X115990000Y-102946267D02*
X115990000Y-102603733D01*
X117010000Y-102946267D02*
X117010000Y-102603733D01*
G04 #@! TO.C,R3*
X117664380Y-87370407D02*
X117664380Y-87027873D01*
X118684380Y-87370407D02*
X118684380Y-87027873D01*
G04 #@! TO.C,R4*
X117664380Y-102603733D02*
X117664380Y-102946267D01*
X118684380Y-102603733D02*
X118684380Y-102946267D01*
G04 #@! TO.C,R5*
X123467520Y-87370407D02*
X123467520Y-87027873D01*
X124487520Y-87370407D02*
X124487520Y-87027873D01*
G04 #@! TO.C,R6*
X121793140Y-102603733D02*
X121793140Y-102946267D01*
X122813140Y-102603733D02*
X122813140Y-102946267D01*
G04 #@! TO.C,R7*
X125141900Y-87027873D02*
X125141900Y-87370407D01*
X126161900Y-87027873D02*
X126161900Y-87370407D01*
G04 #@! TO.C,R8*
X125141900Y-102946267D02*
X125141900Y-102603733D01*
X126161900Y-102946267D02*
X126161900Y-102603733D01*
G04 #@! TO.C,R9*
X131422680Y-87386007D02*
X131422680Y-87043473D01*
X132442680Y-87386007D02*
X132442680Y-87043473D01*
G04 #@! TO.C,R10*
X131422680Y-102603733D02*
X131422680Y-102946267D01*
X132442680Y-102603733D02*
X132442680Y-102946267D01*
G04 #@! TO.C,R11*
X133140000Y-87003733D02*
X133140000Y-87346267D01*
X134160000Y-87003733D02*
X134160000Y-87346267D01*
G04 #@! TO.C,R12*
X134790000Y-87346267D02*
X134790000Y-87003733D01*
X135810000Y-87346267D02*
X135810000Y-87003733D01*
G04 #@! TO.C,R13*
X133140000Y-102946267D02*
X133140000Y-102603733D01*
X134160000Y-102946267D02*
X134160000Y-102603733D01*
G04 #@! TO.C,R14*
X134745000Y-102603733D02*
X134745000Y-102946267D01*
X135765000Y-102603733D02*
X135765000Y-102946267D01*
G04 #@! TO.C,R15*
X140457460Y-90246353D02*
X140457460Y-90588887D01*
X141477460Y-90246353D02*
X141477460Y-90588887D01*
G04 #@! TO.C,R17*
X139816300Y-90246353D02*
X139816300Y-90588887D01*
X138796300Y-90246353D02*
X138796300Y-90588887D01*
G04 #@! TO.C,R18*
X141477460Y-98796267D02*
X141477460Y-98453733D01*
X140457460Y-98796267D02*
X140457460Y-98453733D01*
D13*
G04 #@! TO.C,VR1*
X130022200Y-78145940D02*
X133141320Y-78145940D01*
X130022200Y-79050180D02*
X130022200Y-78145940D01*
X130022200Y-82154060D02*
X133141320Y-82154060D01*
X130022200Y-81249820D02*
X130022200Y-82154060D01*
G04 #@! TO.C,VR2*
X130022200Y-110507780D02*
X130022200Y-111412020D01*
X130022200Y-111412020D02*
X133141320Y-111412020D01*
X130022200Y-108308140D02*
X130022200Y-107403900D01*
X130022200Y-107403900D02*
X133141320Y-107403900D01*
D12*
G04 #@! TO.C,D1*
X128696280Y-82072420D02*
X128696280Y-77772420D01*
X128696280Y-77772420D02*
X126696280Y-77772420D01*
X126696280Y-77772420D02*
X126696280Y-82072420D01*
G04 #@! TO.C,D3*
X141153000Y-85234380D02*
X141153000Y-88094380D01*
X141153000Y-88094380D02*
X143073000Y-88094380D01*
X143073000Y-88094380D02*
X143073000Y-85234380D01*
G04 #@! TO.C,D4*
X141890000Y-101915000D02*
X141890000Y-104775000D01*
X143810000Y-101915000D02*
X141890000Y-101915000D01*
X143810000Y-104775000D02*
X143810000Y-101915000D01*
D14*
G04 #@! TO.C,REF\002A\002A*
G36*
X147927848Y-94584750D02*
X147928278Y-94506206D01*
X147929442Y-94449362D01*
X147931707Y-94410555D01*
X147935440Y-94386122D01*
X147941006Y-94372398D01*
X147948773Y-94365720D01*
X147959105Y-94362424D01*
X147960443Y-94362104D01*
X147984579Y-94357098D01*
X148032201Y-94347831D01*
X148098241Y-94335268D01*
X148177628Y-94320373D01*
X148265296Y-94304109D01*
X148268375Y-94303541D01*
X148354289Y-94287250D01*
X148430196Y-94272008D01*
X148491545Y-94258799D01*
X148533782Y-94248606D01*
X148552355Y-94242412D01*
X148552684Y-94242117D01*
X148561753Y-94223872D01*
X148576867Y-94186255D01*
X148594762Y-94137389D01*
X148594858Y-94137117D01*
X148617993Y-94075567D01*
X148647465Y-94003003D01*
X148677097Y-93934603D01*
X148678562Y-93931366D01*
X148729126Y-93819958D01*
X148560660Y-93573261D01*
X148509303Y-93497583D01*
X148463389Y-93429029D01*
X148425530Y-93371572D01*
X148398337Y-93329184D01*
X148384421Y-93305835D01*
X148383389Y-93303618D01*
X148387984Y-93286650D01*
X148410155Y-93254959D01*
X148450947Y-93207308D01*
X148511405Y-93142462D01*
X148575727Y-93076263D01*
X148639112Y-93012446D01*
X148696951Y-92955331D01*
X148745675Y-92908355D01*
X148781710Y-92874957D01*
X148801484Y-92858575D01*
X148802502Y-92857966D01*
X148816072Y-92856155D01*
X148838233Y-92862977D01*
X148871978Y-92880120D01*
X148920300Y-92909267D01*
X148986192Y-92952105D01*
X149071017Y-93009212D01*
X149145677Y-93059894D01*
X149212640Y-93105199D01*
X149268016Y-93142510D01*
X149307920Y-93169208D01*
X149328462Y-93182675D01*
X149329856Y-93183523D01*
X149349538Y-93181879D01*
X149387793Y-93169415D01*
X149437389Y-93148612D01*
X149453228Y-93141198D01*
X149523790Y-93108846D01*
X149603853Y-93074332D01*
X149673129Y-93046295D01*
X149724545Y-93026092D01*
X149763619Y-93010045D01*
X149784041Y-93000772D01*
X149785614Y-92999619D01*
X149788221Y-92982564D01*
X149795363Y-92942362D01*
X149806023Y-92884358D01*
X149819185Y-92813897D01*
X149833833Y-92736325D01*
X149848949Y-92656988D01*
X149863518Y-92581229D01*
X149876522Y-92514396D01*
X149886945Y-92461832D01*
X149893770Y-92428884D01*
X149895699Y-92420803D01*
X149900462Y-92412455D01*
X149911218Y-92406154D01*
X149931598Y-92401615D01*
X149965234Y-92398556D01*
X150015755Y-92396693D01*
X150086792Y-92395742D01*
X150181976Y-92395420D01*
X150220992Y-92395403D01*
X150538299Y-92395403D01*
X150553339Y-92471603D01*
X150561495Y-92513997D01*
X150573399Y-92577260D01*
X150587616Y-92653698D01*
X150602710Y-92735617D01*
X150606855Y-92758260D01*
X150621553Y-92833854D01*
X150636005Y-92899707D01*
X150648875Y-92950294D01*
X150658822Y-92980086D01*
X150661787Y-92985048D01*
X150682783Y-92997234D01*
X150723467Y-93014707D01*
X150775822Y-93034083D01*
X150787100Y-93037926D01*
X150857023Y-93063321D01*
X150935918Y-93094843D01*
X151006766Y-93125691D01*
X151007095Y-93125843D01*
X151118233Y-93177213D01*
X151366753Y-93008261D01*
X151615272Y-92839308D01*
X151832558Y-93056231D01*
X151897226Y-93121841D01*
X151954233Y-93181681D01*
X152000533Y-93232393D01*
X152033084Y-93270614D01*
X152048843Y-93292985D01*
X152049843Y-93296194D01*
X152041969Y-93315034D01*
X152020078Y-93353480D01*
X151986767Y-93407330D01*
X151944631Y-93472384D01*
X151897443Y-93542720D01*
X151849310Y-93614105D01*
X151807428Y-93677752D01*
X151774371Y-93729619D01*
X151752718Y-93765665D01*
X151745043Y-93781793D01*
X151751537Y-93801471D01*
X151768650Y-93838785D01*
X151792826Y-93886039D01*
X151795513Y-93891048D01*
X151827427Y-93954683D01*
X151843079Y-93998319D01*
X151843245Y-94025458D01*
X151828704Y-94039603D01*
X151828500Y-94039685D01*
X151811279Y-94046755D01*
X151770399Y-94063618D01*
X151709025Y-94088965D01*
X151630319Y-94121489D01*
X151537447Y-94159882D01*
X151433572Y-94202838D01*
X151333002Y-94244438D01*
X151222016Y-94290156D01*
X151119203Y-94332134D01*
X151027715Y-94369112D01*
X150950701Y-94399833D01*
X150891315Y-94423038D01*
X150852709Y-94437470D01*
X150838300Y-94441917D01*
X150821772Y-94430764D01*
X150795430Y-94401591D01*
X150766387Y-94362689D01*
X150674539Y-94251903D01*
X150569259Y-94165309D01*
X150452766Y-94103944D01*
X150327276Y-94068845D01*
X150195007Y-94061052D01*
X150133957Y-94066717D01*
X150007295Y-94097582D01*
X149895441Y-94150740D01*
X149799501Y-94222893D01*
X149720576Y-94310743D01*
X149659770Y-94410995D01*
X149618187Y-94520350D01*
X149596928Y-94635513D01*
X149597099Y-94753185D01*
X149619801Y-94870070D01*
X149666138Y-94982871D01*
X149737213Y-95088291D01*
X149777411Y-95132292D01*
X149880629Y-95216681D01*
X149993425Y-95275438D01*
X150112510Y-95308956D01*
X150234595Y-95317625D01*
X150356393Y-95301837D01*
X150474616Y-95261982D01*
X150585975Y-95198453D01*
X150687184Y-95111639D01*
X150766387Y-95014631D01*
X150796662Y-94974223D01*
X150822719Y-94945678D01*
X150838325Y-94935403D01*
X150855343Y-94940783D01*
X150896000Y-94956085D01*
X150957142Y-94980048D01*
X151035619Y-95011416D01*
X151128280Y-95048928D01*
X151231972Y-95091327D01*
X151333026Y-95132997D01*
X151444107Y-95178970D01*
X151547041Y-95221553D01*
X151638665Y-95259439D01*
X151715816Y-95291320D01*
X151775331Y-95315889D01*
X151814044Y-95331840D01*
X151828500Y-95337750D01*
X151843185Y-95351712D01*
X151843142Y-95378720D01*
X151827599Y-95422247D01*
X151795784Y-95485770D01*
X151795513Y-95486272D01*
X151770823Y-95534100D01*
X151752838Y-95572763D01*
X151745114Y-95594565D01*
X151745043Y-95595527D01*
X151752878Y-95611939D01*
X151774665Y-95648173D01*
X151807828Y-95700186D01*
X151849791Y-95763935D01*
X151897443Y-95834600D01*
X151945691Y-95906544D01*
X151987651Y-95971386D01*
X152020727Y-96024925D01*
X152042321Y-96062963D01*
X152049843Y-96081127D01*
X152039957Y-96097852D01*
X152012326Y-96131480D01*
X151969995Y-96178650D01*
X151916005Y-96236002D01*
X151853399Y-96300176D01*
X151832483Y-96321163D01*
X151615123Y-96538161D01*
X151372720Y-96372992D01*
X151298281Y-96322796D01*
X151231472Y-96278741D01*
X151176165Y-96243298D01*
X151136229Y-96218941D01*
X151115536Y-96208138D01*
X151114063Y-96207822D01*
X151094558Y-96213517D01*
X151055322Y-96228834D01*
X151002930Y-96251123D01*
X150967855Y-96266767D01*
X150900701Y-96296019D01*
X150832858Y-96323566D01*
X150775534Y-96344923D01*
X150758072Y-96350725D01*
X150711438Y-96367208D01*
X150675405Y-96383320D01*
X150661787Y-96392170D01*
X150653452Y-96411700D01*
X150641637Y-96454326D01*
X150627681Y-96514515D01*
X150612922Y-96586738D01*
X150606855Y-96619060D01*
X150591773Y-96701138D01*
X150577169Y-96779865D01*
X150564480Y-96847551D01*
X150555142Y-96896500D01*
X150553339Y-96905717D01*
X150538299Y-96981917D01*
X150220992Y-96981917D01*
X150116654Y-96981746D01*
X150037713Y-96981044D01*
X149980538Y-96979526D01*
X149941499Y-96976911D01*
X149916965Y-96972914D01*
X149903305Y-96967251D01*
X149896889Y-96959640D01*
X149895699Y-96956517D01*
X149891480Y-96937682D01*
X149883062Y-96896072D01*
X149871461Y-96837030D01*
X149857695Y-96765903D01*
X149842780Y-96688035D01*
X149827732Y-96608773D01*
X149813569Y-96533462D01*
X149801306Y-96467447D01*
X149791961Y-96416073D01*
X149786550Y-96384685D01*
X149785614Y-96377701D01*
X149773096Y-96371375D01*
X149739746Y-96357370D01*
X149691877Y-96338305D01*
X149673129Y-96331026D01*
X149600695Y-96301664D01*
X149520670Y-96267089D01*
X149453228Y-96236123D01*
X149401659Y-96213337D01*
X149359285Y-96198178D01*
X149333334Y-96193118D01*
X149329856Y-96193924D01*
X149313436Y-96204619D01*
X149276917Y-96229040D01*
X149224187Y-96264565D01*
X149159135Y-96308573D01*
X149085651Y-96358443D01*
X149071145Y-96368304D01*
X148985204Y-96426168D01*
X148919761Y-96468704D01*
X148871804Y-96497606D01*
X148838320Y-96514570D01*
X148816295Y-96521293D01*
X148802717Y-96519470D01*
X148802631Y-96519424D01*
X148784797Y-96505074D01*
X148750317Y-96473337D01*
X148702768Y-96427650D01*
X148645722Y-96371456D01*
X148582755Y-96308192D01*
X148575727Y-96301058D01*
X148498520Y-96221330D01*
X148441830Y-96159803D01*
X148404610Y-96115239D01*
X148385815Y-96086403D01*
X148383389Y-96073702D01*
X148393971Y-96055166D01*
X148418416Y-96016699D01*
X148454112Y-95962274D01*
X148498447Y-95895862D01*
X148548811Y-95821435D01*
X148560660Y-95804059D01*
X148729126Y-95557363D01*
X148678562Y-95445954D01*
X148649095Y-95378203D01*
X148619459Y-95305477D01*
X148595830Y-95242957D01*
X148594858Y-95240203D01*
X148576957Y-95191300D01*
X148561820Y-95153603D01*
X148552710Y-95135235D01*
X148552684Y-95135204D01*
X148536217Y-95129375D01*
X148495719Y-95119468D01*
X148435742Y-95106465D01*
X148360840Y-95091351D01*
X148275564Y-95075108D01*
X148268375Y-95073779D01*
X148180514Y-95057485D01*
X148100760Y-95042527D01*
X148034181Y-95029869D01*
X147985847Y-95020474D01*
X147960825Y-95015306D01*
X147960443Y-95015216D01*
X147949799Y-95012071D01*
X147941762Y-95005956D01*
X147935967Y-94993207D01*
X147932047Y-94970160D01*
X147929635Y-94933151D01*
X147928365Y-94878516D01*
X147927871Y-94802593D01*
X147927786Y-94701716D01*
X147927786Y-94688660D01*
X147927848Y-94584750D01*
X147927848Y-94584750D01*
G37*
X147927848Y-94584750D02*
X147928278Y-94506206D01*
X147929442Y-94449362D01*
X147931707Y-94410555D01*
X147935440Y-94386122D01*
X147941006Y-94372398D01*
X147948773Y-94365720D01*
X147959105Y-94362424D01*
X147960443Y-94362104D01*
X147984579Y-94357098D01*
X148032201Y-94347831D01*
X148098241Y-94335268D01*
X148177628Y-94320373D01*
X148265296Y-94304109D01*
X148268375Y-94303541D01*
X148354289Y-94287250D01*
X148430196Y-94272008D01*
X148491545Y-94258799D01*
X148533782Y-94248606D01*
X148552355Y-94242412D01*
X148552684Y-94242117D01*
X148561753Y-94223872D01*
X148576867Y-94186255D01*
X148594762Y-94137389D01*
X148594858Y-94137117D01*
X148617993Y-94075567D01*
X148647465Y-94003003D01*
X148677097Y-93934603D01*
X148678562Y-93931366D01*
X148729126Y-93819958D01*
X148560660Y-93573261D01*
X148509303Y-93497583D01*
X148463389Y-93429029D01*
X148425530Y-93371572D01*
X148398337Y-93329184D01*
X148384421Y-93305835D01*
X148383389Y-93303618D01*
X148387984Y-93286650D01*
X148410155Y-93254959D01*
X148450947Y-93207308D01*
X148511405Y-93142462D01*
X148575727Y-93076263D01*
X148639112Y-93012446D01*
X148696951Y-92955331D01*
X148745675Y-92908355D01*
X148781710Y-92874957D01*
X148801484Y-92858575D01*
X148802502Y-92857966D01*
X148816072Y-92856155D01*
X148838233Y-92862977D01*
X148871978Y-92880120D01*
X148920300Y-92909267D01*
X148986192Y-92952105D01*
X149071017Y-93009212D01*
X149145677Y-93059894D01*
X149212640Y-93105199D01*
X149268016Y-93142510D01*
X149307920Y-93169208D01*
X149328462Y-93182675D01*
X149329856Y-93183523D01*
X149349538Y-93181879D01*
X149387793Y-93169415D01*
X149437389Y-93148612D01*
X149453228Y-93141198D01*
X149523790Y-93108846D01*
X149603853Y-93074332D01*
X149673129Y-93046295D01*
X149724545Y-93026092D01*
X149763619Y-93010045D01*
X149784041Y-93000772D01*
X149785614Y-92999619D01*
X149788221Y-92982564D01*
X149795363Y-92942362D01*
X149806023Y-92884358D01*
X149819185Y-92813897D01*
X149833833Y-92736325D01*
X149848949Y-92656988D01*
X149863518Y-92581229D01*
X149876522Y-92514396D01*
X149886945Y-92461832D01*
X149893770Y-92428884D01*
X149895699Y-92420803D01*
X149900462Y-92412455D01*
X149911218Y-92406154D01*
X149931598Y-92401615D01*
X149965234Y-92398556D01*
X150015755Y-92396693D01*
X150086792Y-92395742D01*
X150181976Y-92395420D01*
X150220992Y-92395403D01*
X150538299Y-92395403D01*
X150553339Y-92471603D01*
X150561495Y-92513997D01*
X150573399Y-92577260D01*
X150587616Y-92653698D01*
X150602710Y-92735617D01*
X150606855Y-92758260D01*
X150621553Y-92833854D01*
X150636005Y-92899707D01*
X150648875Y-92950294D01*
X150658822Y-92980086D01*
X150661787Y-92985048D01*
X150682783Y-92997234D01*
X150723467Y-93014707D01*
X150775822Y-93034083D01*
X150787100Y-93037926D01*
X150857023Y-93063321D01*
X150935918Y-93094843D01*
X151006766Y-93125691D01*
X151007095Y-93125843D01*
X151118233Y-93177213D01*
X151366753Y-93008261D01*
X151615272Y-92839308D01*
X151832558Y-93056231D01*
X151897226Y-93121841D01*
X151954233Y-93181681D01*
X152000533Y-93232393D01*
X152033084Y-93270614D01*
X152048843Y-93292985D01*
X152049843Y-93296194D01*
X152041969Y-93315034D01*
X152020078Y-93353480D01*
X151986767Y-93407330D01*
X151944631Y-93472384D01*
X151897443Y-93542720D01*
X151849310Y-93614105D01*
X151807428Y-93677752D01*
X151774371Y-93729619D01*
X151752718Y-93765665D01*
X151745043Y-93781793D01*
X151751537Y-93801471D01*
X151768650Y-93838785D01*
X151792826Y-93886039D01*
X151795513Y-93891048D01*
X151827427Y-93954683D01*
X151843079Y-93998319D01*
X151843245Y-94025458D01*
X151828704Y-94039603D01*
X151828500Y-94039685D01*
X151811279Y-94046755D01*
X151770399Y-94063618D01*
X151709025Y-94088965D01*
X151630319Y-94121489D01*
X151537447Y-94159882D01*
X151433572Y-94202838D01*
X151333002Y-94244438D01*
X151222016Y-94290156D01*
X151119203Y-94332134D01*
X151027715Y-94369112D01*
X150950701Y-94399833D01*
X150891315Y-94423038D01*
X150852709Y-94437470D01*
X150838300Y-94441917D01*
X150821772Y-94430764D01*
X150795430Y-94401591D01*
X150766387Y-94362689D01*
X150674539Y-94251903D01*
X150569259Y-94165309D01*
X150452766Y-94103944D01*
X150327276Y-94068845D01*
X150195007Y-94061052D01*
X150133957Y-94066717D01*
X150007295Y-94097582D01*
X149895441Y-94150740D01*
X149799501Y-94222893D01*
X149720576Y-94310743D01*
X149659770Y-94410995D01*
X149618187Y-94520350D01*
X149596928Y-94635513D01*
X149597099Y-94753185D01*
X149619801Y-94870070D01*
X149666138Y-94982871D01*
X149737213Y-95088291D01*
X149777411Y-95132292D01*
X149880629Y-95216681D01*
X149993425Y-95275438D01*
X150112510Y-95308956D01*
X150234595Y-95317625D01*
X150356393Y-95301837D01*
X150474616Y-95261982D01*
X150585975Y-95198453D01*
X150687184Y-95111639D01*
X150766387Y-95014631D01*
X150796662Y-94974223D01*
X150822719Y-94945678D01*
X150838325Y-94935403D01*
X150855343Y-94940783D01*
X150896000Y-94956085D01*
X150957142Y-94980048D01*
X151035619Y-95011416D01*
X151128280Y-95048928D01*
X151231972Y-95091327D01*
X151333026Y-95132997D01*
X151444107Y-95178970D01*
X151547041Y-95221553D01*
X151638665Y-95259439D01*
X151715816Y-95291320D01*
X151775331Y-95315889D01*
X151814044Y-95331840D01*
X151828500Y-95337750D01*
X151843185Y-95351712D01*
X151843142Y-95378720D01*
X151827599Y-95422247D01*
X151795784Y-95485770D01*
X151795513Y-95486272D01*
X151770823Y-95534100D01*
X151752838Y-95572763D01*
X151745114Y-95594565D01*
X151745043Y-95595527D01*
X151752878Y-95611939D01*
X151774665Y-95648173D01*
X151807828Y-95700186D01*
X151849791Y-95763935D01*
X151897443Y-95834600D01*
X151945691Y-95906544D01*
X151987651Y-95971386D01*
X152020727Y-96024925D01*
X152042321Y-96062963D01*
X152049843Y-96081127D01*
X152039957Y-96097852D01*
X152012326Y-96131480D01*
X151969995Y-96178650D01*
X151916005Y-96236002D01*
X151853399Y-96300176D01*
X151832483Y-96321163D01*
X151615123Y-96538161D01*
X151372720Y-96372992D01*
X151298281Y-96322796D01*
X151231472Y-96278741D01*
X151176165Y-96243298D01*
X151136229Y-96218941D01*
X151115536Y-96208138D01*
X151114063Y-96207822D01*
X151094558Y-96213517D01*
X151055322Y-96228834D01*
X151002930Y-96251123D01*
X150967855Y-96266767D01*
X150900701Y-96296019D01*
X150832858Y-96323566D01*
X150775534Y-96344923D01*
X150758072Y-96350725D01*
X150711438Y-96367208D01*
X150675405Y-96383320D01*
X150661787Y-96392170D01*
X150653452Y-96411700D01*
X150641637Y-96454326D01*
X150627681Y-96514515D01*
X150612922Y-96586738D01*
X150606855Y-96619060D01*
X150591773Y-96701138D01*
X150577169Y-96779865D01*
X150564480Y-96847551D01*
X150555142Y-96896500D01*
X150553339Y-96905717D01*
X150538299Y-96981917D01*
X150220992Y-96981917D01*
X150116654Y-96981746D01*
X150037713Y-96981044D01*
X149980538Y-96979526D01*
X149941499Y-96976911D01*
X149916965Y-96972914D01*
X149903305Y-96967251D01*
X149896889Y-96959640D01*
X149895699Y-96956517D01*
X149891480Y-96937682D01*
X149883062Y-96896072D01*
X149871461Y-96837030D01*
X149857695Y-96765903D01*
X149842780Y-96688035D01*
X149827732Y-96608773D01*
X149813569Y-96533462D01*
X149801306Y-96467447D01*
X149791961Y-96416073D01*
X149786550Y-96384685D01*
X149785614Y-96377701D01*
X149773096Y-96371375D01*
X149739746Y-96357370D01*
X149691877Y-96338305D01*
X149673129Y-96331026D01*
X149600695Y-96301664D01*
X149520670Y-96267089D01*
X149453228Y-96236123D01*
X149401659Y-96213337D01*
X149359285Y-96198178D01*
X149333334Y-96193118D01*
X149329856Y-96193924D01*
X149313436Y-96204619D01*
X149276917Y-96229040D01*
X149224187Y-96264565D01*
X149159135Y-96308573D01*
X149085651Y-96358443D01*
X149071145Y-96368304D01*
X148985204Y-96426168D01*
X148919761Y-96468704D01*
X148871804Y-96497606D01*
X148838320Y-96514570D01*
X148816295Y-96521293D01*
X148802717Y-96519470D01*
X148802631Y-96519424D01*
X148784797Y-96505074D01*
X148750317Y-96473337D01*
X148702768Y-96427650D01*
X148645722Y-96371456D01*
X148582755Y-96308192D01*
X148575727Y-96301058D01*
X148498520Y-96221330D01*
X148441830Y-96159803D01*
X148404610Y-96115239D01*
X148385815Y-96086403D01*
X148383389Y-96073702D01*
X148393971Y-96055166D01*
X148418416Y-96016699D01*
X148454112Y-95962274D01*
X148498447Y-95895862D01*
X148548811Y-95821435D01*
X148560660Y-95804059D01*
X148729126Y-95557363D01*
X148678562Y-95445954D01*
X148649095Y-95378203D01*
X148619459Y-95305477D01*
X148595830Y-95242957D01*
X148594858Y-95240203D01*
X148576957Y-95191300D01*
X148561820Y-95153603D01*
X148552710Y-95135235D01*
X148552684Y-95135204D01*
X148536217Y-95129375D01*
X148495719Y-95119468D01*
X148435742Y-95106465D01*
X148360840Y-95091351D01*
X148275564Y-95075108D01*
X148268375Y-95073779D01*
X148180514Y-95057485D01*
X148100760Y-95042527D01*
X148034181Y-95029869D01*
X147985847Y-95020474D01*
X147960825Y-95015306D01*
X147960443Y-95015216D01*
X147949799Y-95012071D01*
X147941762Y-95005956D01*
X147935967Y-94993207D01*
X147932047Y-94970160D01*
X147929635Y-94933151D01*
X147928365Y-94878516D01*
X147927871Y-94802593D01*
X147927786Y-94701716D01*
X147927786Y-94688660D01*
X147927848Y-94584750D01*
G36*
X152652466Y-91535065D02*
X152689997Y-91477639D01*
X152723596Y-91449941D01*
X152784564Y-91427998D01*
X152832808Y-91426255D01*
X152897316Y-91430203D01*
X152962434Y-91578974D01*
X152995702Y-91651311D01*
X153022464Y-91698576D01*
X153045644Y-91723153D01*
X153068167Y-91727423D01*
X153092955Y-91713771D01*
X153109386Y-91698717D01*
X153135735Y-91654914D01*
X153137581Y-91607271D01*
X153117046Y-91563515D01*
X153076252Y-91531371D01*
X153061847Y-91525622D01*
X153016856Y-91498084D01*
X152997682Y-91466402D01*
X152981279Y-91422946D01*
X153043466Y-91422946D01*
X153085783Y-91426788D01*
X153121469Y-91441837D01*
X153162443Y-91473380D01*
X153167767Y-91478068D01*
X153204220Y-91513154D01*
X153223783Y-91543313D01*
X153232783Y-91581045D01*
X153235730Y-91612325D01*
X153236465Y-91668275D01*
X153227160Y-91708105D01*
X153213346Y-91732952D01*
X153182967Y-91772004D01*
X153150113Y-91799035D01*
X153108794Y-91816143D01*
X153053021Y-91825422D01*
X152976805Y-91828967D01*
X152938122Y-91829250D01*
X152891747Y-91828288D01*
X152891747Y-91740653D01*
X152916626Y-91739637D01*
X152920700Y-91737104D01*
X152915165Y-91720386D01*
X152900517Y-91684411D01*
X152879690Y-91636329D01*
X152875214Y-91626274D01*
X152844314Y-91565508D01*
X152817157Y-91532028D01*
X152791720Y-91524670D01*
X152765981Y-91542269D01*
X152754609Y-91556804D01*
X152731864Y-91609250D01*
X152735622Y-91658338D01*
X152763384Y-91699433D01*
X152812652Y-91727902D01*
X152851757Y-91737029D01*
X152891747Y-91740653D01*
X152891747Y-91828288D01*
X152847749Y-91827375D01*
X152780884Y-91820464D01*
X152732195Y-91806776D01*
X152696349Y-91784564D01*
X152668013Y-91752086D01*
X152658855Y-91737927D01*
X152635007Y-91673607D01*
X152633506Y-91603187D01*
X152652466Y-91535065D01*
X152652466Y-91535065D01*
G37*
X152652466Y-91535065D02*
X152689997Y-91477639D01*
X152723596Y-91449941D01*
X152784564Y-91427998D01*
X152832808Y-91426255D01*
X152897316Y-91430203D01*
X152962434Y-91578974D01*
X152995702Y-91651311D01*
X153022464Y-91698576D01*
X153045644Y-91723153D01*
X153068167Y-91727423D01*
X153092955Y-91713771D01*
X153109386Y-91698717D01*
X153135735Y-91654914D01*
X153137581Y-91607271D01*
X153117046Y-91563515D01*
X153076252Y-91531371D01*
X153061847Y-91525622D01*
X153016856Y-91498084D01*
X152997682Y-91466402D01*
X152981279Y-91422946D01*
X153043466Y-91422946D01*
X153085783Y-91426788D01*
X153121469Y-91441837D01*
X153162443Y-91473380D01*
X153167767Y-91478068D01*
X153204220Y-91513154D01*
X153223783Y-91543313D01*
X153232783Y-91581045D01*
X153235730Y-91612325D01*
X153236465Y-91668275D01*
X153227160Y-91708105D01*
X153213346Y-91732952D01*
X153182967Y-91772004D01*
X153150113Y-91799035D01*
X153108794Y-91816143D01*
X153053021Y-91825422D01*
X152976805Y-91828967D01*
X152938122Y-91829250D01*
X152891747Y-91828288D01*
X152891747Y-91740653D01*
X152916626Y-91739637D01*
X152920700Y-91737104D01*
X152915165Y-91720386D01*
X152900517Y-91684411D01*
X152879690Y-91636329D01*
X152875214Y-91626274D01*
X152844314Y-91565508D01*
X152817157Y-91532028D01*
X152791720Y-91524670D01*
X152765981Y-91542269D01*
X152754609Y-91556804D01*
X152731864Y-91609250D01*
X152735622Y-91658338D01*
X152763384Y-91699433D01*
X152812652Y-91727902D01*
X152851757Y-91737029D01*
X152891747Y-91740653D01*
X152891747Y-91828288D01*
X152847749Y-91827375D01*
X152780884Y-91820464D01*
X152732195Y-91806776D01*
X152696349Y-91784564D01*
X152668013Y-91752086D01*
X152658855Y-91737927D01*
X152635007Y-91673607D01*
X152633506Y-91603187D01*
X152652466Y-91535065D01*
G36*
X152644252Y-92036060D02*
X152651834Y-92018712D01*
X152684628Y-91977304D01*
X152732047Y-91941895D01*
X152782651Y-91919996D01*
X152807598Y-91916431D01*
X152842427Y-91928381D01*
X152860857Y-91954593D01*
X152872016Y-91982696D01*
X152874072Y-91995565D01*
X152859149Y-92001831D01*
X152826675Y-92014204D01*
X152812002Y-92019632D01*
X152761244Y-92050070D01*
X152735927Y-92094140D01*
X152736706Y-92150650D01*
X152737703Y-92154835D01*
X152752007Y-92185005D01*
X152779893Y-92207184D01*
X152824787Y-92222333D01*
X152890115Y-92231410D01*
X152979304Y-92235374D01*
X153026761Y-92235746D01*
X153101571Y-92235930D01*
X153152569Y-92237138D01*
X153184971Y-92240351D01*
X153203995Y-92246551D01*
X153214856Y-92256720D01*
X153222772Y-92271841D01*
X153223170Y-92272714D01*
X153235481Y-92301832D01*
X153240014Y-92316257D01*
X153226309Y-92318474D01*
X153188425Y-92320371D01*
X153131215Y-92321813D01*
X153059527Y-92322662D01*
X153007065Y-92322831D01*
X152905547Y-92321968D01*
X152828532Y-92318590D01*
X152771523Y-92311518D01*
X152730026Y-92299572D01*
X152699543Y-92281570D01*
X152675580Y-92256333D01*
X152658855Y-92231413D01*
X152636597Y-92171489D01*
X152631576Y-92101749D01*
X152644252Y-92036060D01*
X152644252Y-92036060D01*
G37*
X152644252Y-92036060D02*
X152651834Y-92018712D01*
X152684628Y-91977304D01*
X152732047Y-91941895D01*
X152782651Y-91919996D01*
X152807598Y-91916431D01*
X152842427Y-91928381D01*
X152860857Y-91954593D01*
X152872016Y-91982696D01*
X152874072Y-91995565D01*
X152859149Y-92001831D01*
X152826675Y-92014204D01*
X152812002Y-92019632D01*
X152761244Y-92050070D01*
X152735927Y-92094140D01*
X152736706Y-92150650D01*
X152737703Y-92154835D01*
X152752007Y-92185005D01*
X152779893Y-92207184D01*
X152824787Y-92222333D01*
X152890115Y-92231410D01*
X152979304Y-92235374D01*
X153026761Y-92235746D01*
X153101571Y-92235930D01*
X153152569Y-92237138D01*
X153184971Y-92240351D01*
X153203995Y-92246551D01*
X153214856Y-92256720D01*
X153222772Y-92271841D01*
X153223170Y-92272714D01*
X153235481Y-92301832D01*
X153240014Y-92316257D01*
X153226309Y-92318474D01*
X153188425Y-92320371D01*
X153131215Y-92321813D01*
X153059527Y-92322662D01*
X153007065Y-92322831D01*
X152905547Y-92321968D01*
X152828532Y-92318590D01*
X152771523Y-92311518D01*
X152730026Y-92299572D01*
X152699543Y-92281570D01*
X152675580Y-92256333D01*
X152658855Y-92231413D01*
X152636597Y-92171489D01*
X152631576Y-92101749D01*
X152644252Y-92036060D01*
G36*
X152641835Y-92543784D02*
X152660844Y-92501993D01*
X152683878Y-92469191D01*
X152709633Y-92445157D01*
X152742858Y-92428563D01*
X152788300Y-92418083D01*
X152850707Y-92412389D01*
X152934827Y-92410153D01*
X152990221Y-92409917D01*
X153206326Y-92409917D01*
X153223170Y-92446886D01*
X153235481Y-92476004D01*
X153240014Y-92490429D01*
X153226525Y-92493188D01*
X153190153Y-92495378D01*
X153137042Y-92496718D01*
X153094872Y-92497003D01*
X153033947Y-92498226D01*
X152985615Y-92501524D01*
X152956018Y-92506339D01*
X152949729Y-92510164D01*
X152956152Y-92535877D01*
X152972625Y-92576242D01*
X152994958Y-92622981D01*
X153018957Y-92667815D01*
X153040430Y-92702467D01*
X153055185Y-92718658D01*
X153055345Y-92718722D01*
X153082652Y-92717330D01*
X153108719Y-92704842D01*
X153129892Y-92682917D01*
X153136974Y-92650917D01*
X153136149Y-92623568D01*
X153135542Y-92584834D01*
X153144616Y-92564502D01*
X153168592Y-92552291D01*
X153173113Y-92550751D01*
X153207306Y-92545457D01*
X153228068Y-92559613D01*
X153237962Y-92596512D01*
X153239792Y-92636371D01*
X153226227Y-92708098D01*
X153206855Y-92745228D01*
X153161345Y-92791084D01*
X153105483Y-92815404D01*
X153046457Y-92817587D01*
X152991453Y-92797031D01*
X152956986Y-92766111D01*
X152937689Y-92735240D01*
X152913259Y-92686718D01*
X152888485Y-92630175D01*
X152884699Y-92620750D01*
X152857291Y-92558641D01*
X152833134Y-92522838D01*
X152809119Y-92511323D01*
X152782135Y-92522080D01*
X152761043Y-92540546D01*
X152735072Y-92584191D01*
X152733124Y-92632214D01*
X152753137Y-92676254D01*
X152793051Y-92707951D01*
X152803348Y-92712111D01*
X152841224Y-92736333D01*
X152869342Y-92771695D01*
X152892417Y-92816317D01*
X152826985Y-92816317D01*
X152787006Y-92813691D01*
X152755497Y-92802430D01*
X152721878Y-92777461D01*
X152695984Y-92753491D01*
X152659317Y-92716219D01*
X152639621Y-92687259D01*
X152631720Y-92656155D01*
X152630414Y-92620947D01*
X152641835Y-92543784D01*
X152641835Y-92543784D01*
G37*
X152641835Y-92543784D02*
X152660844Y-92501993D01*
X152683878Y-92469191D01*
X152709633Y-92445157D01*
X152742858Y-92428563D01*
X152788300Y-92418083D01*
X152850707Y-92412389D01*
X152934827Y-92410153D01*
X152990221Y-92409917D01*
X153206326Y-92409917D01*
X153223170Y-92446886D01*
X153235481Y-92476004D01*
X153240014Y-92490429D01*
X153226525Y-92493188D01*
X153190153Y-92495378D01*
X153137042Y-92496718D01*
X153094872Y-92497003D01*
X153033947Y-92498226D01*
X152985615Y-92501524D01*
X152956018Y-92506339D01*
X152949729Y-92510164D01*
X152956152Y-92535877D01*
X152972625Y-92576242D01*
X152994958Y-92622981D01*
X153018957Y-92667815D01*
X153040430Y-92702467D01*
X153055185Y-92718658D01*
X153055345Y-92718722D01*
X153082652Y-92717330D01*
X153108719Y-92704842D01*
X153129892Y-92682917D01*
X153136974Y-92650917D01*
X153136149Y-92623568D01*
X153135542Y-92584834D01*
X153144616Y-92564502D01*
X153168592Y-92552291D01*
X153173113Y-92550751D01*
X153207306Y-92545457D01*
X153228068Y-92559613D01*
X153237962Y-92596512D01*
X153239792Y-92636371D01*
X153226227Y-92708098D01*
X153206855Y-92745228D01*
X153161345Y-92791084D01*
X153105483Y-92815404D01*
X153046457Y-92817587D01*
X152991453Y-92797031D01*
X152956986Y-92766111D01*
X152937689Y-92735240D01*
X152913259Y-92686718D01*
X152888485Y-92630175D01*
X152884699Y-92620750D01*
X152857291Y-92558641D01*
X152833134Y-92522838D01*
X152809119Y-92511323D01*
X152782135Y-92522080D01*
X152761043Y-92540546D01*
X152735072Y-92584191D01*
X152733124Y-92632214D01*
X152753137Y-92676254D01*
X152793051Y-92707951D01*
X152803348Y-92712111D01*
X152841224Y-92736333D01*
X152869342Y-92771695D01*
X152892417Y-92816317D01*
X152826985Y-92816317D01*
X152787006Y-92813691D01*
X152755497Y-92802430D01*
X152721878Y-92777461D01*
X152695984Y-92753491D01*
X152659317Y-92716219D01*
X152639621Y-92687259D01*
X152631720Y-92656155D01*
X152630414Y-92620947D01*
X152641835Y-92543784D01*
G36*
X152644163Y-92908827D02*
X152682350Y-92906612D01*
X152740386Y-92904876D01*
X152813680Y-92903761D01*
X152890555Y-92903403D01*
X153150696Y-92903403D01*
X153196627Y-92949334D01*
X153224929Y-92980985D01*
X153236393Y-93008770D01*
X153235668Y-93046745D01*
X153233821Y-93061820D01*
X153228448Y-93108934D01*
X153225369Y-93147904D01*
X153225085Y-93157403D01*
X153226945Y-93189427D01*
X153231614Y-93235228D01*
X153233821Y-93252986D01*
X153237235Y-93296603D01*
X153229820Y-93325915D01*
X153206927Y-93354980D01*
X153196627Y-93365472D01*
X153150696Y-93411403D01*
X152664102Y-93411403D01*
X152647258Y-93374434D01*
X152634782Y-93342601D01*
X152630414Y-93323977D01*
X152644218Y-93319202D01*
X152682786Y-93314739D01*
X152741856Y-93310885D01*
X152817163Y-93307938D01*
X152880786Y-93306517D01*
X153131157Y-93302546D01*
X153136056Y-93267901D01*
X153132631Y-93236392D01*
X153121541Y-93220952D01*
X153100808Y-93216637D01*
X153056645Y-93212952D01*
X152994646Y-93210191D01*
X152920409Y-93208648D01*
X152882206Y-93208425D01*
X152662283Y-93208203D01*
X152646349Y-93162494D01*
X152635515Y-93130142D01*
X152630462Y-93112545D01*
X152630414Y-93112037D01*
X152644148Y-93110272D01*
X152682230Y-93108331D01*
X152739982Y-93106378D01*
X152812727Y-93104576D01*
X152880786Y-93103317D01*
X153131157Y-93099346D01*
X153131157Y-93012260D01*
X152902740Y-93008264D01*
X152674322Y-93004268D01*
X152652368Y-92961813D01*
X152637293Y-92930468D01*
X152630451Y-92911916D01*
X152630414Y-92911381D01*
X152644163Y-92908827D01*
X152644163Y-92908827D01*
G37*
X152644163Y-92908827D02*
X152682350Y-92906612D01*
X152740386Y-92904876D01*
X152813680Y-92903761D01*
X152890555Y-92903403D01*
X153150696Y-92903403D01*
X153196627Y-92949334D01*
X153224929Y-92980985D01*
X153236393Y-93008770D01*
X153235668Y-93046745D01*
X153233821Y-93061820D01*
X153228448Y-93108934D01*
X153225369Y-93147904D01*
X153225085Y-93157403D01*
X153226945Y-93189427D01*
X153231614Y-93235228D01*
X153233821Y-93252986D01*
X153237235Y-93296603D01*
X153229820Y-93325915D01*
X153206927Y-93354980D01*
X153196627Y-93365472D01*
X153150696Y-93411403D01*
X152664102Y-93411403D01*
X152647258Y-93374434D01*
X152634782Y-93342601D01*
X152630414Y-93323977D01*
X152644218Y-93319202D01*
X152682786Y-93314739D01*
X152741856Y-93310885D01*
X152817163Y-93307938D01*
X152880786Y-93306517D01*
X153131157Y-93302546D01*
X153136056Y-93267901D01*
X153132631Y-93236392D01*
X153121541Y-93220952D01*
X153100808Y-93216637D01*
X153056645Y-93212952D01*
X152994646Y-93210191D01*
X152920409Y-93208648D01*
X152882206Y-93208425D01*
X152662283Y-93208203D01*
X152646349Y-93162494D01*
X152635515Y-93130142D01*
X152630462Y-93112545D01*
X152630414Y-93112037D01*
X152644148Y-93110272D01*
X152682230Y-93108331D01*
X152739982Y-93106378D01*
X152812727Y-93104576D01*
X152880786Y-93103317D01*
X153131157Y-93099346D01*
X153131157Y-93012260D01*
X152902740Y-93008264D01*
X152674322Y-93004268D01*
X152652368Y-92961813D01*
X152637293Y-92930468D01*
X152630451Y-92911916D01*
X152630414Y-92911381D01*
X152644163Y-92908827D01*
G36*
X152750858Y-93498543D02*
X152859337Y-93498727D01*
X152942787Y-93499441D01*
X153005204Y-93500985D01*
X153050585Y-93503659D01*
X153082929Y-93507766D01*
X153106233Y-93513605D01*
X153124495Y-93521478D01*
X153134918Y-93527439D01*
X153191445Y-93576805D01*
X153226877Y-93639396D01*
X153239590Y-93708647D01*
X153227963Y-93777992D01*
X153207068Y-93819285D01*
X153170922Y-93862635D01*
X153126776Y-93892179D01*
X153068962Y-93910005D01*
X152991813Y-93918197D01*
X152935214Y-93919358D01*
X152931147Y-93919202D01*
X152931147Y-93817803D01*
X152996050Y-93817184D01*
X153039014Y-93814346D01*
X153067122Y-93807820D01*
X153087453Y-93796137D01*
X153102788Y-93782177D01*
X153132390Y-93735295D01*
X153134919Y-93684959D01*
X153110205Y-93637384D01*
X153106856Y-93633681D01*
X153089435Y-93617877D01*
X153068709Y-93607967D01*
X153037862Y-93602602D01*
X152990077Y-93600432D01*
X152937248Y-93600089D01*
X152870881Y-93600833D01*
X152826606Y-93603912D01*
X152797509Y-93610599D01*
X152776673Y-93622164D01*
X152765607Y-93631647D01*
X152737698Y-93675700D01*
X152734343Y-93726436D01*
X152755659Y-93774864D01*
X152763573Y-93784210D01*
X152781147Y-93800120D01*
X152802087Y-93810050D01*
X152833282Y-93815382D01*
X152881622Y-93817497D01*
X152931147Y-93817803D01*
X152931147Y-93919202D01*
X152844068Y-93915850D01*
X152775586Y-93903934D01*
X152724100Y-93881525D01*
X152683943Y-93846536D01*
X152663361Y-93819285D01*
X152641125Y-93769753D01*
X152630804Y-93712344D01*
X152633567Y-93658978D01*
X152644712Y-93629117D01*
X152647883Y-93617399D01*
X152636057Y-93609623D01*
X152604366Y-93604195D01*
X152556093Y-93600089D01*
X152502329Y-93595593D01*
X152469982Y-93589347D01*
X152451485Y-93577984D01*
X152439270Y-93558132D01*
X152433862Y-93545660D01*
X152414101Y-93498489D01*
X152750858Y-93498543D01*
X152750858Y-93498543D01*
G37*
X152750858Y-93498543D02*
X152859337Y-93498727D01*
X152942787Y-93499441D01*
X153005204Y-93500985D01*
X153050585Y-93503659D01*
X153082929Y-93507766D01*
X153106233Y-93513605D01*
X153124495Y-93521478D01*
X153134918Y-93527439D01*
X153191445Y-93576805D01*
X153226877Y-93639396D01*
X153239590Y-93708647D01*
X153227963Y-93777992D01*
X153207068Y-93819285D01*
X153170922Y-93862635D01*
X153126776Y-93892179D01*
X153068962Y-93910005D01*
X152991813Y-93918197D01*
X152935214Y-93919358D01*
X152931147Y-93919202D01*
X152931147Y-93817803D01*
X152996050Y-93817184D01*
X153039014Y-93814346D01*
X153067122Y-93807820D01*
X153087453Y-93796137D01*
X153102788Y-93782177D01*
X153132390Y-93735295D01*
X153134919Y-93684959D01*
X153110205Y-93637384D01*
X153106856Y-93633681D01*
X153089435Y-93617877D01*
X153068709Y-93607967D01*
X153037862Y-93602602D01*
X152990077Y-93600432D01*
X152937248Y-93600089D01*
X152870881Y-93600833D01*
X152826606Y-93603912D01*
X152797509Y-93610599D01*
X152776673Y-93622164D01*
X152765607Y-93631647D01*
X152737698Y-93675700D01*
X152734343Y-93726436D01*
X152755659Y-93774864D01*
X152763573Y-93784210D01*
X152781147Y-93800120D01*
X152802087Y-93810050D01*
X152833282Y-93815382D01*
X152881622Y-93817497D01*
X152931147Y-93817803D01*
X152931147Y-93919202D01*
X152844068Y-93915850D01*
X152775586Y-93903934D01*
X152724100Y-93881525D01*
X152683943Y-93846536D01*
X152663361Y-93819285D01*
X152641125Y-93769753D01*
X152630804Y-93712344D01*
X152633567Y-93658978D01*
X152644712Y-93629117D01*
X152647883Y-93617399D01*
X152636057Y-93609623D01*
X152604366Y-93604195D01*
X152556093Y-93600089D01*
X152502329Y-93595593D01*
X152469982Y-93589347D01*
X152451485Y-93577984D01*
X152439270Y-93558132D01*
X152433862Y-93545660D01*
X152414101Y-93498489D01*
X152750858Y-93498543D01*
G36*
X152635255Y-94158734D02*
X152659584Y-94092802D01*
X152702617Y-94039387D01*
X152732909Y-94018496D01*
X152788494Y-93995721D01*
X152828686Y-93996194D01*
X152855717Y-94020098D01*
X152860313Y-94028943D01*
X152874644Y-94067130D01*
X152870972Y-94086632D01*
X152846907Y-94093238D01*
X152833614Y-94093574D01*
X152784710Y-94105668D01*
X152750499Y-94137189D01*
X152733976Y-94181001D01*
X152738134Y-94229965D01*
X152759727Y-94269766D01*
X152772044Y-94283210D01*
X152786987Y-94292739D01*
X152809575Y-94299175D01*
X152844828Y-94303343D01*
X152897766Y-94306063D01*
X152973407Y-94308158D01*
X152997357Y-94308700D01*
X153079290Y-94310679D01*
X153136955Y-94312929D01*
X153175108Y-94316303D01*
X153198504Y-94321654D01*
X153211898Y-94329836D01*
X153220045Y-94341701D01*
X153223644Y-94349298D01*
X153235952Y-94381558D01*
X153240014Y-94400549D01*
X153226448Y-94406824D01*
X153185434Y-94410654D01*
X153116499Y-94412060D01*
X153019169Y-94411062D01*
X153004157Y-94410752D01*
X152915359Y-94408559D01*
X152850519Y-94405967D01*
X152804567Y-94402278D01*
X152772435Y-94396796D01*
X152749053Y-94388825D01*
X152729352Y-94377667D01*
X152720910Y-94371830D01*
X152683557Y-94338364D01*
X152654503Y-94300933D01*
X152651967Y-94296351D01*
X152631943Y-94229234D01*
X152635255Y-94158734D01*
X152635255Y-94158734D01*
G37*
X152635255Y-94158734D02*
X152659584Y-94092802D01*
X152702617Y-94039387D01*
X152732909Y-94018496D01*
X152788494Y-93995721D01*
X152828686Y-93996194D01*
X152855717Y-94020098D01*
X152860313Y-94028943D01*
X152874644Y-94067130D01*
X152870972Y-94086632D01*
X152846907Y-94093238D01*
X152833614Y-94093574D01*
X152784710Y-94105668D01*
X152750499Y-94137189D01*
X152733976Y-94181001D01*
X152738134Y-94229965D01*
X152759727Y-94269766D01*
X152772044Y-94283210D01*
X152786987Y-94292739D01*
X152809575Y-94299175D01*
X152844828Y-94303343D01*
X152897766Y-94306063D01*
X152973407Y-94308158D01*
X152997357Y-94308700D01*
X153079290Y-94310679D01*
X153136955Y-94312929D01*
X153175108Y-94316303D01*
X153198504Y-94321654D01*
X153211898Y-94329836D01*
X153220045Y-94341701D01*
X153223644Y-94349298D01*
X153235952Y-94381558D01*
X153240014Y-94400549D01*
X153226448Y-94406824D01*
X153185434Y-94410654D01*
X153116499Y-94412060D01*
X153019169Y-94411062D01*
X153004157Y-94410752D01*
X152915359Y-94408559D01*
X152850519Y-94405967D01*
X152804567Y-94402278D01*
X152772435Y-94396796D01*
X152749053Y-94388825D01*
X152729352Y-94377667D01*
X152720910Y-94371830D01*
X152683557Y-94338364D01*
X152654503Y-94300933D01*
X152651967Y-94296351D01*
X152631943Y-94229234D01*
X152635255Y-94158734D01*
G36*
X152636468Y-94648916D02*
X152657587Y-94592044D01*
X152657993Y-94591393D01*
X152683880Y-94556220D01*
X152714133Y-94530253D01*
X152753558Y-94511990D01*
X152806962Y-94499928D01*
X152879151Y-94492564D01*
X152974932Y-94488396D01*
X152988578Y-94488031D01*
X153194342Y-94482784D01*
X153217178Y-94526944D01*
X153232610Y-94558897D01*
X153239923Y-94578190D01*
X153240014Y-94579082D01*
X153226522Y-94582421D01*
X153190126Y-94585073D01*
X153136952Y-94586704D01*
X153093893Y-94587060D01*
X153024141Y-94587068D01*
X152980337Y-94590257D01*
X152959444Y-94601372D01*
X152958425Y-94625159D01*
X152974241Y-94666364D01*
X153003315Y-94728574D01*
X153027463Y-94774319D01*
X153048413Y-94797847D01*
X153071247Y-94804764D01*
X153072377Y-94804774D01*
X153111712Y-94793361D01*
X153132962Y-94759568D01*
X153136039Y-94707851D01*
X153135506Y-94670599D01*
X153146235Y-94650957D01*
X153172005Y-94638708D01*
X153204837Y-94631658D01*
X153223466Y-94641818D01*
X153226132Y-94645643D01*
X153236840Y-94681659D01*
X153238356Y-94732094D01*
X153231259Y-94784034D01*
X153218288Y-94820838D01*
X153175085Y-94871722D01*
X153114946Y-94900646D01*
X153067962Y-94906374D01*
X153025582Y-94902003D01*
X152990988Y-94886185D01*
X152960263Y-94854863D01*
X152929490Y-94803982D01*
X152894752Y-94729484D01*
X152892788Y-94724946D01*
X152861787Y-94657839D01*
X152836362Y-94616428D01*
X152813514Y-94598679D01*
X152790245Y-94602553D01*
X152763556Y-94626017D01*
X152757414Y-94633033D01*
X152733600Y-94680030D01*
X152734603Y-94728727D01*
X152757951Y-94771138D01*
X152801175Y-94799276D01*
X152809660Y-94801891D01*
X152850808Y-94827352D01*
X152870628Y-94859659D01*
X152890270Y-94906374D01*
X152839450Y-94906374D01*
X152765582Y-94892164D01*
X152697827Y-94849985D01*
X152675161Y-94828036D01*
X152646069Y-94778143D01*
X152632900Y-94714693D01*
X152636468Y-94648916D01*
X152636468Y-94648916D01*
G37*
X152636468Y-94648916D02*
X152657587Y-94592044D01*
X152657993Y-94591393D01*
X152683880Y-94556220D01*
X152714133Y-94530253D01*
X152753558Y-94511990D01*
X152806962Y-94499928D01*
X152879151Y-94492564D01*
X152974932Y-94488396D01*
X152988578Y-94488031D01*
X153194342Y-94482784D01*
X153217178Y-94526944D01*
X153232610Y-94558897D01*
X153239923Y-94578190D01*
X153240014Y-94579082D01*
X153226522Y-94582421D01*
X153190126Y-94585073D01*
X153136952Y-94586704D01*
X153093893Y-94587060D01*
X153024141Y-94587068D01*
X152980337Y-94590257D01*
X152959444Y-94601372D01*
X152958425Y-94625159D01*
X152974241Y-94666364D01*
X153003315Y-94728574D01*
X153027463Y-94774319D01*
X153048413Y-94797847D01*
X153071247Y-94804764D01*
X153072377Y-94804774D01*
X153111712Y-94793361D01*
X153132962Y-94759568D01*
X153136039Y-94707851D01*
X153135506Y-94670599D01*
X153146235Y-94650957D01*
X153172005Y-94638708D01*
X153204837Y-94631658D01*
X153223466Y-94641818D01*
X153226132Y-94645643D01*
X153236840Y-94681659D01*
X153238356Y-94732094D01*
X153231259Y-94784034D01*
X153218288Y-94820838D01*
X153175085Y-94871722D01*
X153114946Y-94900646D01*
X153067962Y-94906374D01*
X153025582Y-94902003D01*
X152990988Y-94886185D01*
X152960263Y-94854863D01*
X152929490Y-94803982D01*
X152894752Y-94729484D01*
X152892788Y-94724946D01*
X152861787Y-94657839D01*
X152836362Y-94616428D01*
X152813514Y-94598679D01*
X152790245Y-94602553D01*
X152763556Y-94626017D01*
X152757414Y-94633033D01*
X152733600Y-94680030D01*
X152734603Y-94728727D01*
X152757951Y-94771138D01*
X152801175Y-94799276D01*
X152809660Y-94801891D01*
X152850808Y-94827352D01*
X152870628Y-94859659D01*
X152890270Y-94906374D01*
X152839450Y-94906374D01*
X152765582Y-94892164D01*
X152697827Y-94849985D01*
X152675161Y-94828036D01*
X152646069Y-94778143D01*
X152632900Y-94714693D01*
X152636468Y-94648916D01*
G36*
X152536789Y-95312774D02*
X152596113Y-95308521D01*
X152631072Y-95303635D01*
X152646320Y-95296865D01*
X152646515Y-95286958D01*
X152644695Y-95283746D01*
X152631515Y-95241016D01*
X152632285Y-95185433D01*
X152645833Y-95128923D01*
X152663361Y-95093578D01*
X152691361Y-95057339D01*
X152723049Y-95030847D01*
X152763313Y-95012661D01*
X152817043Y-95001338D01*
X152889126Y-94995438D01*
X152984451Y-94993517D01*
X153002737Y-94993483D01*
X153208146Y-94993460D01*
X153224080Y-95039169D01*
X153234920Y-95071633D01*
X153239968Y-95089445D01*
X153240014Y-95089969D01*
X153226328Y-95091723D01*
X153188576Y-95093216D01*
X153131724Y-95094334D01*
X153060734Y-95094963D01*
X153017573Y-95095060D01*
X152932473Y-95095262D01*
X152871481Y-95096302D01*
X152829677Y-95098829D01*
X152802142Y-95103496D01*
X152783956Y-95110953D01*
X152770198Y-95121849D01*
X152763573Y-95128653D01*
X152736875Y-95175388D01*
X152734875Y-95226388D01*
X152757455Y-95272659D01*
X152765607Y-95281216D01*
X152780936Y-95293767D01*
X152799118Y-95302472D01*
X152825409Y-95308029D01*
X152865062Y-95311134D01*
X152923332Y-95312484D01*
X153003673Y-95312774D01*
X153208146Y-95312774D01*
X153224080Y-95358483D01*
X153234920Y-95390947D01*
X153239968Y-95408759D01*
X153240014Y-95409283D01*
X153226123Y-95410623D01*
X153186939Y-95411832D01*
X153126200Y-95412859D01*
X153047641Y-95413658D01*
X152954998Y-95414179D01*
X152852009Y-95414374D01*
X152454842Y-95414374D01*
X152434944Y-95367203D01*
X152415047Y-95320031D01*
X152536789Y-95312774D01*
X152536789Y-95312774D01*
G37*
X152536789Y-95312774D02*
X152596113Y-95308521D01*
X152631072Y-95303635D01*
X152646320Y-95296865D01*
X152646515Y-95286958D01*
X152644695Y-95283746D01*
X152631515Y-95241016D01*
X152632285Y-95185433D01*
X152645833Y-95128923D01*
X152663361Y-95093578D01*
X152691361Y-95057339D01*
X152723049Y-95030847D01*
X152763313Y-95012661D01*
X152817043Y-95001338D01*
X152889126Y-94995438D01*
X152984451Y-94993517D01*
X153002737Y-94993483D01*
X153208146Y-94993460D01*
X153224080Y-95039169D01*
X153234920Y-95071633D01*
X153239968Y-95089445D01*
X153240014Y-95089969D01*
X153226328Y-95091723D01*
X153188576Y-95093216D01*
X153131724Y-95094334D01*
X153060734Y-95094963D01*
X153017573Y-95095060D01*
X152932473Y-95095262D01*
X152871481Y-95096302D01*
X152829677Y-95098829D01*
X152802142Y-95103496D01*
X152783956Y-95110953D01*
X152770198Y-95121849D01*
X152763573Y-95128653D01*
X152736875Y-95175388D01*
X152734875Y-95226388D01*
X152757455Y-95272659D01*
X152765607Y-95281216D01*
X152780936Y-95293767D01*
X152799118Y-95302472D01*
X152825409Y-95308029D01*
X152865062Y-95311134D01*
X152923332Y-95312484D01*
X153003673Y-95312774D01*
X153208146Y-95312774D01*
X153224080Y-95358483D01*
X153234920Y-95390947D01*
X153239968Y-95408759D01*
X153240014Y-95409283D01*
X153226123Y-95410623D01*
X153186939Y-95411832D01*
X153126200Y-95412859D01*
X153047641Y-95413658D01*
X152954998Y-95414179D01*
X152852009Y-95414374D01*
X152454842Y-95414374D01*
X152434944Y-95367203D01*
X152415047Y-95320031D01*
X152536789Y-95312774D01*
G36*
X152616739Y-96520357D02*
X152655235Y-96463133D01*
X152710835Y-96418911D01*
X152781586Y-96392493D01*
X152833662Y-96387150D01*
X152855393Y-96387757D01*
X152872031Y-96392838D01*
X152886937Y-96406805D01*
X152903473Y-96434071D01*
X152924998Y-96479048D01*
X152954874Y-96546149D01*
X152955024Y-96546489D01*
X152983313Y-96608253D01*
X153008433Y-96658901D01*
X153027679Y-96693256D01*
X153038348Y-96706142D01*
X153038434Y-96706146D01*
X153061666Y-96694788D01*
X153087274Y-96668229D01*
X153105721Y-96637737D01*
X153109386Y-96622290D01*
X153096712Y-96580145D01*
X153064971Y-96543852D01*
X153030072Y-96526143D01*
X153004345Y-96509108D01*
X152975046Y-96475738D01*
X152949735Y-96436511D01*
X152935971Y-96401904D01*
X152935214Y-96394667D01*
X152947660Y-96386521D01*
X152979472Y-96386030D01*
X153022366Y-96392017D01*
X153068058Y-96403303D01*
X153108261Y-96418710D01*
X153109822Y-96419489D01*
X153174562Y-96465856D01*
X153218597Y-96525949D01*
X153240211Y-96594195D01*
X153237685Y-96665022D01*
X153209304Y-96732856D01*
X153207308Y-96735872D01*
X153158948Y-96789233D01*
X153095852Y-96824320D01*
X153012887Y-96843738D01*
X152989578Y-96846344D01*
X152879555Y-96850959D01*
X152828248Y-96845427D01*
X152828248Y-96706146D01*
X152860253Y-96704336D01*
X152869593Y-96694438D01*
X152862605Y-96669762D01*
X152846087Y-96630865D01*
X152825381Y-96587385D01*
X152824833Y-96586304D01*
X152805449Y-96549451D01*
X152792513Y-96534660D01*
X152778951Y-96538307D01*
X152761132Y-96553665D01*
X152735345Y-96592737D01*
X152733450Y-96634814D01*
X152752217Y-96672557D01*
X152788415Y-96698626D01*
X152828248Y-96706146D01*
X152828248Y-96845427D01*
X152791527Y-96841466D01*
X152721712Y-96817110D01*
X152672802Y-96783204D01*
X152623378Y-96722007D01*
X152598859Y-96654597D01*
X152597297Y-96585780D01*
X152616739Y-96520357D01*
X152616739Y-96520357D01*
G37*
X152616739Y-96520357D02*
X152655235Y-96463133D01*
X152710835Y-96418911D01*
X152781586Y-96392493D01*
X152833662Y-96387150D01*
X152855393Y-96387757D01*
X152872031Y-96392838D01*
X152886937Y-96406805D01*
X152903473Y-96434071D01*
X152924998Y-96479048D01*
X152954874Y-96546149D01*
X152955024Y-96546489D01*
X152983313Y-96608253D01*
X153008433Y-96658901D01*
X153027679Y-96693256D01*
X153038348Y-96706142D01*
X153038434Y-96706146D01*
X153061666Y-96694788D01*
X153087274Y-96668229D01*
X153105721Y-96637737D01*
X153109386Y-96622290D01*
X153096712Y-96580145D01*
X153064971Y-96543852D01*
X153030072Y-96526143D01*
X153004345Y-96509108D01*
X152975046Y-96475738D01*
X152949735Y-96436511D01*
X152935971Y-96401904D01*
X152935214Y-96394667D01*
X152947660Y-96386521D01*
X152979472Y-96386030D01*
X153022366Y-96392017D01*
X153068058Y-96403303D01*
X153108261Y-96418710D01*
X153109822Y-96419489D01*
X153174562Y-96465856D01*
X153218597Y-96525949D01*
X153240211Y-96594195D01*
X153237685Y-96665022D01*
X153209304Y-96732856D01*
X153207308Y-96735872D01*
X153158948Y-96789233D01*
X153095852Y-96824320D01*
X153012887Y-96843738D01*
X152989578Y-96846344D01*
X152879555Y-96850959D01*
X152828248Y-96845427D01*
X152828248Y-96706146D01*
X152860253Y-96704336D01*
X152869593Y-96694438D01*
X152862605Y-96669762D01*
X152846087Y-96630865D01*
X152825381Y-96587385D01*
X152824833Y-96586304D01*
X152805449Y-96549451D01*
X152792513Y-96534660D01*
X152778951Y-96538307D01*
X152761132Y-96553665D01*
X152735345Y-96592737D01*
X152733450Y-96634814D01*
X152752217Y-96672557D01*
X152788415Y-96698626D01*
X152828248Y-96706146D01*
X152828248Y-96845427D01*
X152791527Y-96841466D01*
X152721712Y-96817110D01*
X152672802Y-96783204D01*
X152623378Y-96722007D01*
X152598859Y-96654597D01*
X152597297Y-96585780D01*
X152616739Y-96520357D01*
G36*
X152607462Y-97647545D02*
X152643233Y-97579515D01*
X152700801Y-97529309D01*
X152737812Y-97511475D01*
X152793382Y-97497597D01*
X152863596Y-97490493D01*
X152940227Y-97489820D01*
X153015052Y-97495233D01*
X153079842Y-97506390D01*
X153126373Y-97522946D01*
X153134387Y-97528034D01*
X153194207Y-97588305D01*
X153230035Y-97659891D01*
X153240520Y-97737568D01*
X153224310Y-97816112D01*
X153214592Y-97837971D01*
X153184643Y-97880538D01*
X153144933Y-97917897D01*
X153139897Y-97921428D01*
X153115624Y-97935779D01*
X153089678Y-97945266D01*
X153055522Y-97950870D01*
X153006619Y-97953574D01*
X152936435Y-97954361D01*
X152920700Y-97954374D01*
X152915692Y-97954338D01*
X152915692Y-97809231D01*
X152981930Y-97808387D01*
X153025886Y-97805064D01*
X153054279Y-97798077D01*
X153073825Y-97786244D01*
X153080357Y-97780203D01*
X153105180Y-97745474D01*
X153104048Y-97711757D01*
X153082516Y-97677665D01*
X153059529Y-97657331D01*
X153025978Y-97645289D01*
X152973069Y-97638526D01*
X152966899Y-97638062D01*
X152871013Y-97636908D01*
X152799799Y-97648972D01*
X152753694Y-97674090D01*
X152733135Y-97712100D01*
X152732014Y-97725668D01*
X152737652Y-97761296D01*
X152757186Y-97785666D01*
X152794542Y-97800567D01*
X152853650Y-97807785D01*
X152915692Y-97809231D01*
X152915692Y-97954338D01*
X152845913Y-97953834D01*
X152793659Y-97951564D01*
X152757449Y-97946592D01*
X152730799Y-97937947D01*
X152707222Y-97924655D01*
X152702838Y-97921717D01*
X152643749Y-97872347D01*
X152609447Y-97818551D01*
X152595831Y-97753058D01*
X152595165Y-97730818D01*
X152607462Y-97647545D01*
X152607462Y-97647545D01*
G37*
X152607462Y-97647545D02*
X152643233Y-97579515D01*
X152700801Y-97529309D01*
X152737812Y-97511475D01*
X152793382Y-97497597D01*
X152863596Y-97490493D01*
X152940227Y-97489820D01*
X153015052Y-97495233D01*
X153079842Y-97506390D01*
X153126373Y-97522946D01*
X153134387Y-97528034D01*
X153194207Y-97588305D01*
X153230035Y-97659891D01*
X153240520Y-97737568D01*
X153224310Y-97816112D01*
X153214592Y-97837971D01*
X153184643Y-97880538D01*
X153144933Y-97917897D01*
X153139897Y-97921428D01*
X153115624Y-97935779D01*
X153089678Y-97945266D01*
X153055522Y-97950870D01*
X153006619Y-97953574D01*
X152936435Y-97954361D01*
X152920700Y-97954374D01*
X152915692Y-97954338D01*
X152915692Y-97809231D01*
X152981930Y-97808387D01*
X153025886Y-97805064D01*
X153054279Y-97798077D01*
X153073825Y-97786244D01*
X153080357Y-97780203D01*
X153105180Y-97745474D01*
X153104048Y-97711757D01*
X153082516Y-97677665D01*
X153059529Y-97657331D01*
X153025978Y-97645289D01*
X152973069Y-97638526D01*
X152966899Y-97638062D01*
X152871013Y-97636908D01*
X152799799Y-97648972D01*
X152753694Y-97674090D01*
X152733135Y-97712100D01*
X152732014Y-97725668D01*
X152737652Y-97761296D01*
X152757186Y-97785666D01*
X152794542Y-97800567D01*
X152853650Y-97807785D01*
X152915692Y-97809231D01*
X152915692Y-97954338D01*
X152845913Y-97953834D01*
X152793659Y-97951564D01*
X152757449Y-97946592D01*
X152730799Y-97937947D01*
X152707222Y-97924655D01*
X152702838Y-97921717D01*
X152643749Y-97872347D01*
X152609447Y-97818551D01*
X152595831Y-97753058D01*
X152595165Y-97730818D01*
X152607462Y-97647545D01*
G36*
X152613280Y-95972567D02*
X152640223Y-95925988D01*
X152666966Y-95893603D01*
X152694984Y-95869918D01*
X152729248Y-95853601D01*
X152774727Y-95843321D01*
X152836392Y-95837746D01*
X152919211Y-95835544D01*
X152978746Y-95835289D01*
X153197891Y-95835289D01*
X153225544Y-95896974D01*
X153253197Y-95958660D01*
X153013170Y-95965917D01*
X152923528Y-95968916D01*
X152858462Y-95972062D01*
X152813526Y-95975959D01*
X152784270Y-95981213D01*
X152766248Y-95988429D01*
X152755011Y-95998210D01*
X152752579Y-96001348D01*
X152733583Y-96048899D01*
X152741100Y-96096963D01*
X152761043Y-96125574D01*
X152775175Y-96137213D01*
X152793720Y-96145269D01*
X152821834Y-96150389D01*
X152864673Y-96153219D01*
X152927395Y-96154404D01*
X152992761Y-96154603D01*
X153074768Y-96154642D01*
X153132816Y-96156046D01*
X153171965Y-96160746D01*
X153197280Y-96170673D01*
X153213823Y-96187757D01*
X153226656Y-96213928D01*
X153239991Y-96248885D01*
X153254507Y-96287064D01*
X152996889Y-96282519D01*
X152904019Y-96280689D01*
X152835389Y-96278548D01*
X152786211Y-96275479D01*
X152751698Y-96270866D01*
X152727062Y-96264092D01*
X152707516Y-96254541D01*
X152690270Y-96243026D01*
X152635180Y-96187470D01*
X152603322Y-96119680D01*
X152595691Y-96045947D01*
X152613280Y-95972567D01*
X152613280Y-95972567D01*
G37*
X152613280Y-95972567D02*
X152640223Y-95925988D01*
X152666966Y-95893603D01*
X152694984Y-95869918D01*
X152729248Y-95853601D01*
X152774727Y-95843321D01*
X152836392Y-95837746D01*
X152919211Y-95835544D01*
X152978746Y-95835289D01*
X153197891Y-95835289D01*
X153225544Y-95896974D01*
X153253197Y-95958660D01*
X153013170Y-95965917D01*
X152923528Y-95968916D01*
X152858462Y-95972062D01*
X152813526Y-95975959D01*
X152784270Y-95981213D01*
X152766248Y-95988429D01*
X152755011Y-95998210D01*
X152752579Y-96001348D01*
X152733583Y-96048899D01*
X152741100Y-96096963D01*
X152761043Y-96125574D01*
X152775175Y-96137213D01*
X152793720Y-96145269D01*
X152821834Y-96150389D01*
X152864673Y-96153219D01*
X152927395Y-96154404D01*
X152992761Y-96154603D01*
X153074768Y-96154642D01*
X153132816Y-96156046D01*
X153171965Y-96160746D01*
X153197280Y-96170673D01*
X153213823Y-96187757D01*
X153226656Y-96213928D01*
X153239991Y-96248885D01*
X153254507Y-96287064D01*
X152996889Y-96282519D01*
X152904019Y-96280689D01*
X152835389Y-96278548D01*
X152786211Y-96275479D01*
X152751698Y-96270866D01*
X152727062Y-96264092D01*
X152707516Y-96254541D01*
X152690270Y-96243026D01*
X152635180Y-96187470D01*
X152603322Y-96119680D01*
X152595691Y-96045947D01*
X152613280Y-95972567D01*
G36*
X152605418Y-97088916D02*
X152633068Y-97033459D01*
X152683980Y-96984512D01*
X152702838Y-96971031D01*
X152727515Y-96956346D01*
X152754316Y-96946818D01*
X152790087Y-96941367D01*
X152841669Y-96938913D01*
X152909767Y-96938374D01*
X153003088Y-96940808D01*
X153073157Y-96949266D01*
X153125431Y-96965486D01*
X153165369Y-96991206D01*
X153198429Y-97028163D01*
X153200386Y-97030878D01*
X153220408Y-97067300D01*
X153230315Y-97111158D01*
X153232757Y-97166936D01*
X153232757Y-97257612D01*
X153320783Y-97257650D01*
X153369808Y-97258494D01*
X153398565Y-97263636D01*
X153415811Y-97277073D01*
X153430308Y-97302802D01*
X153433269Y-97308981D01*
X153447148Y-97337896D01*
X153455914Y-97360284D01*
X153456671Y-97376931D01*
X153446523Y-97388624D01*
X153422573Y-97396150D01*
X153381926Y-97400294D01*
X153321686Y-97401845D01*
X153238955Y-97401589D01*
X153130839Y-97400311D01*
X153098500Y-97399912D01*
X152987024Y-97398475D01*
X152914103Y-97397188D01*
X152914103Y-97257689D01*
X152975999Y-97256905D01*
X153016497Y-97253420D01*
X153043208Y-97245536D01*
X153063744Y-97231555D01*
X153073760Y-97222063D01*
X153103067Y-97183256D01*
X153105452Y-97148897D01*
X153081250Y-97113444D01*
X153080357Y-97112546D01*
X153061653Y-97098121D01*
X153036232Y-97089347D01*
X152997084Y-97084921D01*
X152937197Y-97083542D01*
X152923930Y-97083517D01*
X152841401Y-97086848D01*
X152784191Y-97097691D01*
X152749266Y-97117320D01*
X152733594Y-97147010D01*
X152732014Y-97164169D01*
X152739426Y-97204894D01*
X152763830Y-97232828D01*
X152808480Y-97249643D01*
X152876630Y-97257010D01*
X152914103Y-97257689D01*
X152914103Y-97397188D01*
X152900745Y-97396952D01*
X152835833Y-97394983D01*
X152788458Y-97392210D01*
X152754790Y-97388272D01*
X152730998Y-97382811D01*
X152713253Y-97375468D01*
X152697724Y-97365883D01*
X152691881Y-97361773D01*
X152636685Y-97307255D01*
X152605390Y-97238324D01*
X152596665Y-97158588D01*
X152605418Y-97088916D01*
X152605418Y-97088916D01*
G37*
X152605418Y-97088916D02*
X152633068Y-97033459D01*
X152683980Y-96984512D01*
X152702838Y-96971031D01*
X152727515Y-96956346D01*
X152754316Y-96946818D01*
X152790087Y-96941367D01*
X152841669Y-96938913D01*
X152909767Y-96938374D01*
X153003088Y-96940808D01*
X153073157Y-96949266D01*
X153125431Y-96965486D01*
X153165369Y-96991206D01*
X153198429Y-97028163D01*
X153200386Y-97030878D01*
X153220408Y-97067300D01*
X153230315Y-97111158D01*
X153232757Y-97166936D01*
X153232757Y-97257612D01*
X153320783Y-97257650D01*
X153369808Y-97258494D01*
X153398565Y-97263636D01*
X153415811Y-97277073D01*
X153430308Y-97302802D01*
X153433269Y-97308981D01*
X153447148Y-97337896D01*
X153455914Y-97360284D01*
X153456671Y-97376931D01*
X153446523Y-97388624D01*
X153422573Y-97396150D01*
X153381926Y-97400294D01*
X153321686Y-97401845D01*
X153238955Y-97401589D01*
X153130839Y-97400311D01*
X153098500Y-97399912D01*
X152987024Y-97398475D01*
X152914103Y-97397188D01*
X152914103Y-97257689D01*
X152975999Y-97256905D01*
X153016497Y-97253420D01*
X153043208Y-97245536D01*
X153063744Y-97231555D01*
X153073760Y-97222063D01*
X153103067Y-97183256D01*
X153105452Y-97148897D01*
X153081250Y-97113444D01*
X153080357Y-97112546D01*
X153061653Y-97098121D01*
X153036232Y-97089347D01*
X152997084Y-97084921D01*
X152937197Y-97083542D01*
X152923930Y-97083517D01*
X152841401Y-97086848D01*
X152784191Y-97097691D01*
X152749266Y-97117320D01*
X152733594Y-97147010D01*
X152732014Y-97164169D01*
X152739426Y-97204894D01*
X152763830Y-97232828D01*
X152808480Y-97249643D01*
X152876630Y-97257010D01*
X152914103Y-97257689D01*
X152914103Y-97397188D01*
X152900745Y-97396952D01*
X152835833Y-97394983D01*
X152788458Y-97392210D01*
X152754790Y-97388272D01*
X152730998Y-97382811D01*
X152713253Y-97375468D01*
X152697724Y-97365883D01*
X152691881Y-97361773D01*
X152636685Y-97307255D01*
X152605390Y-97238324D01*
X152596665Y-97158588D01*
X152605418Y-97088916D01*
D11*
G04 #@! TO.C,U1*
X125696420Y-93081800D02*
X125646420Y-93081800D01*
X125696420Y-97231800D02*
X125551420Y-97231800D01*
X120546420Y-97231800D02*
X120691420Y-97231800D01*
X120546420Y-93081800D02*
X120691420Y-93081800D01*
X125696420Y-93081800D02*
X125696420Y-97231800D01*
X120546420Y-93081800D02*
X120546420Y-97231800D01*
X125646420Y-93081800D02*
X125646420Y-91681800D01*
D12*
G04 #@! TO.C,J6*
X110501120Y-93709800D02*
X113161120Y-93709800D01*
X110501120Y-88569800D02*
X110501120Y-93709800D01*
X113161120Y-88569800D02*
X113161120Y-93709800D01*
X110501120Y-88569800D02*
X113161120Y-88569800D01*
X110501120Y-87299800D02*
X110501120Y-85969800D01*
X110501120Y-85969800D02*
X111831120Y-85969800D01*
G04 #@! TO.C,R19*
X121793140Y-87027873D02*
X121793140Y-87370407D01*
X122813140Y-87027873D02*
X122813140Y-87370407D01*
G04 #@! TO.C,R20*
X123467520Y-102946267D02*
X123467520Y-102603733D01*
X124487520Y-102946267D02*
X124487520Y-102603733D01*
G04 #@! TO.C,J5*
X110541760Y-103333860D02*
X113201760Y-103333860D01*
X110541760Y-98193860D02*
X110541760Y-103333860D01*
X113201760Y-98193860D02*
X113201760Y-103333860D01*
X110541760Y-98193860D02*
X113201760Y-98193860D01*
X110541760Y-96923860D02*
X110541760Y-95593860D01*
X110541760Y-95593860D02*
X111871760Y-95593860D01*
G04 #@! TO.C,Q2*
X144548740Y-104696800D02*
X145478740Y-104696800D01*
X147708740Y-104696800D02*
X146778740Y-104696800D01*
X147708740Y-104696800D02*
X147708740Y-102536800D01*
X144548740Y-104696800D02*
X144548740Y-103236800D01*
G04 #@! TO.C,Q1*
X140553560Y-85262180D02*
X139623560Y-85262180D01*
X137393560Y-85262180D02*
X138323560Y-85262180D01*
X137393560Y-85262180D02*
X137393560Y-87422180D01*
X140553560Y-85262180D02*
X140553560Y-86722180D01*
G04 #@! TO.C,U2*
D11*
X133699000Y-96016984D02*
X134508524Y-96016984D01*
X134603762Y-95969365D01*
X134651381Y-95921746D01*
X134699000Y-95826508D01*
X134699000Y-95636032D01*
X134651381Y-95540794D01*
X134603762Y-95493175D01*
X134508524Y-95445556D01*
X133699000Y-95445556D01*
X133794239Y-95016984D02*
X133746620Y-94969365D01*
X133699000Y-94874127D01*
X133699000Y-94636032D01*
X133746620Y-94540794D01*
X133794239Y-94493175D01*
X133889477Y-94445556D01*
X133984715Y-94445556D01*
X134127572Y-94493175D01*
X134699000Y-95064603D01*
X134699000Y-94445556D01*
G04 #@! TO.C,R16*
X139808680Y-96042857D02*
X139332490Y-96376190D01*
X139808680Y-96614285D02*
X138808680Y-96614285D01*
X138808680Y-96233333D01*
X138856300Y-96138095D01*
X138903919Y-96090476D01*
X138999157Y-96042857D01*
X139142014Y-96042857D01*
X139237252Y-96090476D01*
X139284871Y-96138095D01*
X139332490Y-96233333D01*
X139332490Y-96614285D01*
X139808680Y-95090476D02*
X139808680Y-95661904D01*
X139808680Y-95376190D02*
X138808680Y-95376190D01*
X138951538Y-95471428D01*
X139046776Y-95566666D01*
X139094395Y-95661904D01*
X138808680Y-94233333D02*
X138808680Y-94423809D01*
X138856300Y-94519047D01*
X138903919Y-94566666D01*
X139046776Y-94661904D01*
X139237252Y-94709523D01*
X139618204Y-94709523D01*
X139713442Y-94661904D01*
X139761061Y-94614285D01*
X139808680Y-94519047D01*
X139808680Y-94328571D01*
X139761061Y-94233333D01*
X139713442Y-94185714D01*
X139618204Y-94138095D01*
X139380109Y-94138095D01*
X139284871Y-94185714D01*
X139237252Y-94233333D01*
X139189633Y-94328571D01*
X139189633Y-94519047D01*
X139237252Y-94614285D01*
X139284871Y-94661904D01*
X139380109Y-94709523D01*
G04 #@! TO.C,D2*
X126798184Y-106741400D02*
X126798184Y-105741400D01*
X127036280Y-105741400D01*
X127179137Y-105789020D01*
X127274375Y-105884258D01*
X127321994Y-105979496D01*
X127369613Y-106169972D01*
X127369613Y-106312829D01*
X127321994Y-106503305D01*
X127274375Y-106598543D01*
X127179137Y-106693781D01*
X127036280Y-106741400D01*
X126798184Y-106741400D01*
X127750565Y-105836639D02*
X127798184Y-105789020D01*
X127893422Y-105741400D01*
X128131518Y-105741400D01*
X128226756Y-105789020D01*
X128274375Y-105836639D01*
X128321994Y-105931877D01*
X128321994Y-106027115D01*
X128274375Y-106169972D01*
X127702946Y-106741400D01*
X128321994Y-106741400D01*
G04 #@! TO.C,J2*
X123766666Y-107602380D02*
X123766666Y-108316666D01*
X123719047Y-108459523D01*
X123623809Y-108554761D01*
X123480952Y-108602380D01*
X123385714Y-108602380D01*
X124195238Y-107697619D02*
X124242857Y-107650000D01*
X124338095Y-107602380D01*
X124576190Y-107602380D01*
X124671428Y-107650000D01*
X124719047Y-107697619D01*
X124766666Y-107792857D01*
X124766666Y-107888095D01*
X124719047Y-108030952D01*
X124147619Y-108602380D01*
X124766666Y-108602380D01*
G04 #@! TO.C,C1*
X128073422Y-90753306D02*
X128121041Y-90800925D01*
X128168660Y-90943782D01*
X128168660Y-91039020D01*
X128121041Y-91181878D01*
X128025803Y-91277116D01*
X127930565Y-91324735D01*
X127740089Y-91372354D01*
X127597232Y-91372354D01*
X127406756Y-91324735D01*
X127311518Y-91277116D01*
X127216280Y-91181878D01*
X127168660Y-91039020D01*
X127168660Y-90943782D01*
X127216280Y-90800925D01*
X127263899Y-90753306D01*
X128168660Y-89800925D02*
X128168660Y-90372354D01*
X128168660Y-90086640D02*
X127168660Y-90086640D01*
X127311518Y-90181878D01*
X127406756Y-90277116D01*
X127454375Y-90372354D01*
G04 #@! TO.C,C2*
X120671862Y-90671946D02*
X120719481Y-90719565D01*
X120767100Y-90862422D01*
X120767100Y-90957660D01*
X120719481Y-91100518D01*
X120624243Y-91195756D01*
X120529005Y-91243375D01*
X120338529Y-91290994D01*
X120195672Y-91290994D01*
X120005196Y-91243375D01*
X119909958Y-91195756D01*
X119814720Y-91100518D01*
X119767100Y-90957660D01*
X119767100Y-90862422D01*
X119814720Y-90719565D01*
X119862339Y-90671946D01*
X119862339Y-90290994D02*
X119814720Y-90243375D01*
X119767100Y-90148137D01*
X119767100Y-89910041D01*
X119814720Y-89814803D01*
X119862339Y-89767184D01*
X119957577Y-89719565D01*
X120052815Y-89719565D01*
X120195672Y-89767184D01*
X120767100Y-90338613D01*
X120767100Y-89719565D01*
G04 #@! TO.C,C3*
X120445902Y-99354166D02*
X120493521Y-99401785D01*
X120541140Y-99544642D01*
X120541140Y-99639880D01*
X120493521Y-99782738D01*
X120398283Y-99877976D01*
X120303045Y-99925595D01*
X120112569Y-99973214D01*
X119969712Y-99973214D01*
X119779236Y-99925595D01*
X119683998Y-99877976D01*
X119588760Y-99782738D01*
X119541140Y-99639880D01*
X119541140Y-99544642D01*
X119588760Y-99401785D01*
X119636379Y-99354166D01*
X119541140Y-99020833D02*
X119541140Y-98401785D01*
X119922093Y-98735119D01*
X119922093Y-98592261D01*
X119969712Y-98497023D01*
X120017331Y-98449404D01*
X120112569Y-98401785D01*
X120350664Y-98401785D01*
X120445902Y-98449404D01*
X120493521Y-98497023D01*
X120541140Y-98592261D01*
X120541140Y-98877976D01*
X120493521Y-98973214D01*
X120445902Y-99020833D01*
G04 #@! TO.C,C4*
X128023422Y-99504166D02*
X128071041Y-99551785D01*
X128118660Y-99694642D01*
X128118660Y-99789880D01*
X128071041Y-99932738D01*
X127975803Y-100027976D01*
X127880565Y-100075595D01*
X127690089Y-100123214D01*
X127547232Y-100123214D01*
X127356756Y-100075595D01*
X127261518Y-100027976D01*
X127166280Y-99932738D01*
X127118660Y-99789880D01*
X127118660Y-99694642D01*
X127166280Y-99551785D01*
X127213899Y-99504166D01*
X127451994Y-98647023D02*
X128118660Y-98647023D01*
X127071041Y-98885119D02*
X127785327Y-99123214D01*
X127785327Y-98504166D01*
G04 #@! TO.C,J1*
X124466666Y-82052380D02*
X124466666Y-82766666D01*
X124419047Y-82909523D01*
X124323809Y-83004761D01*
X124180952Y-83052380D01*
X124085714Y-83052380D01*
X125466666Y-83052380D02*
X124895238Y-83052380D01*
X125180952Y-83052380D02*
X125180952Y-82052380D01*
X125085714Y-82195238D01*
X124990476Y-82290476D01*
X124895238Y-82338095D01*
G04 #@! TO.C,J3*
X136499026Y-77752380D02*
X136499026Y-78466666D01*
X136451407Y-78609523D01*
X136356169Y-78704761D01*
X136213312Y-78752380D01*
X136118074Y-78752380D01*
X136879979Y-77752380D02*
X137499026Y-77752380D01*
X137165693Y-78133333D01*
X137308550Y-78133333D01*
X137403788Y-78180952D01*
X137451407Y-78228571D01*
X137499026Y-78323809D01*
X137499026Y-78561904D01*
X137451407Y-78657142D01*
X137403788Y-78704761D01*
X137308550Y-78752380D01*
X137022836Y-78752380D01*
X136927598Y-78704761D01*
X136879979Y-78657142D01*
G04 #@! TO.C,J4*
X146616666Y-107702380D02*
X146616666Y-108416666D01*
X146569047Y-108559523D01*
X146473809Y-108654761D01*
X146330952Y-108702380D01*
X146235714Y-108702380D01*
X147521428Y-108035714D02*
X147521428Y-108702380D01*
X147283333Y-107654761D02*
X147045238Y-108369047D01*
X147664285Y-108369047D01*
G04 #@! TO.C,R1*
X116985400Y-84790806D02*
X116509210Y-85124140D01*
X116985400Y-85362235D02*
X115985400Y-85362235D01*
X115985400Y-84981282D01*
X116033020Y-84886044D01*
X116080639Y-84838425D01*
X116175877Y-84790806D01*
X116318734Y-84790806D01*
X116413972Y-84838425D01*
X116461591Y-84886044D01*
X116509210Y-84981282D01*
X116509210Y-85362235D01*
X116985400Y-83838425D02*
X116985400Y-84409854D01*
X116985400Y-84124140D02*
X115985400Y-84124140D01*
X116128258Y-84219378D01*
X116223496Y-84314616D01*
X116271115Y-84409854D01*
G04 #@! TO.C,R2*
X116960000Y-105518526D02*
X116483810Y-105851860D01*
X116960000Y-106089955D02*
X115960000Y-106089955D01*
X115960000Y-105709002D01*
X116007620Y-105613764D01*
X116055239Y-105566145D01*
X116150477Y-105518526D01*
X116293334Y-105518526D01*
X116388572Y-105566145D01*
X116436191Y-105613764D01*
X116483810Y-105709002D01*
X116483810Y-106089955D01*
X116055239Y-105137574D02*
X116007620Y-105089955D01*
X115960000Y-104994717D01*
X115960000Y-104756621D01*
X116007620Y-104661383D01*
X116055239Y-104613764D01*
X116150477Y-104566145D01*
X116245715Y-104566145D01*
X116388572Y-104613764D01*
X116960000Y-105185193D01*
X116960000Y-104566145D01*
G04 #@! TO.C,R3*
X118626760Y-84790806D02*
X118150570Y-85124140D01*
X118626760Y-85362235D02*
X117626760Y-85362235D01*
X117626760Y-84981282D01*
X117674380Y-84886044D01*
X117721999Y-84838425D01*
X117817237Y-84790806D01*
X117960094Y-84790806D01*
X118055332Y-84838425D01*
X118102951Y-84886044D01*
X118150570Y-84981282D01*
X118150570Y-85362235D01*
X117626760Y-84457473D02*
X117626760Y-83838425D01*
X118007713Y-84171759D01*
X118007713Y-84028901D01*
X118055332Y-83933663D01*
X118102951Y-83886044D01*
X118198189Y-83838425D01*
X118436284Y-83838425D01*
X118531522Y-83886044D01*
X118579141Y-83933663D01*
X118626760Y-84028901D01*
X118626760Y-84314616D01*
X118579141Y-84409854D01*
X118531522Y-84457473D01*
G04 #@! TO.C,R4*
X118619140Y-105538786D02*
X118142950Y-105872120D01*
X118619140Y-106110215D02*
X117619140Y-106110215D01*
X117619140Y-105729262D01*
X117666760Y-105634024D01*
X117714379Y-105586405D01*
X117809617Y-105538786D01*
X117952474Y-105538786D01*
X118047712Y-105586405D01*
X118095331Y-105634024D01*
X118142950Y-105729262D01*
X118142950Y-106110215D01*
X117952474Y-104681643D02*
X118619140Y-104681643D01*
X117571521Y-104919739D02*
X118285807Y-105157834D01*
X118285807Y-104538786D01*
G04 #@! TO.C,R5*
X124479900Y-84840806D02*
X124003710Y-85174140D01*
X124479900Y-85412235D02*
X123479900Y-85412235D01*
X123479900Y-85031282D01*
X123527520Y-84936044D01*
X123575139Y-84888425D01*
X123670377Y-84840806D01*
X123813234Y-84840806D01*
X123908472Y-84888425D01*
X123956091Y-84936044D01*
X124003710Y-85031282D01*
X124003710Y-85412235D01*
X123479900Y-83936044D02*
X123479900Y-84412235D01*
X123956091Y-84459854D01*
X123908472Y-84412235D01*
X123860853Y-84316997D01*
X123860853Y-84078901D01*
X123908472Y-83983663D01*
X123956091Y-83936044D01*
X124051329Y-83888425D01*
X124289424Y-83888425D01*
X124384662Y-83936044D01*
X124432281Y-83983663D01*
X124479900Y-84078901D01*
X124479900Y-84316997D01*
X124432281Y-84412235D01*
X124384662Y-84459854D01*
G04 #@! TO.C,R6*
X122805520Y-100416666D02*
X122329330Y-100750000D01*
X122805520Y-100988095D02*
X121805520Y-100988095D01*
X121805520Y-100607142D01*
X121853140Y-100511904D01*
X121900759Y-100464285D01*
X121995997Y-100416666D01*
X122138854Y-100416666D01*
X122234092Y-100464285D01*
X122281711Y-100511904D01*
X122329330Y-100607142D01*
X122329330Y-100988095D01*
X121805520Y-99559523D02*
X121805520Y-99750000D01*
X121853140Y-99845238D01*
X121900759Y-99892857D01*
X122043616Y-99988095D01*
X122234092Y-100035714D01*
X122615044Y-100035714D01*
X122710282Y-99988095D01*
X122757901Y-99940476D01*
X122805520Y-99845238D01*
X122805520Y-99654761D01*
X122757901Y-99559523D01*
X122710282Y-99511904D01*
X122615044Y-99464285D01*
X122376949Y-99464285D01*
X122281711Y-99511904D01*
X122234092Y-99559523D01*
X122186473Y-99654761D01*
X122186473Y-99845238D01*
X122234092Y-99940476D01*
X122281711Y-99988095D01*
X122376949Y-100035714D01*
G04 #@! TO.C,R7*
X126204280Y-84840806D02*
X125728090Y-85174140D01*
X126204280Y-85412235D02*
X125204280Y-85412235D01*
X125204280Y-85031282D01*
X125251900Y-84936044D01*
X125299519Y-84888425D01*
X125394757Y-84840806D01*
X125537614Y-84840806D01*
X125632852Y-84888425D01*
X125680471Y-84936044D01*
X125728090Y-85031282D01*
X125728090Y-85412235D01*
X125204280Y-84507473D02*
X125204280Y-83840806D01*
X126204280Y-84269378D01*
G04 #@! TO.C,R8*
X126154280Y-100416666D02*
X125678090Y-100750000D01*
X126154280Y-100988095D02*
X125154280Y-100988095D01*
X125154280Y-100607142D01*
X125201900Y-100511904D01*
X125249519Y-100464285D01*
X125344757Y-100416666D01*
X125487614Y-100416666D01*
X125582852Y-100464285D01*
X125630471Y-100511904D01*
X125678090Y-100607142D01*
X125678090Y-100988095D01*
X125582852Y-99845238D02*
X125535233Y-99940476D01*
X125487614Y-99988095D01*
X125392376Y-100035714D01*
X125344757Y-100035714D01*
X125249519Y-99988095D01*
X125201900Y-99940476D01*
X125154280Y-99845238D01*
X125154280Y-99654761D01*
X125201900Y-99559523D01*
X125249519Y-99511904D01*
X125344757Y-99464285D01*
X125392376Y-99464285D01*
X125487614Y-99511904D01*
X125535233Y-99559523D01*
X125582852Y-99654761D01*
X125582852Y-99845238D01*
X125630471Y-99940476D01*
X125678090Y-99988095D01*
X125773328Y-100035714D01*
X125963804Y-100035714D01*
X126059042Y-99988095D01*
X126106661Y-99940476D01*
X126154280Y-99845238D01*
X126154280Y-99654761D01*
X126106661Y-99559523D01*
X126059042Y-99511904D01*
X125963804Y-99464285D01*
X125773328Y-99464285D01*
X125678090Y-99511904D01*
X125630471Y-99559523D01*
X125582852Y-99654761D01*
G04 #@! TO.C,R9*
X132435060Y-84756406D02*
X131958870Y-85089740D01*
X132435060Y-85327835D02*
X131435060Y-85327835D01*
X131435060Y-84946882D01*
X131482680Y-84851644D01*
X131530299Y-84804025D01*
X131625537Y-84756406D01*
X131768394Y-84756406D01*
X131863632Y-84804025D01*
X131911251Y-84851644D01*
X131958870Y-84946882D01*
X131958870Y-85327835D01*
X132435060Y-84280216D02*
X132435060Y-84089740D01*
X132387441Y-83994501D01*
X132339822Y-83946882D01*
X132196965Y-83851644D01*
X132006489Y-83804025D01*
X131625537Y-83804025D01*
X131530299Y-83851644D01*
X131482680Y-83899263D01*
X131435060Y-83994501D01*
X131435060Y-84184978D01*
X131482680Y-84280216D01*
X131530299Y-84327835D01*
X131625537Y-84375454D01*
X131863632Y-84375454D01*
X131958870Y-84327835D01*
X132006489Y-84280216D01*
X132054108Y-84184978D01*
X132054108Y-83994501D01*
X132006489Y-83899263D01*
X131958870Y-83851644D01*
X131863632Y-83804025D01*
G04 #@! TO.C,R10*
X132550160Y-106408457D02*
X132073970Y-106741790D01*
X132550160Y-106979885D02*
X131550160Y-106979885D01*
X131550160Y-106598933D01*
X131597780Y-106503695D01*
X131645399Y-106456076D01*
X131740637Y-106408457D01*
X131883494Y-106408457D01*
X131978732Y-106456076D01*
X132026351Y-106503695D01*
X132073970Y-106598933D01*
X132073970Y-106979885D01*
X132550160Y-105456076D02*
X132550160Y-106027504D01*
X132550160Y-105741790D02*
X131550160Y-105741790D01*
X131693018Y-105837028D01*
X131788256Y-105932266D01*
X131835875Y-106027504D01*
X131550160Y-104837028D02*
X131550160Y-104741790D01*
X131597780Y-104646552D01*
X131645399Y-104598933D01*
X131740637Y-104551314D01*
X131931113Y-104503695D01*
X132169208Y-104503695D01*
X132359684Y-104551314D01*
X132454922Y-104598933D01*
X132502541Y-104646552D01*
X132550160Y-104741790D01*
X132550160Y-104837028D01*
X132502541Y-104932266D01*
X132454922Y-104979885D01*
X132359684Y-105027504D01*
X132169208Y-105075123D01*
X131931113Y-105075123D01*
X131740637Y-105027504D01*
X131645399Y-104979885D01*
X131597780Y-104932266D01*
X131550160Y-104837028D01*
G04 #@! TO.C,R11*
X134102380Y-84742857D02*
X133626190Y-85076190D01*
X134102380Y-85314285D02*
X133102380Y-85314285D01*
X133102380Y-84933333D01*
X133150000Y-84838095D01*
X133197619Y-84790476D01*
X133292857Y-84742857D01*
X133435714Y-84742857D01*
X133530952Y-84790476D01*
X133578571Y-84838095D01*
X133626190Y-84933333D01*
X133626190Y-85314285D01*
X134102380Y-83790476D02*
X134102380Y-84361904D01*
X134102380Y-84076190D02*
X133102380Y-84076190D01*
X133245238Y-84171428D01*
X133340476Y-84266666D01*
X133388095Y-84361904D01*
X134102380Y-82838095D02*
X134102380Y-83409523D01*
X134102380Y-83123809D02*
X133102380Y-83123809D01*
X133245238Y-83219047D01*
X133340476Y-83314285D01*
X133388095Y-83409523D01*
G04 #@! TO.C,R12*
X135652380Y-84742857D02*
X135176190Y-85076190D01*
X135652380Y-85314285D02*
X134652380Y-85314285D01*
X134652380Y-84933333D01*
X134700000Y-84838095D01*
X134747619Y-84790476D01*
X134842857Y-84742857D01*
X134985714Y-84742857D01*
X135080952Y-84790476D01*
X135128571Y-84838095D01*
X135176190Y-84933333D01*
X135176190Y-85314285D01*
X135652380Y-83790476D02*
X135652380Y-84361904D01*
X135652380Y-84076190D02*
X134652380Y-84076190D01*
X134795238Y-84171428D01*
X134890476Y-84266666D01*
X134938095Y-84361904D01*
X134747619Y-83409523D02*
X134700000Y-83361904D01*
X134652380Y-83266666D01*
X134652380Y-83028571D01*
X134700000Y-82933333D01*
X134747619Y-82885714D01*
X134842857Y-82838095D01*
X134938095Y-82838095D01*
X135080952Y-82885714D01*
X135652380Y-83457142D01*
X135652380Y-82838095D01*
G04 #@! TO.C,R13*
X134178300Y-106517677D02*
X133702110Y-106851010D01*
X134178300Y-107089105D02*
X133178300Y-107089105D01*
X133178300Y-106708153D01*
X133225920Y-106612915D01*
X133273539Y-106565296D01*
X133368777Y-106517677D01*
X133511634Y-106517677D01*
X133606872Y-106565296D01*
X133654491Y-106612915D01*
X133702110Y-106708153D01*
X133702110Y-107089105D01*
X134178300Y-105565296D02*
X134178300Y-106136724D01*
X134178300Y-105851010D02*
X133178300Y-105851010D01*
X133321158Y-105946248D01*
X133416396Y-106041486D01*
X133464015Y-106136724D01*
X133178300Y-105231962D02*
X133178300Y-104612915D01*
X133559253Y-104946248D01*
X133559253Y-104803391D01*
X133606872Y-104708153D01*
X133654491Y-104660534D01*
X133749729Y-104612915D01*
X133987824Y-104612915D01*
X134083062Y-104660534D01*
X134130681Y-104708153D01*
X134178300Y-104803391D01*
X134178300Y-105089105D01*
X134130681Y-105184343D01*
X134083062Y-105231962D01*
G04 #@! TO.C,R14*
X135600700Y-106517677D02*
X135124510Y-106851010D01*
X135600700Y-107089105D02*
X134600700Y-107089105D01*
X134600700Y-106708153D01*
X134648320Y-106612915D01*
X134695939Y-106565296D01*
X134791177Y-106517677D01*
X134934034Y-106517677D01*
X135029272Y-106565296D01*
X135076891Y-106612915D01*
X135124510Y-106708153D01*
X135124510Y-107089105D01*
X135600700Y-105565296D02*
X135600700Y-106136724D01*
X135600700Y-105851010D02*
X134600700Y-105851010D01*
X134743558Y-105946248D01*
X134838796Y-106041486D01*
X134886415Y-106136724D01*
X134934034Y-104708153D02*
X135600700Y-104708153D01*
X134553081Y-104946248D02*
X135267367Y-105184343D01*
X135267367Y-104565296D01*
G04 #@! TO.C,R15*
X141119622Y-93289320D02*
X140786289Y-92813130D01*
X140548194Y-93289320D02*
X140548194Y-92289320D01*
X140929146Y-92289320D01*
X141024384Y-92336940D01*
X141072003Y-92384559D01*
X141119622Y-92479797D01*
X141119622Y-92622654D01*
X141072003Y-92717892D01*
X141024384Y-92765511D01*
X140929146Y-92813130D01*
X140548194Y-92813130D01*
X142072003Y-93289320D02*
X141500575Y-93289320D01*
X141786289Y-93289320D02*
X141786289Y-92289320D01*
X141691051Y-92432178D01*
X141595813Y-92527416D01*
X141500575Y-92575035D01*
X142976765Y-92289320D02*
X142500575Y-92289320D01*
X142452956Y-92765511D01*
X142500575Y-92717892D01*
X142595813Y-92670273D01*
X142833908Y-92670273D01*
X142929146Y-92717892D01*
X142976765Y-92765511D01*
X143024384Y-92860749D01*
X143024384Y-93098844D01*
X142976765Y-93194082D01*
X142929146Y-93241701D01*
X142833908Y-93289320D01*
X142595813Y-93289320D01*
X142500575Y-93241701D01*
X142452956Y-93194082D01*
G04 #@! TO.C,R17*
X138157982Y-93302080D02*
X137824649Y-92825890D01*
X137586554Y-93302080D02*
X137586554Y-92302080D01*
X137967506Y-92302080D01*
X138062744Y-92349700D01*
X138110363Y-92397319D01*
X138157982Y-92492557D01*
X138157982Y-92635414D01*
X138110363Y-92730652D01*
X138062744Y-92778271D01*
X137967506Y-92825890D01*
X137586554Y-92825890D01*
X139110363Y-93302080D02*
X138538935Y-93302080D01*
X138824649Y-93302080D02*
X138824649Y-92302080D01*
X138729411Y-92444938D01*
X138634173Y-92540176D01*
X138538935Y-92587795D01*
X139443697Y-92302080D02*
X140110363Y-92302080D01*
X139681792Y-93302080D01*
G04 #@! TO.C,R18*
X141469840Y-96092857D02*
X140993650Y-96426190D01*
X141469840Y-96664285D02*
X140469840Y-96664285D01*
X140469840Y-96283333D01*
X140517460Y-96188095D01*
X140565079Y-96140476D01*
X140660317Y-96092857D01*
X140803174Y-96092857D01*
X140898412Y-96140476D01*
X140946031Y-96188095D01*
X140993650Y-96283333D01*
X140993650Y-96664285D01*
X141469840Y-95140476D02*
X141469840Y-95711904D01*
X141469840Y-95426190D02*
X140469840Y-95426190D01*
X140612698Y-95521428D01*
X140707936Y-95616666D01*
X140755555Y-95711904D01*
X140898412Y-94569047D02*
X140850793Y-94664285D01*
X140803174Y-94711904D01*
X140707936Y-94759523D01*
X140660317Y-94759523D01*
X140565079Y-94711904D01*
X140517460Y-94664285D01*
X140469840Y-94569047D01*
X140469840Y-94378571D01*
X140517460Y-94283333D01*
X140565079Y-94235714D01*
X140660317Y-94188095D01*
X140707936Y-94188095D01*
X140803174Y-94235714D01*
X140850793Y-94283333D01*
X140898412Y-94378571D01*
X140898412Y-94569047D01*
X140946031Y-94664285D01*
X140993650Y-94711904D01*
X141088888Y-94759523D01*
X141279364Y-94759523D01*
X141374602Y-94711904D01*
X141422221Y-94664285D01*
X141469840Y-94569047D01*
X141469840Y-94378571D01*
X141422221Y-94283333D01*
X141374602Y-94235714D01*
X141279364Y-94188095D01*
X141088888Y-94188095D01*
X140993650Y-94235714D01*
X140946031Y-94283333D01*
X140898412Y-94378571D01*
G04 #@! TO.C,VR1*
D15*
X131296591Y-81041965D02*
X131906191Y-80838765D01*
X131296591Y-80635565D01*
X131906191Y-80084022D02*
X131615905Y-80287222D01*
X131906191Y-80432365D02*
X131296591Y-80432365D01*
X131296591Y-80200137D01*
X131325620Y-80142080D01*
X131354648Y-80113051D01*
X131412705Y-80084022D01*
X131499791Y-80084022D01*
X131557848Y-80113051D01*
X131586877Y-80142080D01*
X131615905Y-80200137D01*
X131615905Y-80432365D01*
X131906191Y-79503451D02*
X131906191Y-79851794D01*
X131906191Y-79677622D02*
X131296591Y-79677622D01*
X131383677Y-79735680D01*
X131441734Y-79793737D01*
X131470762Y-79851794D01*
X129791060Y-77149171D02*
X130139402Y-77149171D01*
X129965231Y-77758771D02*
X129965231Y-77149171D01*
X130690945Y-77758771D02*
X130487745Y-77468485D01*
X130342602Y-77758771D02*
X130342602Y-77149171D01*
X130574831Y-77149171D01*
X130632888Y-77178200D01*
X130661917Y-77207228D01*
X130690945Y-77265285D01*
X130690945Y-77352371D01*
X130661917Y-77410428D01*
X130632888Y-77439457D01*
X130574831Y-77468485D01*
X130342602Y-77468485D01*
X130952202Y-77758771D02*
X130952202Y-77149171D01*
X131242488Y-77758771D02*
X131242488Y-77149171D01*
X131445688Y-77584600D01*
X131648888Y-77149171D01*
X131648888Y-77758771D01*
X131939174Y-77758771D02*
X131939174Y-77149171D01*
X132171402Y-77149171D01*
X132229460Y-77178200D01*
X132258488Y-77207228D01*
X132287517Y-77265285D01*
X132287517Y-77352371D01*
X132258488Y-77410428D01*
X132229460Y-77439457D01*
X132171402Y-77468485D01*
X131939174Y-77468485D01*
X132664888Y-77149171D02*
X132781002Y-77149171D01*
X132839060Y-77178200D01*
X132897117Y-77236257D01*
X132926145Y-77352371D01*
X132926145Y-77555571D01*
X132897117Y-77671685D01*
X132839060Y-77729742D01*
X132781002Y-77758771D01*
X132664888Y-77758771D01*
X132606831Y-77729742D01*
X132548774Y-77671685D01*
X132519745Y-77555571D01*
X132519745Y-77352371D01*
X132548774Y-77236257D01*
X132606831Y-77178200D01*
X132664888Y-77149171D01*
X133100317Y-77149171D02*
X133448660Y-77149171D01*
X133274488Y-77758771D02*
X133274488Y-77149171D01*
G04 #@! TO.C,VR2*
X131370251Y-110267205D02*
X131979851Y-110064005D01*
X131370251Y-109860805D01*
X131979851Y-109309262D02*
X131689565Y-109512462D01*
X131979851Y-109657605D02*
X131370251Y-109657605D01*
X131370251Y-109425377D01*
X131399280Y-109367320D01*
X131428308Y-109338291D01*
X131486365Y-109309262D01*
X131573451Y-109309262D01*
X131631508Y-109338291D01*
X131660537Y-109367320D01*
X131689565Y-109425377D01*
X131689565Y-109657605D01*
X131428308Y-109077034D02*
X131399280Y-109048005D01*
X131370251Y-108989948D01*
X131370251Y-108844805D01*
X131399280Y-108786748D01*
X131428308Y-108757720D01*
X131486365Y-108728691D01*
X131544422Y-108728691D01*
X131631508Y-108757720D01*
X131979851Y-109106062D01*
X131979851Y-108728691D01*
X129801620Y-112465031D02*
X130149962Y-112465031D01*
X129975791Y-113074631D02*
X129975791Y-112465031D01*
X130701505Y-113074631D02*
X130498305Y-112784345D01*
X130353162Y-113074631D02*
X130353162Y-112465031D01*
X130585391Y-112465031D01*
X130643448Y-112494060D01*
X130672477Y-112523088D01*
X130701505Y-112581145D01*
X130701505Y-112668231D01*
X130672477Y-112726288D01*
X130643448Y-112755317D01*
X130585391Y-112784345D01*
X130353162Y-112784345D01*
X130962762Y-113074631D02*
X130962762Y-112465031D01*
X131253048Y-113074631D02*
X131253048Y-112465031D01*
X131456248Y-112900460D01*
X131659448Y-112465031D01*
X131659448Y-113074631D01*
X131949734Y-113074631D02*
X131949734Y-112465031D01*
X132181962Y-112465031D01*
X132240020Y-112494060D01*
X132269048Y-112523088D01*
X132298077Y-112581145D01*
X132298077Y-112668231D01*
X132269048Y-112726288D01*
X132240020Y-112755317D01*
X132181962Y-112784345D01*
X131949734Y-112784345D01*
X132675448Y-112465031D02*
X132791562Y-112465031D01*
X132849620Y-112494060D01*
X132907677Y-112552117D01*
X132936705Y-112668231D01*
X132936705Y-112871431D01*
X132907677Y-112987545D01*
X132849620Y-113045602D01*
X132791562Y-113074631D01*
X132675448Y-113074631D01*
X132617391Y-113045602D01*
X132559334Y-112987545D01*
X132530305Y-112871431D01*
X132530305Y-112668231D01*
X132559334Y-112552117D01*
X132617391Y-112494060D01*
X132675448Y-112465031D01*
X133110877Y-112465031D02*
X133459220Y-112465031D01*
X133285048Y-113074631D02*
X133285048Y-112465031D01*
G04 #@! TO.C,D1*
D11*
X127008184Y-84074800D02*
X127008184Y-83074800D01*
X127246280Y-83074800D01*
X127389137Y-83122420D01*
X127484375Y-83217658D01*
X127531994Y-83312896D01*
X127579613Y-83503372D01*
X127579613Y-83646229D01*
X127531994Y-83836705D01*
X127484375Y-83931943D01*
X127389137Y-84027181D01*
X127246280Y-84074800D01*
X127008184Y-84074800D01*
X128531994Y-84074800D02*
X127960565Y-84074800D01*
X128246280Y-84074800D02*
X128246280Y-83074800D01*
X128151041Y-83217658D01*
X128055803Y-83312896D01*
X127960565Y-83360515D01*
G04 #@! TO.C,D3*
X144282420Y-86701855D02*
X143282420Y-86701855D01*
X143282420Y-86463760D01*
X143330040Y-86320902D01*
X143425278Y-86225664D01*
X143520516Y-86178045D01*
X143710992Y-86130426D01*
X143853849Y-86130426D01*
X144044325Y-86178045D01*
X144139563Y-86225664D01*
X144234801Y-86320902D01*
X144282420Y-86463760D01*
X144282420Y-86701855D01*
X143282420Y-85797093D02*
X143282420Y-85178045D01*
X143663373Y-85511379D01*
X143663373Y-85368521D01*
X143710992Y-85273283D01*
X143758611Y-85225664D01*
X143853849Y-85178045D01*
X144091944Y-85178045D01*
X144187182Y-85225664D01*
X144234801Y-85273283D01*
X144282420Y-85368521D01*
X144282420Y-85654236D01*
X144234801Y-85749474D01*
X144187182Y-85797093D01*
G04 #@! TO.C,D4*
X141702380Y-104138095D02*
X140702380Y-104138095D01*
X140702380Y-103900000D01*
X140750000Y-103757142D01*
X140845238Y-103661904D01*
X140940476Y-103614285D01*
X141130952Y-103566666D01*
X141273809Y-103566666D01*
X141464285Y-103614285D01*
X141559523Y-103661904D01*
X141654761Y-103757142D01*
X141702380Y-103900000D01*
X141702380Y-104138095D01*
X141035714Y-102709523D02*
X141702380Y-102709523D01*
X140654761Y-102947619D02*
X141369047Y-103185714D01*
X141369047Y-102566666D01*
G04 #@! TO.C,U1*
X122594120Y-95935704D02*
X123403644Y-95935704D01*
X123498882Y-95888085D01*
X123546501Y-95840466D01*
X123594120Y-95745228D01*
X123594120Y-95554752D01*
X123546501Y-95459514D01*
X123498882Y-95411895D01*
X123403644Y-95364276D01*
X122594120Y-95364276D01*
X123594120Y-94364276D02*
X123594120Y-94935704D01*
X123594120Y-94649990D02*
X122594120Y-94649990D01*
X122736978Y-94745228D01*
X122832216Y-94840466D01*
X122879835Y-94935704D01*
G04 #@! TO.C,J6*
X111497786Y-84422180D02*
X111497786Y-85136466D01*
X111450167Y-85279323D01*
X111354929Y-85374561D01*
X111212072Y-85422180D01*
X111116834Y-85422180D01*
X112402548Y-84422180D02*
X112212072Y-84422180D01*
X112116834Y-84469800D01*
X112069215Y-84517419D01*
X111973977Y-84660276D01*
X111926358Y-84850752D01*
X111926358Y-85231704D01*
X111973977Y-85326942D01*
X112021596Y-85374561D01*
X112116834Y-85422180D01*
X112307310Y-85422180D01*
X112402548Y-85374561D01*
X112450167Y-85326942D01*
X112497786Y-85231704D01*
X112497786Y-84993609D01*
X112450167Y-84898371D01*
X112402548Y-84850752D01*
X112307310Y-84803133D01*
X112116834Y-84803133D01*
X112021596Y-84850752D01*
X111973977Y-84898371D01*
X111926358Y-84993609D01*
G04 #@! TO.C,R19*
X122814340Y-84803217D02*
X122338150Y-85136550D01*
X122814340Y-85374645D02*
X121814340Y-85374645D01*
X121814340Y-84993693D01*
X121861960Y-84898455D01*
X121909579Y-84850836D01*
X122004817Y-84803217D01*
X122147674Y-84803217D01*
X122242912Y-84850836D01*
X122290531Y-84898455D01*
X122338150Y-84993693D01*
X122338150Y-85374645D01*
X122814340Y-83850836D02*
X122814340Y-84422264D01*
X122814340Y-84136550D02*
X121814340Y-84136550D01*
X121957198Y-84231788D01*
X122052436Y-84327026D01*
X122100055Y-84422264D01*
X122814340Y-83374645D02*
X122814340Y-83184169D01*
X122766721Y-83088931D01*
X122719102Y-83041312D01*
X122576245Y-82946074D01*
X122385769Y-82898455D01*
X122004817Y-82898455D01*
X121909579Y-82946074D01*
X121861960Y-82993693D01*
X121814340Y-83088931D01*
X121814340Y-83279407D01*
X121861960Y-83374645D01*
X121909579Y-83422264D01*
X122004817Y-83469883D01*
X122242912Y-83469883D01*
X122338150Y-83422264D01*
X122385769Y-83374645D01*
X122433388Y-83279407D01*
X122433388Y-83088931D01*
X122385769Y-82993693D01*
X122338150Y-82946074D01*
X122242912Y-82898455D01*
G04 #@! TO.C,R20*
D16*
X124428204Y-100501385D02*
X124047252Y-100768052D01*
X124428204Y-100958528D02*
X123628204Y-100958528D01*
X123628204Y-100653766D01*
X123666300Y-100577576D01*
X123704395Y-100539480D01*
X123780585Y-100501385D01*
X123894871Y-100501385D01*
X123971061Y-100539480D01*
X124009157Y-100577576D01*
X124047252Y-100653766D01*
X124047252Y-100958528D01*
X123704395Y-100196623D02*
X123666300Y-100158528D01*
X123628204Y-100082338D01*
X123628204Y-99891861D01*
X123666300Y-99815671D01*
X123704395Y-99777576D01*
X123780585Y-99739480D01*
X123856776Y-99739480D01*
X123971061Y-99777576D01*
X124428204Y-100234719D01*
X124428204Y-99739480D01*
X123628204Y-99244242D02*
X123628204Y-99168052D01*
X123666300Y-99091861D01*
X123704395Y-99053766D01*
X123780585Y-99015671D01*
X123932966Y-98977576D01*
X124123442Y-98977576D01*
X124275823Y-99015671D01*
X124352014Y-99053766D01*
X124390109Y-99091861D01*
X124428204Y-99168052D01*
X124428204Y-99244242D01*
X124390109Y-99320433D01*
X124352014Y-99358528D01*
X124275823Y-99396623D01*
X124123442Y-99434719D01*
X123932966Y-99434719D01*
X123780585Y-99396623D01*
X123704395Y-99358528D01*
X123666300Y-99320433D01*
X123628204Y-99244242D01*
G04 #@! TO.C,J5*
D11*
X111538426Y-94046240D02*
X111538426Y-94760526D01*
X111490807Y-94903383D01*
X111395569Y-94998621D01*
X111252712Y-95046240D01*
X111157474Y-95046240D01*
X112490807Y-94046240D02*
X112014617Y-94046240D01*
X111966998Y-94522431D01*
X112014617Y-94474812D01*
X112109855Y-94427193D01*
X112347950Y-94427193D01*
X112443188Y-94474812D01*
X112490807Y-94522431D01*
X112538426Y-94617669D01*
X112538426Y-94855764D01*
X112490807Y-94951002D01*
X112443188Y-94998621D01*
X112347950Y-95046240D01*
X112109855Y-95046240D01*
X112014617Y-94998621D01*
X111966998Y-94951002D01*
G04 #@! TO.C,Q2*
X149176359Y-104032038D02*
X149128740Y-104127276D01*
X149033501Y-104222514D01*
X148890644Y-104365371D01*
X148843025Y-104460609D01*
X148843025Y-104555847D01*
X149081120Y-104508228D02*
X149033501Y-104603466D01*
X148938263Y-104698704D01*
X148747787Y-104746323D01*
X148414454Y-104746323D01*
X148223978Y-104698704D01*
X148128740Y-104603466D01*
X148081120Y-104508228D01*
X148081120Y-104317752D01*
X148128740Y-104222514D01*
X148223978Y-104127276D01*
X148414454Y-104079657D01*
X148747787Y-104079657D01*
X148938263Y-104127276D01*
X149033501Y-104222514D01*
X149081120Y-104317752D01*
X149081120Y-104508228D01*
X148176359Y-103698704D02*
X148128740Y-103651085D01*
X148081120Y-103555847D01*
X148081120Y-103317752D01*
X148128740Y-103222514D01*
X148176359Y-103174895D01*
X148271597Y-103127276D01*
X148366835Y-103127276D01*
X148509692Y-103174895D01*
X149081120Y-103746323D01*
X149081120Y-103127276D01*
G04 #@! TO.C,Q1*
X137303759Y-85840558D02*
X137256140Y-85935796D01*
X137160901Y-86031034D01*
X137018044Y-86173891D01*
X136970425Y-86269129D01*
X136970425Y-86364367D01*
X137208520Y-86316748D02*
X137160901Y-86411986D01*
X137065663Y-86507224D01*
X136875187Y-86554843D01*
X136541854Y-86554843D01*
X136351378Y-86507224D01*
X136256140Y-86411986D01*
X136208520Y-86316748D01*
X136208520Y-86126272D01*
X136256140Y-86031034D01*
X136351378Y-85935796D01*
X136541854Y-85888177D01*
X136875187Y-85888177D01*
X137065663Y-85935796D01*
X137160901Y-86031034D01*
X137208520Y-86126272D01*
X137208520Y-86316748D01*
X137208520Y-84935796D02*
X137208520Y-85507224D01*
X137208520Y-85221510D02*
X136208520Y-85221510D01*
X136351378Y-85316748D01*
X136446616Y-85411986D01*
X136494235Y-85507224D01*
G04 #@! TD*
M02*
