G04 #@! TF.GenerationSoftware,KiCad,Pcbnew,(5.0.1)-3*
G04 #@! TF.CreationDate,2019-05-27T15:52:32-04:00*
G04 #@! TF.ProjectId,mars-aqua-adapter,6D6172732D617175612D616461707465,rev?*
G04 #@! TF.SameCoordinates,Original*
G04 #@! TF.FileFunction,Legend,Top*
G04 #@! TF.FilePolarity,Positive*
%FSLAX46Y46*%
G04 Gerber Fmt 4.6, Leading zero omitted, Abs format (unit mm)*
G04 Created by KiCad (PCBNEW (5.0.1)-3) date 5/27/2019 3:52:32 PM*
%MOMM*%
%LPD*%
G01*
G04 APERTURE LIST*
%ADD10C,0.200000*%
%ADD11C,0.150000*%
%ADD12C,0.120000*%
%ADD13C,0.203200*%
%ADD14C,0.010000*%
%ADD15C,0.127000*%
%ADD16C,0.100000*%
G04 APERTURE END LIST*
D10*
X114100954Y-101901782D02*
X115100954Y-101901782D01*
X114148573Y-101901782D02*
X114100954Y-101806544D01*
X114100954Y-101616068D01*
X114148573Y-101520830D01*
X114196192Y-101473211D01*
X114291430Y-101425592D01*
X114577144Y-101425592D01*
X114672382Y-101473211D01*
X114720001Y-101520830D01*
X114767620Y-101616068D01*
X114767620Y-101806544D01*
X114720001Y-101901782D01*
X114100954Y-101092259D02*
X114767620Y-100901782D01*
X114291430Y-100711306D01*
X114767620Y-100520830D01*
X114100954Y-100330354D01*
X114767620Y-99949401D02*
X114100954Y-99949401D01*
X114196192Y-99949401D02*
X114148573Y-99901782D01*
X114100954Y-99806544D01*
X114100954Y-99663687D01*
X114148573Y-99568449D01*
X114243811Y-99520830D01*
X114767620Y-99520830D01*
X114243811Y-99520830D02*
X114148573Y-99473211D01*
X114100954Y-99377973D01*
X114100954Y-99235116D01*
X114148573Y-99139878D01*
X114243811Y-99092259D01*
X114767620Y-99092259D01*
X114767620Y-97854163D02*
X114100954Y-97854163D01*
X113767620Y-97854163D02*
X113815240Y-97901782D01*
X113862859Y-97854163D01*
X113815240Y-97806544D01*
X113767620Y-97854163D01*
X113862859Y-97854163D01*
X114100954Y-97377973D02*
X114767620Y-97377973D01*
X114196192Y-97377973D02*
X114148573Y-97330354D01*
X114100954Y-97235116D01*
X114100954Y-97092259D01*
X114148573Y-96997020D01*
X114243811Y-96949401D01*
X114767620Y-96949401D01*
X114100954Y-96473211D02*
X115100954Y-96473211D01*
X114148573Y-96473211D02*
X114100954Y-96377973D01*
X114100954Y-96187497D01*
X114148573Y-96092259D01*
X114196192Y-96044640D01*
X114291430Y-95997020D01*
X114577144Y-95997020D01*
X114672382Y-96044640D01*
X114720001Y-96092259D01*
X114767620Y-96187497D01*
X114767620Y-96377973D01*
X114720001Y-96473211D01*
X114100954Y-95139878D02*
X114767620Y-95139878D01*
X114100954Y-95568449D02*
X114624763Y-95568449D01*
X114720001Y-95520830D01*
X114767620Y-95425592D01*
X114767620Y-95282735D01*
X114720001Y-95187497D01*
X114672382Y-95139878D01*
X114100954Y-94806544D02*
X114100954Y-94425592D01*
X113767620Y-94663687D02*
X114624763Y-94663687D01*
X114720001Y-94616068D01*
X114767620Y-94520830D01*
X114767620Y-94425592D01*
X114720001Y-92901782D02*
X114767620Y-92997020D01*
X114767620Y-93187497D01*
X114720001Y-93282735D01*
X114672382Y-93330354D01*
X114577144Y-93377973D01*
X114291430Y-93377973D01*
X114196192Y-93330354D01*
X114148573Y-93282735D01*
X114100954Y-93187497D01*
X114100954Y-92997020D01*
X114148573Y-92901782D01*
X114767620Y-92330354D02*
X114720001Y-92425592D01*
X114672382Y-92473211D01*
X114577144Y-92520830D01*
X114291430Y-92520830D01*
X114196192Y-92473211D01*
X114148573Y-92425592D01*
X114100954Y-92330354D01*
X114100954Y-92187497D01*
X114148573Y-92092259D01*
X114196192Y-92044640D01*
X114291430Y-91997020D01*
X114577144Y-91997020D01*
X114672382Y-92044640D01*
X114720001Y-92092259D01*
X114767620Y-92187497D01*
X114767620Y-92330354D01*
X114100954Y-91568449D02*
X114767620Y-91568449D01*
X114196192Y-91568449D02*
X114148573Y-91520830D01*
X114100954Y-91425592D01*
X114100954Y-91282735D01*
X114148573Y-91187497D01*
X114243811Y-91139878D01*
X114767620Y-91139878D01*
X114100954Y-90806544D02*
X114100954Y-90425592D01*
X114767620Y-90663687D02*
X113910478Y-90663687D01*
X113815240Y-90616068D01*
X113767620Y-90520830D01*
X113767620Y-90425592D01*
X114767620Y-90092259D02*
X114100954Y-90092259D01*
X113767620Y-90092259D02*
X113815240Y-90139878D01*
X113862859Y-90092259D01*
X113815240Y-90044640D01*
X113767620Y-90092259D01*
X113862859Y-90092259D01*
X114100954Y-89187497D02*
X114910478Y-89187497D01*
X115005716Y-89235116D01*
X115053335Y-89282735D01*
X115100954Y-89377973D01*
X115100954Y-89520830D01*
X115053335Y-89616068D01*
X114720001Y-89187497D02*
X114767620Y-89282735D01*
X114767620Y-89473211D01*
X114720001Y-89568449D01*
X114672382Y-89616068D01*
X114577144Y-89663687D01*
X114291430Y-89663687D01*
X114196192Y-89616068D01*
X114148573Y-89568449D01*
X114100954Y-89473211D01*
X114100954Y-89282735D01*
X114148573Y-89187497D01*
X108489500Y-93167817D02*
X108489500Y-93644007D01*
X108965691Y-93691626D01*
X108918072Y-93644007D01*
X108870453Y-93548769D01*
X108870453Y-93310674D01*
X108918072Y-93215436D01*
X108965691Y-93167817D01*
X109060929Y-93120198D01*
X109299024Y-93120198D01*
X109394262Y-93167817D01*
X109441881Y-93215436D01*
X109489500Y-93310674D01*
X109489500Y-93548769D01*
X109441881Y-93644007D01*
X109394262Y-93691626D01*
X108822834Y-92786864D02*
X109489500Y-92548769D01*
X108822834Y-92310674D01*
X108568240Y-102855377D02*
X108568240Y-103331567D01*
X109044431Y-103379186D01*
X108996812Y-103331567D01*
X108949193Y-103236329D01*
X108949193Y-102998234D01*
X108996812Y-102902996D01*
X109044431Y-102855377D01*
X109139669Y-102807758D01*
X109377764Y-102807758D01*
X109473002Y-102855377D01*
X109520621Y-102902996D01*
X109568240Y-102998234D01*
X109568240Y-103236329D01*
X109520621Y-103331567D01*
X109473002Y-103379186D01*
X108901574Y-102474424D02*
X109568240Y-102236329D01*
X108901574Y-101998234D01*
X108626660Y-98387991D02*
X108626660Y-97768943D01*
X109007613Y-98102277D01*
X109007613Y-97959420D01*
X109055232Y-97864181D01*
X109102851Y-97816562D01*
X109198089Y-97768943D01*
X109436184Y-97768943D01*
X109531422Y-97816562D01*
X109579041Y-97864181D01*
X109626660Y-97959420D01*
X109626660Y-98245134D01*
X109579041Y-98340372D01*
X109531422Y-98387991D01*
X109531422Y-97340372D02*
X109579041Y-97292753D01*
X109626660Y-97340372D01*
X109579041Y-97387991D01*
X109531422Y-97340372D01*
X109626660Y-97340372D01*
X108626660Y-96959420D02*
X108626660Y-96340372D01*
X109007613Y-96673705D01*
X109007613Y-96530848D01*
X109055232Y-96435610D01*
X109102851Y-96387991D01*
X109198089Y-96340372D01*
X109436184Y-96340372D01*
X109531422Y-96387991D01*
X109579041Y-96435610D01*
X109626660Y-96530848D01*
X109626660Y-96816562D01*
X109579041Y-96911800D01*
X109531422Y-96959420D01*
X108959994Y-96007039D02*
X109626660Y-95768943D01*
X108959994Y-95530848D01*
X108438700Y-88789331D02*
X108438700Y-88170283D01*
X108819653Y-88503617D01*
X108819653Y-88360760D01*
X108867272Y-88265521D01*
X108914891Y-88217902D01*
X109010129Y-88170283D01*
X109248224Y-88170283D01*
X109343462Y-88217902D01*
X109391081Y-88265521D01*
X109438700Y-88360760D01*
X109438700Y-88646474D01*
X109391081Y-88741712D01*
X109343462Y-88789331D01*
X109343462Y-87741712D02*
X109391081Y-87694093D01*
X109438700Y-87741712D01*
X109391081Y-87789331D01*
X109343462Y-87741712D01*
X109438700Y-87741712D01*
X108438700Y-87360760D02*
X108438700Y-86741712D01*
X108819653Y-87075045D01*
X108819653Y-86932188D01*
X108867272Y-86836950D01*
X108914891Y-86789331D01*
X109010129Y-86741712D01*
X109248224Y-86741712D01*
X109343462Y-86789331D01*
X109391081Y-86836950D01*
X109438700Y-86932188D01*
X109438700Y-87217902D01*
X109391081Y-87313140D01*
X109343462Y-87360760D01*
X108772034Y-86408379D02*
X109438700Y-86170283D01*
X108772034Y-85932188D01*
X136304667Y-94348300D02*
G75*
G03X136304667Y-94348300I-531507J0D01*
G01*
X125060087Y-94226380D02*
G75*
G03X125060087Y-94226380I-531507J0D01*
G01*
D11*
G04 #@! TO.C,U2*
X136775000Y-93175000D02*
X136775000Y-91775000D01*
X131675000Y-93175000D02*
X131675000Y-97325000D01*
X136825000Y-93175000D02*
X136825000Y-97325000D01*
X131675000Y-93175000D02*
X131820000Y-93175000D01*
X131675000Y-97325000D02*
X131820000Y-97325000D01*
X136825000Y-97325000D02*
X136680000Y-97325000D01*
X136825000Y-93175000D02*
X136775000Y-93175000D01*
D12*
G04 #@! TO.C,R16*
X140510000Y-102603733D02*
X140510000Y-102946267D01*
X139490000Y-102603733D02*
X139490000Y-102946267D01*
G04 #@! TO.C,D2*
X128736280Y-112339020D02*
X128736280Y-108039020D01*
X126736280Y-112339020D02*
X128736280Y-112339020D01*
X126736280Y-108039020D02*
X126736280Y-112339020D01*
G04 #@! TO.C,J2*
X125760000Y-112660000D02*
X125760000Y-106690000D01*
X125760000Y-106690000D02*
X115640000Y-106690000D01*
X115640000Y-106690000D02*
X115640000Y-112660000D01*
X115640000Y-112660000D02*
X125760000Y-112660000D01*
X122450000Y-112650000D02*
X122450000Y-111900000D01*
X122450000Y-111900000D02*
X118950000Y-111900000D01*
X118950000Y-111900000D02*
X118950000Y-112650000D01*
X118950000Y-112650000D02*
X122450000Y-112650000D01*
X125750000Y-112650000D02*
X125750000Y-111900000D01*
X125750000Y-111900000D02*
X123950000Y-111900000D01*
X123950000Y-111900000D02*
X123950000Y-112650000D01*
X123950000Y-112650000D02*
X125750000Y-112650000D01*
X117450000Y-112650000D02*
X117450000Y-111900000D01*
X117450000Y-111900000D02*
X115650000Y-111900000D01*
X115650000Y-111900000D02*
X115650000Y-112650000D01*
X115650000Y-112650000D02*
X117450000Y-112650000D01*
X125750000Y-110400000D02*
X125000000Y-110400000D01*
X125000000Y-110400000D02*
X125000000Y-107450000D01*
X125000000Y-107450000D02*
X120700000Y-107450000D01*
X115650000Y-110400000D02*
X116400000Y-110400000D01*
X116400000Y-110400000D02*
X116400000Y-107450000D01*
X116400000Y-107450000D02*
X120700000Y-107450000D01*
X124800000Y-112950000D02*
X126050000Y-112950000D01*
X126050000Y-112950000D02*
X126050000Y-111700000D01*
G04 #@! TO.C,J1*
X115350000Y-77250000D02*
X115350000Y-78500000D01*
X116600000Y-77250000D02*
X115350000Y-77250000D01*
X125000000Y-82750000D02*
X120700000Y-82750000D01*
X125000000Y-79800000D02*
X125000000Y-82750000D01*
X125750000Y-79800000D02*
X125000000Y-79800000D01*
X116400000Y-82750000D02*
X120700000Y-82750000D01*
X116400000Y-79800000D02*
X116400000Y-82750000D01*
X115650000Y-79800000D02*
X116400000Y-79800000D01*
X125750000Y-77550000D02*
X123950000Y-77550000D01*
X125750000Y-78300000D02*
X125750000Y-77550000D01*
X123950000Y-78300000D02*
X125750000Y-78300000D01*
X123950000Y-77550000D02*
X123950000Y-78300000D01*
X117450000Y-77550000D02*
X115650000Y-77550000D01*
X117450000Y-78300000D02*
X117450000Y-77550000D01*
X115650000Y-78300000D02*
X117450000Y-78300000D01*
X115650000Y-77550000D02*
X115650000Y-78300000D01*
X122450000Y-77550000D02*
X118950000Y-77550000D01*
X122450000Y-78300000D02*
X122450000Y-77550000D01*
X118950000Y-78300000D02*
X122450000Y-78300000D01*
X118950000Y-77550000D02*
X118950000Y-78300000D01*
X125760000Y-77540000D02*
X115640000Y-77540000D01*
X125760000Y-83510000D02*
X125760000Y-77540000D01*
X115640000Y-83510000D02*
X125760000Y-83510000D01*
X115640000Y-77540000D02*
X115640000Y-83510000D01*
G04 #@! TO.C,J3*
X135822360Y-77540000D02*
X135822360Y-83510000D01*
X135822360Y-83510000D02*
X148442360Y-83510000D01*
X148442360Y-83510000D02*
X148442360Y-77540000D01*
X148442360Y-77540000D02*
X135822360Y-77540000D01*
X139132360Y-77550000D02*
X139132360Y-78300000D01*
X139132360Y-78300000D02*
X145132360Y-78300000D01*
X145132360Y-78300000D02*
X145132360Y-77550000D01*
X145132360Y-77550000D02*
X139132360Y-77550000D01*
X135832360Y-77550000D02*
X135832360Y-78300000D01*
X135832360Y-78300000D02*
X137632360Y-78300000D01*
X137632360Y-78300000D02*
X137632360Y-77550000D01*
X137632360Y-77550000D02*
X135832360Y-77550000D01*
X146632360Y-77550000D02*
X146632360Y-78300000D01*
X146632360Y-78300000D02*
X148432360Y-78300000D01*
X148432360Y-78300000D02*
X148432360Y-77550000D01*
X148432360Y-77550000D02*
X146632360Y-77550000D01*
X135832360Y-79800000D02*
X136582360Y-79800000D01*
X136582360Y-79800000D02*
X136582360Y-82750000D01*
X136582360Y-82750000D02*
X142132360Y-82750000D01*
X148432360Y-79800000D02*
X147682360Y-79800000D01*
X147682360Y-79800000D02*
X147682360Y-82750000D01*
X147682360Y-82750000D02*
X142132360Y-82750000D01*
X136782360Y-77250000D02*
X135532360Y-77250000D01*
X135532360Y-77250000D02*
X135532360Y-78500000D01*
G04 #@! TO.C,J4*
X148750000Y-112950000D02*
X148750000Y-111700000D01*
X147500000Y-112950000D02*
X148750000Y-112950000D01*
X136600000Y-107450000D02*
X142150000Y-107450000D01*
X136600000Y-110400000D02*
X136600000Y-107450000D01*
X135850000Y-110400000D02*
X136600000Y-110400000D01*
X147700000Y-107450000D02*
X142150000Y-107450000D01*
X147700000Y-110400000D02*
X147700000Y-107450000D01*
X148450000Y-110400000D02*
X147700000Y-110400000D01*
X135850000Y-112650000D02*
X137650000Y-112650000D01*
X135850000Y-111900000D02*
X135850000Y-112650000D01*
X137650000Y-111900000D02*
X135850000Y-111900000D01*
X137650000Y-112650000D02*
X137650000Y-111900000D01*
X146650000Y-112650000D02*
X148450000Y-112650000D01*
X146650000Y-111900000D02*
X146650000Y-112650000D01*
X148450000Y-111900000D02*
X146650000Y-111900000D01*
X148450000Y-112650000D02*
X148450000Y-111900000D01*
X139150000Y-112650000D02*
X145150000Y-112650000D01*
X139150000Y-111900000D02*
X139150000Y-112650000D01*
X145150000Y-111900000D02*
X139150000Y-111900000D01*
X145150000Y-112650000D02*
X145150000Y-111900000D01*
X135840000Y-112660000D02*
X148460000Y-112660000D01*
X135840000Y-106690000D02*
X135840000Y-112660000D01*
X148460000Y-106690000D02*
X135840000Y-106690000D01*
X148460000Y-112660000D02*
X148460000Y-106690000D01*
G04 #@! TO.C,R1*
X115990000Y-87027873D02*
X115990000Y-87370407D01*
X117010000Y-87027873D02*
X117010000Y-87370407D01*
G04 #@! TO.C,R2*
X115990000Y-102946267D02*
X115990000Y-102603733D01*
X117010000Y-102946267D02*
X117010000Y-102603733D01*
G04 #@! TO.C,R3*
X117664380Y-87370407D02*
X117664380Y-87027873D01*
X118684380Y-87370407D02*
X118684380Y-87027873D01*
G04 #@! TO.C,R4*
X117664380Y-102603733D02*
X117664380Y-102946267D01*
X118684380Y-102603733D02*
X118684380Y-102946267D01*
G04 #@! TO.C,R5*
X123467520Y-87370407D02*
X123467520Y-87027873D01*
X124487520Y-87370407D02*
X124487520Y-87027873D01*
G04 #@! TO.C,R6*
X121793140Y-102603733D02*
X121793140Y-102946267D01*
X122813140Y-102603733D02*
X122813140Y-102946267D01*
G04 #@! TO.C,R7*
X125141900Y-87027873D02*
X125141900Y-87370407D01*
X126161900Y-87027873D02*
X126161900Y-87370407D01*
G04 #@! TO.C,R8*
X125141900Y-102946267D02*
X125141900Y-102603733D01*
X126161900Y-102946267D02*
X126161900Y-102603733D01*
G04 #@! TO.C,R9*
X129490000Y-87386007D02*
X129490000Y-87043473D01*
X130510000Y-87386007D02*
X130510000Y-87043473D01*
G04 #@! TO.C,R10*
X129490000Y-102603733D02*
X129490000Y-102946267D01*
X130510000Y-102603733D02*
X130510000Y-102946267D01*
G04 #@! TO.C,R11*
X131156666Y-87043473D02*
X131156666Y-87386007D01*
X132176666Y-87043473D02*
X132176666Y-87386007D01*
G04 #@! TO.C,R12*
X132823332Y-87386007D02*
X132823332Y-87043473D01*
X133843332Y-87386007D02*
X133843332Y-87043473D01*
G04 #@! TO.C,R13*
X131156666Y-102946267D02*
X131156666Y-102603733D01*
X132176666Y-102946267D02*
X132176666Y-102603733D01*
G04 #@! TO.C,R14*
X132823332Y-102603733D02*
X132823332Y-102946267D01*
X133843332Y-102603733D02*
X133843332Y-102946267D01*
G04 #@! TO.C,R15*
X140510000Y-87386007D02*
X140510000Y-87043473D01*
X139490000Y-87386007D02*
X139490000Y-87043473D01*
G04 #@! TO.C,R17*
X137823330Y-87386007D02*
X137823330Y-87043473D01*
X138843330Y-87386007D02*
X138843330Y-87043473D01*
G04 #@! TO.C,R18*
X137823330Y-102603733D02*
X137823330Y-102946267D01*
X138843330Y-102603733D02*
X138843330Y-102946267D01*
D13*
G04 #@! TO.C,VR1*
X130022200Y-78145940D02*
X133141320Y-78145940D01*
X130022200Y-79050180D02*
X130022200Y-78145940D01*
X130022200Y-82154060D02*
X133141320Y-82154060D01*
X130022200Y-81249820D02*
X130022200Y-82154060D01*
G04 #@! TO.C,VR2*
X130022200Y-110507780D02*
X130022200Y-111412020D01*
X130022200Y-111412020D02*
X133141320Y-111412020D01*
X130022200Y-108308140D02*
X130022200Y-107403900D01*
X130022200Y-107403900D02*
X133141320Y-107403900D01*
D12*
G04 #@! TO.C,D1*
X128696280Y-82072420D02*
X128696280Y-77772420D01*
X128696280Y-77772420D02*
X126696280Y-77772420D01*
X126696280Y-77772420D02*
X126696280Y-82072420D01*
G04 #@! TO.C,D3*
X145923740Y-86414740D02*
X145923740Y-89274740D01*
X145923740Y-89274740D02*
X147843740Y-89274740D01*
X147843740Y-89274740D02*
X147843740Y-86414740D01*
G04 #@! TO.C,D4*
X142040000Y-100715000D02*
X142040000Y-103575000D01*
X143960000Y-100715000D02*
X142040000Y-100715000D01*
X143960000Y-103575000D02*
X143960000Y-100715000D01*
D14*
G04 #@! TO.C,REF\002A\002A*
G36*
X147927848Y-94584750D02*
X147928278Y-94506206D01*
X147929442Y-94449362D01*
X147931707Y-94410555D01*
X147935440Y-94386122D01*
X147941006Y-94372398D01*
X147948773Y-94365720D01*
X147959105Y-94362424D01*
X147960443Y-94362104D01*
X147984579Y-94357098D01*
X148032201Y-94347831D01*
X148098241Y-94335268D01*
X148177628Y-94320373D01*
X148265296Y-94304109D01*
X148268375Y-94303541D01*
X148354289Y-94287250D01*
X148430196Y-94272008D01*
X148491545Y-94258799D01*
X148533782Y-94248606D01*
X148552355Y-94242412D01*
X148552684Y-94242117D01*
X148561753Y-94223872D01*
X148576867Y-94186255D01*
X148594762Y-94137389D01*
X148594858Y-94137117D01*
X148617993Y-94075567D01*
X148647465Y-94003003D01*
X148677097Y-93934603D01*
X148678562Y-93931366D01*
X148729126Y-93819958D01*
X148560660Y-93573261D01*
X148509303Y-93497583D01*
X148463389Y-93429029D01*
X148425530Y-93371572D01*
X148398337Y-93329184D01*
X148384421Y-93305835D01*
X148383389Y-93303618D01*
X148387984Y-93286650D01*
X148410155Y-93254959D01*
X148450947Y-93207308D01*
X148511405Y-93142462D01*
X148575727Y-93076263D01*
X148639112Y-93012446D01*
X148696951Y-92955331D01*
X148745675Y-92908355D01*
X148781710Y-92874957D01*
X148801484Y-92858575D01*
X148802502Y-92857966D01*
X148816072Y-92856155D01*
X148838233Y-92862977D01*
X148871978Y-92880120D01*
X148920300Y-92909267D01*
X148986192Y-92952105D01*
X149071017Y-93009212D01*
X149145677Y-93059894D01*
X149212640Y-93105199D01*
X149268016Y-93142510D01*
X149307920Y-93169208D01*
X149328462Y-93182675D01*
X149329856Y-93183523D01*
X149349538Y-93181879D01*
X149387793Y-93169415D01*
X149437389Y-93148612D01*
X149453228Y-93141198D01*
X149523790Y-93108846D01*
X149603853Y-93074332D01*
X149673129Y-93046295D01*
X149724545Y-93026092D01*
X149763619Y-93010045D01*
X149784041Y-93000772D01*
X149785614Y-92999619D01*
X149788221Y-92982564D01*
X149795363Y-92942362D01*
X149806023Y-92884358D01*
X149819185Y-92813897D01*
X149833833Y-92736325D01*
X149848949Y-92656988D01*
X149863518Y-92581229D01*
X149876522Y-92514396D01*
X149886945Y-92461832D01*
X149893770Y-92428884D01*
X149895699Y-92420803D01*
X149900462Y-92412455D01*
X149911218Y-92406154D01*
X149931598Y-92401615D01*
X149965234Y-92398556D01*
X150015755Y-92396693D01*
X150086792Y-92395742D01*
X150181976Y-92395420D01*
X150220992Y-92395403D01*
X150538299Y-92395403D01*
X150553339Y-92471603D01*
X150561495Y-92513997D01*
X150573399Y-92577260D01*
X150587616Y-92653698D01*
X150602710Y-92735617D01*
X150606855Y-92758260D01*
X150621553Y-92833854D01*
X150636005Y-92899707D01*
X150648875Y-92950294D01*
X150658822Y-92980086D01*
X150661787Y-92985048D01*
X150682783Y-92997234D01*
X150723467Y-93014707D01*
X150775822Y-93034083D01*
X150787100Y-93037926D01*
X150857023Y-93063321D01*
X150935918Y-93094843D01*
X151006766Y-93125691D01*
X151007095Y-93125843D01*
X151118233Y-93177213D01*
X151366753Y-93008261D01*
X151615272Y-92839308D01*
X151832558Y-93056231D01*
X151897226Y-93121841D01*
X151954233Y-93181681D01*
X152000533Y-93232393D01*
X152033084Y-93270614D01*
X152048843Y-93292985D01*
X152049843Y-93296194D01*
X152041969Y-93315034D01*
X152020078Y-93353480D01*
X151986767Y-93407330D01*
X151944631Y-93472384D01*
X151897443Y-93542720D01*
X151849310Y-93614105D01*
X151807428Y-93677752D01*
X151774371Y-93729619D01*
X151752718Y-93765665D01*
X151745043Y-93781793D01*
X151751537Y-93801471D01*
X151768650Y-93838785D01*
X151792826Y-93886039D01*
X151795513Y-93891048D01*
X151827427Y-93954683D01*
X151843079Y-93998319D01*
X151843245Y-94025458D01*
X151828704Y-94039603D01*
X151828500Y-94039685D01*
X151811279Y-94046755D01*
X151770399Y-94063618D01*
X151709025Y-94088965D01*
X151630319Y-94121489D01*
X151537447Y-94159882D01*
X151433572Y-94202838D01*
X151333002Y-94244438D01*
X151222016Y-94290156D01*
X151119203Y-94332134D01*
X151027715Y-94369112D01*
X150950701Y-94399833D01*
X150891315Y-94423038D01*
X150852709Y-94437470D01*
X150838300Y-94441917D01*
X150821772Y-94430764D01*
X150795430Y-94401591D01*
X150766387Y-94362689D01*
X150674539Y-94251903D01*
X150569259Y-94165309D01*
X150452766Y-94103944D01*
X150327276Y-94068845D01*
X150195007Y-94061052D01*
X150133957Y-94066717D01*
X150007295Y-94097582D01*
X149895441Y-94150740D01*
X149799501Y-94222893D01*
X149720576Y-94310743D01*
X149659770Y-94410995D01*
X149618187Y-94520350D01*
X149596928Y-94635513D01*
X149597099Y-94753185D01*
X149619801Y-94870070D01*
X149666138Y-94982871D01*
X149737213Y-95088291D01*
X149777411Y-95132292D01*
X149880629Y-95216681D01*
X149993425Y-95275438D01*
X150112510Y-95308956D01*
X150234595Y-95317625D01*
X150356393Y-95301837D01*
X150474616Y-95261982D01*
X150585975Y-95198453D01*
X150687184Y-95111639D01*
X150766387Y-95014631D01*
X150796662Y-94974223D01*
X150822719Y-94945678D01*
X150838325Y-94935403D01*
X150855343Y-94940783D01*
X150896000Y-94956085D01*
X150957142Y-94980048D01*
X151035619Y-95011416D01*
X151128280Y-95048928D01*
X151231972Y-95091327D01*
X151333026Y-95132997D01*
X151444107Y-95178970D01*
X151547041Y-95221553D01*
X151638665Y-95259439D01*
X151715816Y-95291320D01*
X151775331Y-95315889D01*
X151814044Y-95331840D01*
X151828500Y-95337750D01*
X151843185Y-95351712D01*
X151843142Y-95378720D01*
X151827599Y-95422247D01*
X151795784Y-95485770D01*
X151795513Y-95486272D01*
X151770823Y-95534100D01*
X151752838Y-95572763D01*
X151745114Y-95594565D01*
X151745043Y-95595527D01*
X151752878Y-95611939D01*
X151774665Y-95648173D01*
X151807828Y-95700186D01*
X151849791Y-95763935D01*
X151897443Y-95834600D01*
X151945691Y-95906544D01*
X151987651Y-95971386D01*
X152020727Y-96024925D01*
X152042321Y-96062963D01*
X152049843Y-96081127D01*
X152039957Y-96097852D01*
X152012326Y-96131480D01*
X151969995Y-96178650D01*
X151916005Y-96236002D01*
X151853399Y-96300176D01*
X151832483Y-96321163D01*
X151615123Y-96538161D01*
X151372720Y-96372992D01*
X151298281Y-96322796D01*
X151231472Y-96278741D01*
X151176165Y-96243298D01*
X151136229Y-96218941D01*
X151115536Y-96208138D01*
X151114063Y-96207822D01*
X151094558Y-96213517D01*
X151055322Y-96228834D01*
X151002930Y-96251123D01*
X150967855Y-96266767D01*
X150900701Y-96296019D01*
X150832858Y-96323566D01*
X150775534Y-96344923D01*
X150758072Y-96350725D01*
X150711438Y-96367208D01*
X150675405Y-96383320D01*
X150661787Y-96392170D01*
X150653452Y-96411700D01*
X150641637Y-96454326D01*
X150627681Y-96514515D01*
X150612922Y-96586738D01*
X150606855Y-96619060D01*
X150591773Y-96701138D01*
X150577169Y-96779865D01*
X150564480Y-96847551D01*
X150555142Y-96896500D01*
X150553339Y-96905717D01*
X150538299Y-96981917D01*
X150220992Y-96981917D01*
X150116654Y-96981746D01*
X150037713Y-96981044D01*
X149980538Y-96979526D01*
X149941499Y-96976911D01*
X149916965Y-96972914D01*
X149903305Y-96967251D01*
X149896889Y-96959640D01*
X149895699Y-96956517D01*
X149891480Y-96937682D01*
X149883062Y-96896072D01*
X149871461Y-96837030D01*
X149857695Y-96765903D01*
X149842780Y-96688035D01*
X149827732Y-96608773D01*
X149813569Y-96533462D01*
X149801306Y-96467447D01*
X149791961Y-96416073D01*
X149786550Y-96384685D01*
X149785614Y-96377701D01*
X149773096Y-96371375D01*
X149739746Y-96357370D01*
X149691877Y-96338305D01*
X149673129Y-96331026D01*
X149600695Y-96301664D01*
X149520670Y-96267089D01*
X149453228Y-96236123D01*
X149401659Y-96213337D01*
X149359285Y-96198178D01*
X149333334Y-96193118D01*
X149329856Y-96193924D01*
X149313436Y-96204619D01*
X149276917Y-96229040D01*
X149224187Y-96264565D01*
X149159135Y-96308573D01*
X149085651Y-96358443D01*
X149071145Y-96368304D01*
X148985204Y-96426168D01*
X148919761Y-96468704D01*
X148871804Y-96497606D01*
X148838320Y-96514570D01*
X148816295Y-96521293D01*
X148802717Y-96519470D01*
X148802631Y-96519424D01*
X148784797Y-96505074D01*
X148750317Y-96473337D01*
X148702768Y-96427650D01*
X148645722Y-96371456D01*
X148582755Y-96308192D01*
X148575727Y-96301058D01*
X148498520Y-96221330D01*
X148441830Y-96159803D01*
X148404610Y-96115239D01*
X148385815Y-96086403D01*
X148383389Y-96073702D01*
X148393971Y-96055166D01*
X148418416Y-96016699D01*
X148454112Y-95962274D01*
X148498447Y-95895862D01*
X148548811Y-95821435D01*
X148560660Y-95804059D01*
X148729126Y-95557363D01*
X148678562Y-95445954D01*
X148649095Y-95378203D01*
X148619459Y-95305477D01*
X148595830Y-95242957D01*
X148594858Y-95240203D01*
X148576957Y-95191300D01*
X148561820Y-95153603D01*
X148552710Y-95135235D01*
X148552684Y-95135204D01*
X148536217Y-95129375D01*
X148495719Y-95119468D01*
X148435742Y-95106465D01*
X148360840Y-95091351D01*
X148275564Y-95075108D01*
X148268375Y-95073779D01*
X148180514Y-95057485D01*
X148100760Y-95042527D01*
X148034181Y-95029869D01*
X147985847Y-95020474D01*
X147960825Y-95015306D01*
X147960443Y-95015216D01*
X147949799Y-95012071D01*
X147941762Y-95005956D01*
X147935967Y-94993207D01*
X147932047Y-94970160D01*
X147929635Y-94933151D01*
X147928365Y-94878516D01*
X147927871Y-94802593D01*
X147927786Y-94701716D01*
X147927786Y-94688660D01*
X147927848Y-94584750D01*
X147927848Y-94584750D01*
G37*
X147927848Y-94584750D02*
X147928278Y-94506206D01*
X147929442Y-94449362D01*
X147931707Y-94410555D01*
X147935440Y-94386122D01*
X147941006Y-94372398D01*
X147948773Y-94365720D01*
X147959105Y-94362424D01*
X147960443Y-94362104D01*
X147984579Y-94357098D01*
X148032201Y-94347831D01*
X148098241Y-94335268D01*
X148177628Y-94320373D01*
X148265296Y-94304109D01*
X148268375Y-94303541D01*
X148354289Y-94287250D01*
X148430196Y-94272008D01*
X148491545Y-94258799D01*
X148533782Y-94248606D01*
X148552355Y-94242412D01*
X148552684Y-94242117D01*
X148561753Y-94223872D01*
X148576867Y-94186255D01*
X148594762Y-94137389D01*
X148594858Y-94137117D01*
X148617993Y-94075567D01*
X148647465Y-94003003D01*
X148677097Y-93934603D01*
X148678562Y-93931366D01*
X148729126Y-93819958D01*
X148560660Y-93573261D01*
X148509303Y-93497583D01*
X148463389Y-93429029D01*
X148425530Y-93371572D01*
X148398337Y-93329184D01*
X148384421Y-93305835D01*
X148383389Y-93303618D01*
X148387984Y-93286650D01*
X148410155Y-93254959D01*
X148450947Y-93207308D01*
X148511405Y-93142462D01*
X148575727Y-93076263D01*
X148639112Y-93012446D01*
X148696951Y-92955331D01*
X148745675Y-92908355D01*
X148781710Y-92874957D01*
X148801484Y-92858575D01*
X148802502Y-92857966D01*
X148816072Y-92856155D01*
X148838233Y-92862977D01*
X148871978Y-92880120D01*
X148920300Y-92909267D01*
X148986192Y-92952105D01*
X149071017Y-93009212D01*
X149145677Y-93059894D01*
X149212640Y-93105199D01*
X149268016Y-93142510D01*
X149307920Y-93169208D01*
X149328462Y-93182675D01*
X149329856Y-93183523D01*
X149349538Y-93181879D01*
X149387793Y-93169415D01*
X149437389Y-93148612D01*
X149453228Y-93141198D01*
X149523790Y-93108846D01*
X149603853Y-93074332D01*
X149673129Y-93046295D01*
X149724545Y-93026092D01*
X149763619Y-93010045D01*
X149784041Y-93000772D01*
X149785614Y-92999619D01*
X149788221Y-92982564D01*
X149795363Y-92942362D01*
X149806023Y-92884358D01*
X149819185Y-92813897D01*
X149833833Y-92736325D01*
X149848949Y-92656988D01*
X149863518Y-92581229D01*
X149876522Y-92514396D01*
X149886945Y-92461832D01*
X149893770Y-92428884D01*
X149895699Y-92420803D01*
X149900462Y-92412455D01*
X149911218Y-92406154D01*
X149931598Y-92401615D01*
X149965234Y-92398556D01*
X150015755Y-92396693D01*
X150086792Y-92395742D01*
X150181976Y-92395420D01*
X150220992Y-92395403D01*
X150538299Y-92395403D01*
X150553339Y-92471603D01*
X150561495Y-92513997D01*
X150573399Y-92577260D01*
X150587616Y-92653698D01*
X150602710Y-92735617D01*
X150606855Y-92758260D01*
X150621553Y-92833854D01*
X150636005Y-92899707D01*
X150648875Y-92950294D01*
X150658822Y-92980086D01*
X150661787Y-92985048D01*
X150682783Y-92997234D01*
X150723467Y-93014707D01*
X150775822Y-93034083D01*
X150787100Y-93037926D01*
X150857023Y-93063321D01*
X150935918Y-93094843D01*
X151006766Y-93125691D01*
X151007095Y-93125843D01*
X151118233Y-93177213D01*
X151366753Y-93008261D01*
X151615272Y-92839308D01*
X151832558Y-93056231D01*
X151897226Y-93121841D01*
X151954233Y-93181681D01*
X152000533Y-93232393D01*
X152033084Y-93270614D01*
X152048843Y-93292985D01*
X152049843Y-93296194D01*
X152041969Y-93315034D01*
X152020078Y-93353480D01*
X151986767Y-93407330D01*
X151944631Y-93472384D01*
X151897443Y-93542720D01*
X151849310Y-93614105D01*
X151807428Y-93677752D01*
X151774371Y-93729619D01*
X151752718Y-93765665D01*
X151745043Y-93781793D01*
X151751537Y-93801471D01*
X151768650Y-93838785D01*
X151792826Y-93886039D01*
X151795513Y-93891048D01*
X151827427Y-93954683D01*
X151843079Y-93998319D01*
X151843245Y-94025458D01*
X151828704Y-94039603D01*
X151828500Y-94039685D01*
X151811279Y-94046755D01*
X151770399Y-94063618D01*
X151709025Y-94088965D01*
X151630319Y-94121489D01*
X151537447Y-94159882D01*
X151433572Y-94202838D01*
X151333002Y-94244438D01*
X151222016Y-94290156D01*
X151119203Y-94332134D01*
X151027715Y-94369112D01*
X150950701Y-94399833D01*
X150891315Y-94423038D01*
X150852709Y-94437470D01*
X150838300Y-94441917D01*
X150821772Y-94430764D01*
X150795430Y-94401591D01*
X150766387Y-94362689D01*
X150674539Y-94251903D01*
X150569259Y-94165309D01*
X150452766Y-94103944D01*
X150327276Y-94068845D01*
X150195007Y-94061052D01*
X150133957Y-94066717D01*
X150007295Y-94097582D01*
X149895441Y-94150740D01*
X149799501Y-94222893D01*
X149720576Y-94310743D01*
X149659770Y-94410995D01*
X149618187Y-94520350D01*
X149596928Y-94635513D01*
X149597099Y-94753185D01*
X149619801Y-94870070D01*
X149666138Y-94982871D01*
X149737213Y-95088291D01*
X149777411Y-95132292D01*
X149880629Y-95216681D01*
X149993425Y-95275438D01*
X150112510Y-95308956D01*
X150234595Y-95317625D01*
X150356393Y-95301837D01*
X150474616Y-95261982D01*
X150585975Y-95198453D01*
X150687184Y-95111639D01*
X150766387Y-95014631D01*
X150796662Y-94974223D01*
X150822719Y-94945678D01*
X150838325Y-94935403D01*
X150855343Y-94940783D01*
X150896000Y-94956085D01*
X150957142Y-94980048D01*
X151035619Y-95011416D01*
X151128280Y-95048928D01*
X151231972Y-95091327D01*
X151333026Y-95132997D01*
X151444107Y-95178970D01*
X151547041Y-95221553D01*
X151638665Y-95259439D01*
X151715816Y-95291320D01*
X151775331Y-95315889D01*
X151814044Y-95331840D01*
X151828500Y-95337750D01*
X151843185Y-95351712D01*
X151843142Y-95378720D01*
X151827599Y-95422247D01*
X151795784Y-95485770D01*
X151795513Y-95486272D01*
X151770823Y-95534100D01*
X151752838Y-95572763D01*
X151745114Y-95594565D01*
X151745043Y-95595527D01*
X151752878Y-95611939D01*
X151774665Y-95648173D01*
X151807828Y-95700186D01*
X151849791Y-95763935D01*
X151897443Y-95834600D01*
X151945691Y-95906544D01*
X151987651Y-95971386D01*
X152020727Y-96024925D01*
X152042321Y-96062963D01*
X152049843Y-96081127D01*
X152039957Y-96097852D01*
X152012326Y-96131480D01*
X151969995Y-96178650D01*
X151916005Y-96236002D01*
X151853399Y-96300176D01*
X151832483Y-96321163D01*
X151615123Y-96538161D01*
X151372720Y-96372992D01*
X151298281Y-96322796D01*
X151231472Y-96278741D01*
X151176165Y-96243298D01*
X151136229Y-96218941D01*
X151115536Y-96208138D01*
X151114063Y-96207822D01*
X151094558Y-96213517D01*
X151055322Y-96228834D01*
X151002930Y-96251123D01*
X150967855Y-96266767D01*
X150900701Y-96296019D01*
X150832858Y-96323566D01*
X150775534Y-96344923D01*
X150758072Y-96350725D01*
X150711438Y-96367208D01*
X150675405Y-96383320D01*
X150661787Y-96392170D01*
X150653452Y-96411700D01*
X150641637Y-96454326D01*
X150627681Y-96514515D01*
X150612922Y-96586738D01*
X150606855Y-96619060D01*
X150591773Y-96701138D01*
X150577169Y-96779865D01*
X150564480Y-96847551D01*
X150555142Y-96896500D01*
X150553339Y-96905717D01*
X150538299Y-96981917D01*
X150220992Y-96981917D01*
X150116654Y-96981746D01*
X150037713Y-96981044D01*
X149980538Y-96979526D01*
X149941499Y-96976911D01*
X149916965Y-96972914D01*
X149903305Y-96967251D01*
X149896889Y-96959640D01*
X149895699Y-96956517D01*
X149891480Y-96937682D01*
X149883062Y-96896072D01*
X149871461Y-96837030D01*
X149857695Y-96765903D01*
X149842780Y-96688035D01*
X149827732Y-96608773D01*
X149813569Y-96533462D01*
X149801306Y-96467447D01*
X149791961Y-96416073D01*
X149786550Y-96384685D01*
X149785614Y-96377701D01*
X149773096Y-96371375D01*
X149739746Y-96357370D01*
X149691877Y-96338305D01*
X149673129Y-96331026D01*
X149600695Y-96301664D01*
X149520670Y-96267089D01*
X149453228Y-96236123D01*
X149401659Y-96213337D01*
X149359285Y-96198178D01*
X149333334Y-96193118D01*
X149329856Y-96193924D01*
X149313436Y-96204619D01*
X149276917Y-96229040D01*
X149224187Y-96264565D01*
X149159135Y-96308573D01*
X149085651Y-96358443D01*
X149071145Y-96368304D01*
X148985204Y-96426168D01*
X148919761Y-96468704D01*
X148871804Y-96497606D01*
X148838320Y-96514570D01*
X148816295Y-96521293D01*
X148802717Y-96519470D01*
X148802631Y-96519424D01*
X148784797Y-96505074D01*
X148750317Y-96473337D01*
X148702768Y-96427650D01*
X148645722Y-96371456D01*
X148582755Y-96308192D01*
X148575727Y-96301058D01*
X148498520Y-96221330D01*
X148441830Y-96159803D01*
X148404610Y-96115239D01*
X148385815Y-96086403D01*
X148383389Y-96073702D01*
X148393971Y-96055166D01*
X148418416Y-96016699D01*
X148454112Y-95962274D01*
X148498447Y-95895862D01*
X148548811Y-95821435D01*
X148560660Y-95804059D01*
X148729126Y-95557363D01*
X148678562Y-95445954D01*
X148649095Y-95378203D01*
X148619459Y-95305477D01*
X148595830Y-95242957D01*
X148594858Y-95240203D01*
X148576957Y-95191300D01*
X148561820Y-95153603D01*
X148552710Y-95135235D01*
X148552684Y-95135204D01*
X148536217Y-95129375D01*
X148495719Y-95119468D01*
X148435742Y-95106465D01*
X148360840Y-95091351D01*
X148275564Y-95075108D01*
X148268375Y-95073779D01*
X148180514Y-95057485D01*
X148100760Y-95042527D01*
X148034181Y-95029869D01*
X147985847Y-95020474D01*
X147960825Y-95015306D01*
X147960443Y-95015216D01*
X147949799Y-95012071D01*
X147941762Y-95005956D01*
X147935967Y-94993207D01*
X147932047Y-94970160D01*
X147929635Y-94933151D01*
X147928365Y-94878516D01*
X147927871Y-94802593D01*
X147927786Y-94701716D01*
X147927786Y-94688660D01*
X147927848Y-94584750D01*
G36*
X152652466Y-91535065D02*
X152689997Y-91477639D01*
X152723596Y-91449941D01*
X152784564Y-91427998D01*
X152832808Y-91426255D01*
X152897316Y-91430203D01*
X152962434Y-91578974D01*
X152995702Y-91651311D01*
X153022464Y-91698576D01*
X153045644Y-91723153D01*
X153068167Y-91727423D01*
X153092955Y-91713771D01*
X153109386Y-91698717D01*
X153135735Y-91654914D01*
X153137581Y-91607271D01*
X153117046Y-91563515D01*
X153076252Y-91531371D01*
X153061847Y-91525622D01*
X153016856Y-91498084D01*
X152997682Y-91466402D01*
X152981279Y-91422946D01*
X153043466Y-91422946D01*
X153085783Y-91426788D01*
X153121469Y-91441837D01*
X153162443Y-91473380D01*
X153167767Y-91478068D01*
X153204220Y-91513154D01*
X153223783Y-91543313D01*
X153232783Y-91581045D01*
X153235730Y-91612325D01*
X153236465Y-91668275D01*
X153227160Y-91708105D01*
X153213346Y-91732952D01*
X153182967Y-91772004D01*
X153150113Y-91799035D01*
X153108794Y-91816143D01*
X153053021Y-91825422D01*
X152976805Y-91828967D01*
X152938122Y-91829250D01*
X152891747Y-91828288D01*
X152891747Y-91740653D01*
X152916626Y-91739637D01*
X152920700Y-91737104D01*
X152915165Y-91720386D01*
X152900517Y-91684411D01*
X152879690Y-91636329D01*
X152875214Y-91626274D01*
X152844314Y-91565508D01*
X152817157Y-91532028D01*
X152791720Y-91524670D01*
X152765981Y-91542269D01*
X152754609Y-91556804D01*
X152731864Y-91609250D01*
X152735622Y-91658338D01*
X152763384Y-91699433D01*
X152812652Y-91727902D01*
X152851757Y-91737029D01*
X152891747Y-91740653D01*
X152891747Y-91828288D01*
X152847749Y-91827375D01*
X152780884Y-91820464D01*
X152732195Y-91806776D01*
X152696349Y-91784564D01*
X152668013Y-91752086D01*
X152658855Y-91737927D01*
X152635007Y-91673607D01*
X152633506Y-91603187D01*
X152652466Y-91535065D01*
X152652466Y-91535065D01*
G37*
X152652466Y-91535065D02*
X152689997Y-91477639D01*
X152723596Y-91449941D01*
X152784564Y-91427998D01*
X152832808Y-91426255D01*
X152897316Y-91430203D01*
X152962434Y-91578974D01*
X152995702Y-91651311D01*
X153022464Y-91698576D01*
X153045644Y-91723153D01*
X153068167Y-91727423D01*
X153092955Y-91713771D01*
X153109386Y-91698717D01*
X153135735Y-91654914D01*
X153137581Y-91607271D01*
X153117046Y-91563515D01*
X153076252Y-91531371D01*
X153061847Y-91525622D01*
X153016856Y-91498084D01*
X152997682Y-91466402D01*
X152981279Y-91422946D01*
X153043466Y-91422946D01*
X153085783Y-91426788D01*
X153121469Y-91441837D01*
X153162443Y-91473380D01*
X153167767Y-91478068D01*
X153204220Y-91513154D01*
X153223783Y-91543313D01*
X153232783Y-91581045D01*
X153235730Y-91612325D01*
X153236465Y-91668275D01*
X153227160Y-91708105D01*
X153213346Y-91732952D01*
X153182967Y-91772004D01*
X153150113Y-91799035D01*
X153108794Y-91816143D01*
X153053021Y-91825422D01*
X152976805Y-91828967D01*
X152938122Y-91829250D01*
X152891747Y-91828288D01*
X152891747Y-91740653D01*
X152916626Y-91739637D01*
X152920700Y-91737104D01*
X152915165Y-91720386D01*
X152900517Y-91684411D01*
X152879690Y-91636329D01*
X152875214Y-91626274D01*
X152844314Y-91565508D01*
X152817157Y-91532028D01*
X152791720Y-91524670D01*
X152765981Y-91542269D01*
X152754609Y-91556804D01*
X152731864Y-91609250D01*
X152735622Y-91658338D01*
X152763384Y-91699433D01*
X152812652Y-91727902D01*
X152851757Y-91737029D01*
X152891747Y-91740653D01*
X152891747Y-91828288D01*
X152847749Y-91827375D01*
X152780884Y-91820464D01*
X152732195Y-91806776D01*
X152696349Y-91784564D01*
X152668013Y-91752086D01*
X152658855Y-91737927D01*
X152635007Y-91673607D01*
X152633506Y-91603187D01*
X152652466Y-91535065D01*
G36*
X152644252Y-92036060D02*
X152651834Y-92018712D01*
X152684628Y-91977304D01*
X152732047Y-91941895D01*
X152782651Y-91919996D01*
X152807598Y-91916431D01*
X152842427Y-91928381D01*
X152860857Y-91954593D01*
X152872016Y-91982696D01*
X152874072Y-91995565D01*
X152859149Y-92001831D01*
X152826675Y-92014204D01*
X152812002Y-92019632D01*
X152761244Y-92050070D01*
X152735927Y-92094140D01*
X152736706Y-92150650D01*
X152737703Y-92154835D01*
X152752007Y-92185005D01*
X152779893Y-92207184D01*
X152824787Y-92222333D01*
X152890115Y-92231410D01*
X152979304Y-92235374D01*
X153026761Y-92235746D01*
X153101571Y-92235930D01*
X153152569Y-92237138D01*
X153184971Y-92240351D01*
X153203995Y-92246551D01*
X153214856Y-92256720D01*
X153222772Y-92271841D01*
X153223170Y-92272714D01*
X153235481Y-92301832D01*
X153240014Y-92316257D01*
X153226309Y-92318474D01*
X153188425Y-92320371D01*
X153131215Y-92321813D01*
X153059527Y-92322662D01*
X153007065Y-92322831D01*
X152905547Y-92321968D01*
X152828532Y-92318590D01*
X152771523Y-92311518D01*
X152730026Y-92299572D01*
X152699543Y-92281570D01*
X152675580Y-92256333D01*
X152658855Y-92231413D01*
X152636597Y-92171489D01*
X152631576Y-92101749D01*
X152644252Y-92036060D01*
X152644252Y-92036060D01*
G37*
X152644252Y-92036060D02*
X152651834Y-92018712D01*
X152684628Y-91977304D01*
X152732047Y-91941895D01*
X152782651Y-91919996D01*
X152807598Y-91916431D01*
X152842427Y-91928381D01*
X152860857Y-91954593D01*
X152872016Y-91982696D01*
X152874072Y-91995565D01*
X152859149Y-92001831D01*
X152826675Y-92014204D01*
X152812002Y-92019632D01*
X152761244Y-92050070D01*
X152735927Y-92094140D01*
X152736706Y-92150650D01*
X152737703Y-92154835D01*
X152752007Y-92185005D01*
X152779893Y-92207184D01*
X152824787Y-92222333D01*
X152890115Y-92231410D01*
X152979304Y-92235374D01*
X153026761Y-92235746D01*
X153101571Y-92235930D01*
X153152569Y-92237138D01*
X153184971Y-92240351D01*
X153203995Y-92246551D01*
X153214856Y-92256720D01*
X153222772Y-92271841D01*
X153223170Y-92272714D01*
X153235481Y-92301832D01*
X153240014Y-92316257D01*
X153226309Y-92318474D01*
X153188425Y-92320371D01*
X153131215Y-92321813D01*
X153059527Y-92322662D01*
X153007065Y-92322831D01*
X152905547Y-92321968D01*
X152828532Y-92318590D01*
X152771523Y-92311518D01*
X152730026Y-92299572D01*
X152699543Y-92281570D01*
X152675580Y-92256333D01*
X152658855Y-92231413D01*
X152636597Y-92171489D01*
X152631576Y-92101749D01*
X152644252Y-92036060D01*
G36*
X152641835Y-92543784D02*
X152660844Y-92501993D01*
X152683878Y-92469191D01*
X152709633Y-92445157D01*
X152742858Y-92428563D01*
X152788300Y-92418083D01*
X152850707Y-92412389D01*
X152934827Y-92410153D01*
X152990221Y-92409917D01*
X153206326Y-92409917D01*
X153223170Y-92446886D01*
X153235481Y-92476004D01*
X153240014Y-92490429D01*
X153226525Y-92493188D01*
X153190153Y-92495378D01*
X153137042Y-92496718D01*
X153094872Y-92497003D01*
X153033947Y-92498226D01*
X152985615Y-92501524D01*
X152956018Y-92506339D01*
X152949729Y-92510164D01*
X152956152Y-92535877D01*
X152972625Y-92576242D01*
X152994958Y-92622981D01*
X153018957Y-92667815D01*
X153040430Y-92702467D01*
X153055185Y-92718658D01*
X153055345Y-92718722D01*
X153082652Y-92717330D01*
X153108719Y-92704842D01*
X153129892Y-92682917D01*
X153136974Y-92650917D01*
X153136149Y-92623568D01*
X153135542Y-92584834D01*
X153144616Y-92564502D01*
X153168592Y-92552291D01*
X153173113Y-92550751D01*
X153207306Y-92545457D01*
X153228068Y-92559613D01*
X153237962Y-92596512D01*
X153239792Y-92636371D01*
X153226227Y-92708098D01*
X153206855Y-92745228D01*
X153161345Y-92791084D01*
X153105483Y-92815404D01*
X153046457Y-92817587D01*
X152991453Y-92797031D01*
X152956986Y-92766111D01*
X152937689Y-92735240D01*
X152913259Y-92686718D01*
X152888485Y-92630175D01*
X152884699Y-92620750D01*
X152857291Y-92558641D01*
X152833134Y-92522838D01*
X152809119Y-92511323D01*
X152782135Y-92522080D01*
X152761043Y-92540546D01*
X152735072Y-92584191D01*
X152733124Y-92632214D01*
X152753137Y-92676254D01*
X152793051Y-92707951D01*
X152803348Y-92712111D01*
X152841224Y-92736333D01*
X152869342Y-92771695D01*
X152892417Y-92816317D01*
X152826985Y-92816317D01*
X152787006Y-92813691D01*
X152755497Y-92802430D01*
X152721878Y-92777461D01*
X152695984Y-92753491D01*
X152659317Y-92716219D01*
X152639621Y-92687259D01*
X152631720Y-92656155D01*
X152630414Y-92620947D01*
X152641835Y-92543784D01*
X152641835Y-92543784D01*
G37*
X152641835Y-92543784D02*
X152660844Y-92501993D01*
X152683878Y-92469191D01*
X152709633Y-92445157D01*
X152742858Y-92428563D01*
X152788300Y-92418083D01*
X152850707Y-92412389D01*
X152934827Y-92410153D01*
X152990221Y-92409917D01*
X153206326Y-92409917D01*
X153223170Y-92446886D01*
X153235481Y-92476004D01*
X153240014Y-92490429D01*
X153226525Y-92493188D01*
X153190153Y-92495378D01*
X153137042Y-92496718D01*
X153094872Y-92497003D01*
X153033947Y-92498226D01*
X152985615Y-92501524D01*
X152956018Y-92506339D01*
X152949729Y-92510164D01*
X152956152Y-92535877D01*
X152972625Y-92576242D01*
X152994958Y-92622981D01*
X153018957Y-92667815D01*
X153040430Y-92702467D01*
X153055185Y-92718658D01*
X153055345Y-92718722D01*
X153082652Y-92717330D01*
X153108719Y-92704842D01*
X153129892Y-92682917D01*
X153136974Y-92650917D01*
X153136149Y-92623568D01*
X153135542Y-92584834D01*
X153144616Y-92564502D01*
X153168592Y-92552291D01*
X153173113Y-92550751D01*
X153207306Y-92545457D01*
X153228068Y-92559613D01*
X153237962Y-92596512D01*
X153239792Y-92636371D01*
X153226227Y-92708098D01*
X153206855Y-92745228D01*
X153161345Y-92791084D01*
X153105483Y-92815404D01*
X153046457Y-92817587D01*
X152991453Y-92797031D01*
X152956986Y-92766111D01*
X152937689Y-92735240D01*
X152913259Y-92686718D01*
X152888485Y-92630175D01*
X152884699Y-92620750D01*
X152857291Y-92558641D01*
X152833134Y-92522838D01*
X152809119Y-92511323D01*
X152782135Y-92522080D01*
X152761043Y-92540546D01*
X152735072Y-92584191D01*
X152733124Y-92632214D01*
X152753137Y-92676254D01*
X152793051Y-92707951D01*
X152803348Y-92712111D01*
X152841224Y-92736333D01*
X152869342Y-92771695D01*
X152892417Y-92816317D01*
X152826985Y-92816317D01*
X152787006Y-92813691D01*
X152755497Y-92802430D01*
X152721878Y-92777461D01*
X152695984Y-92753491D01*
X152659317Y-92716219D01*
X152639621Y-92687259D01*
X152631720Y-92656155D01*
X152630414Y-92620947D01*
X152641835Y-92543784D01*
G36*
X152644163Y-92908827D02*
X152682350Y-92906612D01*
X152740386Y-92904876D01*
X152813680Y-92903761D01*
X152890555Y-92903403D01*
X153150696Y-92903403D01*
X153196627Y-92949334D01*
X153224929Y-92980985D01*
X153236393Y-93008770D01*
X153235668Y-93046745D01*
X153233821Y-93061820D01*
X153228448Y-93108934D01*
X153225369Y-93147904D01*
X153225085Y-93157403D01*
X153226945Y-93189427D01*
X153231614Y-93235228D01*
X153233821Y-93252986D01*
X153237235Y-93296603D01*
X153229820Y-93325915D01*
X153206927Y-93354980D01*
X153196627Y-93365472D01*
X153150696Y-93411403D01*
X152664102Y-93411403D01*
X152647258Y-93374434D01*
X152634782Y-93342601D01*
X152630414Y-93323977D01*
X152644218Y-93319202D01*
X152682786Y-93314739D01*
X152741856Y-93310885D01*
X152817163Y-93307938D01*
X152880786Y-93306517D01*
X153131157Y-93302546D01*
X153136056Y-93267901D01*
X153132631Y-93236392D01*
X153121541Y-93220952D01*
X153100808Y-93216637D01*
X153056645Y-93212952D01*
X152994646Y-93210191D01*
X152920409Y-93208648D01*
X152882206Y-93208425D01*
X152662283Y-93208203D01*
X152646349Y-93162494D01*
X152635515Y-93130142D01*
X152630462Y-93112545D01*
X152630414Y-93112037D01*
X152644148Y-93110272D01*
X152682230Y-93108331D01*
X152739982Y-93106378D01*
X152812727Y-93104576D01*
X152880786Y-93103317D01*
X153131157Y-93099346D01*
X153131157Y-93012260D01*
X152902740Y-93008264D01*
X152674322Y-93004268D01*
X152652368Y-92961813D01*
X152637293Y-92930468D01*
X152630451Y-92911916D01*
X152630414Y-92911381D01*
X152644163Y-92908827D01*
X152644163Y-92908827D01*
G37*
X152644163Y-92908827D02*
X152682350Y-92906612D01*
X152740386Y-92904876D01*
X152813680Y-92903761D01*
X152890555Y-92903403D01*
X153150696Y-92903403D01*
X153196627Y-92949334D01*
X153224929Y-92980985D01*
X153236393Y-93008770D01*
X153235668Y-93046745D01*
X153233821Y-93061820D01*
X153228448Y-93108934D01*
X153225369Y-93147904D01*
X153225085Y-93157403D01*
X153226945Y-93189427D01*
X153231614Y-93235228D01*
X153233821Y-93252986D01*
X153237235Y-93296603D01*
X153229820Y-93325915D01*
X153206927Y-93354980D01*
X153196627Y-93365472D01*
X153150696Y-93411403D01*
X152664102Y-93411403D01*
X152647258Y-93374434D01*
X152634782Y-93342601D01*
X152630414Y-93323977D01*
X152644218Y-93319202D01*
X152682786Y-93314739D01*
X152741856Y-93310885D01*
X152817163Y-93307938D01*
X152880786Y-93306517D01*
X153131157Y-93302546D01*
X153136056Y-93267901D01*
X153132631Y-93236392D01*
X153121541Y-93220952D01*
X153100808Y-93216637D01*
X153056645Y-93212952D01*
X152994646Y-93210191D01*
X152920409Y-93208648D01*
X152882206Y-93208425D01*
X152662283Y-93208203D01*
X152646349Y-93162494D01*
X152635515Y-93130142D01*
X152630462Y-93112545D01*
X152630414Y-93112037D01*
X152644148Y-93110272D01*
X152682230Y-93108331D01*
X152739982Y-93106378D01*
X152812727Y-93104576D01*
X152880786Y-93103317D01*
X153131157Y-93099346D01*
X153131157Y-93012260D01*
X152902740Y-93008264D01*
X152674322Y-93004268D01*
X152652368Y-92961813D01*
X152637293Y-92930468D01*
X152630451Y-92911916D01*
X152630414Y-92911381D01*
X152644163Y-92908827D01*
G36*
X152750858Y-93498543D02*
X152859337Y-93498727D01*
X152942787Y-93499441D01*
X153005204Y-93500985D01*
X153050585Y-93503659D01*
X153082929Y-93507766D01*
X153106233Y-93513605D01*
X153124495Y-93521478D01*
X153134918Y-93527439D01*
X153191445Y-93576805D01*
X153226877Y-93639396D01*
X153239590Y-93708647D01*
X153227963Y-93777992D01*
X153207068Y-93819285D01*
X153170922Y-93862635D01*
X153126776Y-93892179D01*
X153068962Y-93910005D01*
X152991813Y-93918197D01*
X152935214Y-93919358D01*
X152931147Y-93919202D01*
X152931147Y-93817803D01*
X152996050Y-93817184D01*
X153039014Y-93814346D01*
X153067122Y-93807820D01*
X153087453Y-93796137D01*
X153102788Y-93782177D01*
X153132390Y-93735295D01*
X153134919Y-93684959D01*
X153110205Y-93637384D01*
X153106856Y-93633681D01*
X153089435Y-93617877D01*
X153068709Y-93607967D01*
X153037862Y-93602602D01*
X152990077Y-93600432D01*
X152937248Y-93600089D01*
X152870881Y-93600833D01*
X152826606Y-93603912D01*
X152797509Y-93610599D01*
X152776673Y-93622164D01*
X152765607Y-93631647D01*
X152737698Y-93675700D01*
X152734343Y-93726436D01*
X152755659Y-93774864D01*
X152763573Y-93784210D01*
X152781147Y-93800120D01*
X152802087Y-93810050D01*
X152833282Y-93815382D01*
X152881622Y-93817497D01*
X152931147Y-93817803D01*
X152931147Y-93919202D01*
X152844068Y-93915850D01*
X152775586Y-93903934D01*
X152724100Y-93881525D01*
X152683943Y-93846536D01*
X152663361Y-93819285D01*
X152641125Y-93769753D01*
X152630804Y-93712344D01*
X152633567Y-93658978D01*
X152644712Y-93629117D01*
X152647883Y-93617399D01*
X152636057Y-93609623D01*
X152604366Y-93604195D01*
X152556093Y-93600089D01*
X152502329Y-93595593D01*
X152469982Y-93589347D01*
X152451485Y-93577984D01*
X152439270Y-93558132D01*
X152433862Y-93545660D01*
X152414101Y-93498489D01*
X152750858Y-93498543D01*
X152750858Y-93498543D01*
G37*
X152750858Y-93498543D02*
X152859337Y-93498727D01*
X152942787Y-93499441D01*
X153005204Y-93500985D01*
X153050585Y-93503659D01*
X153082929Y-93507766D01*
X153106233Y-93513605D01*
X153124495Y-93521478D01*
X153134918Y-93527439D01*
X153191445Y-93576805D01*
X153226877Y-93639396D01*
X153239590Y-93708647D01*
X153227963Y-93777992D01*
X153207068Y-93819285D01*
X153170922Y-93862635D01*
X153126776Y-93892179D01*
X153068962Y-93910005D01*
X152991813Y-93918197D01*
X152935214Y-93919358D01*
X152931147Y-93919202D01*
X152931147Y-93817803D01*
X152996050Y-93817184D01*
X153039014Y-93814346D01*
X153067122Y-93807820D01*
X153087453Y-93796137D01*
X153102788Y-93782177D01*
X153132390Y-93735295D01*
X153134919Y-93684959D01*
X153110205Y-93637384D01*
X153106856Y-93633681D01*
X153089435Y-93617877D01*
X153068709Y-93607967D01*
X153037862Y-93602602D01*
X152990077Y-93600432D01*
X152937248Y-93600089D01*
X152870881Y-93600833D01*
X152826606Y-93603912D01*
X152797509Y-93610599D01*
X152776673Y-93622164D01*
X152765607Y-93631647D01*
X152737698Y-93675700D01*
X152734343Y-93726436D01*
X152755659Y-93774864D01*
X152763573Y-93784210D01*
X152781147Y-93800120D01*
X152802087Y-93810050D01*
X152833282Y-93815382D01*
X152881622Y-93817497D01*
X152931147Y-93817803D01*
X152931147Y-93919202D01*
X152844068Y-93915850D01*
X152775586Y-93903934D01*
X152724100Y-93881525D01*
X152683943Y-93846536D01*
X152663361Y-93819285D01*
X152641125Y-93769753D01*
X152630804Y-93712344D01*
X152633567Y-93658978D01*
X152644712Y-93629117D01*
X152647883Y-93617399D01*
X152636057Y-93609623D01*
X152604366Y-93604195D01*
X152556093Y-93600089D01*
X152502329Y-93595593D01*
X152469982Y-93589347D01*
X152451485Y-93577984D01*
X152439270Y-93558132D01*
X152433862Y-93545660D01*
X152414101Y-93498489D01*
X152750858Y-93498543D01*
G36*
X152635255Y-94158734D02*
X152659584Y-94092802D01*
X152702617Y-94039387D01*
X152732909Y-94018496D01*
X152788494Y-93995721D01*
X152828686Y-93996194D01*
X152855717Y-94020098D01*
X152860313Y-94028943D01*
X152874644Y-94067130D01*
X152870972Y-94086632D01*
X152846907Y-94093238D01*
X152833614Y-94093574D01*
X152784710Y-94105668D01*
X152750499Y-94137189D01*
X152733976Y-94181001D01*
X152738134Y-94229965D01*
X152759727Y-94269766D01*
X152772044Y-94283210D01*
X152786987Y-94292739D01*
X152809575Y-94299175D01*
X152844828Y-94303343D01*
X152897766Y-94306063D01*
X152973407Y-94308158D01*
X152997357Y-94308700D01*
X153079290Y-94310679D01*
X153136955Y-94312929D01*
X153175108Y-94316303D01*
X153198504Y-94321654D01*
X153211898Y-94329836D01*
X153220045Y-94341701D01*
X153223644Y-94349298D01*
X153235952Y-94381558D01*
X153240014Y-94400549D01*
X153226448Y-94406824D01*
X153185434Y-94410654D01*
X153116499Y-94412060D01*
X153019169Y-94411062D01*
X153004157Y-94410752D01*
X152915359Y-94408559D01*
X152850519Y-94405967D01*
X152804567Y-94402278D01*
X152772435Y-94396796D01*
X152749053Y-94388825D01*
X152729352Y-94377667D01*
X152720910Y-94371830D01*
X152683557Y-94338364D01*
X152654503Y-94300933D01*
X152651967Y-94296351D01*
X152631943Y-94229234D01*
X152635255Y-94158734D01*
X152635255Y-94158734D01*
G37*
X152635255Y-94158734D02*
X152659584Y-94092802D01*
X152702617Y-94039387D01*
X152732909Y-94018496D01*
X152788494Y-93995721D01*
X152828686Y-93996194D01*
X152855717Y-94020098D01*
X152860313Y-94028943D01*
X152874644Y-94067130D01*
X152870972Y-94086632D01*
X152846907Y-94093238D01*
X152833614Y-94093574D01*
X152784710Y-94105668D01*
X152750499Y-94137189D01*
X152733976Y-94181001D01*
X152738134Y-94229965D01*
X152759727Y-94269766D01*
X152772044Y-94283210D01*
X152786987Y-94292739D01*
X152809575Y-94299175D01*
X152844828Y-94303343D01*
X152897766Y-94306063D01*
X152973407Y-94308158D01*
X152997357Y-94308700D01*
X153079290Y-94310679D01*
X153136955Y-94312929D01*
X153175108Y-94316303D01*
X153198504Y-94321654D01*
X153211898Y-94329836D01*
X153220045Y-94341701D01*
X153223644Y-94349298D01*
X153235952Y-94381558D01*
X153240014Y-94400549D01*
X153226448Y-94406824D01*
X153185434Y-94410654D01*
X153116499Y-94412060D01*
X153019169Y-94411062D01*
X153004157Y-94410752D01*
X152915359Y-94408559D01*
X152850519Y-94405967D01*
X152804567Y-94402278D01*
X152772435Y-94396796D01*
X152749053Y-94388825D01*
X152729352Y-94377667D01*
X152720910Y-94371830D01*
X152683557Y-94338364D01*
X152654503Y-94300933D01*
X152651967Y-94296351D01*
X152631943Y-94229234D01*
X152635255Y-94158734D01*
G36*
X152636468Y-94648916D02*
X152657587Y-94592044D01*
X152657993Y-94591393D01*
X152683880Y-94556220D01*
X152714133Y-94530253D01*
X152753558Y-94511990D01*
X152806962Y-94499928D01*
X152879151Y-94492564D01*
X152974932Y-94488396D01*
X152988578Y-94488031D01*
X153194342Y-94482784D01*
X153217178Y-94526944D01*
X153232610Y-94558897D01*
X153239923Y-94578190D01*
X153240014Y-94579082D01*
X153226522Y-94582421D01*
X153190126Y-94585073D01*
X153136952Y-94586704D01*
X153093893Y-94587060D01*
X153024141Y-94587068D01*
X152980337Y-94590257D01*
X152959444Y-94601372D01*
X152958425Y-94625159D01*
X152974241Y-94666364D01*
X153003315Y-94728574D01*
X153027463Y-94774319D01*
X153048413Y-94797847D01*
X153071247Y-94804764D01*
X153072377Y-94804774D01*
X153111712Y-94793361D01*
X153132962Y-94759568D01*
X153136039Y-94707851D01*
X153135506Y-94670599D01*
X153146235Y-94650957D01*
X153172005Y-94638708D01*
X153204837Y-94631658D01*
X153223466Y-94641818D01*
X153226132Y-94645643D01*
X153236840Y-94681659D01*
X153238356Y-94732094D01*
X153231259Y-94784034D01*
X153218288Y-94820838D01*
X153175085Y-94871722D01*
X153114946Y-94900646D01*
X153067962Y-94906374D01*
X153025582Y-94902003D01*
X152990988Y-94886185D01*
X152960263Y-94854863D01*
X152929490Y-94803982D01*
X152894752Y-94729484D01*
X152892788Y-94724946D01*
X152861787Y-94657839D01*
X152836362Y-94616428D01*
X152813514Y-94598679D01*
X152790245Y-94602553D01*
X152763556Y-94626017D01*
X152757414Y-94633033D01*
X152733600Y-94680030D01*
X152734603Y-94728727D01*
X152757951Y-94771138D01*
X152801175Y-94799276D01*
X152809660Y-94801891D01*
X152850808Y-94827352D01*
X152870628Y-94859659D01*
X152890270Y-94906374D01*
X152839450Y-94906374D01*
X152765582Y-94892164D01*
X152697827Y-94849985D01*
X152675161Y-94828036D01*
X152646069Y-94778143D01*
X152632900Y-94714693D01*
X152636468Y-94648916D01*
X152636468Y-94648916D01*
G37*
X152636468Y-94648916D02*
X152657587Y-94592044D01*
X152657993Y-94591393D01*
X152683880Y-94556220D01*
X152714133Y-94530253D01*
X152753558Y-94511990D01*
X152806962Y-94499928D01*
X152879151Y-94492564D01*
X152974932Y-94488396D01*
X152988578Y-94488031D01*
X153194342Y-94482784D01*
X153217178Y-94526944D01*
X153232610Y-94558897D01*
X153239923Y-94578190D01*
X153240014Y-94579082D01*
X153226522Y-94582421D01*
X153190126Y-94585073D01*
X153136952Y-94586704D01*
X153093893Y-94587060D01*
X153024141Y-94587068D01*
X152980337Y-94590257D01*
X152959444Y-94601372D01*
X152958425Y-94625159D01*
X152974241Y-94666364D01*
X153003315Y-94728574D01*
X153027463Y-94774319D01*
X153048413Y-94797847D01*
X153071247Y-94804764D01*
X153072377Y-94804774D01*
X153111712Y-94793361D01*
X153132962Y-94759568D01*
X153136039Y-94707851D01*
X153135506Y-94670599D01*
X153146235Y-94650957D01*
X153172005Y-94638708D01*
X153204837Y-94631658D01*
X153223466Y-94641818D01*
X153226132Y-94645643D01*
X153236840Y-94681659D01*
X153238356Y-94732094D01*
X153231259Y-94784034D01*
X153218288Y-94820838D01*
X153175085Y-94871722D01*
X153114946Y-94900646D01*
X153067962Y-94906374D01*
X153025582Y-94902003D01*
X152990988Y-94886185D01*
X152960263Y-94854863D01*
X152929490Y-94803982D01*
X152894752Y-94729484D01*
X152892788Y-94724946D01*
X152861787Y-94657839D01*
X152836362Y-94616428D01*
X152813514Y-94598679D01*
X152790245Y-94602553D01*
X152763556Y-94626017D01*
X152757414Y-94633033D01*
X152733600Y-94680030D01*
X152734603Y-94728727D01*
X152757951Y-94771138D01*
X152801175Y-94799276D01*
X152809660Y-94801891D01*
X152850808Y-94827352D01*
X152870628Y-94859659D01*
X152890270Y-94906374D01*
X152839450Y-94906374D01*
X152765582Y-94892164D01*
X152697827Y-94849985D01*
X152675161Y-94828036D01*
X152646069Y-94778143D01*
X152632900Y-94714693D01*
X152636468Y-94648916D01*
G36*
X152536789Y-95312774D02*
X152596113Y-95308521D01*
X152631072Y-95303635D01*
X152646320Y-95296865D01*
X152646515Y-95286958D01*
X152644695Y-95283746D01*
X152631515Y-95241016D01*
X152632285Y-95185433D01*
X152645833Y-95128923D01*
X152663361Y-95093578D01*
X152691361Y-95057339D01*
X152723049Y-95030847D01*
X152763313Y-95012661D01*
X152817043Y-95001338D01*
X152889126Y-94995438D01*
X152984451Y-94993517D01*
X153002737Y-94993483D01*
X153208146Y-94993460D01*
X153224080Y-95039169D01*
X153234920Y-95071633D01*
X153239968Y-95089445D01*
X153240014Y-95089969D01*
X153226328Y-95091723D01*
X153188576Y-95093216D01*
X153131724Y-95094334D01*
X153060734Y-95094963D01*
X153017573Y-95095060D01*
X152932473Y-95095262D01*
X152871481Y-95096302D01*
X152829677Y-95098829D01*
X152802142Y-95103496D01*
X152783956Y-95110953D01*
X152770198Y-95121849D01*
X152763573Y-95128653D01*
X152736875Y-95175388D01*
X152734875Y-95226388D01*
X152757455Y-95272659D01*
X152765607Y-95281216D01*
X152780936Y-95293767D01*
X152799118Y-95302472D01*
X152825409Y-95308029D01*
X152865062Y-95311134D01*
X152923332Y-95312484D01*
X153003673Y-95312774D01*
X153208146Y-95312774D01*
X153224080Y-95358483D01*
X153234920Y-95390947D01*
X153239968Y-95408759D01*
X153240014Y-95409283D01*
X153226123Y-95410623D01*
X153186939Y-95411832D01*
X153126200Y-95412859D01*
X153047641Y-95413658D01*
X152954998Y-95414179D01*
X152852009Y-95414374D01*
X152454842Y-95414374D01*
X152434944Y-95367203D01*
X152415047Y-95320031D01*
X152536789Y-95312774D01*
X152536789Y-95312774D01*
G37*
X152536789Y-95312774D02*
X152596113Y-95308521D01*
X152631072Y-95303635D01*
X152646320Y-95296865D01*
X152646515Y-95286958D01*
X152644695Y-95283746D01*
X152631515Y-95241016D01*
X152632285Y-95185433D01*
X152645833Y-95128923D01*
X152663361Y-95093578D01*
X152691361Y-95057339D01*
X152723049Y-95030847D01*
X152763313Y-95012661D01*
X152817043Y-95001338D01*
X152889126Y-94995438D01*
X152984451Y-94993517D01*
X153002737Y-94993483D01*
X153208146Y-94993460D01*
X153224080Y-95039169D01*
X153234920Y-95071633D01*
X153239968Y-95089445D01*
X153240014Y-95089969D01*
X153226328Y-95091723D01*
X153188576Y-95093216D01*
X153131724Y-95094334D01*
X153060734Y-95094963D01*
X153017573Y-95095060D01*
X152932473Y-95095262D01*
X152871481Y-95096302D01*
X152829677Y-95098829D01*
X152802142Y-95103496D01*
X152783956Y-95110953D01*
X152770198Y-95121849D01*
X152763573Y-95128653D01*
X152736875Y-95175388D01*
X152734875Y-95226388D01*
X152757455Y-95272659D01*
X152765607Y-95281216D01*
X152780936Y-95293767D01*
X152799118Y-95302472D01*
X152825409Y-95308029D01*
X152865062Y-95311134D01*
X152923332Y-95312484D01*
X153003673Y-95312774D01*
X153208146Y-95312774D01*
X153224080Y-95358483D01*
X153234920Y-95390947D01*
X153239968Y-95408759D01*
X153240014Y-95409283D01*
X153226123Y-95410623D01*
X153186939Y-95411832D01*
X153126200Y-95412859D01*
X153047641Y-95413658D01*
X152954998Y-95414179D01*
X152852009Y-95414374D01*
X152454842Y-95414374D01*
X152434944Y-95367203D01*
X152415047Y-95320031D01*
X152536789Y-95312774D01*
G36*
X152616739Y-96520357D02*
X152655235Y-96463133D01*
X152710835Y-96418911D01*
X152781586Y-96392493D01*
X152833662Y-96387150D01*
X152855393Y-96387757D01*
X152872031Y-96392838D01*
X152886937Y-96406805D01*
X152903473Y-96434071D01*
X152924998Y-96479048D01*
X152954874Y-96546149D01*
X152955024Y-96546489D01*
X152983313Y-96608253D01*
X153008433Y-96658901D01*
X153027679Y-96693256D01*
X153038348Y-96706142D01*
X153038434Y-96706146D01*
X153061666Y-96694788D01*
X153087274Y-96668229D01*
X153105721Y-96637737D01*
X153109386Y-96622290D01*
X153096712Y-96580145D01*
X153064971Y-96543852D01*
X153030072Y-96526143D01*
X153004345Y-96509108D01*
X152975046Y-96475738D01*
X152949735Y-96436511D01*
X152935971Y-96401904D01*
X152935214Y-96394667D01*
X152947660Y-96386521D01*
X152979472Y-96386030D01*
X153022366Y-96392017D01*
X153068058Y-96403303D01*
X153108261Y-96418710D01*
X153109822Y-96419489D01*
X153174562Y-96465856D01*
X153218597Y-96525949D01*
X153240211Y-96594195D01*
X153237685Y-96665022D01*
X153209304Y-96732856D01*
X153207308Y-96735872D01*
X153158948Y-96789233D01*
X153095852Y-96824320D01*
X153012887Y-96843738D01*
X152989578Y-96846344D01*
X152879555Y-96850959D01*
X152828248Y-96845427D01*
X152828248Y-96706146D01*
X152860253Y-96704336D01*
X152869593Y-96694438D01*
X152862605Y-96669762D01*
X152846087Y-96630865D01*
X152825381Y-96587385D01*
X152824833Y-96586304D01*
X152805449Y-96549451D01*
X152792513Y-96534660D01*
X152778951Y-96538307D01*
X152761132Y-96553665D01*
X152735345Y-96592737D01*
X152733450Y-96634814D01*
X152752217Y-96672557D01*
X152788415Y-96698626D01*
X152828248Y-96706146D01*
X152828248Y-96845427D01*
X152791527Y-96841466D01*
X152721712Y-96817110D01*
X152672802Y-96783204D01*
X152623378Y-96722007D01*
X152598859Y-96654597D01*
X152597297Y-96585780D01*
X152616739Y-96520357D01*
X152616739Y-96520357D01*
G37*
X152616739Y-96520357D02*
X152655235Y-96463133D01*
X152710835Y-96418911D01*
X152781586Y-96392493D01*
X152833662Y-96387150D01*
X152855393Y-96387757D01*
X152872031Y-96392838D01*
X152886937Y-96406805D01*
X152903473Y-96434071D01*
X152924998Y-96479048D01*
X152954874Y-96546149D01*
X152955024Y-96546489D01*
X152983313Y-96608253D01*
X153008433Y-96658901D01*
X153027679Y-96693256D01*
X153038348Y-96706142D01*
X153038434Y-96706146D01*
X153061666Y-96694788D01*
X153087274Y-96668229D01*
X153105721Y-96637737D01*
X153109386Y-96622290D01*
X153096712Y-96580145D01*
X153064971Y-96543852D01*
X153030072Y-96526143D01*
X153004345Y-96509108D01*
X152975046Y-96475738D01*
X152949735Y-96436511D01*
X152935971Y-96401904D01*
X152935214Y-96394667D01*
X152947660Y-96386521D01*
X152979472Y-96386030D01*
X153022366Y-96392017D01*
X153068058Y-96403303D01*
X153108261Y-96418710D01*
X153109822Y-96419489D01*
X153174562Y-96465856D01*
X153218597Y-96525949D01*
X153240211Y-96594195D01*
X153237685Y-96665022D01*
X153209304Y-96732856D01*
X153207308Y-96735872D01*
X153158948Y-96789233D01*
X153095852Y-96824320D01*
X153012887Y-96843738D01*
X152989578Y-96846344D01*
X152879555Y-96850959D01*
X152828248Y-96845427D01*
X152828248Y-96706146D01*
X152860253Y-96704336D01*
X152869593Y-96694438D01*
X152862605Y-96669762D01*
X152846087Y-96630865D01*
X152825381Y-96587385D01*
X152824833Y-96586304D01*
X152805449Y-96549451D01*
X152792513Y-96534660D01*
X152778951Y-96538307D01*
X152761132Y-96553665D01*
X152735345Y-96592737D01*
X152733450Y-96634814D01*
X152752217Y-96672557D01*
X152788415Y-96698626D01*
X152828248Y-96706146D01*
X152828248Y-96845427D01*
X152791527Y-96841466D01*
X152721712Y-96817110D01*
X152672802Y-96783204D01*
X152623378Y-96722007D01*
X152598859Y-96654597D01*
X152597297Y-96585780D01*
X152616739Y-96520357D01*
G36*
X152607462Y-97647545D02*
X152643233Y-97579515D01*
X152700801Y-97529309D01*
X152737812Y-97511475D01*
X152793382Y-97497597D01*
X152863596Y-97490493D01*
X152940227Y-97489820D01*
X153015052Y-97495233D01*
X153079842Y-97506390D01*
X153126373Y-97522946D01*
X153134387Y-97528034D01*
X153194207Y-97588305D01*
X153230035Y-97659891D01*
X153240520Y-97737568D01*
X153224310Y-97816112D01*
X153214592Y-97837971D01*
X153184643Y-97880538D01*
X153144933Y-97917897D01*
X153139897Y-97921428D01*
X153115624Y-97935779D01*
X153089678Y-97945266D01*
X153055522Y-97950870D01*
X153006619Y-97953574D01*
X152936435Y-97954361D01*
X152920700Y-97954374D01*
X152915692Y-97954338D01*
X152915692Y-97809231D01*
X152981930Y-97808387D01*
X153025886Y-97805064D01*
X153054279Y-97798077D01*
X153073825Y-97786244D01*
X153080357Y-97780203D01*
X153105180Y-97745474D01*
X153104048Y-97711757D01*
X153082516Y-97677665D01*
X153059529Y-97657331D01*
X153025978Y-97645289D01*
X152973069Y-97638526D01*
X152966899Y-97638062D01*
X152871013Y-97636908D01*
X152799799Y-97648972D01*
X152753694Y-97674090D01*
X152733135Y-97712100D01*
X152732014Y-97725668D01*
X152737652Y-97761296D01*
X152757186Y-97785666D01*
X152794542Y-97800567D01*
X152853650Y-97807785D01*
X152915692Y-97809231D01*
X152915692Y-97954338D01*
X152845913Y-97953834D01*
X152793659Y-97951564D01*
X152757449Y-97946592D01*
X152730799Y-97937947D01*
X152707222Y-97924655D01*
X152702838Y-97921717D01*
X152643749Y-97872347D01*
X152609447Y-97818551D01*
X152595831Y-97753058D01*
X152595165Y-97730818D01*
X152607462Y-97647545D01*
X152607462Y-97647545D01*
G37*
X152607462Y-97647545D02*
X152643233Y-97579515D01*
X152700801Y-97529309D01*
X152737812Y-97511475D01*
X152793382Y-97497597D01*
X152863596Y-97490493D01*
X152940227Y-97489820D01*
X153015052Y-97495233D01*
X153079842Y-97506390D01*
X153126373Y-97522946D01*
X153134387Y-97528034D01*
X153194207Y-97588305D01*
X153230035Y-97659891D01*
X153240520Y-97737568D01*
X153224310Y-97816112D01*
X153214592Y-97837971D01*
X153184643Y-97880538D01*
X153144933Y-97917897D01*
X153139897Y-97921428D01*
X153115624Y-97935779D01*
X153089678Y-97945266D01*
X153055522Y-97950870D01*
X153006619Y-97953574D01*
X152936435Y-97954361D01*
X152920700Y-97954374D01*
X152915692Y-97954338D01*
X152915692Y-97809231D01*
X152981930Y-97808387D01*
X153025886Y-97805064D01*
X153054279Y-97798077D01*
X153073825Y-97786244D01*
X153080357Y-97780203D01*
X153105180Y-97745474D01*
X153104048Y-97711757D01*
X153082516Y-97677665D01*
X153059529Y-97657331D01*
X153025978Y-97645289D01*
X152973069Y-97638526D01*
X152966899Y-97638062D01*
X152871013Y-97636908D01*
X152799799Y-97648972D01*
X152753694Y-97674090D01*
X152733135Y-97712100D01*
X152732014Y-97725668D01*
X152737652Y-97761296D01*
X152757186Y-97785666D01*
X152794542Y-97800567D01*
X152853650Y-97807785D01*
X152915692Y-97809231D01*
X152915692Y-97954338D01*
X152845913Y-97953834D01*
X152793659Y-97951564D01*
X152757449Y-97946592D01*
X152730799Y-97937947D01*
X152707222Y-97924655D01*
X152702838Y-97921717D01*
X152643749Y-97872347D01*
X152609447Y-97818551D01*
X152595831Y-97753058D01*
X152595165Y-97730818D01*
X152607462Y-97647545D01*
G36*
X152613280Y-95972567D02*
X152640223Y-95925988D01*
X152666966Y-95893603D01*
X152694984Y-95869918D01*
X152729248Y-95853601D01*
X152774727Y-95843321D01*
X152836392Y-95837746D01*
X152919211Y-95835544D01*
X152978746Y-95835289D01*
X153197891Y-95835289D01*
X153225544Y-95896974D01*
X153253197Y-95958660D01*
X153013170Y-95965917D01*
X152923528Y-95968916D01*
X152858462Y-95972062D01*
X152813526Y-95975959D01*
X152784270Y-95981213D01*
X152766248Y-95988429D01*
X152755011Y-95998210D01*
X152752579Y-96001348D01*
X152733583Y-96048899D01*
X152741100Y-96096963D01*
X152761043Y-96125574D01*
X152775175Y-96137213D01*
X152793720Y-96145269D01*
X152821834Y-96150389D01*
X152864673Y-96153219D01*
X152927395Y-96154404D01*
X152992761Y-96154603D01*
X153074768Y-96154642D01*
X153132816Y-96156046D01*
X153171965Y-96160746D01*
X153197280Y-96170673D01*
X153213823Y-96187757D01*
X153226656Y-96213928D01*
X153239991Y-96248885D01*
X153254507Y-96287064D01*
X152996889Y-96282519D01*
X152904019Y-96280689D01*
X152835389Y-96278548D01*
X152786211Y-96275479D01*
X152751698Y-96270866D01*
X152727062Y-96264092D01*
X152707516Y-96254541D01*
X152690270Y-96243026D01*
X152635180Y-96187470D01*
X152603322Y-96119680D01*
X152595691Y-96045947D01*
X152613280Y-95972567D01*
X152613280Y-95972567D01*
G37*
X152613280Y-95972567D02*
X152640223Y-95925988D01*
X152666966Y-95893603D01*
X152694984Y-95869918D01*
X152729248Y-95853601D01*
X152774727Y-95843321D01*
X152836392Y-95837746D01*
X152919211Y-95835544D01*
X152978746Y-95835289D01*
X153197891Y-95835289D01*
X153225544Y-95896974D01*
X153253197Y-95958660D01*
X153013170Y-95965917D01*
X152923528Y-95968916D01*
X152858462Y-95972062D01*
X152813526Y-95975959D01*
X152784270Y-95981213D01*
X152766248Y-95988429D01*
X152755011Y-95998210D01*
X152752579Y-96001348D01*
X152733583Y-96048899D01*
X152741100Y-96096963D01*
X152761043Y-96125574D01*
X152775175Y-96137213D01*
X152793720Y-96145269D01*
X152821834Y-96150389D01*
X152864673Y-96153219D01*
X152927395Y-96154404D01*
X152992761Y-96154603D01*
X153074768Y-96154642D01*
X153132816Y-96156046D01*
X153171965Y-96160746D01*
X153197280Y-96170673D01*
X153213823Y-96187757D01*
X153226656Y-96213928D01*
X153239991Y-96248885D01*
X153254507Y-96287064D01*
X152996889Y-96282519D01*
X152904019Y-96280689D01*
X152835389Y-96278548D01*
X152786211Y-96275479D01*
X152751698Y-96270866D01*
X152727062Y-96264092D01*
X152707516Y-96254541D01*
X152690270Y-96243026D01*
X152635180Y-96187470D01*
X152603322Y-96119680D01*
X152595691Y-96045947D01*
X152613280Y-95972567D01*
G36*
X152605418Y-97088916D02*
X152633068Y-97033459D01*
X152683980Y-96984512D01*
X152702838Y-96971031D01*
X152727515Y-96956346D01*
X152754316Y-96946818D01*
X152790087Y-96941367D01*
X152841669Y-96938913D01*
X152909767Y-96938374D01*
X153003088Y-96940808D01*
X153073157Y-96949266D01*
X153125431Y-96965486D01*
X153165369Y-96991206D01*
X153198429Y-97028163D01*
X153200386Y-97030878D01*
X153220408Y-97067300D01*
X153230315Y-97111158D01*
X153232757Y-97166936D01*
X153232757Y-97257612D01*
X153320783Y-97257650D01*
X153369808Y-97258494D01*
X153398565Y-97263636D01*
X153415811Y-97277073D01*
X153430308Y-97302802D01*
X153433269Y-97308981D01*
X153447148Y-97337896D01*
X153455914Y-97360284D01*
X153456671Y-97376931D01*
X153446523Y-97388624D01*
X153422573Y-97396150D01*
X153381926Y-97400294D01*
X153321686Y-97401845D01*
X153238955Y-97401589D01*
X153130839Y-97400311D01*
X153098500Y-97399912D01*
X152987024Y-97398475D01*
X152914103Y-97397188D01*
X152914103Y-97257689D01*
X152975999Y-97256905D01*
X153016497Y-97253420D01*
X153043208Y-97245536D01*
X153063744Y-97231555D01*
X153073760Y-97222063D01*
X153103067Y-97183256D01*
X153105452Y-97148897D01*
X153081250Y-97113444D01*
X153080357Y-97112546D01*
X153061653Y-97098121D01*
X153036232Y-97089347D01*
X152997084Y-97084921D01*
X152937197Y-97083542D01*
X152923930Y-97083517D01*
X152841401Y-97086848D01*
X152784191Y-97097691D01*
X152749266Y-97117320D01*
X152733594Y-97147010D01*
X152732014Y-97164169D01*
X152739426Y-97204894D01*
X152763830Y-97232828D01*
X152808480Y-97249643D01*
X152876630Y-97257010D01*
X152914103Y-97257689D01*
X152914103Y-97397188D01*
X152900745Y-97396952D01*
X152835833Y-97394983D01*
X152788458Y-97392210D01*
X152754790Y-97388272D01*
X152730998Y-97382811D01*
X152713253Y-97375468D01*
X152697724Y-97365883D01*
X152691881Y-97361773D01*
X152636685Y-97307255D01*
X152605390Y-97238324D01*
X152596665Y-97158588D01*
X152605418Y-97088916D01*
X152605418Y-97088916D01*
G37*
X152605418Y-97088916D02*
X152633068Y-97033459D01*
X152683980Y-96984512D01*
X152702838Y-96971031D01*
X152727515Y-96956346D01*
X152754316Y-96946818D01*
X152790087Y-96941367D01*
X152841669Y-96938913D01*
X152909767Y-96938374D01*
X153003088Y-96940808D01*
X153073157Y-96949266D01*
X153125431Y-96965486D01*
X153165369Y-96991206D01*
X153198429Y-97028163D01*
X153200386Y-97030878D01*
X153220408Y-97067300D01*
X153230315Y-97111158D01*
X153232757Y-97166936D01*
X153232757Y-97257612D01*
X153320783Y-97257650D01*
X153369808Y-97258494D01*
X153398565Y-97263636D01*
X153415811Y-97277073D01*
X153430308Y-97302802D01*
X153433269Y-97308981D01*
X153447148Y-97337896D01*
X153455914Y-97360284D01*
X153456671Y-97376931D01*
X153446523Y-97388624D01*
X153422573Y-97396150D01*
X153381926Y-97400294D01*
X153321686Y-97401845D01*
X153238955Y-97401589D01*
X153130839Y-97400311D01*
X153098500Y-97399912D01*
X152987024Y-97398475D01*
X152914103Y-97397188D01*
X152914103Y-97257689D01*
X152975999Y-97256905D01*
X153016497Y-97253420D01*
X153043208Y-97245536D01*
X153063744Y-97231555D01*
X153073760Y-97222063D01*
X153103067Y-97183256D01*
X153105452Y-97148897D01*
X153081250Y-97113444D01*
X153080357Y-97112546D01*
X153061653Y-97098121D01*
X153036232Y-97089347D01*
X152997084Y-97084921D01*
X152937197Y-97083542D01*
X152923930Y-97083517D01*
X152841401Y-97086848D01*
X152784191Y-97097691D01*
X152749266Y-97117320D01*
X152733594Y-97147010D01*
X152732014Y-97164169D01*
X152739426Y-97204894D01*
X152763830Y-97232828D01*
X152808480Y-97249643D01*
X152876630Y-97257010D01*
X152914103Y-97257689D01*
X152914103Y-97397188D01*
X152900745Y-97396952D01*
X152835833Y-97394983D01*
X152788458Y-97392210D01*
X152754790Y-97388272D01*
X152730998Y-97382811D01*
X152713253Y-97375468D01*
X152697724Y-97365883D01*
X152691881Y-97361773D01*
X152636685Y-97307255D01*
X152605390Y-97238324D01*
X152596665Y-97158588D01*
X152605418Y-97088916D01*
D11*
G04 #@! TO.C,U1*
X125696420Y-93081800D02*
X125646420Y-93081800D01*
X125696420Y-97231800D02*
X125551420Y-97231800D01*
X120546420Y-97231800D02*
X120691420Y-97231800D01*
X120546420Y-93081800D02*
X120691420Y-93081800D01*
X125696420Y-93081800D02*
X125696420Y-97231800D01*
X120546420Y-93081800D02*
X120546420Y-97231800D01*
X125646420Y-93081800D02*
X125646420Y-91681800D01*
D12*
G04 #@! TO.C,J6*
X110501120Y-93709800D02*
X113161120Y-93709800D01*
X110501120Y-88569800D02*
X110501120Y-93709800D01*
X113161120Y-88569800D02*
X113161120Y-93709800D01*
X110501120Y-88569800D02*
X113161120Y-88569800D01*
X110501120Y-87299800D02*
X110501120Y-85969800D01*
X110501120Y-85969800D02*
X111831120Y-85969800D01*
G04 #@! TO.C,R19*
X121793140Y-87027873D02*
X121793140Y-87370407D01*
X122813140Y-87027873D02*
X122813140Y-87370407D01*
G04 #@! TO.C,R20*
X123467520Y-102946267D02*
X123467520Y-102603733D01*
X124487520Y-102946267D02*
X124487520Y-102603733D01*
G04 #@! TO.C,J5*
X110541760Y-103333860D02*
X113201760Y-103333860D01*
X110541760Y-98193860D02*
X110541760Y-103333860D01*
X113201760Y-98193860D02*
X113201760Y-103333860D01*
X110541760Y-98193860D02*
X113201760Y-98193860D01*
X110541760Y-96923860D02*
X110541760Y-95593860D01*
X110541760Y-95593860D02*
X111871760Y-95593860D01*
G04 #@! TO.C,Q2*
X144420000Y-103485000D02*
X145350000Y-103485000D01*
X147580000Y-103485000D02*
X146650000Y-103485000D01*
X147580000Y-103485000D02*
X147580000Y-101325000D01*
X144420000Y-103485000D02*
X144420000Y-102025000D01*
G04 #@! TO.C,Q1*
X145185000Y-86504740D02*
X144255000Y-86504740D01*
X142025000Y-86504740D02*
X142955000Y-86504740D01*
X142025000Y-86504740D02*
X142025000Y-88664740D01*
X145185000Y-86504740D02*
X145185000Y-87964740D01*
G04 #@! TO.C,C1*
X126790000Y-87457718D02*
X126790000Y-86940562D01*
X128210000Y-87457718D02*
X128210000Y-86940562D01*
G04 #@! TO.C,C2*
X120948760Y-87457718D02*
X120948760Y-86940562D01*
X119528760Y-87457718D02*
X119528760Y-86940562D01*
G04 #@! TO.C,C3*
X120948760Y-102516422D02*
X120948760Y-103033578D01*
X119528760Y-102516422D02*
X119528760Y-103033578D01*
G04 #@! TO.C,C4*
X126790000Y-102516422D02*
X126790000Y-103033578D01*
X128210000Y-102516422D02*
X128210000Y-103033578D01*
G04 #@! TO.C,R21*
X137176664Y-87386007D02*
X137176664Y-87043473D01*
X136156664Y-87386007D02*
X136156664Y-87043473D01*
G04 #@! TO.C,R22*
X137176664Y-102603733D02*
X137176664Y-102946267D01*
X136156664Y-102603733D02*
X136156664Y-102946267D01*
G04 #@! TO.C,R23*
X135509998Y-87043473D02*
X135509998Y-87386007D01*
X134489998Y-87043473D02*
X134489998Y-87386007D01*
G04 #@! TO.C,R24*
X135509998Y-102946267D02*
X135509998Y-102603733D01*
X134489998Y-102946267D02*
X134489998Y-102603733D01*
G04 #@! TO.C,U2*
D11*
X130280160Y-96011904D02*
X131089684Y-96011904D01*
X131184922Y-95964285D01*
X131232541Y-95916666D01*
X131280160Y-95821428D01*
X131280160Y-95630952D01*
X131232541Y-95535714D01*
X131184922Y-95488095D01*
X131089684Y-95440476D01*
X130280160Y-95440476D01*
X130375399Y-95011904D02*
X130327780Y-94964285D01*
X130280160Y-94869047D01*
X130280160Y-94630952D01*
X130327780Y-94535714D01*
X130375399Y-94488095D01*
X130470637Y-94440476D01*
X130565875Y-94440476D01*
X130708732Y-94488095D01*
X131280160Y-95059523D01*
X131280160Y-94440476D01*
G04 #@! TO.C,R16*
X140452380Y-106642857D02*
X139976190Y-106976190D01*
X140452380Y-107214285D02*
X139452380Y-107214285D01*
X139452380Y-106833333D01*
X139500000Y-106738095D01*
X139547619Y-106690476D01*
X139642857Y-106642857D01*
X139785714Y-106642857D01*
X139880952Y-106690476D01*
X139928571Y-106738095D01*
X139976190Y-106833333D01*
X139976190Y-107214285D01*
X140452380Y-105690476D02*
X140452380Y-106261904D01*
X140452380Y-105976190D02*
X139452380Y-105976190D01*
X139595238Y-106071428D01*
X139690476Y-106166666D01*
X139738095Y-106261904D01*
X139452380Y-104833333D02*
X139452380Y-105023809D01*
X139500000Y-105119047D01*
X139547619Y-105166666D01*
X139690476Y-105261904D01*
X139880952Y-105309523D01*
X140261904Y-105309523D01*
X140357142Y-105261904D01*
X140404761Y-105214285D01*
X140452380Y-105119047D01*
X140452380Y-104928571D01*
X140404761Y-104833333D01*
X140357142Y-104785714D01*
X140261904Y-104738095D01*
X140023809Y-104738095D01*
X139928571Y-104785714D01*
X139880952Y-104833333D01*
X139833333Y-104928571D01*
X139833333Y-105119047D01*
X139880952Y-105214285D01*
X139928571Y-105261904D01*
X140023809Y-105309523D01*
G04 #@! TO.C,D2*
X126798184Y-106741400D02*
X126798184Y-105741400D01*
X127036280Y-105741400D01*
X127179137Y-105789020D01*
X127274375Y-105884258D01*
X127321994Y-105979496D01*
X127369613Y-106169972D01*
X127369613Y-106312829D01*
X127321994Y-106503305D01*
X127274375Y-106598543D01*
X127179137Y-106693781D01*
X127036280Y-106741400D01*
X126798184Y-106741400D01*
X127750565Y-105836639D02*
X127798184Y-105789020D01*
X127893422Y-105741400D01*
X128131518Y-105741400D01*
X128226756Y-105789020D01*
X128274375Y-105836639D01*
X128321994Y-105931877D01*
X128321994Y-106027115D01*
X128274375Y-106169972D01*
X127702946Y-106741400D01*
X128321994Y-106741400D01*
G04 #@! TO.C,J2*
X123766666Y-107602380D02*
X123766666Y-108316666D01*
X123719047Y-108459523D01*
X123623809Y-108554761D01*
X123480952Y-108602380D01*
X123385714Y-108602380D01*
X124195238Y-107697619D02*
X124242857Y-107650000D01*
X124338095Y-107602380D01*
X124576190Y-107602380D01*
X124671428Y-107650000D01*
X124719047Y-107697619D01*
X124766666Y-107792857D01*
X124766666Y-107888095D01*
X124719047Y-108030952D01*
X124147619Y-108602380D01*
X124766666Y-108602380D01*
G04 #@! TO.C,J1*
X124466666Y-82052380D02*
X124466666Y-82766666D01*
X124419047Y-82909523D01*
X124323809Y-83004761D01*
X124180952Y-83052380D01*
X124085714Y-83052380D01*
X125466666Y-83052380D02*
X124895238Y-83052380D01*
X125180952Y-83052380D02*
X125180952Y-82052380D01*
X125085714Y-82195238D01*
X124990476Y-82290476D01*
X124895238Y-82338095D01*
G04 #@! TO.C,J3*
X136499026Y-77752380D02*
X136499026Y-78466666D01*
X136451407Y-78609523D01*
X136356169Y-78704761D01*
X136213312Y-78752380D01*
X136118074Y-78752380D01*
X136879979Y-77752380D02*
X137499026Y-77752380D01*
X137165693Y-78133333D01*
X137308550Y-78133333D01*
X137403788Y-78180952D01*
X137451407Y-78228571D01*
X137499026Y-78323809D01*
X137499026Y-78561904D01*
X137451407Y-78657142D01*
X137403788Y-78704761D01*
X137308550Y-78752380D01*
X137022836Y-78752380D01*
X136927598Y-78704761D01*
X136879979Y-78657142D01*
G04 #@! TO.C,J4*
X146616666Y-107702380D02*
X146616666Y-108416666D01*
X146569047Y-108559523D01*
X146473809Y-108654761D01*
X146330952Y-108702380D01*
X146235714Y-108702380D01*
X147521428Y-108035714D02*
X147521428Y-108702380D01*
X147283333Y-107654761D02*
X147045238Y-108369047D01*
X147664285Y-108369047D01*
G04 #@! TO.C,R1*
X116985400Y-84790806D02*
X116509210Y-85124140D01*
X116985400Y-85362235D02*
X115985400Y-85362235D01*
X115985400Y-84981282D01*
X116033020Y-84886044D01*
X116080639Y-84838425D01*
X116175877Y-84790806D01*
X116318734Y-84790806D01*
X116413972Y-84838425D01*
X116461591Y-84886044D01*
X116509210Y-84981282D01*
X116509210Y-85362235D01*
X116985400Y-83838425D02*
X116985400Y-84409854D01*
X116985400Y-84124140D02*
X115985400Y-84124140D01*
X116128258Y-84219378D01*
X116223496Y-84314616D01*
X116271115Y-84409854D01*
G04 #@! TO.C,R2*
X116960000Y-105518526D02*
X116483810Y-105851860D01*
X116960000Y-106089955D02*
X115960000Y-106089955D01*
X115960000Y-105709002D01*
X116007620Y-105613764D01*
X116055239Y-105566145D01*
X116150477Y-105518526D01*
X116293334Y-105518526D01*
X116388572Y-105566145D01*
X116436191Y-105613764D01*
X116483810Y-105709002D01*
X116483810Y-106089955D01*
X116055239Y-105137574D02*
X116007620Y-105089955D01*
X115960000Y-104994717D01*
X115960000Y-104756621D01*
X116007620Y-104661383D01*
X116055239Y-104613764D01*
X116150477Y-104566145D01*
X116245715Y-104566145D01*
X116388572Y-104613764D01*
X116960000Y-105185193D01*
X116960000Y-104566145D01*
G04 #@! TO.C,R3*
X118626760Y-84790806D02*
X118150570Y-85124140D01*
X118626760Y-85362235D02*
X117626760Y-85362235D01*
X117626760Y-84981282D01*
X117674380Y-84886044D01*
X117721999Y-84838425D01*
X117817237Y-84790806D01*
X117960094Y-84790806D01*
X118055332Y-84838425D01*
X118102951Y-84886044D01*
X118150570Y-84981282D01*
X118150570Y-85362235D01*
X117626760Y-84457473D02*
X117626760Y-83838425D01*
X118007713Y-84171759D01*
X118007713Y-84028901D01*
X118055332Y-83933663D01*
X118102951Y-83886044D01*
X118198189Y-83838425D01*
X118436284Y-83838425D01*
X118531522Y-83886044D01*
X118579141Y-83933663D01*
X118626760Y-84028901D01*
X118626760Y-84314616D01*
X118579141Y-84409854D01*
X118531522Y-84457473D01*
G04 #@! TO.C,R4*
X118619140Y-105538786D02*
X118142950Y-105872120D01*
X118619140Y-106110215D02*
X117619140Y-106110215D01*
X117619140Y-105729262D01*
X117666760Y-105634024D01*
X117714379Y-105586405D01*
X117809617Y-105538786D01*
X117952474Y-105538786D01*
X118047712Y-105586405D01*
X118095331Y-105634024D01*
X118142950Y-105729262D01*
X118142950Y-106110215D01*
X117952474Y-104681643D02*
X118619140Y-104681643D01*
X117571521Y-104919739D02*
X118285807Y-105157834D01*
X118285807Y-104538786D01*
G04 #@! TO.C,R5*
X124479900Y-84840806D02*
X124003710Y-85174140D01*
X124479900Y-85412235D02*
X123479900Y-85412235D01*
X123479900Y-85031282D01*
X123527520Y-84936044D01*
X123575139Y-84888425D01*
X123670377Y-84840806D01*
X123813234Y-84840806D01*
X123908472Y-84888425D01*
X123956091Y-84936044D01*
X124003710Y-85031282D01*
X124003710Y-85412235D01*
X123479900Y-83936044D02*
X123479900Y-84412235D01*
X123956091Y-84459854D01*
X123908472Y-84412235D01*
X123860853Y-84316997D01*
X123860853Y-84078901D01*
X123908472Y-83983663D01*
X123956091Y-83936044D01*
X124051329Y-83888425D01*
X124289424Y-83888425D01*
X124384662Y-83936044D01*
X124432281Y-83983663D01*
X124479900Y-84078901D01*
X124479900Y-84316997D01*
X124432281Y-84412235D01*
X124384662Y-84459854D01*
G04 #@! TO.C,R6*
X122748300Y-105503006D02*
X122272110Y-105836340D01*
X122748300Y-106074435D02*
X121748300Y-106074435D01*
X121748300Y-105693482D01*
X121795920Y-105598244D01*
X121843539Y-105550625D01*
X121938777Y-105503006D01*
X122081634Y-105503006D01*
X122176872Y-105550625D01*
X122224491Y-105598244D01*
X122272110Y-105693482D01*
X122272110Y-106074435D01*
X121748300Y-104645863D02*
X121748300Y-104836340D01*
X121795920Y-104931578D01*
X121843539Y-104979197D01*
X121986396Y-105074435D01*
X122176872Y-105122054D01*
X122557824Y-105122054D01*
X122653062Y-105074435D01*
X122700681Y-105026816D01*
X122748300Y-104931578D01*
X122748300Y-104741101D01*
X122700681Y-104645863D01*
X122653062Y-104598244D01*
X122557824Y-104550625D01*
X122319729Y-104550625D01*
X122224491Y-104598244D01*
X122176872Y-104645863D01*
X122129253Y-104741101D01*
X122129253Y-104931578D01*
X122176872Y-105026816D01*
X122224491Y-105074435D01*
X122319729Y-105122054D01*
G04 #@! TO.C,R7*
X126204280Y-84840806D02*
X125728090Y-85174140D01*
X126204280Y-85412235D02*
X125204280Y-85412235D01*
X125204280Y-85031282D01*
X125251900Y-84936044D01*
X125299519Y-84888425D01*
X125394757Y-84840806D01*
X125537614Y-84840806D01*
X125632852Y-84888425D01*
X125680471Y-84936044D01*
X125728090Y-85031282D01*
X125728090Y-85412235D01*
X125204280Y-84507473D02*
X125204280Y-83840806D01*
X126204280Y-84269378D01*
G04 #@! TO.C,R8*
X126339860Y-105574126D02*
X125863670Y-105907460D01*
X126339860Y-106145555D02*
X125339860Y-106145555D01*
X125339860Y-105764602D01*
X125387480Y-105669364D01*
X125435099Y-105621745D01*
X125530337Y-105574126D01*
X125673194Y-105574126D01*
X125768432Y-105621745D01*
X125816051Y-105669364D01*
X125863670Y-105764602D01*
X125863670Y-106145555D01*
X125768432Y-105002698D02*
X125720813Y-105097936D01*
X125673194Y-105145555D01*
X125577956Y-105193174D01*
X125530337Y-105193174D01*
X125435099Y-105145555D01*
X125387480Y-105097936D01*
X125339860Y-105002698D01*
X125339860Y-104812221D01*
X125387480Y-104716983D01*
X125435099Y-104669364D01*
X125530337Y-104621745D01*
X125577956Y-104621745D01*
X125673194Y-104669364D01*
X125720813Y-104716983D01*
X125768432Y-104812221D01*
X125768432Y-105002698D01*
X125816051Y-105097936D01*
X125863670Y-105145555D01*
X125958908Y-105193174D01*
X126149384Y-105193174D01*
X126244622Y-105145555D01*
X126292241Y-105097936D01*
X126339860Y-105002698D01*
X126339860Y-104812221D01*
X126292241Y-104716983D01*
X126244622Y-104669364D01*
X126149384Y-104621745D01*
X125958908Y-104621745D01*
X125863670Y-104669364D01*
X125816051Y-104716983D01*
X125768432Y-104812221D01*
G04 #@! TO.C,R9*
X130502380Y-84756406D02*
X130026190Y-85089740D01*
X130502380Y-85327835D02*
X129502380Y-85327835D01*
X129502380Y-84946882D01*
X129550000Y-84851644D01*
X129597619Y-84804025D01*
X129692857Y-84756406D01*
X129835714Y-84756406D01*
X129930952Y-84804025D01*
X129978571Y-84851644D01*
X130026190Y-84946882D01*
X130026190Y-85327835D01*
X130502380Y-84280216D02*
X130502380Y-84089740D01*
X130454761Y-83994501D01*
X130407142Y-83946882D01*
X130264285Y-83851644D01*
X130073809Y-83804025D01*
X129692857Y-83804025D01*
X129597619Y-83851644D01*
X129550000Y-83899263D01*
X129502380Y-83994501D01*
X129502380Y-84184978D01*
X129550000Y-84280216D01*
X129597619Y-84327835D01*
X129692857Y-84375454D01*
X129930952Y-84375454D01*
X130026190Y-84327835D01*
X130073809Y-84280216D01*
X130121428Y-84184978D01*
X130121428Y-83994501D01*
X130073809Y-83899263D01*
X130026190Y-83851644D01*
X129930952Y-83804025D01*
G04 #@! TO.C,R10*
X130617480Y-106408457D02*
X130141290Y-106741790D01*
X130617480Y-106979885D02*
X129617480Y-106979885D01*
X129617480Y-106598933D01*
X129665100Y-106503695D01*
X129712719Y-106456076D01*
X129807957Y-106408457D01*
X129950814Y-106408457D01*
X130046052Y-106456076D01*
X130093671Y-106503695D01*
X130141290Y-106598933D01*
X130141290Y-106979885D01*
X130617480Y-105456076D02*
X130617480Y-106027504D01*
X130617480Y-105741790D02*
X129617480Y-105741790D01*
X129760338Y-105837028D01*
X129855576Y-105932266D01*
X129903195Y-106027504D01*
X129617480Y-104837028D02*
X129617480Y-104741790D01*
X129665100Y-104646552D01*
X129712719Y-104598933D01*
X129807957Y-104551314D01*
X129998433Y-104503695D01*
X130236528Y-104503695D01*
X130427004Y-104551314D01*
X130522242Y-104598933D01*
X130569861Y-104646552D01*
X130617480Y-104741790D01*
X130617480Y-104837028D01*
X130569861Y-104932266D01*
X130522242Y-104979885D01*
X130427004Y-105027504D01*
X130236528Y-105075123D01*
X129998433Y-105075123D01*
X129807957Y-105027504D01*
X129712719Y-104979885D01*
X129665100Y-104932266D01*
X129617480Y-104837028D01*
G04 #@! TO.C,R11*
X132119046Y-84782597D02*
X131642856Y-85115930D01*
X132119046Y-85354025D02*
X131119046Y-85354025D01*
X131119046Y-84973073D01*
X131166666Y-84877835D01*
X131214285Y-84830216D01*
X131309523Y-84782597D01*
X131452380Y-84782597D01*
X131547618Y-84830216D01*
X131595237Y-84877835D01*
X131642856Y-84973073D01*
X131642856Y-85354025D01*
X132119046Y-83830216D02*
X132119046Y-84401644D01*
X132119046Y-84115930D02*
X131119046Y-84115930D01*
X131261904Y-84211168D01*
X131357142Y-84306406D01*
X131404761Y-84401644D01*
X132119046Y-82877835D02*
X132119046Y-83449263D01*
X132119046Y-83163549D02*
X131119046Y-83163549D01*
X131261904Y-83258787D01*
X131357142Y-83354025D01*
X131404761Y-83449263D01*
G04 #@! TO.C,R12*
X133685712Y-84782597D02*
X133209522Y-85115930D01*
X133685712Y-85354025D02*
X132685712Y-85354025D01*
X132685712Y-84973073D01*
X132733332Y-84877835D01*
X132780951Y-84830216D01*
X132876189Y-84782597D01*
X133019046Y-84782597D01*
X133114284Y-84830216D01*
X133161903Y-84877835D01*
X133209522Y-84973073D01*
X133209522Y-85354025D01*
X133685712Y-83830216D02*
X133685712Y-84401644D01*
X133685712Y-84115930D02*
X132685712Y-84115930D01*
X132828570Y-84211168D01*
X132923808Y-84306406D01*
X132971427Y-84401644D01*
X132780951Y-83449263D02*
X132733332Y-83401644D01*
X132685712Y-83306406D01*
X132685712Y-83068311D01*
X132733332Y-82973073D01*
X132780951Y-82925454D01*
X132876189Y-82877835D01*
X132971427Y-82877835D01*
X133114284Y-82925454D01*
X133685712Y-83496882D01*
X133685712Y-82877835D01*
G04 #@! TO.C,R13*
X132194966Y-106517677D02*
X131718776Y-106851010D01*
X132194966Y-107089105D02*
X131194966Y-107089105D01*
X131194966Y-106708153D01*
X131242586Y-106612915D01*
X131290205Y-106565296D01*
X131385443Y-106517677D01*
X131528300Y-106517677D01*
X131623538Y-106565296D01*
X131671157Y-106612915D01*
X131718776Y-106708153D01*
X131718776Y-107089105D01*
X132194966Y-105565296D02*
X132194966Y-106136724D01*
X132194966Y-105851010D02*
X131194966Y-105851010D01*
X131337824Y-105946248D01*
X131433062Y-106041486D01*
X131480681Y-106136724D01*
X131194966Y-105231962D02*
X131194966Y-104612915D01*
X131575919Y-104946248D01*
X131575919Y-104803391D01*
X131623538Y-104708153D01*
X131671157Y-104660534D01*
X131766395Y-104612915D01*
X132004490Y-104612915D01*
X132099728Y-104660534D01*
X132147347Y-104708153D01*
X132194966Y-104803391D01*
X132194966Y-105089105D01*
X132147347Y-105184343D01*
X132099728Y-105231962D01*
G04 #@! TO.C,R14*
X133679032Y-106517677D02*
X133202842Y-106851010D01*
X133679032Y-107089105D02*
X132679032Y-107089105D01*
X132679032Y-106708153D01*
X132726652Y-106612915D01*
X132774271Y-106565296D01*
X132869509Y-106517677D01*
X133012366Y-106517677D01*
X133107604Y-106565296D01*
X133155223Y-106612915D01*
X133202842Y-106708153D01*
X133202842Y-107089105D01*
X133679032Y-105565296D02*
X133679032Y-106136724D01*
X133679032Y-105851010D02*
X132679032Y-105851010D01*
X132821890Y-105946248D01*
X132917128Y-106041486D01*
X132964747Y-106136724D01*
X133012366Y-104708153D02*
X133679032Y-104708153D01*
X132631413Y-104946248D02*
X133345699Y-105184343D01*
X133345699Y-104565296D01*
G04 #@! TO.C,R15*
X138038859Y-86535022D02*
X138515049Y-86201689D01*
X138038859Y-85963594D02*
X139038859Y-85963594D01*
X139038859Y-86344546D01*
X138991240Y-86439784D01*
X138943620Y-86487403D01*
X138848382Y-86535022D01*
X138705525Y-86535022D01*
X138610287Y-86487403D01*
X138562668Y-86439784D01*
X138515049Y-86344546D01*
X138515049Y-85963594D01*
X138038859Y-87487403D02*
X138038859Y-86915975D01*
X138038859Y-87201689D02*
X139038859Y-87201689D01*
X138896001Y-87106451D01*
X138800763Y-87011213D01*
X138753144Y-86915975D01*
X139038859Y-88392165D02*
X139038859Y-87915975D01*
X138562668Y-87868356D01*
X138610287Y-87915975D01*
X138657906Y-88011213D01*
X138657906Y-88249308D01*
X138610287Y-88344546D01*
X138562668Y-88392165D01*
X138467430Y-88439784D01*
X138229335Y-88439784D01*
X138134097Y-88392165D01*
X138086478Y-88344546D01*
X138038859Y-88249308D01*
X138038859Y-88011213D01*
X138086478Y-87915975D01*
X138134097Y-87868356D01*
G04 #@! TO.C,R17*
X139257629Y-86697582D02*
X139733819Y-86364249D01*
X139257629Y-86126154D02*
X140257629Y-86126154D01*
X140257629Y-86507106D01*
X140210010Y-86602344D01*
X140162390Y-86649963D01*
X140067152Y-86697582D01*
X139924295Y-86697582D01*
X139829057Y-86649963D01*
X139781438Y-86602344D01*
X139733819Y-86507106D01*
X139733819Y-86126154D01*
X139257629Y-87649963D02*
X139257629Y-87078535D01*
X139257629Y-87364249D02*
X140257629Y-87364249D01*
X140114771Y-87269011D01*
X140019533Y-87173773D01*
X139971914Y-87078535D01*
X140257629Y-87983297D02*
X140257629Y-88649963D01*
X139257629Y-88221392D01*
G04 #@! TO.C,R18*
X137299810Y-106642857D02*
X136823620Y-106976190D01*
X137299810Y-107214285D02*
X136299810Y-107214285D01*
X136299810Y-106833333D01*
X136347430Y-106738095D01*
X136395049Y-106690476D01*
X136490287Y-106642857D01*
X136633144Y-106642857D01*
X136728382Y-106690476D01*
X136776001Y-106738095D01*
X136823620Y-106833333D01*
X136823620Y-107214285D01*
X137299810Y-105690476D02*
X137299810Y-106261904D01*
X137299810Y-105976190D02*
X136299810Y-105976190D01*
X136442668Y-106071428D01*
X136537906Y-106166666D01*
X136585525Y-106261904D01*
X136728382Y-105119047D02*
X136680763Y-105214285D01*
X136633144Y-105261904D01*
X136537906Y-105309523D01*
X136490287Y-105309523D01*
X136395049Y-105261904D01*
X136347430Y-105214285D01*
X136299810Y-105119047D01*
X136299810Y-104928571D01*
X136347430Y-104833333D01*
X136395049Y-104785714D01*
X136490287Y-104738095D01*
X136537906Y-104738095D01*
X136633144Y-104785714D01*
X136680763Y-104833333D01*
X136728382Y-104928571D01*
X136728382Y-105119047D01*
X136776001Y-105214285D01*
X136823620Y-105261904D01*
X136918858Y-105309523D01*
X137109334Y-105309523D01*
X137204572Y-105261904D01*
X137252191Y-105214285D01*
X137299810Y-105119047D01*
X137299810Y-104928571D01*
X137252191Y-104833333D01*
X137204572Y-104785714D01*
X137109334Y-104738095D01*
X136918858Y-104738095D01*
X136823620Y-104785714D01*
X136776001Y-104833333D01*
X136728382Y-104928571D01*
G04 #@! TO.C,VR1*
D15*
X131296591Y-81041965D02*
X131906191Y-80838765D01*
X131296591Y-80635565D01*
X131906191Y-80084022D02*
X131615905Y-80287222D01*
X131906191Y-80432365D02*
X131296591Y-80432365D01*
X131296591Y-80200137D01*
X131325620Y-80142080D01*
X131354648Y-80113051D01*
X131412705Y-80084022D01*
X131499791Y-80084022D01*
X131557848Y-80113051D01*
X131586877Y-80142080D01*
X131615905Y-80200137D01*
X131615905Y-80432365D01*
X131906191Y-79503451D02*
X131906191Y-79851794D01*
X131906191Y-79677622D02*
X131296591Y-79677622D01*
X131383677Y-79735680D01*
X131441734Y-79793737D01*
X131470762Y-79851794D01*
X131310742Y-77898171D02*
X130962400Y-77898171D01*
X131136571Y-77898171D02*
X131136571Y-77288571D01*
X131078514Y-77375657D01*
X131020457Y-77433714D01*
X130962400Y-77462742D01*
X131688114Y-77288571D02*
X131746171Y-77288571D01*
X131804228Y-77317600D01*
X131833257Y-77346628D01*
X131862285Y-77404685D01*
X131891314Y-77520800D01*
X131891314Y-77665942D01*
X131862285Y-77782057D01*
X131833257Y-77840114D01*
X131804228Y-77869142D01*
X131746171Y-77898171D01*
X131688114Y-77898171D01*
X131630057Y-77869142D01*
X131601028Y-77840114D01*
X131572000Y-77782057D01*
X131542971Y-77665942D01*
X131542971Y-77520800D01*
X131572000Y-77404685D01*
X131601028Y-77346628D01*
X131630057Y-77317600D01*
X131688114Y-77288571D01*
X132152571Y-77898171D02*
X132152571Y-77288571D01*
X132210628Y-77665942D02*
X132384800Y-77898171D01*
X132384800Y-77491771D02*
X132152571Y-77724000D01*
G04 #@! TO.C,VR2*
X131370251Y-110267205D02*
X131979851Y-110064005D01*
X131370251Y-109860805D01*
X131979851Y-109309262D02*
X131689565Y-109512462D01*
X131979851Y-109657605D02*
X131370251Y-109657605D01*
X131370251Y-109425377D01*
X131399280Y-109367320D01*
X131428308Y-109338291D01*
X131486365Y-109309262D01*
X131573451Y-109309262D01*
X131631508Y-109338291D01*
X131660537Y-109367320D01*
X131689565Y-109425377D01*
X131689565Y-109657605D01*
X131428308Y-109077034D02*
X131399280Y-109048005D01*
X131370251Y-108989948D01*
X131370251Y-108844805D01*
X131399280Y-108786748D01*
X131428308Y-108757720D01*
X131486365Y-108728691D01*
X131544422Y-108728691D01*
X131631508Y-108757720D01*
X131979851Y-109106062D01*
X131979851Y-108728691D01*
X131389482Y-112398991D02*
X131041140Y-112398991D01*
X131215311Y-112398991D02*
X131215311Y-111789391D01*
X131157254Y-111876477D01*
X131099197Y-111934534D01*
X131041140Y-111963562D01*
X131766854Y-111789391D02*
X131824911Y-111789391D01*
X131882968Y-111818420D01*
X131911997Y-111847448D01*
X131941025Y-111905505D01*
X131970054Y-112021620D01*
X131970054Y-112166762D01*
X131941025Y-112282877D01*
X131911997Y-112340934D01*
X131882968Y-112369962D01*
X131824911Y-112398991D01*
X131766854Y-112398991D01*
X131708797Y-112369962D01*
X131679768Y-112340934D01*
X131650740Y-112282877D01*
X131621711Y-112166762D01*
X131621711Y-112021620D01*
X131650740Y-111905505D01*
X131679768Y-111847448D01*
X131708797Y-111818420D01*
X131766854Y-111789391D01*
X132231311Y-112398991D02*
X132231311Y-111789391D01*
X132289368Y-112166762D02*
X132463540Y-112398991D01*
X132463540Y-111992591D02*
X132231311Y-112224820D01*
G04 #@! TO.C,D1*
D11*
X127008184Y-84074800D02*
X127008184Y-83074800D01*
X127246280Y-83074800D01*
X127389137Y-83122420D01*
X127484375Y-83217658D01*
X127531994Y-83312896D01*
X127579613Y-83503372D01*
X127579613Y-83646229D01*
X127531994Y-83836705D01*
X127484375Y-83931943D01*
X127389137Y-84027181D01*
X127246280Y-84074800D01*
X127008184Y-84074800D01*
X128531994Y-84074800D02*
X127960565Y-84074800D01*
X128246280Y-84074800D02*
X128246280Y-83074800D01*
X128151041Y-83217658D01*
X128055803Y-83312896D01*
X127960565Y-83360515D01*
G04 #@! TO.C,D3*
X149053160Y-87882215D02*
X148053160Y-87882215D01*
X148053160Y-87644120D01*
X148100780Y-87501262D01*
X148196018Y-87406024D01*
X148291256Y-87358405D01*
X148481732Y-87310786D01*
X148624589Y-87310786D01*
X148815065Y-87358405D01*
X148910303Y-87406024D01*
X149005541Y-87501262D01*
X149053160Y-87644120D01*
X149053160Y-87882215D01*
X148053160Y-86977453D02*
X148053160Y-86358405D01*
X148434113Y-86691739D01*
X148434113Y-86548881D01*
X148481732Y-86453643D01*
X148529351Y-86406024D01*
X148624589Y-86358405D01*
X148862684Y-86358405D01*
X148957922Y-86406024D01*
X149005541Y-86453643D01*
X149053160Y-86548881D01*
X149053160Y-86834596D01*
X149005541Y-86929834D01*
X148957922Y-86977453D01*
G04 #@! TO.C,D4*
X142602380Y-100538095D02*
X141602380Y-100538095D01*
X141602380Y-100300000D01*
X141650000Y-100157142D01*
X141745238Y-100061904D01*
X141840476Y-100014285D01*
X142030952Y-99966666D01*
X142173809Y-99966666D01*
X142364285Y-100014285D01*
X142459523Y-100061904D01*
X142554761Y-100157142D01*
X142602380Y-100300000D01*
X142602380Y-100538095D01*
X141935714Y-99109523D02*
X142602380Y-99109523D01*
X141554761Y-99347619D02*
X142269047Y-99585714D01*
X142269047Y-98966666D01*
G04 #@! TO.C,U1*
X119149880Y-95910304D02*
X119959404Y-95910304D01*
X120054642Y-95862685D01*
X120102261Y-95815066D01*
X120149880Y-95719828D01*
X120149880Y-95529352D01*
X120102261Y-95434114D01*
X120054642Y-95386495D01*
X119959404Y-95338876D01*
X119149880Y-95338876D01*
X120149880Y-94338876D02*
X120149880Y-94910304D01*
X120149880Y-94624590D02*
X119149880Y-94624590D01*
X119292738Y-94719828D01*
X119387976Y-94815066D01*
X119435595Y-94910304D01*
G04 #@! TO.C,J6*
X111497786Y-84422180D02*
X111497786Y-85136466D01*
X111450167Y-85279323D01*
X111354929Y-85374561D01*
X111212072Y-85422180D01*
X111116834Y-85422180D01*
X112402548Y-84422180D02*
X112212072Y-84422180D01*
X112116834Y-84469800D01*
X112069215Y-84517419D01*
X111973977Y-84660276D01*
X111926358Y-84850752D01*
X111926358Y-85231704D01*
X111973977Y-85326942D01*
X112021596Y-85374561D01*
X112116834Y-85422180D01*
X112307310Y-85422180D01*
X112402548Y-85374561D01*
X112450167Y-85326942D01*
X112497786Y-85231704D01*
X112497786Y-84993609D01*
X112450167Y-84898371D01*
X112402548Y-84850752D01*
X112307310Y-84803133D01*
X112116834Y-84803133D01*
X112021596Y-84850752D01*
X111973977Y-84898371D01*
X111926358Y-84993609D01*
G04 #@! TO.C,R19*
X122814340Y-84803217D02*
X122338150Y-85136550D01*
X122814340Y-85374645D02*
X121814340Y-85374645D01*
X121814340Y-84993693D01*
X121861960Y-84898455D01*
X121909579Y-84850836D01*
X122004817Y-84803217D01*
X122147674Y-84803217D01*
X122242912Y-84850836D01*
X122290531Y-84898455D01*
X122338150Y-84993693D01*
X122338150Y-85374645D01*
X122814340Y-83850836D02*
X122814340Y-84422264D01*
X122814340Y-84136550D02*
X121814340Y-84136550D01*
X121957198Y-84231788D01*
X122052436Y-84327026D01*
X122100055Y-84422264D01*
X122814340Y-83374645D02*
X122814340Y-83184169D01*
X122766721Y-83088931D01*
X122719102Y-83041312D01*
X122576245Y-82946074D01*
X122385769Y-82898455D01*
X122004817Y-82898455D01*
X121909579Y-82946074D01*
X121861960Y-82993693D01*
X121814340Y-83088931D01*
X121814340Y-83279407D01*
X121861960Y-83374645D01*
X121909579Y-83422264D01*
X122004817Y-83469883D01*
X122242912Y-83469883D01*
X122338150Y-83422264D01*
X122385769Y-83374645D01*
X122433388Y-83279407D01*
X122433388Y-83088931D01*
X122385769Y-82993693D01*
X122338150Y-82946074D01*
X122242912Y-82898455D01*
G04 #@! TO.C,R20*
D16*
X124542504Y-106010645D02*
X124161552Y-106277312D01*
X124542504Y-106467788D02*
X123742504Y-106467788D01*
X123742504Y-106163026D01*
X123780600Y-106086836D01*
X123818695Y-106048740D01*
X123894885Y-106010645D01*
X124009171Y-106010645D01*
X124085361Y-106048740D01*
X124123457Y-106086836D01*
X124161552Y-106163026D01*
X124161552Y-106467788D01*
X123818695Y-105705883D02*
X123780600Y-105667788D01*
X123742504Y-105591598D01*
X123742504Y-105401121D01*
X123780600Y-105324931D01*
X123818695Y-105286836D01*
X123894885Y-105248740D01*
X123971076Y-105248740D01*
X124085361Y-105286836D01*
X124542504Y-105743979D01*
X124542504Y-105248740D01*
X123742504Y-104753502D02*
X123742504Y-104677312D01*
X123780600Y-104601121D01*
X123818695Y-104563026D01*
X123894885Y-104524931D01*
X124047266Y-104486836D01*
X124237742Y-104486836D01*
X124390123Y-104524931D01*
X124466314Y-104563026D01*
X124504409Y-104601121D01*
X124542504Y-104677312D01*
X124542504Y-104753502D01*
X124504409Y-104829693D01*
X124466314Y-104867788D01*
X124390123Y-104905883D01*
X124237742Y-104943979D01*
X124047266Y-104943979D01*
X123894885Y-104905883D01*
X123818695Y-104867788D01*
X123780600Y-104829693D01*
X123742504Y-104753502D01*
G04 #@! TO.C,J5*
D11*
X111538426Y-94046240D02*
X111538426Y-94760526D01*
X111490807Y-94903383D01*
X111395569Y-94998621D01*
X111252712Y-95046240D01*
X111157474Y-95046240D01*
X112490807Y-94046240D02*
X112014617Y-94046240D01*
X111966998Y-94522431D01*
X112014617Y-94474812D01*
X112109855Y-94427193D01*
X112347950Y-94427193D01*
X112443188Y-94474812D01*
X112490807Y-94522431D01*
X112538426Y-94617669D01*
X112538426Y-94855764D01*
X112490807Y-94951002D01*
X112443188Y-94998621D01*
X112347950Y-95046240D01*
X112109855Y-95046240D01*
X112014617Y-94998621D01*
X111966998Y-94951002D01*
G04 #@! TO.C,Q2*
X149047619Y-102820238D02*
X149000000Y-102915476D01*
X148904761Y-103010714D01*
X148761904Y-103153571D01*
X148714285Y-103248809D01*
X148714285Y-103344047D01*
X148952380Y-103296428D02*
X148904761Y-103391666D01*
X148809523Y-103486904D01*
X148619047Y-103534523D01*
X148285714Y-103534523D01*
X148095238Y-103486904D01*
X148000000Y-103391666D01*
X147952380Y-103296428D01*
X147952380Y-103105952D01*
X148000000Y-103010714D01*
X148095238Y-102915476D01*
X148285714Y-102867857D01*
X148619047Y-102867857D01*
X148809523Y-102915476D01*
X148904761Y-103010714D01*
X148952380Y-103105952D01*
X148952380Y-103296428D01*
X148047619Y-102486904D02*
X148000000Y-102439285D01*
X147952380Y-102344047D01*
X147952380Y-102105952D01*
X148000000Y-102010714D01*
X148047619Y-101963095D01*
X148142857Y-101915476D01*
X148238095Y-101915476D01*
X148380952Y-101963095D01*
X148952380Y-102534523D01*
X148952380Y-101915476D01*
G04 #@! TO.C,Q1*
X141935199Y-87083118D02*
X141887580Y-87178356D01*
X141792341Y-87273594D01*
X141649484Y-87416451D01*
X141601865Y-87511689D01*
X141601865Y-87606927D01*
X141839960Y-87559308D02*
X141792341Y-87654546D01*
X141697103Y-87749784D01*
X141506627Y-87797403D01*
X141173294Y-87797403D01*
X140982818Y-87749784D01*
X140887580Y-87654546D01*
X140839960Y-87559308D01*
X140839960Y-87368832D01*
X140887580Y-87273594D01*
X140982818Y-87178356D01*
X141173294Y-87130737D01*
X141506627Y-87130737D01*
X141697103Y-87178356D01*
X141792341Y-87273594D01*
X141839960Y-87368832D01*
X141839960Y-87559308D01*
X141839960Y-86178356D02*
X141839960Y-86749784D01*
X141839960Y-86464070D02*
X140839960Y-86464070D01*
X140982818Y-86559308D01*
X141078056Y-86654546D01*
X141125675Y-86749784D01*
G04 #@! TO.C,C1*
X128140862Y-90166666D02*
X128188481Y-90214285D01*
X128236100Y-90357142D01*
X128236100Y-90452380D01*
X128188481Y-90595238D01*
X128093243Y-90690476D01*
X127998005Y-90738095D01*
X127807529Y-90785714D01*
X127664672Y-90785714D01*
X127474196Y-90738095D01*
X127378958Y-90690476D01*
X127283720Y-90595238D01*
X127236100Y-90452380D01*
X127236100Y-90357142D01*
X127283720Y-90214285D01*
X127331339Y-90166666D01*
X128236100Y-89214285D02*
X128236100Y-89785714D01*
X128236100Y-89500000D02*
X127236100Y-89500000D01*
X127378958Y-89595238D01*
X127474196Y-89690476D01*
X127521815Y-89785714D01*
G04 #@! TO.C,C2*
X120588042Y-84774066D02*
X120635661Y-84821685D01*
X120683280Y-84964542D01*
X120683280Y-85059780D01*
X120635661Y-85202638D01*
X120540423Y-85297876D01*
X120445185Y-85345495D01*
X120254709Y-85393114D01*
X120111852Y-85393114D01*
X119921376Y-85345495D01*
X119826138Y-85297876D01*
X119730900Y-85202638D01*
X119683280Y-85059780D01*
X119683280Y-84964542D01*
X119730900Y-84821685D01*
X119778519Y-84774066D01*
X119778519Y-84393114D02*
X119730900Y-84345495D01*
X119683280Y-84250257D01*
X119683280Y-84012161D01*
X119730900Y-83916923D01*
X119778519Y-83869304D01*
X119873757Y-83821685D01*
X119968995Y-83821685D01*
X120111852Y-83869304D01*
X120683280Y-84440733D01*
X120683280Y-83821685D01*
G04 #@! TO.C,C3*
X120638842Y-105541106D02*
X120686461Y-105588725D01*
X120734080Y-105731582D01*
X120734080Y-105826820D01*
X120686461Y-105969678D01*
X120591223Y-106064916D01*
X120495985Y-106112535D01*
X120305509Y-106160154D01*
X120162652Y-106160154D01*
X119972176Y-106112535D01*
X119876938Y-106064916D01*
X119781700Y-105969678D01*
X119734080Y-105826820D01*
X119734080Y-105731582D01*
X119781700Y-105588725D01*
X119829319Y-105541106D01*
X119734080Y-105207773D02*
X119734080Y-104588725D01*
X120115033Y-104922059D01*
X120115033Y-104779201D01*
X120162652Y-104683963D01*
X120210271Y-104636344D01*
X120305509Y-104588725D01*
X120543604Y-104588725D01*
X120638842Y-104636344D01*
X120686461Y-104683963D01*
X120734080Y-104779201D01*
X120734080Y-105064916D01*
X120686461Y-105160154D01*
X120638842Y-105207773D01*
G04 #@! TO.C,C4*
X128140862Y-100166666D02*
X128188481Y-100214285D01*
X128236100Y-100357142D01*
X128236100Y-100452380D01*
X128188481Y-100595238D01*
X128093243Y-100690476D01*
X127998005Y-100738095D01*
X127807529Y-100785714D01*
X127664672Y-100785714D01*
X127474196Y-100738095D01*
X127378958Y-100690476D01*
X127283720Y-100595238D01*
X127236100Y-100452380D01*
X127236100Y-100357142D01*
X127283720Y-100214285D01*
X127331339Y-100166666D01*
X127569434Y-99309523D02*
X128236100Y-99309523D01*
X127188481Y-99547619D02*
X127902767Y-99785714D01*
X127902767Y-99166666D01*
G04 #@! TO.C,R21*
X135689044Y-87857597D02*
X135212854Y-88190930D01*
X135689044Y-88429025D02*
X134689044Y-88429025D01*
X134689044Y-88048073D01*
X134736664Y-87952835D01*
X134784283Y-87905216D01*
X134879521Y-87857597D01*
X135022378Y-87857597D01*
X135117616Y-87905216D01*
X135165235Y-87952835D01*
X135212854Y-88048073D01*
X135212854Y-88429025D01*
X134784283Y-87476644D02*
X134736664Y-87429025D01*
X134689044Y-87333787D01*
X134689044Y-87095692D01*
X134736664Y-87000454D01*
X134784283Y-86952835D01*
X134879521Y-86905216D01*
X134974759Y-86905216D01*
X135117616Y-86952835D01*
X135689044Y-87524263D01*
X135689044Y-86905216D01*
X135689044Y-85952835D02*
X135689044Y-86524263D01*
X135689044Y-86238549D02*
X134689044Y-86238549D01*
X134831902Y-86333787D01*
X134927140Y-86429025D01*
X134974759Y-86524263D01*
G04 #@! TO.C,R22*
X138952380Y-106642857D02*
X138476190Y-106976190D01*
X138952380Y-107214285D02*
X137952380Y-107214285D01*
X137952380Y-106833333D01*
X138000000Y-106738095D01*
X138047619Y-106690476D01*
X138142857Y-106642857D01*
X138285714Y-106642857D01*
X138380952Y-106690476D01*
X138428571Y-106738095D01*
X138476190Y-106833333D01*
X138476190Y-107214285D01*
X138047619Y-106261904D02*
X138000000Y-106214285D01*
X137952380Y-106119047D01*
X137952380Y-105880952D01*
X138000000Y-105785714D01*
X138047619Y-105738095D01*
X138142857Y-105690476D01*
X138238095Y-105690476D01*
X138380952Y-105738095D01*
X138952380Y-106309523D01*
X138952380Y-105690476D01*
X138047619Y-105309523D02*
X138000000Y-105261904D01*
X137952380Y-105166666D01*
X137952380Y-104928571D01*
X138000000Y-104833333D01*
X138047619Y-104785714D01*
X138142857Y-104738095D01*
X138238095Y-104738095D01*
X138380952Y-104785714D01*
X138952380Y-105357142D01*
X138952380Y-104738095D01*
G04 #@! TO.C,R23*
X136882378Y-87857597D02*
X136406188Y-88190930D01*
X136882378Y-88429025D02*
X135882378Y-88429025D01*
X135882378Y-88048073D01*
X135929998Y-87952835D01*
X135977617Y-87905216D01*
X136072855Y-87857597D01*
X136215712Y-87857597D01*
X136310950Y-87905216D01*
X136358569Y-87952835D01*
X136406188Y-88048073D01*
X136406188Y-88429025D01*
X135977617Y-87476644D02*
X135929998Y-87429025D01*
X135882378Y-87333787D01*
X135882378Y-87095692D01*
X135929998Y-87000454D01*
X135977617Y-86952835D01*
X136072855Y-86905216D01*
X136168093Y-86905216D01*
X136310950Y-86952835D01*
X136882378Y-87524263D01*
X136882378Y-86905216D01*
X135882378Y-86571882D02*
X135882378Y-85952835D01*
X136263331Y-86286168D01*
X136263331Y-86143311D01*
X136310950Y-86048073D01*
X136358569Y-86000454D01*
X136453807Y-85952835D01*
X136691902Y-85952835D01*
X136787140Y-86000454D01*
X136834759Y-86048073D01*
X136882378Y-86143311D01*
X136882378Y-86429025D01*
X136834759Y-86524263D01*
X136787140Y-86571882D01*
G04 #@! TO.C,R24*
X135452380Y-106642857D02*
X134976190Y-106976190D01*
X135452380Y-107214285D02*
X134452380Y-107214285D01*
X134452380Y-106833333D01*
X134500000Y-106738095D01*
X134547619Y-106690476D01*
X134642857Y-106642857D01*
X134785714Y-106642857D01*
X134880952Y-106690476D01*
X134928571Y-106738095D01*
X134976190Y-106833333D01*
X134976190Y-107214285D01*
X134547619Y-106261904D02*
X134500000Y-106214285D01*
X134452380Y-106119047D01*
X134452380Y-105880952D01*
X134500000Y-105785714D01*
X134547619Y-105738095D01*
X134642857Y-105690476D01*
X134738095Y-105690476D01*
X134880952Y-105738095D01*
X135452380Y-106309523D01*
X135452380Y-105690476D01*
X134785714Y-104833333D02*
X135452380Y-104833333D01*
X134404761Y-105071428D02*
X135119047Y-105309523D01*
X135119047Y-104690476D01*
G04 #@! TD*
M02*
