G04 #@! TF.GenerationSoftware,KiCad,Pcbnew,(5.0.1)-3*
G04 #@! TF.CreationDate,2019-03-07T23:38:01-05:00*
G04 #@! TF.ProjectId,mars-aqua-adapter,6D6172732D617175612D616461707465,rev?*
G04 #@! TF.SameCoordinates,Original*
G04 #@! TF.FileFunction,Paste,Top*
G04 #@! TF.FilePolarity,Positive*
%FSLAX46Y46*%
G04 Gerber Fmt 4.6, Leading zero omitted, Abs format (unit mm)*
G04 Created by KiCad (PCBNEW (5.0.1)-3) date 3/7/2019 11:38:01 PM*
%MOMM*%
%LPD*%
G01*
G04 APERTURE LIST*
%ADD10R,0.600000X1.550000*%
%ADD11C,0.100000*%
%ADD12C,0.950000*%
%ADD13R,1.700000X1.300000*%
%ADD14C,1.425000*%
%ADD15R,1.600200X1.089660*%
%ADD16R,1.600200X1.600200*%
%ADD17C,1.150000*%
%ADD18R,0.800000X0.900000*%
G04 APERTURE END LIST*
D10*
G04 #@! TO.C,U2*
X136155000Y-97950000D03*
X134885000Y-97950000D03*
X133615000Y-97950000D03*
X132345000Y-97950000D03*
X132345000Y-92550000D03*
X133615000Y-92550000D03*
X134885000Y-92550000D03*
X136155000Y-92550000D03*
G04 #@! TD*
D11*
G04 #@! TO.C,R16*
G36*
X139567079Y-98976144D02*
X139590134Y-98979563D01*
X139612743Y-98985227D01*
X139634687Y-98993079D01*
X139655757Y-99003044D01*
X139675748Y-99015026D01*
X139694468Y-99028910D01*
X139711738Y-99044562D01*
X139727390Y-99061832D01*
X139741274Y-99080552D01*
X139753256Y-99100543D01*
X139763221Y-99121613D01*
X139771073Y-99143557D01*
X139776737Y-99166166D01*
X139780156Y-99189221D01*
X139781300Y-99212500D01*
X139781300Y-99787500D01*
X139780156Y-99810779D01*
X139776737Y-99833834D01*
X139771073Y-99856443D01*
X139763221Y-99878387D01*
X139753256Y-99899457D01*
X139741274Y-99919448D01*
X139727390Y-99938168D01*
X139711738Y-99955438D01*
X139694468Y-99971090D01*
X139675748Y-99984974D01*
X139655757Y-99996956D01*
X139634687Y-100006921D01*
X139612743Y-100014773D01*
X139590134Y-100020437D01*
X139567079Y-100023856D01*
X139543800Y-100025000D01*
X139068800Y-100025000D01*
X139045521Y-100023856D01*
X139022466Y-100020437D01*
X138999857Y-100014773D01*
X138977913Y-100006921D01*
X138956843Y-99996956D01*
X138936852Y-99984974D01*
X138918132Y-99971090D01*
X138900862Y-99955438D01*
X138885210Y-99938168D01*
X138871326Y-99919448D01*
X138859344Y-99899457D01*
X138849379Y-99878387D01*
X138841527Y-99856443D01*
X138835863Y-99833834D01*
X138832444Y-99810779D01*
X138831300Y-99787500D01*
X138831300Y-99212500D01*
X138832444Y-99189221D01*
X138835863Y-99166166D01*
X138841527Y-99143557D01*
X138849379Y-99121613D01*
X138859344Y-99100543D01*
X138871326Y-99080552D01*
X138885210Y-99061832D01*
X138900862Y-99044562D01*
X138918132Y-99028910D01*
X138936852Y-99015026D01*
X138956843Y-99003044D01*
X138977913Y-98993079D01*
X138999857Y-98985227D01*
X139022466Y-98979563D01*
X139045521Y-98976144D01*
X139068800Y-98975000D01*
X139543800Y-98975000D01*
X139567079Y-98976144D01*
X139567079Y-98976144D01*
G37*
D12*
X139306300Y-99500000D03*
D11*
G36*
X139567079Y-97226144D02*
X139590134Y-97229563D01*
X139612743Y-97235227D01*
X139634687Y-97243079D01*
X139655757Y-97253044D01*
X139675748Y-97265026D01*
X139694468Y-97278910D01*
X139711738Y-97294562D01*
X139727390Y-97311832D01*
X139741274Y-97330552D01*
X139753256Y-97350543D01*
X139763221Y-97371613D01*
X139771073Y-97393557D01*
X139776737Y-97416166D01*
X139780156Y-97439221D01*
X139781300Y-97462500D01*
X139781300Y-98037500D01*
X139780156Y-98060779D01*
X139776737Y-98083834D01*
X139771073Y-98106443D01*
X139763221Y-98128387D01*
X139753256Y-98149457D01*
X139741274Y-98169448D01*
X139727390Y-98188168D01*
X139711738Y-98205438D01*
X139694468Y-98221090D01*
X139675748Y-98234974D01*
X139655757Y-98246956D01*
X139634687Y-98256921D01*
X139612743Y-98264773D01*
X139590134Y-98270437D01*
X139567079Y-98273856D01*
X139543800Y-98275000D01*
X139068800Y-98275000D01*
X139045521Y-98273856D01*
X139022466Y-98270437D01*
X138999857Y-98264773D01*
X138977913Y-98256921D01*
X138956843Y-98246956D01*
X138936852Y-98234974D01*
X138918132Y-98221090D01*
X138900862Y-98205438D01*
X138885210Y-98188168D01*
X138871326Y-98169448D01*
X138859344Y-98149457D01*
X138849379Y-98128387D01*
X138841527Y-98106443D01*
X138835863Y-98083834D01*
X138832444Y-98060779D01*
X138831300Y-98037500D01*
X138831300Y-97462500D01*
X138832444Y-97439221D01*
X138835863Y-97416166D01*
X138841527Y-97393557D01*
X138849379Y-97371613D01*
X138859344Y-97350543D01*
X138871326Y-97330552D01*
X138885210Y-97311832D01*
X138900862Y-97294562D01*
X138918132Y-97278910D01*
X138936852Y-97265026D01*
X138956843Y-97253044D01*
X138977913Y-97243079D01*
X138999857Y-97235227D01*
X139022466Y-97229563D01*
X139045521Y-97226144D01*
X139068800Y-97225000D01*
X139543800Y-97225000D01*
X139567079Y-97226144D01*
X139567079Y-97226144D01*
G37*
D12*
X139306300Y-97750000D03*
G04 #@! TD*
D13*
G04 #@! TO.C,D2*
X127736280Y-108039020D03*
X127736280Y-111539020D03*
G04 #@! TD*
D11*
G04 #@! TO.C,C1*
G36*
X128365784Y-87975344D02*
X128390053Y-87978944D01*
X128413851Y-87984905D01*
X128436951Y-87993170D01*
X128459129Y-88003660D01*
X128480173Y-88016273D01*
X128499878Y-88030887D01*
X128518057Y-88047363D01*
X128534533Y-88065542D01*
X128549147Y-88085247D01*
X128561760Y-88106291D01*
X128572250Y-88128469D01*
X128580515Y-88151569D01*
X128586476Y-88175367D01*
X128590076Y-88199636D01*
X128591280Y-88224140D01*
X128591280Y-89149140D01*
X128590076Y-89173644D01*
X128586476Y-89197913D01*
X128580515Y-89221711D01*
X128572250Y-89244811D01*
X128561760Y-89266989D01*
X128549147Y-89288033D01*
X128534533Y-89307738D01*
X128518057Y-89325917D01*
X128499878Y-89342393D01*
X128480173Y-89357007D01*
X128459129Y-89369620D01*
X128436951Y-89380110D01*
X128413851Y-89388375D01*
X128390053Y-89394336D01*
X128365784Y-89397936D01*
X128341280Y-89399140D01*
X127091280Y-89399140D01*
X127066776Y-89397936D01*
X127042507Y-89394336D01*
X127018709Y-89388375D01*
X126995609Y-89380110D01*
X126973431Y-89369620D01*
X126952387Y-89357007D01*
X126932682Y-89342393D01*
X126914503Y-89325917D01*
X126898027Y-89307738D01*
X126883413Y-89288033D01*
X126870800Y-89266989D01*
X126860310Y-89244811D01*
X126852045Y-89221711D01*
X126846084Y-89197913D01*
X126842484Y-89173644D01*
X126841280Y-89149140D01*
X126841280Y-88224140D01*
X126842484Y-88199636D01*
X126846084Y-88175367D01*
X126852045Y-88151569D01*
X126860310Y-88128469D01*
X126870800Y-88106291D01*
X126883413Y-88085247D01*
X126898027Y-88065542D01*
X126914503Y-88047363D01*
X126932682Y-88030887D01*
X126952387Y-88016273D01*
X126973431Y-88003660D01*
X126995609Y-87993170D01*
X127018709Y-87984905D01*
X127042507Y-87978944D01*
X127066776Y-87975344D01*
X127091280Y-87974140D01*
X128341280Y-87974140D01*
X128365784Y-87975344D01*
X128365784Y-87975344D01*
G37*
D14*
X127716280Y-88686640D03*
D11*
G36*
X128365784Y-85000344D02*
X128390053Y-85003944D01*
X128413851Y-85009905D01*
X128436951Y-85018170D01*
X128459129Y-85028660D01*
X128480173Y-85041273D01*
X128499878Y-85055887D01*
X128518057Y-85072363D01*
X128534533Y-85090542D01*
X128549147Y-85110247D01*
X128561760Y-85131291D01*
X128572250Y-85153469D01*
X128580515Y-85176569D01*
X128586476Y-85200367D01*
X128590076Y-85224636D01*
X128591280Y-85249140D01*
X128591280Y-86174140D01*
X128590076Y-86198644D01*
X128586476Y-86222913D01*
X128580515Y-86246711D01*
X128572250Y-86269811D01*
X128561760Y-86291989D01*
X128549147Y-86313033D01*
X128534533Y-86332738D01*
X128518057Y-86350917D01*
X128499878Y-86367393D01*
X128480173Y-86382007D01*
X128459129Y-86394620D01*
X128436951Y-86405110D01*
X128413851Y-86413375D01*
X128390053Y-86419336D01*
X128365784Y-86422936D01*
X128341280Y-86424140D01*
X127091280Y-86424140D01*
X127066776Y-86422936D01*
X127042507Y-86419336D01*
X127018709Y-86413375D01*
X126995609Y-86405110D01*
X126973431Y-86394620D01*
X126952387Y-86382007D01*
X126932682Y-86367393D01*
X126914503Y-86350917D01*
X126898027Y-86332738D01*
X126883413Y-86313033D01*
X126870800Y-86291989D01*
X126860310Y-86269811D01*
X126852045Y-86246711D01*
X126846084Y-86222913D01*
X126842484Y-86198644D01*
X126841280Y-86174140D01*
X126841280Y-85249140D01*
X126842484Y-85224636D01*
X126846084Y-85200367D01*
X126852045Y-85176569D01*
X126860310Y-85153469D01*
X126870800Y-85131291D01*
X126883413Y-85110247D01*
X126898027Y-85090542D01*
X126914503Y-85072363D01*
X126932682Y-85055887D01*
X126952387Y-85041273D01*
X126973431Y-85028660D01*
X126995609Y-85018170D01*
X127018709Y-85009905D01*
X127042507Y-85003944D01*
X127066776Y-85000344D01*
X127091280Y-84999140D01*
X128341280Y-84999140D01*
X128365784Y-85000344D01*
X128365784Y-85000344D01*
G37*
D14*
X127716280Y-85711640D03*
G04 #@! TD*
D11*
G04 #@! TO.C,C2*
G36*
X120888264Y-85000344D02*
X120912533Y-85003944D01*
X120936331Y-85009905D01*
X120959431Y-85018170D01*
X120981609Y-85028660D01*
X121002653Y-85041273D01*
X121022358Y-85055887D01*
X121040537Y-85072363D01*
X121057013Y-85090542D01*
X121071627Y-85110247D01*
X121084240Y-85131291D01*
X121094730Y-85153469D01*
X121102995Y-85176569D01*
X121108956Y-85200367D01*
X121112556Y-85224636D01*
X121113760Y-85249140D01*
X121113760Y-86174140D01*
X121112556Y-86198644D01*
X121108956Y-86222913D01*
X121102995Y-86246711D01*
X121094730Y-86269811D01*
X121084240Y-86291989D01*
X121071627Y-86313033D01*
X121057013Y-86332738D01*
X121040537Y-86350917D01*
X121022358Y-86367393D01*
X121002653Y-86382007D01*
X120981609Y-86394620D01*
X120959431Y-86405110D01*
X120936331Y-86413375D01*
X120912533Y-86419336D01*
X120888264Y-86422936D01*
X120863760Y-86424140D01*
X119613760Y-86424140D01*
X119589256Y-86422936D01*
X119564987Y-86419336D01*
X119541189Y-86413375D01*
X119518089Y-86405110D01*
X119495911Y-86394620D01*
X119474867Y-86382007D01*
X119455162Y-86367393D01*
X119436983Y-86350917D01*
X119420507Y-86332738D01*
X119405893Y-86313033D01*
X119393280Y-86291989D01*
X119382790Y-86269811D01*
X119374525Y-86246711D01*
X119368564Y-86222913D01*
X119364964Y-86198644D01*
X119363760Y-86174140D01*
X119363760Y-85249140D01*
X119364964Y-85224636D01*
X119368564Y-85200367D01*
X119374525Y-85176569D01*
X119382790Y-85153469D01*
X119393280Y-85131291D01*
X119405893Y-85110247D01*
X119420507Y-85090542D01*
X119436983Y-85072363D01*
X119455162Y-85055887D01*
X119474867Y-85041273D01*
X119495911Y-85028660D01*
X119518089Y-85018170D01*
X119541189Y-85009905D01*
X119564987Y-85003944D01*
X119589256Y-85000344D01*
X119613760Y-84999140D01*
X120863760Y-84999140D01*
X120888264Y-85000344D01*
X120888264Y-85000344D01*
G37*
D14*
X120238760Y-85711640D03*
D11*
G36*
X120888264Y-87975344D02*
X120912533Y-87978944D01*
X120936331Y-87984905D01*
X120959431Y-87993170D01*
X120981609Y-88003660D01*
X121002653Y-88016273D01*
X121022358Y-88030887D01*
X121040537Y-88047363D01*
X121057013Y-88065542D01*
X121071627Y-88085247D01*
X121084240Y-88106291D01*
X121094730Y-88128469D01*
X121102995Y-88151569D01*
X121108956Y-88175367D01*
X121112556Y-88199636D01*
X121113760Y-88224140D01*
X121113760Y-89149140D01*
X121112556Y-89173644D01*
X121108956Y-89197913D01*
X121102995Y-89221711D01*
X121094730Y-89244811D01*
X121084240Y-89266989D01*
X121071627Y-89288033D01*
X121057013Y-89307738D01*
X121040537Y-89325917D01*
X121022358Y-89342393D01*
X121002653Y-89357007D01*
X120981609Y-89369620D01*
X120959431Y-89380110D01*
X120936331Y-89388375D01*
X120912533Y-89394336D01*
X120888264Y-89397936D01*
X120863760Y-89399140D01*
X119613760Y-89399140D01*
X119589256Y-89397936D01*
X119564987Y-89394336D01*
X119541189Y-89388375D01*
X119518089Y-89380110D01*
X119495911Y-89369620D01*
X119474867Y-89357007D01*
X119455162Y-89342393D01*
X119436983Y-89325917D01*
X119420507Y-89307738D01*
X119405893Y-89288033D01*
X119393280Y-89266989D01*
X119382790Y-89244811D01*
X119374525Y-89221711D01*
X119368564Y-89197913D01*
X119364964Y-89173644D01*
X119363760Y-89149140D01*
X119363760Y-88224140D01*
X119364964Y-88199636D01*
X119368564Y-88175367D01*
X119374525Y-88151569D01*
X119382790Y-88128469D01*
X119393280Y-88106291D01*
X119405893Y-88085247D01*
X119420507Y-88065542D01*
X119436983Y-88047363D01*
X119455162Y-88030887D01*
X119474867Y-88016273D01*
X119495911Y-88003660D01*
X119518089Y-87993170D01*
X119541189Y-87984905D01*
X119564987Y-87978944D01*
X119589256Y-87975344D01*
X119613760Y-87974140D01*
X120863760Y-87974140D01*
X120888264Y-87975344D01*
X120888264Y-87975344D01*
G37*
D14*
X120238760Y-88686640D03*
G04 #@! TD*
D11*
G04 #@! TO.C,C3*
G36*
X120888264Y-100576204D02*
X120912533Y-100579804D01*
X120936331Y-100585765D01*
X120959431Y-100594030D01*
X120981609Y-100604520D01*
X121002653Y-100617133D01*
X121022358Y-100631747D01*
X121040537Y-100648223D01*
X121057013Y-100666402D01*
X121071627Y-100686107D01*
X121084240Y-100707151D01*
X121094730Y-100729329D01*
X121102995Y-100752429D01*
X121108956Y-100776227D01*
X121112556Y-100800496D01*
X121113760Y-100825000D01*
X121113760Y-101750000D01*
X121112556Y-101774504D01*
X121108956Y-101798773D01*
X121102995Y-101822571D01*
X121094730Y-101845671D01*
X121084240Y-101867849D01*
X121071627Y-101888893D01*
X121057013Y-101908598D01*
X121040537Y-101926777D01*
X121022358Y-101943253D01*
X121002653Y-101957867D01*
X120981609Y-101970480D01*
X120959431Y-101980970D01*
X120936331Y-101989235D01*
X120912533Y-101995196D01*
X120888264Y-101998796D01*
X120863760Y-102000000D01*
X119613760Y-102000000D01*
X119589256Y-101998796D01*
X119564987Y-101995196D01*
X119541189Y-101989235D01*
X119518089Y-101980970D01*
X119495911Y-101970480D01*
X119474867Y-101957867D01*
X119455162Y-101943253D01*
X119436983Y-101926777D01*
X119420507Y-101908598D01*
X119405893Y-101888893D01*
X119393280Y-101867849D01*
X119382790Y-101845671D01*
X119374525Y-101822571D01*
X119368564Y-101798773D01*
X119364964Y-101774504D01*
X119363760Y-101750000D01*
X119363760Y-100825000D01*
X119364964Y-100800496D01*
X119368564Y-100776227D01*
X119374525Y-100752429D01*
X119382790Y-100729329D01*
X119393280Y-100707151D01*
X119405893Y-100686107D01*
X119420507Y-100666402D01*
X119436983Y-100648223D01*
X119455162Y-100631747D01*
X119474867Y-100617133D01*
X119495911Y-100604520D01*
X119518089Y-100594030D01*
X119541189Y-100585765D01*
X119564987Y-100579804D01*
X119589256Y-100576204D01*
X119613760Y-100575000D01*
X120863760Y-100575000D01*
X120888264Y-100576204D01*
X120888264Y-100576204D01*
G37*
D14*
X120238760Y-101287500D03*
D11*
G36*
X120888264Y-103551204D02*
X120912533Y-103554804D01*
X120936331Y-103560765D01*
X120959431Y-103569030D01*
X120981609Y-103579520D01*
X121002653Y-103592133D01*
X121022358Y-103606747D01*
X121040537Y-103623223D01*
X121057013Y-103641402D01*
X121071627Y-103661107D01*
X121084240Y-103682151D01*
X121094730Y-103704329D01*
X121102995Y-103727429D01*
X121108956Y-103751227D01*
X121112556Y-103775496D01*
X121113760Y-103800000D01*
X121113760Y-104725000D01*
X121112556Y-104749504D01*
X121108956Y-104773773D01*
X121102995Y-104797571D01*
X121094730Y-104820671D01*
X121084240Y-104842849D01*
X121071627Y-104863893D01*
X121057013Y-104883598D01*
X121040537Y-104901777D01*
X121022358Y-104918253D01*
X121002653Y-104932867D01*
X120981609Y-104945480D01*
X120959431Y-104955970D01*
X120936331Y-104964235D01*
X120912533Y-104970196D01*
X120888264Y-104973796D01*
X120863760Y-104975000D01*
X119613760Y-104975000D01*
X119589256Y-104973796D01*
X119564987Y-104970196D01*
X119541189Y-104964235D01*
X119518089Y-104955970D01*
X119495911Y-104945480D01*
X119474867Y-104932867D01*
X119455162Y-104918253D01*
X119436983Y-104901777D01*
X119420507Y-104883598D01*
X119405893Y-104863893D01*
X119393280Y-104842849D01*
X119382790Y-104820671D01*
X119374525Y-104797571D01*
X119368564Y-104773773D01*
X119364964Y-104749504D01*
X119363760Y-104725000D01*
X119363760Y-103800000D01*
X119364964Y-103775496D01*
X119368564Y-103751227D01*
X119374525Y-103727429D01*
X119382790Y-103704329D01*
X119393280Y-103682151D01*
X119405893Y-103661107D01*
X119420507Y-103641402D01*
X119436983Y-103623223D01*
X119455162Y-103606747D01*
X119474867Y-103592133D01*
X119495911Y-103579520D01*
X119518089Y-103569030D01*
X119541189Y-103560765D01*
X119564987Y-103554804D01*
X119589256Y-103551204D01*
X119613760Y-103550000D01*
X120863760Y-103550000D01*
X120888264Y-103551204D01*
X120888264Y-103551204D01*
G37*
D14*
X120238760Y-104262500D03*
G04 #@! TD*
D11*
G04 #@! TO.C,C4*
G36*
X128365784Y-103551204D02*
X128390053Y-103554804D01*
X128413851Y-103560765D01*
X128436951Y-103569030D01*
X128459129Y-103579520D01*
X128480173Y-103592133D01*
X128499878Y-103606747D01*
X128518057Y-103623223D01*
X128534533Y-103641402D01*
X128549147Y-103661107D01*
X128561760Y-103682151D01*
X128572250Y-103704329D01*
X128580515Y-103727429D01*
X128586476Y-103751227D01*
X128590076Y-103775496D01*
X128591280Y-103800000D01*
X128591280Y-104725000D01*
X128590076Y-104749504D01*
X128586476Y-104773773D01*
X128580515Y-104797571D01*
X128572250Y-104820671D01*
X128561760Y-104842849D01*
X128549147Y-104863893D01*
X128534533Y-104883598D01*
X128518057Y-104901777D01*
X128499878Y-104918253D01*
X128480173Y-104932867D01*
X128459129Y-104945480D01*
X128436951Y-104955970D01*
X128413851Y-104964235D01*
X128390053Y-104970196D01*
X128365784Y-104973796D01*
X128341280Y-104975000D01*
X127091280Y-104975000D01*
X127066776Y-104973796D01*
X127042507Y-104970196D01*
X127018709Y-104964235D01*
X126995609Y-104955970D01*
X126973431Y-104945480D01*
X126952387Y-104932867D01*
X126932682Y-104918253D01*
X126914503Y-104901777D01*
X126898027Y-104883598D01*
X126883413Y-104863893D01*
X126870800Y-104842849D01*
X126860310Y-104820671D01*
X126852045Y-104797571D01*
X126846084Y-104773773D01*
X126842484Y-104749504D01*
X126841280Y-104725000D01*
X126841280Y-103800000D01*
X126842484Y-103775496D01*
X126846084Y-103751227D01*
X126852045Y-103727429D01*
X126860310Y-103704329D01*
X126870800Y-103682151D01*
X126883413Y-103661107D01*
X126898027Y-103641402D01*
X126914503Y-103623223D01*
X126932682Y-103606747D01*
X126952387Y-103592133D01*
X126973431Y-103579520D01*
X126995609Y-103569030D01*
X127018709Y-103560765D01*
X127042507Y-103554804D01*
X127066776Y-103551204D01*
X127091280Y-103550000D01*
X128341280Y-103550000D01*
X128365784Y-103551204D01*
X128365784Y-103551204D01*
G37*
D14*
X127716280Y-104262500D03*
D11*
G36*
X128365784Y-100576204D02*
X128390053Y-100579804D01*
X128413851Y-100585765D01*
X128436951Y-100594030D01*
X128459129Y-100604520D01*
X128480173Y-100617133D01*
X128499878Y-100631747D01*
X128518057Y-100648223D01*
X128534533Y-100666402D01*
X128549147Y-100686107D01*
X128561760Y-100707151D01*
X128572250Y-100729329D01*
X128580515Y-100752429D01*
X128586476Y-100776227D01*
X128590076Y-100800496D01*
X128591280Y-100825000D01*
X128591280Y-101750000D01*
X128590076Y-101774504D01*
X128586476Y-101798773D01*
X128580515Y-101822571D01*
X128572250Y-101845671D01*
X128561760Y-101867849D01*
X128549147Y-101888893D01*
X128534533Y-101908598D01*
X128518057Y-101926777D01*
X128499878Y-101943253D01*
X128480173Y-101957867D01*
X128459129Y-101970480D01*
X128436951Y-101980970D01*
X128413851Y-101989235D01*
X128390053Y-101995196D01*
X128365784Y-101998796D01*
X128341280Y-102000000D01*
X127091280Y-102000000D01*
X127066776Y-101998796D01*
X127042507Y-101995196D01*
X127018709Y-101989235D01*
X126995609Y-101980970D01*
X126973431Y-101970480D01*
X126952387Y-101957867D01*
X126932682Y-101943253D01*
X126914503Y-101926777D01*
X126898027Y-101908598D01*
X126883413Y-101888893D01*
X126870800Y-101867849D01*
X126860310Y-101845671D01*
X126852045Y-101822571D01*
X126846084Y-101798773D01*
X126842484Y-101774504D01*
X126841280Y-101750000D01*
X126841280Y-100825000D01*
X126842484Y-100800496D01*
X126846084Y-100776227D01*
X126852045Y-100752429D01*
X126860310Y-100729329D01*
X126870800Y-100707151D01*
X126883413Y-100686107D01*
X126898027Y-100666402D01*
X126914503Y-100648223D01*
X126932682Y-100631747D01*
X126952387Y-100617133D01*
X126973431Y-100604520D01*
X126995609Y-100594030D01*
X127018709Y-100585765D01*
X127042507Y-100579804D01*
X127066776Y-100576204D01*
X127091280Y-100575000D01*
X128341280Y-100575000D01*
X128365784Y-100576204D01*
X128365784Y-100576204D01*
G37*
D14*
X127716280Y-101287500D03*
G04 #@! TD*
D11*
G04 #@! TO.C,R1*
G36*
X116760779Y-87550284D02*
X116783834Y-87553703D01*
X116806443Y-87559367D01*
X116828387Y-87567219D01*
X116849457Y-87577184D01*
X116869448Y-87589166D01*
X116888168Y-87603050D01*
X116905438Y-87618702D01*
X116921090Y-87635972D01*
X116934974Y-87654692D01*
X116946956Y-87674683D01*
X116956921Y-87695753D01*
X116964773Y-87717697D01*
X116970437Y-87740306D01*
X116973856Y-87763361D01*
X116975000Y-87786640D01*
X116975000Y-88361640D01*
X116973856Y-88384919D01*
X116970437Y-88407974D01*
X116964773Y-88430583D01*
X116956921Y-88452527D01*
X116946956Y-88473597D01*
X116934974Y-88493588D01*
X116921090Y-88512308D01*
X116905438Y-88529578D01*
X116888168Y-88545230D01*
X116869448Y-88559114D01*
X116849457Y-88571096D01*
X116828387Y-88581061D01*
X116806443Y-88588913D01*
X116783834Y-88594577D01*
X116760779Y-88597996D01*
X116737500Y-88599140D01*
X116262500Y-88599140D01*
X116239221Y-88597996D01*
X116216166Y-88594577D01*
X116193557Y-88588913D01*
X116171613Y-88581061D01*
X116150543Y-88571096D01*
X116130552Y-88559114D01*
X116111832Y-88545230D01*
X116094562Y-88529578D01*
X116078910Y-88512308D01*
X116065026Y-88493588D01*
X116053044Y-88473597D01*
X116043079Y-88452527D01*
X116035227Y-88430583D01*
X116029563Y-88407974D01*
X116026144Y-88384919D01*
X116025000Y-88361640D01*
X116025000Y-87786640D01*
X116026144Y-87763361D01*
X116029563Y-87740306D01*
X116035227Y-87717697D01*
X116043079Y-87695753D01*
X116053044Y-87674683D01*
X116065026Y-87654692D01*
X116078910Y-87635972D01*
X116094562Y-87618702D01*
X116111832Y-87603050D01*
X116130552Y-87589166D01*
X116150543Y-87577184D01*
X116171613Y-87567219D01*
X116193557Y-87559367D01*
X116216166Y-87553703D01*
X116239221Y-87550284D01*
X116262500Y-87549140D01*
X116737500Y-87549140D01*
X116760779Y-87550284D01*
X116760779Y-87550284D01*
G37*
D12*
X116500000Y-88074140D03*
D11*
G36*
X116760779Y-85800284D02*
X116783834Y-85803703D01*
X116806443Y-85809367D01*
X116828387Y-85817219D01*
X116849457Y-85827184D01*
X116869448Y-85839166D01*
X116888168Y-85853050D01*
X116905438Y-85868702D01*
X116921090Y-85885972D01*
X116934974Y-85904692D01*
X116946956Y-85924683D01*
X116956921Y-85945753D01*
X116964773Y-85967697D01*
X116970437Y-85990306D01*
X116973856Y-86013361D01*
X116975000Y-86036640D01*
X116975000Y-86611640D01*
X116973856Y-86634919D01*
X116970437Y-86657974D01*
X116964773Y-86680583D01*
X116956921Y-86702527D01*
X116946956Y-86723597D01*
X116934974Y-86743588D01*
X116921090Y-86762308D01*
X116905438Y-86779578D01*
X116888168Y-86795230D01*
X116869448Y-86809114D01*
X116849457Y-86821096D01*
X116828387Y-86831061D01*
X116806443Y-86838913D01*
X116783834Y-86844577D01*
X116760779Y-86847996D01*
X116737500Y-86849140D01*
X116262500Y-86849140D01*
X116239221Y-86847996D01*
X116216166Y-86844577D01*
X116193557Y-86838913D01*
X116171613Y-86831061D01*
X116150543Y-86821096D01*
X116130552Y-86809114D01*
X116111832Y-86795230D01*
X116094562Y-86779578D01*
X116078910Y-86762308D01*
X116065026Y-86743588D01*
X116053044Y-86723597D01*
X116043079Y-86702527D01*
X116035227Y-86680583D01*
X116029563Y-86657974D01*
X116026144Y-86634919D01*
X116025000Y-86611640D01*
X116025000Y-86036640D01*
X116026144Y-86013361D01*
X116029563Y-85990306D01*
X116035227Y-85967697D01*
X116043079Y-85945753D01*
X116053044Y-85924683D01*
X116065026Y-85904692D01*
X116078910Y-85885972D01*
X116094562Y-85868702D01*
X116111832Y-85853050D01*
X116130552Y-85839166D01*
X116150543Y-85827184D01*
X116171613Y-85817219D01*
X116193557Y-85809367D01*
X116216166Y-85803703D01*
X116239221Y-85800284D01*
X116262500Y-85799140D01*
X116737500Y-85799140D01*
X116760779Y-85800284D01*
X116760779Y-85800284D01*
G37*
D12*
X116500000Y-86324140D03*
G04 #@! TD*
D11*
G04 #@! TO.C,R2*
G36*
X116760779Y-103126144D02*
X116783834Y-103129563D01*
X116806443Y-103135227D01*
X116828387Y-103143079D01*
X116849457Y-103153044D01*
X116869448Y-103165026D01*
X116888168Y-103178910D01*
X116905438Y-103194562D01*
X116921090Y-103211832D01*
X116934974Y-103230552D01*
X116946956Y-103250543D01*
X116956921Y-103271613D01*
X116964773Y-103293557D01*
X116970437Y-103316166D01*
X116973856Y-103339221D01*
X116975000Y-103362500D01*
X116975000Y-103937500D01*
X116973856Y-103960779D01*
X116970437Y-103983834D01*
X116964773Y-104006443D01*
X116956921Y-104028387D01*
X116946956Y-104049457D01*
X116934974Y-104069448D01*
X116921090Y-104088168D01*
X116905438Y-104105438D01*
X116888168Y-104121090D01*
X116869448Y-104134974D01*
X116849457Y-104146956D01*
X116828387Y-104156921D01*
X116806443Y-104164773D01*
X116783834Y-104170437D01*
X116760779Y-104173856D01*
X116737500Y-104175000D01*
X116262500Y-104175000D01*
X116239221Y-104173856D01*
X116216166Y-104170437D01*
X116193557Y-104164773D01*
X116171613Y-104156921D01*
X116150543Y-104146956D01*
X116130552Y-104134974D01*
X116111832Y-104121090D01*
X116094562Y-104105438D01*
X116078910Y-104088168D01*
X116065026Y-104069448D01*
X116053044Y-104049457D01*
X116043079Y-104028387D01*
X116035227Y-104006443D01*
X116029563Y-103983834D01*
X116026144Y-103960779D01*
X116025000Y-103937500D01*
X116025000Y-103362500D01*
X116026144Y-103339221D01*
X116029563Y-103316166D01*
X116035227Y-103293557D01*
X116043079Y-103271613D01*
X116053044Y-103250543D01*
X116065026Y-103230552D01*
X116078910Y-103211832D01*
X116094562Y-103194562D01*
X116111832Y-103178910D01*
X116130552Y-103165026D01*
X116150543Y-103153044D01*
X116171613Y-103143079D01*
X116193557Y-103135227D01*
X116216166Y-103129563D01*
X116239221Y-103126144D01*
X116262500Y-103125000D01*
X116737500Y-103125000D01*
X116760779Y-103126144D01*
X116760779Y-103126144D01*
G37*
D12*
X116500000Y-103650000D03*
D11*
G36*
X116760779Y-101376144D02*
X116783834Y-101379563D01*
X116806443Y-101385227D01*
X116828387Y-101393079D01*
X116849457Y-101403044D01*
X116869448Y-101415026D01*
X116888168Y-101428910D01*
X116905438Y-101444562D01*
X116921090Y-101461832D01*
X116934974Y-101480552D01*
X116946956Y-101500543D01*
X116956921Y-101521613D01*
X116964773Y-101543557D01*
X116970437Y-101566166D01*
X116973856Y-101589221D01*
X116975000Y-101612500D01*
X116975000Y-102187500D01*
X116973856Y-102210779D01*
X116970437Y-102233834D01*
X116964773Y-102256443D01*
X116956921Y-102278387D01*
X116946956Y-102299457D01*
X116934974Y-102319448D01*
X116921090Y-102338168D01*
X116905438Y-102355438D01*
X116888168Y-102371090D01*
X116869448Y-102384974D01*
X116849457Y-102396956D01*
X116828387Y-102406921D01*
X116806443Y-102414773D01*
X116783834Y-102420437D01*
X116760779Y-102423856D01*
X116737500Y-102425000D01*
X116262500Y-102425000D01*
X116239221Y-102423856D01*
X116216166Y-102420437D01*
X116193557Y-102414773D01*
X116171613Y-102406921D01*
X116150543Y-102396956D01*
X116130552Y-102384974D01*
X116111832Y-102371090D01*
X116094562Y-102355438D01*
X116078910Y-102338168D01*
X116065026Y-102319448D01*
X116053044Y-102299457D01*
X116043079Y-102278387D01*
X116035227Y-102256443D01*
X116029563Y-102233834D01*
X116026144Y-102210779D01*
X116025000Y-102187500D01*
X116025000Y-101612500D01*
X116026144Y-101589221D01*
X116029563Y-101566166D01*
X116035227Y-101543557D01*
X116043079Y-101521613D01*
X116053044Y-101500543D01*
X116065026Y-101480552D01*
X116078910Y-101461832D01*
X116094562Y-101444562D01*
X116111832Y-101428910D01*
X116130552Y-101415026D01*
X116150543Y-101403044D01*
X116171613Y-101393079D01*
X116193557Y-101385227D01*
X116216166Y-101379563D01*
X116239221Y-101376144D01*
X116262500Y-101375000D01*
X116737500Y-101375000D01*
X116760779Y-101376144D01*
X116760779Y-101376144D01*
G37*
D12*
X116500000Y-101900000D03*
G04 #@! TD*
D11*
G04 #@! TO.C,R3*
G36*
X118435159Y-87550284D02*
X118458214Y-87553703D01*
X118480823Y-87559367D01*
X118502767Y-87567219D01*
X118523837Y-87577184D01*
X118543828Y-87589166D01*
X118562548Y-87603050D01*
X118579818Y-87618702D01*
X118595470Y-87635972D01*
X118609354Y-87654692D01*
X118621336Y-87674683D01*
X118631301Y-87695753D01*
X118639153Y-87717697D01*
X118644817Y-87740306D01*
X118648236Y-87763361D01*
X118649380Y-87786640D01*
X118649380Y-88361640D01*
X118648236Y-88384919D01*
X118644817Y-88407974D01*
X118639153Y-88430583D01*
X118631301Y-88452527D01*
X118621336Y-88473597D01*
X118609354Y-88493588D01*
X118595470Y-88512308D01*
X118579818Y-88529578D01*
X118562548Y-88545230D01*
X118543828Y-88559114D01*
X118523837Y-88571096D01*
X118502767Y-88581061D01*
X118480823Y-88588913D01*
X118458214Y-88594577D01*
X118435159Y-88597996D01*
X118411880Y-88599140D01*
X117936880Y-88599140D01*
X117913601Y-88597996D01*
X117890546Y-88594577D01*
X117867937Y-88588913D01*
X117845993Y-88581061D01*
X117824923Y-88571096D01*
X117804932Y-88559114D01*
X117786212Y-88545230D01*
X117768942Y-88529578D01*
X117753290Y-88512308D01*
X117739406Y-88493588D01*
X117727424Y-88473597D01*
X117717459Y-88452527D01*
X117709607Y-88430583D01*
X117703943Y-88407974D01*
X117700524Y-88384919D01*
X117699380Y-88361640D01*
X117699380Y-87786640D01*
X117700524Y-87763361D01*
X117703943Y-87740306D01*
X117709607Y-87717697D01*
X117717459Y-87695753D01*
X117727424Y-87674683D01*
X117739406Y-87654692D01*
X117753290Y-87635972D01*
X117768942Y-87618702D01*
X117786212Y-87603050D01*
X117804932Y-87589166D01*
X117824923Y-87577184D01*
X117845993Y-87567219D01*
X117867937Y-87559367D01*
X117890546Y-87553703D01*
X117913601Y-87550284D01*
X117936880Y-87549140D01*
X118411880Y-87549140D01*
X118435159Y-87550284D01*
X118435159Y-87550284D01*
G37*
D12*
X118174380Y-88074140D03*
D11*
G36*
X118435159Y-85800284D02*
X118458214Y-85803703D01*
X118480823Y-85809367D01*
X118502767Y-85817219D01*
X118523837Y-85827184D01*
X118543828Y-85839166D01*
X118562548Y-85853050D01*
X118579818Y-85868702D01*
X118595470Y-85885972D01*
X118609354Y-85904692D01*
X118621336Y-85924683D01*
X118631301Y-85945753D01*
X118639153Y-85967697D01*
X118644817Y-85990306D01*
X118648236Y-86013361D01*
X118649380Y-86036640D01*
X118649380Y-86611640D01*
X118648236Y-86634919D01*
X118644817Y-86657974D01*
X118639153Y-86680583D01*
X118631301Y-86702527D01*
X118621336Y-86723597D01*
X118609354Y-86743588D01*
X118595470Y-86762308D01*
X118579818Y-86779578D01*
X118562548Y-86795230D01*
X118543828Y-86809114D01*
X118523837Y-86821096D01*
X118502767Y-86831061D01*
X118480823Y-86838913D01*
X118458214Y-86844577D01*
X118435159Y-86847996D01*
X118411880Y-86849140D01*
X117936880Y-86849140D01*
X117913601Y-86847996D01*
X117890546Y-86844577D01*
X117867937Y-86838913D01*
X117845993Y-86831061D01*
X117824923Y-86821096D01*
X117804932Y-86809114D01*
X117786212Y-86795230D01*
X117768942Y-86779578D01*
X117753290Y-86762308D01*
X117739406Y-86743588D01*
X117727424Y-86723597D01*
X117717459Y-86702527D01*
X117709607Y-86680583D01*
X117703943Y-86657974D01*
X117700524Y-86634919D01*
X117699380Y-86611640D01*
X117699380Y-86036640D01*
X117700524Y-86013361D01*
X117703943Y-85990306D01*
X117709607Y-85967697D01*
X117717459Y-85945753D01*
X117727424Y-85924683D01*
X117739406Y-85904692D01*
X117753290Y-85885972D01*
X117768942Y-85868702D01*
X117786212Y-85853050D01*
X117804932Y-85839166D01*
X117824923Y-85827184D01*
X117845993Y-85817219D01*
X117867937Y-85809367D01*
X117890546Y-85803703D01*
X117913601Y-85800284D01*
X117936880Y-85799140D01*
X118411880Y-85799140D01*
X118435159Y-85800284D01*
X118435159Y-85800284D01*
G37*
D12*
X118174380Y-86324140D03*
G04 #@! TD*
D11*
G04 #@! TO.C,R4*
G36*
X118435159Y-103126144D02*
X118458214Y-103129563D01*
X118480823Y-103135227D01*
X118502767Y-103143079D01*
X118523837Y-103153044D01*
X118543828Y-103165026D01*
X118562548Y-103178910D01*
X118579818Y-103194562D01*
X118595470Y-103211832D01*
X118609354Y-103230552D01*
X118621336Y-103250543D01*
X118631301Y-103271613D01*
X118639153Y-103293557D01*
X118644817Y-103316166D01*
X118648236Y-103339221D01*
X118649380Y-103362500D01*
X118649380Y-103937500D01*
X118648236Y-103960779D01*
X118644817Y-103983834D01*
X118639153Y-104006443D01*
X118631301Y-104028387D01*
X118621336Y-104049457D01*
X118609354Y-104069448D01*
X118595470Y-104088168D01*
X118579818Y-104105438D01*
X118562548Y-104121090D01*
X118543828Y-104134974D01*
X118523837Y-104146956D01*
X118502767Y-104156921D01*
X118480823Y-104164773D01*
X118458214Y-104170437D01*
X118435159Y-104173856D01*
X118411880Y-104175000D01*
X117936880Y-104175000D01*
X117913601Y-104173856D01*
X117890546Y-104170437D01*
X117867937Y-104164773D01*
X117845993Y-104156921D01*
X117824923Y-104146956D01*
X117804932Y-104134974D01*
X117786212Y-104121090D01*
X117768942Y-104105438D01*
X117753290Y-104088168D01*
X117739406Y-104069448D01*
X117727424Y-104049457D01*
X117717459Y-104028387D01*
X117709607Y-104006443D01*
X117703943Y-103983834D01*
X117700524Y-103960779D01*
X117699380Y-103937500D01*
X117699380Y-103362500D01*
X117700524Y-103339221D01*
X117703943Y-103316166D01*
X117709607Y-103293557D01*
X117717459Y-103271613D01*
X117727424Y-103250543D01*
X117739406Y-103230552D01*
X117753290Y-103211832D01*
X117768942Y-103194562D01*
X117786212Y-103178910D01*
X117804932Y-103165026D01*
X117824923Y-103153044D01*
X117845993Y-103143079D01*
X117867937Y-103135227D01*
X117890546Y-103129563D01*
X117913601Y-103126144D01*
X117936880Y-103125000D01*
X118411880Y-103125000D01*
X118435159Y-103126144D01*
X118435159Y-103126144D01*
G37*
D12*
X118174380Y-103650000D03*
D11*
G36*
X118435159Y-101376144D02*
X118458214Y-101379563D01*
X118480823Y-101385227D01*
X118502767Y-101393079D01*
X118523837Y-101403044D01*
X118543828Y-101415026D01*
X118562548Y-101428910D01*
X118579818Y-101444562D01*
X118595470Y-101461832D01*
X118609354Y-101480552D01*
X118621336Y-101500543D01*
X118631301Y-101521613D01*
X118639153Y-101543557D01*
X118644817Y-101566166D01*
X118648236Y-101589221D01*
X118649380Y-101612500D01*
X118649380Y-102187500D01*
X118648236Y-102210779D01*
X118644817Y-102233834D01*
X118639153Y-102256443D01*
X118631301Y-102278387D01*
X118621336Y-102299457D01*
X118609354Y-102319448D01*
X118595470Y-102338168D01*
X118579818Y-102355438D01*
X118562548Y-102371090D01*
X118543828Y-102384974D01*
X118523837Y-102396956D01*
X118502767Y-102406921D01*
X118480823Y-102414773D01*
X118458214Y-102420437D01*
X118435159Y-102423856D01*
X118411880Y-102425000D01*
X117936880Y-102425000D01*
X117913601Y-102423856D01*
X117890546Y-102420437D01*
X117867937Y-102414773D01*
X117845993Y-102406921D01*
X117824923Y-102396956D01*
X117804932Y-102384974D01*
X117786212Y-102371090D01*
X117768942Y-102355438D01*
X117753290Y-102338168D01*
X117739406Y-102319448D01*
X117727424Y-102299457D01*
X117717459Y-102278387D01*
X117709607Y-102256443D01*
X117703943Y-102233834D01*
X117700524Y-102210779D01*
X117699380Y-102187500D01*
X117699380Y-101612500D01*
X117700524Y-101589221D01*
X117703943Y-101566166D01*
X117709607Y-101543557D01*
X117717459Y-101521613D01*
X117727424Y-101500543D01*
X117739406Y-101480552D01*
X117753290Y-101461832D01*
X117768942Y-101444562D01*
X117786212Y-101428910D01*
X117804932Y-101415026D01*
X117824923Y-101403044D01*
X117845993Y-101393079D01*
X117867937Y-101385227D01*
X117890546Y-101379563D01*
X117913601Y-101376144D01*
X117936880Y-101375000D01*
X118411880Y-101375000D01*
X118435159Y-101376144D01*
X118435159Y-101376144D01*
G37*
D12*
X118174380Y-101900000D03*
G04 #@! TD*
D11*
G04 #@! TO.C,R5*
G36*
X124238299Y-87550284D02*
X124261354Y-87553703D01*
X124283963Y-87559367D01*
X124305907Y-87567219D01*
X124326977Y-87577184D01*
X124346968Y-87589166D01*
X124365688Y-87603050D01*
X124382958Y-87618702D01*
X124398610Y-87635972D01*
X124412494Y-87654692D01*
X124424476Y-87674683D01*
X124434441Y-87695753D01*
X124442293Y-87717697D01*
X124447957Y-87740306D01*
X124451376Y-87763361D01*
X124452520Y-87786640D01*
X124452520Y-88361640D01*
X124451376Y-88384919D01*
X124447957Y-88407974D01*
X124442293Y-88430583D01*
X124434441Y-88452527D01*
X124424476Y-88473597D01*
X124412494Y-88493588D01*
X124398610Y-88512308D01*
X124382958Y-88529578D01*
X124365688Y-88545230D01*
X124346968Y-88559114D01*
X124326977Y-88571096D01*
X124305907Y-88581061D01*
X124283963Y-88588913D01*
X124261354Y-88594577D01*
X124238299Y-88597996D01*
X124215020Y-88599140D01*
X123740020Y-88599140D01*
X123716741Y-88597996D01*
X123693686Y-88594577D01*
X123671077Y-88588913D01*
X123649133Y-88581061D01*
X123628063Y-88571096D01*
X123608072Y-88559114D01*
X123589352Y-88545230D01*
X123572082Y-88529578D01*
X123556430Y-88512308D01*
X123542546Y-88493588D01*
X123530564Y-88473597D01*
X123520599Y-88452527D01*
X123512747Y-88430583D01*
X123507083Y-88407974D01*
X123503664Y-88384919D01*
X123502520Y-88361640D01*
X123502520Y-87786640D01*
X123503664Y-87763361D01*
X123507083Y-87740306D01*
X123512747Y-87717697D01*
X123520599Y-87695753D01*
X123530564Y-87674683D01*
X123542546Y-87654692D01*
X123556430Y-87635972D01*
X123572082Y-87618702D01*
X123589352Y-87603050D01*
X123608072Y-87589166D01*
X123628063Y-87577184D01*
X123649133Y-87567219D01*
X123671077Y-87559367D01*
X123693686Y-87553703D01*
X123716741Y-87550284D01*
X123740020Y-87549140D01*
X124215020Y-87549140D01*
X124238299Y-87550284D01*
X124238299Y-87550284D01*
G37*
D12*
X123977520Y-88074140D03*
D11*
G36*
X124238299Y-85800284D02*
X124261354Y-85803703D01*
X124283963Y-85809367D01*
X124305907Y-85817219D01*
X124326977Y-85827184D01*
X124346968Y-85839166D01*
X124365688Y-85853050D01*
X124382958Y-85868702D01*
X124398610Y-85885972D01*
X124412494Y-85904692D01*
X124424476Y-85924683D01*
X124434441Y-85945753D01*
X124442293Y-85967697D01*
X124447957Y-85990306D01*
X124451376Y-86013361D01*
X124452520Y-86036640D01*
X124452520Y-86611640D01*
X124451376Y-86634919D01*
X124447957Y-86657974D01*
X124442293Y-86680583D01*
X124434441Y-86702527D01*
X124424476Y-86723597D01*
X124412494Y-86743588D01*
X124398610Y-86762308D01*
X124382958Y-86779578D01*
X124365688Y-86795230D01*
X124346968Y-86809114D01*
X124326977Y-86821096D01*
X124305907Y-86831061D01*
X124283963Y-86838913D01*
X124261354Y-86844577D01*
X124238299Y-86847996D01*
X124215020Y-86849140D01*
X123740020Y-86849140D01*
X123716741Y-86847996D01*
X123693686Y-86844577D01*
X123671077Y-86838913D01*
X123649133Y-86831061D01*
X123628063Y-86821096D01*
X123608072Y-86809114D01*
X123589352Y-86795230D01*
X123572082Y-86779578D01*
X123556430Y-86762308D01*
X123542546Y-86743588D01*
X123530564Y-86723597D01*
X123520599Y-86702527D01*
X123512747Y-86680583D01*
X123507083Y-86657974D01*
X123503664Y-86634919D01*
X123502520Y-86611640D01*
X123502520Y-86036640D01*
X123503664Y-86013361D01*
X123507083Y-85990306D01*
X123512747Y-85967697D01*
X123520599Y-85945753D01*
X123530564Y-85924683D01*
X123542546Y-85904692D01*
X123556430Y-85885972D01*
X123572082Y-85868702D01*
X123589352Y-85853050D01*
X123608072Y-85839166D01*
X123628063Y-85827184D01*
X123649133Y-85817219D01*
X123671077Y-85809367D01*
X123693686Y-85803703D01*
X123716741Y-85800284D01*
X123740020Y-85799140D01*
X124215020Y-85799140D01*
X124238299Y-85800284D01*
X124238299Y-85800284D01*
G37*
D12*
X123977520Y-86324140D03*
G04 #@! TD*
D11*
G04 #@! TO.C,R6*
G36*
X122563919Y-103126144D02*
X122586974Y-103129563D01*
X122609583Y-103135227D01*
X122631527Y-103143079D01*
X122652597Y-103153044D01*
X122672588Y-103165026D01*
X122691308Y-103178910D01*
X122708578Y-103194562D01*
X122724230Y-103211832D01*
X122738114Y-103230552D01*
X122750096Y-103250543D01*
X122760061Y-103271613D01*
X122767913Y-103293557D01*
X122773577Y-103316166D01*
X122776996Y-103339221D01*
X122778140Y-103362500D01*
X122778140Y-103937500D01*
X122776996Y-103960779D01*
X122773577Y-103983834D01*
X122767913Y-104006443D01*
X122760061Y-104028387D01*
X122750096Y-104049457D01*
X122738114Y-104069448D01*
X122724230Y-104088168D01*
X122708578Y-104105438D01*
X122691308Y-104121090D01*
X122672588Y-104134974D01*
X122652597Y-104146956D01*
X122631527Y-104156921D01*
X122609583Y-104164773D01*
X122586974Y-104170437D01*
X122563919Y-104173856D01*
X122540640Y-104175000D01*
X122065640Y-104175000D01*
X122042361Y-104173856D01*
X122019306Y-104170437D01*
X121996697Y-104164773D01*
X121974753Y-104156921D01*
X121953683Y-104146956D01*
X121933692Y-104134974D01*
X121914972Y-104121090D01*
X121897702Y-104105438D01*
X121882050Y-104088168D01*
X121868166Y-104069448D01*
X121856184Y-104049457D01*
X121846219Y-104028387D01*
X121838367Y-104006443D01*
X121832703Y-103983834D01*
X121829284Y-103960779D01*
X121828140Y-103937500D01*
X121828140Y-103362500D01*
X121829284Y-103339221D01*
X121832703Y-103316166D01*
X121838367Y-103293557D01*
X121846219Y-103271613D01*
X121856184Y-103250543D01*
X121868166Y-103230552D01*
X121882050Y-103211832D01*
X121897702Y-103194562D01*
X121914972Y-103178910D01*
X121933692Y-103165026D01*
X121953683Y-103153044D01*
X121974753Y-103143079D01*
X121996697Y-103135227D01*
X122019306Y-103129563D01*
X122042361Y-103126144D01*
X122065640Y-103125000D01*
X122540640Y-103125000D01*
X122563919Y-103126144D01*
X122563919Y-103126144D01*
G37*
D12*
X122303140Y-103650000D03*
D11*
G36*
X122563919Y-101376144D02*
X122586974Y-101379563D01*
X122609583Y-101385227D01*
X122631527Y-101393079D01*
X122652597Y-101403044D01*
X122672588Y-101415026D01*
X122691308Y-101428910D01*
X122708578Y-101444562D01*
X122724230Y-101461832D01*
X122738114Y-101480552D01*
X122750096Y-101500543D01*
X122760061Y-101521613D01*
X122767913Y-101543557D01*
X122773577Y-101566166D01*
X122776996Y-101589221D01*
X122778140Y-101612500D01*
X122778140Y-102187500D01*
X122776996Y-102210779D01*
X122773577Y-102233834D01*
X122767913Y-102256443D01*
X122760061Y-102278387D01*
X122750096Y-102299457D01*
X122738114Y-102319448D01*
X122724230Y-102338168D01*
X122708578Y-102355438D01*
X122691308Y-102371090D01*
X122672588Y-102384974D01*
X122652597Y-102396956D01*
X122631527Y-102406921D01*
X122609583Y-102414773D01*
X122586974Y-102420437D01*
X122563919Y-102423856D01*
X122540640Y-102425000D01*
X122065640Y-102425000D01*
X122042361Y-102423856D01*
X122019306Y-102420437D01*
X121996697Y-102414773D01*
X121974753Y-102406921D01*
X121953683Y-102396956D01*
X121933692Y-102384974D01*
X121914972Y-102371090D01*
X121897702Y-102355438D01*
X121882050Y-102338168D01*
X121868166Y-102319448D01*
X121856184Y-102299457D01*
X121846219Y-102278387D01*
X121838367Y-102256443D01*
X121832703Y-102233834D01*
X121829284Y-102210779D01*
X121828140Y-102187500D01*
X121828140Y-101612500D01*
X121829284Y-101589221D01*
X121832703Y-101566166D01*
X121838367Y-101543557D01*
X121846219Y-101521613D01*
X121856184Y-101500543D01*
X121868166Y-101480552D01*
X121882050Y-101461832D01*
X121897702Y-101444562D01*
X121914972Y-101428910D01*
X121933692Y-101415026D01*
X121953683Y-101403044D01*
X121974753Y-101393079D01*
X121996697Y-101385227D01*
X122019306Y-101379563D01*
X122042361Y-101376144D01*
X122065640Y-101375000D01*
X122540640Y-101375000D01*
X122563919Y-101376144D01*
X122563919Y-101376144D01*
G37*
D12*
X122303140Y-101900000D03*
G04 #@! TD*
D11*
G04 #@! TO.C,R7*
G36*
X125912679Y-87550284D02*
X125935734Y-87553703D01*
X125958343Y-87559367D01*
X125980287Y-87567219D01*
X126001357Y-87577184D01*
X126021348Y-87589166D01*
X126040068Y-87603050D01*
X126057338Y-87618702D01*
X126072990Y-87635972D01*
X126086874Y-87654692D01*
X126098856Y-87674683D01*
X126108821Y-87695753D01*
X126116673Y-87717697D01*
X126122337Y-87740306D01*
X126125756Y-87763361D01*
X126126900Y-87786640D01*
X126126900Y-88361640D01*
X126125756Y-88384919D01*
X126122337Y-88407974D01*
X126116673Y-88430583D01*
X126108821Y-88452527D01*
X126098856Y-88473597D01*
X126086874Y-88493588D01*
X126072990Y-88512308D01*
X126057338Y-88529578D01*
X126040068Y-88545230D01*
X126021348Y-88559114D01*
X126001357Y-88571096D01*
X125980287Y-88581061D01*
X125958343Y-88588913D01*
X125935734Y-88594577D01*
X125912679Y-88597996D01*
X125889400Y-88599140D01*
X125414400Y-88599140D01*
X125391121Y-88597996D01*
X125368066Y-88594577D01*
X125345457Y-88588913D01*
X125323513Y-88581061D01*
X125302443Y-88571096D01*
X125282452Y-88559114D01*
X125263732Y-88545230D01*
X125246462Y-88529578D01*
X125230810Y-88512308D01*
X125216926Y-88493588D01*
X125204944Y-88473597D01*
X125194979Y-88452527D01*
X125187127Y-88430583D01*
X125181463Y-88407974D01*
X125178044Y-88384919D01*
X125176900Y-88361640D01*
X125176900Y-87786640D01*
X125178044Y-87763361D01*
X125181463Y-87740306D01*
X125187127Y-87717697D01*
X125194979Y-87695753D01*
X125204944Y-87674683D01*
X125216926Y-87654692D01*
X125230810Y-87635972D01*
X125246462Y-87618702D01*
X125263732Y-87603050D01*
X125282452Y-87589166D01*
X125302443Y-87577184D01*
X125323513Y-87567219D01*
X125345457Y-87559367D01*
X125368066Y-87553703D01*
X125391121Y-87550284D01*
X125414400Y-87549140D01*
X125889400Y-87549140D01*
X125912679Y-87550284D01*
X125912679Y-87550284D01*
G37*
D12*
X125651900Y-88074140D03*
D11*
G36*
X125912679Y-85800284D02*
X125935734Y-85803703D01*
X125958343Y-85809367D01*
X125980287Y-85817219D01*
X126001357Y-85827184D01*
X126021348Y-85839166D01*
X126040068Y-85853050D01*
X126057338Y-85868702D01*
X126072990Y-85885972D01*
X126086874Y-85904692D01*
X126098856Y-85924683D01*
X126108821Y-85945753D01*
X126116673Y-85967697D01*
X126122337Y-85990306D01*
X126125756Y-86013361D01*
X126126900Y-86036640D01*
X126126900Y-86611640D01*
X126125756Y-86634919D01*
X126122337Y-86657974D01*
X126116673Y-86680583D01*
X126108821Y-86702527D01*
X126098856Y-86723597D01*
X126086874Y-86743588D01*
X126072990Y-86762308D01*
X126057338Y-86779578D01*
X126040068Y-86795230D01*
X126021348Y-86809114D01*
X126001357Y-86821096D01*
X125980287Y-86831061D01*
X125958343Y-86838913D01*
X125935734Y-86844577D01*
X125912679Y-86847996D01*
X125889400Y-86849140D01*
X125414400Y-86849140D01*
X125391121Y-86847996D01*
X125368066Y-86844577D01*
X125345457Y-86838913D01*
X125323513Y-86831061D01*
X125302443Y-86821096D01*
X125282452Y-86809114D01*
X125263732Y-86795230D01*
X125246462Y-86779578D01*
X125230810Y-86762308D01*
X125216926Y-86743588D01*
X125204944Y-86723597D01*
X125194979Y-86702527D01*
X125187127Y-86680583D01*
X125181463Y-86657974D01*
X125178044Y-86634919D01*
X125176900Y-86611640D01*
X125176900Y-86036640D01*
X125178044Y-86013361D01*
X125181463Y-85990306D01*
X125187127Y-85967697D01*
X125194979Y-85945753D01*
X125204944Y-85924683D01*
X125216926Y-85904692D01*
X125230810Y-85885972D01*
X125246462Y-85868702D01*
X125263732Y-85853050D01*
X125282452Y-85839166D01*
X125302443Y-85827184D01*
X125323513Y-85817219D01*
X125345457Y-85809367D01*
X125368066Y-85803703D01*
X125391121Y-85800284D01*
X125414400Y-85799140D01*
X125889400Y-85799140D01*
X125912679Y-85800284D01*
X125912679Y-85800284D01*
G37*
D12*
X125651900Y-86324140D03*
G04 #@! TD*
D11*
G04 #@! TO.C,R8*
G36*
X125912679Y-103126144D02*
X125935734Y-103129563D01*
X125958343Y-103135227D01*
X125980287Y-103143079D01*
X126001357Y-103153044D01*
X126021348Y-103165026D01*
X126040068Y-103178910D01*
X126057338Y-103194562D01*
X126072990Y-103211832D01*
X126086874Y-103230552D01*
X126098856Y-103250543D01*
X126108821Y-103271613D01*
X126116673Y-103293557D01*
X126122337Y-103316166D01*
X126125756Y-103339221D01*
X126126900Y-103362500D01*
X126126900Y-103937500D01*
X126125756Y-103960779D01*
X126122337Y-103983834D01*
X126116673Y-104006443D01*
X126108821Y-104028387D01*
X126098856Y-104049457D01*
X126086874Y-104069448D01*
X126072990Y-104088168D01*
X126057338Y-104105438D01*
X126040068Y-104121090D01*
X126021348Y-104134974D01*
X126001357Y-104146956D01*
X125980287Y-104156921D01*
X125958343Y-104164773D01*
X125935734Y-104170437D01*
X125912679Y-104173856D01*
X125889400Y-104175000D01*
X125414400Y-104175000D01*
X125391121Y-104173856D01*
X125368066Y-104170437D01*
X125345457Y-104164773D01*
X125323513Y-104156921D01*
X125302443Y-104146956D01*
X125282452Y-104134974D01*
X125263732Y-104121090D01*
X125246462Y-104105438D01*
X125230810Y-104088168D01*
X125216926Y-104069448D01*
X125204944Y-104049457D01*
X125194979Y-104028387D01*
X125187127Y-104006443D01*
X125181463Y-103983834D01*
X125178044Y-103960779D01*
X125176900Y-103937500D01*
X125176900Y-103362500D01*
X125178044Y-103339221D01*
X125181463Y-103316166D01*
X125187127Y-103293557D01*
X125194979Y-103271613D01*
X125204944Y-103250543D01*
X125216926Y-103230552D01*
X125230810Y-103211832D01*
X125246462Y-103194562D01*
X125263732Y-103178910D01*
X125282452Y-103165026D01*
X125302443Y-103153044D01*
X125323513Y-103143079D01*
X125345457Y-103135227D01*
X125368066Y-103129563D01*
X125391121Y-103126144D01*
X125414400Y-103125000D01*
X125889400Y-103125000D01*
X125912679Y-103126144D01*
X125912679Y-103126144D01*
G37*
D12*
X125651900Y-103650000D03*
D11*
G36*
X125912679Y-101376144D02*
X125935734Y-101379563D01*
X125958343Y-101385227D01*
X125980287Y-101393079D01*
X126001357Y-101403044D01*
X126021348Y-101415026D01*
X126040068Y-101428910D01*
X126057338Y-101444562D01*
X126072990Y-101461832D01*
X126086874Y-101480552D01*
X126098856Y-101500543D01*
X126108821Y-101521613D01*
X126116673Y-101543557D01*
X126122337Y-101566166D01*
X126125756Y-101589221D01*
X126126900Y-101612500D01*
X126126900Y-102187500D01*
X126125756Y-102210779D01*
X126122337Y-102233834D01*
X126116673Y-102256443D01*
X126108821Y-102278387D01*
X126098856Y-102299457D01*
X126086874Y-102319448D01*
X126072990Y-102338168D01*
X126057338Y-102355438D01*
X126040068Y-102371090D01*
X126021348Y-102384974D01*
X126001357Y-102396956D01*
X125980287Y-102406921D01*
X125958343Y-102414773D01*
X125935734Y-102420437D01*
X125912679Y-102423856D01*
X125889400Y-102425000D01*
X125414400Y-102425000D01*
X125391121Y-102423856D01*
X125368066Y-102420437D01*
X125345457Y-102414773D01*
X125323513Y-102406921D01*
X125302443Y-102396956D01*
X125282452Y-102384974D01*
X125263732Y-102371090D01*
X125246462Y-102355438D01*
X125230810Y-102338168D01*
X125216926Y-102319448D01*
X125204944Y-102299457D01*
X125194979Y-102278387D01*
X125187127Y-102256443D01*
X125181463Y-102233834D01*
X125178044Y-102210779D01*
X125176900Y-102187500D01*
X125176900Y-101612500D01*
X125178044Y-101589221D01*
X125181463Y-101566166D01*
X125187127Y-101543557D01*
X125194979Y-101521613D01*
X125204944Y-101500543D01*
X125216926Y-101480552D01*
X125230810Y-101461832D01*
X125246462Y-101444562D01*
X125263732Y-101428910D01*
X125282452Y-101415026D01*
X125302443Y-101403044D01*
X125323513Y-101393079D01*
X125345457Y-101385227D01*
X125368066Y-101379563D01*
X125391121Y-101376144D01*
X125414400Y-101375000D01*
X125889400Y-101375000D01*
X125912679Y-101376144D01*
X125912679Y-101376144D01*
G37*
D12*
X125651900Y-101900000D03*
G04 #@! TD*
D11*
G04 #@! TO.C,R9*
G36*
X132193459Y-87565884D02*
X132216514Y-87569303D01*
X132239123Y-87574967D01*
X132261067Y-87582819D01*
X132282137Y-87592784D01*
X132302128Y-87604766D01*
X132320848Y-87618650D01*
X132338118Y-87634302D01*
X132353770Y-87651572D01*
X132367654Y-87670292D01*
X132379636Y-87690283D01*
X132389601Y-87711353D01*
X132397453Y-87733297D01*
X132403117Y-87755906D01*
X132406536Y-87778961D01*
X132407680Y-87802240D01*
X132407680Y-88377240D01*
X132406536Y-88400519D01*
X132403117Y-88423574D01*
X132397453Y-88446183D01*
X132389601Y-88468127D01*
X132379636Y-88489197D01*
X132367654Y-88509188D01*
X132353770Y-88527908D01*
X132338118Y-88545178D01*
X132320848Y-88560830D01*
X132302128Y-88574714D01*
X132282137Y-88586696D01*
X132261067Y-88596661D01*
X132239123Y-88604513D01*
X132216514Y-88610177D01*
X132193459Y-88613596D01*
X132170180Y-88614740D01*
X131695180Y-88614740D01*
X131671901Y-88613596D01*
X131648846Y-88610177D01*
X131626237Y-88604513D01*
X131604293Y-88596661D01*
X131583223Y-88586696D01*
X131563232Y-88574714D01*
X131544512Y-88560830D01*
X131527242Y-88545178D01*
X131511590Y-88527908D01*
X131497706Y-88509188D01*
X131485724Y-88489197D01*
X131475759Y-88468127D01*
X131467907Y-88446183D01*
X131462243Y-88423574D01*
X131458824Y-88400519D01*
X131457680Y-88377240D01*
X131457680Y-87802240D01*
X131458824Y-87778961D01*
X131462243Y-87755906D01*
X131467907Y-87733297D01*
X131475759Y-87711353D01*
X131485724Y-87690283D01*
X131497706Y-87670292D01*
X131511590Y-87651572D01*
X131527242Y-87634302D01*
X131544512Y-87618650D01*
X131563232Y-87604766D01*
X131583223Y-87592784D01*
X131604293Y-87582819D01*
X131626237Y-87574967D01*
X131648846Y-87569303D01*
X131671901Y-87565884D01*
X131695180Y-87564740D01*
X132170180Y-87564740D01*
X132193459Y-87565884D01*
X132193459Y-87565884D01*
G37*
D12*
X131932680Y-88089740D03*
D11*
G36*
X132193459Y-85815884D02*
X132216514Y-85819303D01*
X132239123Y-85824967D01*
X132261067Y-85832819D01*
X132282137Y-85842784D01*
X132302128Y-85854766D01*
X132320848Y-85868650D01*
X132338118Y-85884302D01*
X132353770Y-85901572D01*
X132367654Y-85920292D01*
X132379636Y-85940283D01*
X132389601Y-85961353D01*
X132397453Y-85983297D01*
X132403117Y-86005906D01*
X132406536Y-86028961D01*
X132407680Y-86052240D01*
X132407680Y-86627240D01*
X132406536Y-86650519D01*
X132403117Y-86673574D01*
X132397453Y-86696183D01*
X132389601Y-86718127D01*
X132379636Y-86739197D01*
X132367654Y-86759188D01*
X132353770Y-86777908D01*
X132338118Y-86795178D01*
X132320848Y-86810830D01*
X132302128Y-86824714D01*
X132282137Y-86836696D01*
X132261067Y-86846661D01*
X132239123Y-86854513D01*
X132216514Y-86860177D01*
X132193459Y-86863596D01*
X132170180Y-86864740D01*
X131695180Y-86864740D01*
X131671901Y-86863596D01*
X131648846Y-86860177D01*
X131626237Y-86854513D01*
X131604293Y-86846661D01*
X131583223Y-86836696D01*
X131563232Y-86824714D01*
X131544512Y-86810830D01*
X131527242Y-86795178D01*
X131511590Y-86777908D01*
X131497706Y-86759188D01*
X131485724Y-86739197D01*
X131475759Y-86718127D01*
X131467907Y-86696183D01*
X131462243Y-86673574D01*
X131458824Y-86650519D01*
X131457680Y-86627240D01*
X131457680Y-86052240D01*
X131458824Y-86028961D01*
X131462243Y-86005906D01*
X131467907Y-85983297D01*
X131475759Y-85961353D01*
X131485724Y-85940283D01*
X131497706Y-85920292D01*
X131511590Y-85901572D01*
X131527242Y-85884302D01*
X131544512Y-85868650D01*
X131563232Y-85854766D01*
X131583223Y-85842784D01*
X131604293Y-85832819D01*
X131626237Y-85824967D01*
X131648846Y-85819303D01*
X131671901Y-85815884D01*
X131695180Y-85814740D01*
X132170180Y-85814740D01*
X132193459Y-85815884D01*
X132193459Y-85815884D01*
G37*
D12*
X131932680Y-86339740D03*
G04 #@! TD*
D11*
G04 #@! TO.C,R10*
G36*
X132193459Y-103126144D02*
X132216514Y-103129563D01*
X132239123Y-103135227D01*
X132261067Y-103143079D01*
X132282137Y-103153044D01*
X132302128Y-103165026D01*
X132320848Y-103178910D01*
X132338118Y-103194562D01*
X132353770Y-103211832D01*
X132367654Y-103230552D01*
X132379636Y-103250543D01*
X132389601Y-103271613D01*
X132397453Y-103293557D01*
X132403117Y-103316166D01*
X132406536Y-103339221D01*
X132407680Y-103362500D01*
X132407680Y-103937500D01*
X132406536Y-103960779D01*
X132403117Y-103983834D01*
X132397453Y-104006443D01*
X132389601Y-104028387D01*
X132379636Y-104049457D01*
X132367654Y-104069448D01*
X132353770Y-104088168D01*
X132338118Y-104105438D01*
X132320848Y-104121090D01*
X132302128Y-104134974D01*
X132282137Y-104146956D01*
X132261067Y-104156921D01*
X132239123Y-104164773D01*
X132216514Y-104170437D01*
X132193459Y-104173856D01*
X132170180Y-104175000D01*
X131695180Y-104175000D01*
X131671901Y-104173856D01*
X131648846Y-104170437D01*
X131626237Y-104164773D01*
X131604293Y-104156921D01*
X131583223Y-104146956D01*
X131563232Y-104134974D01*
X131544512Y-104121090D01*
X131527242Y-104105438D01*
X131511590Y-104088168D01*
X131497706Y-104069448D01*
X131485724Y-104049457D01*
X131475759Y-104028387D01*
X131467907Y-104006443D01*
X131462243Y-103983834D01*
X131458824Y-103960779D01*
X131457680Y-103937500D01*
X131457680Y-103362500D01*
X131458824Y-103339221D01*
X131462243Y-103316166D01*
X131467907Y-103293557D01*
X131475759Y-103271613D01*
X131485724Y-103250543D01*
X131497706Y-103230552D01*
X131511590Y-103211832D01*
X131527242Y-103194562D01*
X131544512Y-103178910D01*
X131563232Y-103165026D01*
X131583223Y-103153044D01*
X131604293Y-103143079D01*
X131626237Y-103135227D01*
X131648846Y-103129563D01*
X131671901Y-103126144D01*
X131695180Y-103125000D01*
X132170180Y-103125000D01*
X132193459Y-103126144D01*
X132193459Y-103126144D01*
G37*
D12*
X131932680Y-103650000D03*
D11*
G36*
X132193459Y-101376144D02*
X132216514Y-101379563D01*
X132239123Y-101385227D01*
X132261067Y-101393079D01*
X132282137Y-101403044D01*
X132302128Y-101415026D01*
X132320848Y-101428910D01*
X132338118Y-101444562D01*
X132353770Y-101461832D01*
X132367654Y-101480552D01*
X132379636Y-101500543D01*
X132389601Y-101521613D01*
X132397453Y-101543557D01*
X132403117Y-101566166D01*
X132406536Y-101589221D01*
X132407680Y-101612500D01*
X132407680Y-102187500D01*
X132406536Y-102210779D01*
X132403117Y-102233834D01*
X132397453Y-102256443D01*
X132389601Y-102278387D01*
X132379636Y-102299457D01*
X132367654Y-102319448D01*
X132353770Y-102338168D01*
X132338118Y-102355438D01*
X132320848Y-102371090D01*
X132302128Y-102384974D01*
X132282137Y-102396956D01*
X132261067Y-102406921D01*
X132239123Y-102414773D01*
X132216514Y-102420437D01*
X132193459Y-102423856D01*
X132170180Y-102425000D01*
X131695180Y-102425000D01*
X131671901Y-102423856D01*
X131648846Y-102420437D01*
X131626237Y-102414773D01*
X131604293Y-102406921D01*
X131583223Y-102396956D01*
X131563232Y-102384974D01*
X131544512Y-102371090D01*
X131527242Y-102355438D01*
X131511590Y-102338168D01*
X131497706Y-102319448D01*
X131485724Y-102299457D01*
X131475759Y-102278387D01*
X131467907Y-102256443D01*
X131462243Y-102233834D01*
X131458824Y-102210779D01*
X131457680Y-102187500D01*
X131457680Y-101612500D01*
X131458824Y-101589221D01*
X131462243Y-101566166D01*
X131467907Y-101543557D01*
X131475759Y-101521613D01*
X131485724Y-101500543D01*
X131497706Y-101480552D01*
X131511590Y-101461832D01*
X131527242Y-101444562D01*
X131544512Y-101428910D01*
X131563232Y-101415026D01*
X131583223Y-101403044D01*
X131604293Y-101393079D01*
X131626237Y-101385227D01*
X131648846Y-101379563D01*
X131671901Y-101376144D01*
X131695180Y-101375000D01*
X132170180Y-101375000D01*
X132193459Y-101376144D01*
X132193459Y-101376144D01*
G37*
D12*
X131932680Y-101900000D03*
G04 #@! TD*
D11*
G04 #@! TO.C,R11*
G36*
X133910779Y-87526144D02*
X133933834Y-87529563D01*
X133956443Y-87535227D01*
X133978387Y-87543079D01*
X133999457Y-87553044D01*
X134019448Y-87565026D01*
X134038168Y-87578910D01*
X134055438Y-87594562D01*
X134071090Y-87611832D01*
X134084974Y-87630552D01*
X134096956Y-87650543D01*
X134106921Y-87671613D01*
X134114773Y-87693557D01*
X134120437Y-87716166D01*
X134123856Y-87739221D01*
X134125000Y-87762500D01*
X134125000Y-88337500D01*
X134123856Y-88360779D01*
X134120437Y-88383834D01*
X134114773Y-88406443D01*
X134106921Y-88428387D01*
X134096956Y-88449457D01*
X134084974Y-88469448D01*
X134071090Y-88488168D01*
X134055438Y-88505438D01*
X134038168Y-88521090D01*
X134019448Y-88534974D01*
X133999457Y-88546956D01*
X133978387Y-88556921D01*
X133956443Y-88564773D01*
X133933834Y-88570437D01*
X133910779Y-88573856D01*
X133887500Y-88575000D01*
X133412500Y-88575000D01*
X133389221Y-88573856D01*
X133366166Y-88570437D01*
X133343557Y-88564773D01*
X133321613Y-88556921D01*
X133300543Y-88546956D01*
X133280552Y-88534974D01*
X133261832Y-88521090D01*
X133244562Y-88505438D01*
X133228910Y-88488168D01*
X133215026Y-88469448D01*
X133203044Y-88449457D01*
X133193079Y-88428387D01*
X133185227Y-88406443D01*
X133179563Y-88383834D01*
X133176144Y-88360779D01*
X133175000Y-88337500D01*
X133175000Y-87762500D01*
X133176144Y-87739221D01*
X133179563Y-87716166D01*
X133185227Y-87693557D01*
X133193079Y-87671613D01*
X133203044Y-87650543D01*
X133215026Y-87630552D01*
X133228910Y-87611832D01*
X133244562Y-87594562D01*
X133261832Y-87578910D01*
X133280552Y-87565026D01*
X133300543Y-87553044D01*
X133321613Y-87543079D01*
X133343557Y-87535227D01*
X133366166Y-87529563D01*
X133389221Y-87526144D01*
X133412500Y-87525000D01*
X133887500Y-87525000D01*
X133910779Y-87526144D01*
X133910779Y-87526144D01*
G37*
D12*
X133650000Y-88050000D03*
D11*
G36*
X133910779Y-85776144D02*
X133933834Y-85779563D01*
X133956443Y-85785227D01*
X133978387Y-85793079D01*
X133999457Y-85803044D01*
X134019448Y-85815026D01*
X134038168Y-85828910D01*
X134055438Y-85844562D01*
X134071090Y-85861832D01*
X134084974Y-85880552D01*
X134096956Y-85900543D01*
X134106921Y-85921613D01*
X134114773Y-85943557D01*
X134120437Y-85966166D01*
X134123856Y-85989221D01*
X134125000Y-86012500D01*
X134125000Y-86587500D01*
X134123856Y-86610779D01*
X134120437Y-86633834D01*
X134114773Y-86656443D01*
X134106921Y-86678387D01*
X134096956Y-86699457D01*
X134084974Y-86719448D01*
X134071090Y-86738168D01*
X134055438Y-86755438D01*
X134038168Y-86771090D01*
X134019448Y-86784974D01*
X133999457Y-86796956D01*
X133978387Y-86806921D01*
X133956443Y-86814773D01*
X133933834Y-86820437D01*
X133910779Y-86823856D01*
X133887500Y-86825000D01*
X133412500Y-86825000D01*
X133389221Y-86823856D01*
X133366166Y-86820437D01*
X133343557Y-86814773D01*
X133321613Y-86806921D01*
X133300543Y-86796956D01*
X133280552Y-86784974D01*
X133261832Y-86771090D01*
X133244562Y-86755438D01*
X133228910Y-86738168D01*
X133215026Y-86719448D01*
X133203044Y-86699457D01*
X133193079Y-86678387D01*
X133185227Y-86656443D01*
X133179563Y-86633834D01*
X133176144Y-86610779D01*
X133175000Y-86587500D01*
X133175000Y-86012500D01*
X133176144Y-85989221D01*
X133179563Y-85966166D01*
X133185227Y-85943557D01*
X133193079Y-85921613D01*
X133203044Y-85900543D01*
X133215026Y-85880552D01*
X133228910Y-85861832D01*
X133244562Y-85844562D01*
X133261832Y-85828910D01*
X133280552Y-85815026D01*
X133300543Y-85803044D01*
X133321613Y-85793079D01*
X133343557Y-85785227D01*
X133366166Y-85779563D01*
X133389221Y-85776144D01*
X133412500Y-85775000D01*
X133887500Y-85775000D01*
X133910779Y-85776144D01*
X133910779Y-85776144D01*
G37*
D12*
X133650000Y-86300000D03*
G04 #@! TD*
D11*
G04 #@! TO.C,R12*
G36*
X135560779Y-87526144D02*
X135583834Y-87529563D01*
X135606443Y-87535227D01*
X135628387Y-87543079D01*
X135649457Y-87553044D01*
X135669448Y-87565026D01*
X135688168Y-87578910D01*
X135705438Y-87594562D01*
X135721090Y-87611832D01*
X135734974Y-87630552D01*
X135746956Y-87650543D01*
X135756921Y-87671613D01*
X135764773Y-87693557D01*
X135770437Y-87716166D01*
X135773856Y-87739221D01*
X135775000Y-87762500D01*
X135775000Y-88337500D01*
X135773856Y-88360779D01*
X135770437Y-88383834D01*
X135764773Y-88406443D01*
X135756921Y-88428387D01*
X135746956Y-88449457D01*
X135734974Y-88469448D01*
X135721090Y-88488168D01*
X135705438Y-88505438D01*
X135688168Y-88521090D01*
X135669448Y-88534974D01*
X135649457Y-88546956D01*
X135628387Y-88556921D01*
X135606443Y-88564773D01*
X135583834Y-88570437D01*
X135560779Y-88573856D01*
X135537500Y-88575000D01*
X135062500Y-88575000D01*
X135039221Y-88573856D01*
X135016166Y-88570437D01*
X134993557Y-88564773D01*
X134971613Y-88556921D01*
X134950543Y-88546956D01*
X134930552Y-88534974D01*
X134911832Y-88521090D01*
X134894562Y-88505438D01*
X134878910Y-88488168D01*
X134865026Y-88469448D01*
X134853044Y-88449457D01*
X134843079Y-88428387D01*
X134835227Y-88406443D01*
X134829563Y-88383834D01*
X134826144Y-88360779D01*
X134825000Y-88337500D01*
X134825000Y-87762500D01*
X134826144Y-87739221D01*
X134829563Y-87716166D01*
X134835227Y-87693557D01*
X134843079Y-87671613D01*
X134853044Y-87650543D01*
X134865026Y-87630552D01*
X134878910Y-87611832D01*
X134894562Y-87594562D01*
X134911832Y-87578910D01*
X134930552Y-87565026D01*
X134950543Y-87553044D01*
X134971613Y-87543079D01*
X134993557Y-87535227D01*
X135016166Y-87529563D01*
X135039221Y-87526144D01*
X135062500Y-87525000D01*
X135537500Y-87525000D01*
X135560779Y-87526144D01*
X135560779Y-87526144D01*
G37*
D12*
X135300000Y-88050000D03*
D11*
G36*
X135560779Y-85776144D02*
X135583834Y-85779563D01*
X135606443Y-85785227D01*
X135628387Y-85793079D01*
X135649457Y-85803044D01*
X135669448Y-85815026D01*
X135688168Y-85828910D01*
X135705438Y-85844562D01*
X135721090Y-85861832D01*
X135734974Y-85880552D01*
X135746956Y-85900543D01*
X135756921Y-85921613D01*
X135764773Y-85943557D01*
X135770437Y-85966166D01*
X135773856Y-85989221D01*
X135775000Y-86012500D01*
X135775000Y-86587500D01*
X135773856Y-86610779D01*
X135770437Y-86633834D01*
X135764773Y-86656443D01*
X135756921Y-86678387D01*
X135746956Y-86699457D01*
X135734974Y-86719448D01*
X135721090Y-86738168D01*
X135705438Y-86755438D01*
X135688168Y-86771090D01*
X135669448Y-86784974D01*
X135649457Y-86796956D01*
X135628387Y-86806921D01*
X135606443Y-86814773D01*
X135583834Y-86820437D01*
X135560779Y-86823856D01*
X135537500Y-86825000D01*
X135062500Y-86825000D01*
X135039221Y-86823856D01*
X135016166Y-86820437D01*
X134993557Y-86814773D01*
X134971613Y-86806921D01*
X134950543Y-86796956D01*
X134930552Y-86784974D01*
X134911832Y-86771090D01*
X134894562Y-86755438D01*
X134878910Y-86738168D01*
X134865026Y-86719448D01*
X134853044Y-86699457D01*
X134843079Y-86678387D01*
X134835227Y-86656443D01*
X134829563Y-86633834D01*
X134826144Y-86610779D01*
X134825000Y-86587500D01*
X134825000Y-86012500D01*
X134826144Y-85989221D01*
X134829563Y-85966166D01*
X134835227Y-85943557D01*
X134843079Y-85921613D01*
X134853044Y-85900543D01*
X134865026Y-85880552D01*
X134878910Y-85861832D01*
X134894562Y-85844562D01*
X134911832Y-85828910D01*
X134930552Y-85815026D01*
X134950543Y-85803044D01*
X134971613Y-85793079D01*
X134993557Y-85785227D01*
X135016166Y-85779563D01*
X135039221Y-85776144D01*
X135062500Y-85775000D01*
X135537500Y-85775000D01*
X135560779Y-85776144D01*
X135560779Y-85776144D01*
G37*
D12*
X135300000Y-86300000D03*
G04 #@! TD*
D11*
G04 #@! TO.C,R13*
G36*
X133910779Y-103126144D02*
X133933834Y-103129563D01*
X133956443Y-103135227D01*
X133978387Y-103143079D01*
X133999457Y-103153044D01*
X134019448Y-103165026D01*
X134038168Y-103178910D01*
X134055438Y-103194562D01*
X134071090Y-103211832D01*
X134084974Y-103230552D01*
X134096956Y-103250543D01*
X134106921Y-103271613D01*
X134114773Y-103293557D01*
X134120437Y-103316166D01*
X134123856Y-103339221D01*
X134125000Y-103362500D01*
X134125000Y-103937500D01*
X134123856Y-103960779D01*
X134120437Y-103983834D01*
X134114773Y-104006443D01*
X134106921Y-104028387D01*
X134096956Y-104049457D01*
X134084974Y-104069448D01*
X134071090Y-104088168D01*
X134055438Y-104105438D01*
X134038168Y-104121090D01*
X134019448Y-104134974D01*
X133999457Y-104146956D01*
X133978387Y-104156921D01*
X133956443Y-104164773D01*
X133933834Y-104170437D01*
X133910779Y-104173856D01*
X133887500Y-104175000D01*
X133412500Y-104175000D01*
X133389221Y-104173856D01*
X133366166Y-104170437D01*
X133343557Y-104164773D01*
X133321613Y-104156921D01*
X133300543Y-104146956D01*
X133280552Y-104134974D01*
X133261832Y-104121090D01*
X133244562Y-104105438D01*
X133228910Y-104088168D01*
X133215026Y-104069448D01*
X133203044Y-104049457D01*
X133193079Y-104028387D01*
X133185227Y-104006443D01*
X133179563Y-103983834D01*
X133176144Y-103960779D01*
X133175000Y-103937500D01*
X133175000Y-103362500D01*
X133176144Y-103339221D01*
X133179563Y-103316166D01*
X133185227Y-103293557D01*
X133193079Y-103271613D01*
X133203044Y-103250543D01*
X133215026Y-103230552D01*
X133228910Y-103211832D01*
X133244562Y-103194562D01*
X133261832Y-103178910D01*
X133280552Y-103165026D01*
X133300543Y-103153044D01*
X133321613Y-103143079D01*
X133343557Y-103135227D01*
X133366166Y-103129563D01*
X133389221Y-103126144D01*
X133412500Y-103125000D01*
X133887500Y-103125000D01*
X133910779Y-103126144D01*
X133910779Y-103126144D01*
G37*
D12*
X133650000Y-103650000D03*
D11*
G36*
X133910779Y-101376144D02*
X133933834Y-101379563D01*
X133956443Y-101385227D01*
X133978387Y-101393079D01*
X133999457Y-101403044D01*
X134019448Y-101415026D01*
X134038168Y-101428910D01*
X134055438Y-101444562D01*
X134071090Y-101461832D01*
X134084974Y-101480552D01*
X134096956Y-101500543D01*
X134106921Y-101521613D01*
X134114773Y-101543557D01*
X134120437Y-101566166D01*
X134123856Y-101589221D01*
X134125000Y-101612500D01*
X134125000Y-102187500D01*
X134123856Y-102210779D01*
X134120437Y-102233834D01*
X134114773Y-102256443D01*
X134106921Y-102278387D01*
X134096956Y-102299457D01*
X134084974Y-102319448D01*
X134071090Y-102338168D01*
X134055438Y-102355438D01*
X134038168Y-102371090D01*
X134019448Y-102384974D01*
X133999457Y-102396956D01*
X133978387Y-102406921D01*
X133956443Y-102414773D01*
X133933834Y-102420437D01*
X133910779Y-102423856D01*
X133887500Y-102425000D01*
X133412500Y-102425000D01*
X133389221Y-102423856D01*
X133366166Y-102420437D01*
X133343557Y-102414773D01*
X133321613Y-102406921D01*
X133300543Y-102396956D01*
X133280552Y-102384974D01*
X133261832Y-102371090D01*
X133244562Y-102355438D01*
X133228910Y-102338168D01*
X133215026Y-102319448D01*
X133203044Y-102299457D01*
X133193079Y-102278387D01*
X133185227Y-102256443D01*
X133179563Y-102233834D01*
X133176144Y-102210779D01*
X133175000Y-102187500D01*
X133175000Y-101612500D01*
X133176144Y-101589221D01*
X133179563Y-101566166D01*
X133185227Y-101543557D01*
X133193079Y-101521613D01*
X133203044Y-101500543D01*
X133215026Y-101480552D01*
X133228910Y-101461832D01*
X133244562Y-101444562D01*
X133261832Y-101428910D01*
X133280552Y-101415026D01*
X133300543Y-101403044D01*
X133321613Y-101393079D01*
X133343557Y-101385227D01*
X133366166Y-101379563D01*
X133389221Y-101376144D01*
X133412500Y-101375000D01*
X133887500Y-101375000D01*
X133910779Y-101376144D01*
X133910779Y-101376144D01*
G37*
D12*
X133650000Y-101900000D03*
G04 #@! TD*
D11*
G04 #@! TO.C,R14*
G36*
X135515779Y-103126144D02*
X135538834Y-103129563D01*
X135561443Y-103135227D01*
X135583387Y-103143079D01*
X135604457Y-103153044D01*
X135624448Y-103165026D01*
X135643168Y-103178910D01*
X135660438Y-103194562D01*
X135676090Y-103211832D01*
X135689974Y-103230552D01*
X135701956Y-103250543D01*
X135711921Y-103271613D01*
X135719773Y-103293557D01*
X135725437Y-103316166D01*
X135728856Y-103339221D01*
X135730000Y-103362500D01*
X135730000Y-103937500D01*
X135728856Y-103960779D01*
X135725437Y-103983834D01*
X135719773Y-104006443D01*
X135711921Y-104028387D01*
X135701956Y-104049457D01*
X135689974Y-104069448D01*
X135676090Y-104088168D01*
X135660438Y-104105438D01*
X135643168Y-104121090D01*
X135624448Y-104134974D01*
X135604457Y-104146956D01*
X135583387Y-104156921D01*
X135561443Y-104164773D01*
X135538834Y-104170437D01*
X135515779Y-104173856D01*
X135492500Y-104175000D01*
X135017500Y-104175000D01*
X134994221Y-104173856D01*
X134971166Y-104170437D01*
X134948557Y-104164773D01*
X134926613Y-104156921D01*
X134905543Y-104146956D01*
X134885552Y-104134974D01*
X134866832Y-104121090D01*
X134849562Y-104105438D01*
X134833910Y-104088168D01*
X134820026Y-104069448D01*
X134808044Y-104049457D01*
X134798079Y-104028387D01*
X134790227Y-104006443D01*
X134784563Y-103983834D01*
X134781144Y-103960779D01*
X134780000Y-103937500D01*
X134780000Y-103362500D01*
X134781144Y-103339221D01*
X134784563Y-103316166D01*
X134790227Y-103293557D01*
X134798079Y-103271613D01*
X134808044Y-103250543D01*
X134820026Y-103230552D01*
X134833910Y-103211832D01*
X134849562Y-103194562D01*
X134866832Y-103178910D01*
X134885552Y-103165026D01*
X134905543Y-103153044D01*
X134926613Y-103143079D01*
X134948557Y-103135227D01*
X134971166Y-103129563D01*
X134994221Y-103126144D01*
X135017500Y-103125000D01*
X135492500Y-103125000D01*
X135515779Y-103126144D01*
X135515779Y-103126144D01*
G37*
D12*
X135255000Y-103650000D03*
D11*
G36*
X135515779Y-101376144D02*
X135538834Y-101379563D01*
X135561443Y-101385227D01*
X135583387Y-101393079D01*
X135604457Y-101403044D01*
X135624448Y-101415026D01*
X135643168Y-101428910D01*
X135660438Y-101444562D01*
X135676090Y-101461832D01*
X135689974Y-101480552D01*
X135701956Y-101500543D01*
X135711921Y-101521613D01*
X135719773Y-101543557D01*
X135725437Y-101566166D01*
X135728856Y-101589221D01*
X135730000Y-101612500D01*
X135730000Y-102187500D01*
X135728856Y-102210779D01*
X135725437Y-102233834D01*
X135719773Y-102256443D01*
X135711921Y-102278387D01*
X135701956Y-102299457D01*
X135689974Y-102319448D01*
X135676090Y-102338168D01*
X135660438Y-102355438D01*
X135643168Y-102371090D01*
X135624448Y-102384974D01*
X135604457Y-102396956D01*
X135583387Y-102406921D01*
X135561443Y-102414773D01*
X135538834Y-102420437D01*
X135515779Y-102423856D01*
X135492500Y-102425000D01*
X135017500Y-102425000D01*
X134994221Y-102423856D01*
X134971166Y-102420437D01*
X134948557Y-102414773D01*
X134926613Y-102406921D01*
X134905543Y-102396956D01*
X134885552Y-102384974D01*
X134866832Y-102371090D01*
X134849562Y-102355438D01*
X134833910Y-102338168D01*
X134820026Y-102319448D01*
X134808044Y-102299457D01*
X134798079Y-102278387D01*
X134790227Y-102256443D01*
X134784563Y-102233834D01*
X134781144Y-102210779D01*
X134780000Y-102187500D01*
X134780000Y-101612500D01*
X134781144Y-101589221D01*
X134784563Y-101566166D01*
X134790227Y-101543557D01*
X134798079Y-101521613D01*
X134808044Y-101500543D01*
X134820026Y-101480552D01*
X134833910Y-101461832D01*
X134849562Y-101444562D01*
X134866832Y-101428910D01*
X134885552Y-101415026D01*
X134905543Y-101403044D01*
X134926613Y-101393079D01*
X134948557Y-101385227D01*
X134971166Y-101379563D01*
X134994221Y-101376144D01*
X135017500Y-101375000D01*
X135492500Y-101375000D01*
X135515779Y-101376144D01*
X135515779Y-101376144D01*
G37*
D12*
X135255000Y-101900000D03*
G04 #@! TD*
D11*
G04 #@! TO.C,R15*
G36*
X141228239Y-90768764D02*
X141251294Y-90772183D01*
X141273903Y-90777847D01*
X141295847Y-90785699D01*
X141316917Y-90795664D01*
X141336908Y-90807646D01*
X141355628Y-90821530D01*
X141372898Y-90837182D01*
X141388550Y-90854452D01*
X141402434Y-90873172D01*
X141414416Y-90893163D01*
X141424381Y-90914233D01*
X141432233Y-90936177D01*
X141437897Y-90958786D01*
X141441316Y-90981841D01*
X141442460Y-91005120D01*
X141442460Y-91580120D01*
X141441316Y-91603399D01*
X141437897Y-91626454D01*
X141432233Y-91649063D01*
X141424381Y-91671007D01*
X141414416Y-91692077D01*
X141402434Y-91712068D01*
X141388550Y-91730788D01*
X141372898Y-91748058D01*
X141355628Y-91763710D01*
X141336908Y-91777594D01*
X141316917Y-91789576D01*
X141295847Y-91799541D01*
X141273903Y-91807393D01*
X141251294Y-91813057D01*
X141228239Y-91816476D01*
X141204960Y-91817620D01*
X140729960Y-91817620D01*
X140706681Y-91816476D01*
X140683626Y-91813057D01*
X140661017Y-91807393D01*
X140639073Y-91799541D01*
X140618003Y-91789576D01*
X140598012Y-91777594D01*
X140579292Y-91763710D01*
X140562022Y-91748058D01*
X140546370Y-91730788D01*
X140532486Y-91712068D01*
X140520504Y-91692077D01*
X140510539Y-91671007D01*
X140502687Y-91649063D01*
X140497023Y-91626454D01*
X140493604Y-91603399D01*
X140492460Y-91580120D01*
X140492460Y-91005120D01*
X140493604Y-90981841D01*
X140497023Y-90958786D01*
X140502687Y-90936177D01*
X140510539Y-90914233D01*
X140520504Y-90893163D01*
X140532486Y-90873172D01*
X140546370Y-90854452D01*
X140562022Y-90837182D01*
X140579292Y-90821530D01*
X140598012Y-90807646D01*
X140618003Y-90795664D01*
X140639073Y-90785699D01*
X140661017Y-90777847D01*
X140683626Y-90772183D01*
X140706681Y-90768764D01*
X140729960Y-90767620D01*
X141204960Y-90767620D01*
X141228239Y-90768764D01*
X141228239Y-90768764D01*
G37*
D12*
X140967460Y-91292620D03*
D11*
G36*
X141228239Y-89018764D02*
X141251294Y-89022183D01*
X141273903Y-89027847D01*
X141295847Y-89035699D01*
X141316917Y-89045664D01*
X141336908Y-89057646D01*
X141355628Y-89071530D01*
X141372898Y-89087182D01*
X141388550Y-89104452D01*
X141402434Y-89123172D01*
X141414416Y-89143163D01*
X141424381Y-89164233D01*
X141432233Y-89186177D01*
X141437897Y-89208786D01*
X141441316Y-89231841D01*
X141442460Y-89255120D01*
X141442460Y-89830120D01*
X141441316Y-89853399D01*
X141437897Y-89876454D01*
X141432233Y-89899063D01*
X141424381Y-89921007D01*
X141414416Y-89942077D01*
X141402434Y-89962068D01*
X141388550Y-89980788D01*
X141372898Y-89998058D01*
X141355628Y-90013710D01*
X141336908Y-90027594D01*
X141316917Y-90039576D01*
X141295847Y-90049541D01*
X141273903Y-90057393D01*
X141251294Y-90063057D01*
X141228239Y-90066476D01*
X141204960Y-90067620D01*
X140729960Y-90067620D01*
X140706681Y-90066476D01*
X140683626Y-90063057D01*
X140661017Y-90057393D01*
X140639073Y-90049541D01*
X140618003Y-90039576D01*
X140598012Y-90027594D01*
X140579292Y-90013710D01*
X140562022Y-89998058D01*
X140546370Y-89980788D01*
X140532486Y-89962068D01*
X140520504Y-89942077D01*
X140510539Y-89921007D01*
X140502687Y-89899063D01*
X140497023Y-89876454D01*
X140493604Y-89853399D01*
X140492460Y-89830120D01*
X140492460Y-89255120D01*
X140493604Y-89231841D01*
X140497023Y-89208786D01*
X140502687Y-89186177D01*
X140510539Y-89164233D01*
X140520504Y-89143163D01*
X140532486Y-89123172D01*
X140546370Y-89104452D01*
X140562022Y-89087182D01*
X140579292Y-89071530D01*
X140598012Y-89057646D01*
X140618003Y-89045664D01*
X140639073Y-89035699D01*
X140661017Y-89027847D01*
X140683626Y-89022183D01*
X140706681Y-89018764D01*
X140729960Y-89017620D01*
X141204960Y-89017620D01*
X141228239Y-89018764D01*
X141228239Y-89018764D01*
G37*
D12*
X140967460Y-89542620D03*
G04 #@! TD*
D11*
G04 #@! TO.C,R17*
G36*
X139567079Y-89018764D02*
X139590134Y-89022183D01*
X139612743Y-89027847D01*
X139634687Y-89035699D01*
X139655757Y-89045664D01*
X139675748Y-89057646D01*
X139694468Y-89071530D01*
X139711738Y-89087182D01*
X139727390Y-89104452D01*
X139741274Y-89123172D01*
X139753256Y-89143163D01*
X139763221Y-89164233D01*
X139771073Y-89186177D01*
X139776737Y-89208786D01*
X139780156Y-89231841D01*
X139781300Y-89255120D01*
X139781300Y-89830120D01*
X139780156Y-89853399D01*
X139776737Y-89876454D01*
X139771073Y-89899063D01*
X139763221Y-89921007D01*
X139753256Y-89942077D01*
X139741274Y-89962068D01*
X139727390Y-89980788D01*
X139711738Y-89998058D01*
X139694468Y-90013710D01*
X139675748Y-90027594D01*
X139655757Y-90039576D01*
X139634687Y-90049541D01*
X139612743Y-90057393D01*
X139590134Y-90063057D01*
X139567079Y-90066476D01*
X139543800Y-90067620D01*
X139068800Y-90067620D01*
X139045521Y-90066476D01*
X139022466Y-90063057D01*
X138999857Y-90057393D01*
X138977913Y-90049541D01*
X138956843Y-90039576D01*
X138936852Y-90027594D01*
X138918132Y-90013710D01*
X138900862Y-89998058D01*
X138885210Y-89980788D01*
X138871326Y-89962068D01*
X138859344Y-89942077D01*
X138849379Y-89921007D01*
X138841527Y-89899063D01*
X138835863Y-89876454D01*
X138832444Y-89853399D01*
X138831300Y-89830120D01*
X138831300Y-89255120D01*
X138832444Y-89231841D01*
X138835863Y-89208786D01*
X138841527Y-89186177D01*
X138849379Y-89164233D01*
X138859344Y-89143163D01*
X138871326Y-89123172D01*
X138885210Y-89104452D01*
X138900862Y-89087182D01*
X138918132Y-89071530D01*
X138936852Y-89057646D01*
X138956843Y-89045664D01*
X138977913Y-89035699D01*
X138999857Y-89027847D01*
X139022466Y-89022183D01*
X139045521Y-89018764D01*
X139068800Y-89017620D01*
X139543800Y-89017620D01*
X139567079Y-89018764D01*
X139567079Y-89018764D01*
G37*
D12*
X139306300Y-89542620D03*
D11*
G36*
X139567079Y-90768764D02*
X139590134Y-90772183D01*
X139612743Y-90777847D01*
X139634687Y-90785699D01*
X139655757Y-90795664D01*
X139675748Y-90807646D01*
X139694468Y-90821530D01*
X139711738Y-90837182D01*
X139727390Y-90854452D01*
X139741274Y-90873172D01*
X139753256Y-90893163D01*
X139763221Y-90914233D01*
X139771073Y-90936177D01*
X139776737Y-90958786D01*
X139780156Y-90981841D01*
X139781300Y-91005120D01*
X139781300Y-91580120D01*
X139780156Y-91603399D01*
X139776737Y-91626454D01*
X139771073Y-91649063D01*
X139763221Y-91671007D01*
X139753256Y-91692077D01*
X139741274Y-91712068D01*
X139727390Y-91730788D01*
X139711738Y-91748058D01*
X139694468Y-91763710D01*
X139675748Y-91777594D01*
X139655757Y-91789576D01*
X139634687Y-91799541D01*
X139612743Y-91807393D01*
X139590134Y-91813057D01*
X139567079Y-91816476D01*
X139543800Y-91817620D01*
X139068800Y-91817620D01*
X139045521Y-91816476D01*
X139022466Y-91813057D01*
X138999857Y-91807393D01*
X138977913Y-91799541D01*
X138956843Y-91789576D01*
X138936852Y-91777594D01*
X138918132Y-91763710D01*
X138900862Y-91748058D01*
X138885210Y-91730788D01*
X138871326Y-91712068D01*
X138859344Y-91692077D01*
X138849379Y-91671007D01*
X138841527Y-91649063D01*
X138835863Y-91626454D01*
X138832444Y-91603399D01*
X138831300Y-91580120D01*
X138831300Y-91005120D01*
X138832444Y-90981841D01*
X138835863Y-90958786D01*
X138841527Y-90936177D01*
X138849379Y-90914233D01*
X138859344Y-90893163D01*
X138871326Y-90873172D01*
X138885210Y-90854452D01*
X138900862Y-90837182D01*
X138918132Y-90821530D01*
X138936852Y-90807646D01*
X138956843Y-90795664D01*
X138977913Y-90785699D01*
X138999857Y-90777847D01*
X139022466Y-90772183D01*
X139045521Y-90768764D01*
X139068800Y-90767620D01*
X139543800Y-90767620D01*
X139567079Y-90768764D01*
X139567079Y-90768764D01*
G37*
D12*
X139306300Y-91292620D03*
G04 #@! TD*
D11*
G04 #@! TO.C,R18*
G36*
X141228239Y-97226144D02*
X141251294Y-97229563D01*
X141273903Y-97235227D01*
X141295847Y-97243079D01*
X141316917Y-97253044D01*
X141336908Y-97265026D01*
X141355628Y-97278910D01*
X141372898Y-97294562D01*
X141388550Y-97311832D01*
X141402434Y-97330552D01*
X141414416Y-97350543D01*
X141424381Y-97371613D01*
X141432233Y-97393557D01*
X141437897Y-97416166D01*
X141441316Y-97439221D01*
X141442460Y-97462500D01*
X141442460Y-98037500D01*
X141441316Y-98060779D01*
X141437897Y-98083834D01*
X141432233Y-98106443D01*
X141424381Y-98128387D01*
X141414416Y-98149457D01*
X141402434Y-98169448D01*
X141388550Y-98188168D01*
X141372898Y-98205438D01*
X141355628Y-98221090D01*
X141336908Y-98234974D01*
X141316917Y-98246956D01*
X141295847Y-98256921D01*
X141273903Y-98264773D01*
X141251294Y-98270437D01*
X141228239Y-98273856D01*
X141204960Y-98275000D01*
X140729960Y-98275000D01*
X140706681Y-98273856D01*
X140683626Y-98270437D01*
X140661017Y-98264773D01*
X140639073Y-98256921D01*
X140618003Y-98246956D01*
X140598012Y-98234974D01*
X140579292Y-98221090D01*
X140562022Y-98205438D01*
X140546370Y-98188168D01*
X140532486Y-98169448D01*
X140520504Y-98149457D01*
X140510539Y-98128387D01*
X140502687Y-98106443D01*
X140497023Y-98083834D01*
X140493604Y-98060779D01*
X140492460Y-98037500D01*
X140492460Y-97462500D01*
X140493604Y-97439221D01*
X140497023Y-97416166D01*
X140502687Y-97393557D01*
X140510539Y-97371613D01*
X140520504Y-97350543D01*
X140532486Y-97330552D01*
X140546370Y-97311832D01*
X140562022Y-97294562D01*
X140579292Y-97278910D01*
X140598012Y-97265026D01*
X140618003Y-97253044D01*
X140639073Y-97243079D01*
X140661017Y-97235227D01*
X140683626Y-97229563D01*
X140706681Y-97226144D01*
X140729960Y-97225000D01*
X141204960Y-97225000D01*
X141228239Y-97226144D01*
X141228239Y-97226144D01*
G37*
D12*
X140967460Y-97750000D03*
D11*
G36*
X141228239Y-98976144D02*
X141251294Y-98979563D01*
X141273903Y-98985227D01*
X141295847Y-98993079D01*
X141316917Y-99003044D01*
X141336908Y-99015026D01*
X141355628Y-99028910D01*
X141372898Y-99044562D01*
X141388550Y-99061832D01*
X141402434Y-99080552D01*
X141414416Y-99100543D01*
X141424381Y-99121613D01*
X141432233Y-99143557D01*
X141437897Y-99166166D01*
X141441316Y-99189221D01*
X141442460Y-99212500D01*
X141442460Y-99787500D01*
X141441316Y-99810779D01*
X141437897Y-99833834D01*
X141432233Y-99856443D01*
X141424381Y-99878387D01*
X141414416Y-99899457D01*
X141402434Y-99919448D01*
X141388550Y-99938168D01*
X141372898Y-99955438D01*
X141355628Y-99971090D01*
X141336908Y-99984974D01*
X141316917Y-99996956D01*
X141295847Y-100006921D01*
X141273903Y-100014773D01*
X141251294Y-100020437D01*
X141228239Y-100023856D01*
X141204960Y-100025000D01*
X140729960Y-100025000D01*
X140706681Y-100023856D01*
X140683626Y-100020437D01*
X140661017Y-100014773D01*
X140639073Y-100006921D01*
X140618003Y-99996956D01*
X140598012Y-99984974D01*
X140579292Y-99971090D01*
X140562022Y-99955438D01*
X140546370Y-99938168D01*
X140532486Y-99919448D01*
X140520504Y-99899457D01*
X140510539Y-99878387D01*
X140502687Y-99856443D01*
X140497023Y-99833834D01*
X140493604Y-99810779D01*
X140492460Y-99787500D01*
X140492460Y-99212500D01*
X140493604Y-99189221D01*
X140497023Y-99166166D01*
X140502687Y-99143557D01*
X140510539Y-99121613D01*
X140520504Y-99100543D01*
X140532486Y-99080552D01*
X140546370Y-99061832D01*
X140562022Y-99044562D01*
X140579292Y-99028910D01*
X140598012Y-99015026D01*
X140618003Y-99003044D01*
X140639073Y-98993079D01*
X140661017Y-98985227D01*
X140683626Y-98979563D01*
X140706681Y-98976144D01*
X140729960Y-98975000D01*
X141204960Y-98975000D01*
X141228239Y-98976144D01*
X141228239Y-98976144D01*
G37*
D12*
X140967460Y-99500000D03*
G04 #@! TD*
D15*
G04 #@! TO.C,VR1*
X133039720Y-78996840D03*
D16*
X130200000Y-80150000D03*
D15*
X133039720Y-81303160D03*
G04 #@! TD*
G04 #@! TO.C,VR2*
X133039720Y-110561120D03*
D16*
X130200000Y-109407960D03*
D15*
X133039720Y-108254800D03*
G04 #@! TD*
D13*
G04 #@! TO.C,D1*
X127696280Y-78572420D03*
X127696280Y-82072420D03*
G04 #@! TD*
D11*
G04 #@! TO.C,D3*
G36*
X142587505Y-86685584D02*
X142611773Y-86689184D01*
X142635572Y-86695145D01*
X142658671Y-86703410D01*
X142680850Y-86713900D01*
X142701893Y-86726512D01*
X142721599Y-86741127D01*
X142739777Y-86757603D01*
X142756253Y-86775781D01*
X142770868Y-86795487D01*
X142783480Y-86816530D01*
X142793970Y-86838709D01*
X142802235Y-86861808D01*
X142808196Y-86885607D01*
X142811796Y-86909875D01*
X142813000Y-86934379D01*
X142813000Y-87584381D01*
X142811796Y-87608885D01*
X142808196Y-87633153D01*
X142802235Y-87656952D01*
X142793970Y-87680051D01*
X142783480Y-87702230D01*
X142770868Y-87723273D01*
X142756253Y-87742979D01*
X142739777Y-87761157D01*
X142721599Y-87777633D01*
X142701893Y-87792248D01*
X142680850Y-87804860D01*
X142658671Y-87815350D01*
X142635572Y-87823615D01*
X142611773Y-87829576D01*
X142587505Y-87833176D01*
X142563001Y-87834380D01*
X141662999Y-87834380D01*
X141638495Y-87833176D01*
X141614227Y-87829576D01*
X141590428Y-87823615D01*
X141567329Y-87815350D01*
X141545150Y-87804860D01*
X141524107Y-87792248D01*
X141504401Y-87777633D01*
X141486223Y-87761157D01*
X141469747Y-87742979D01*
X141455132Y-87723273D01*
X141442520Y-87702230D01*
X141432030Y-87680051D01*
X141423765Y-87656952D01*
X141417804Y-87633153D01*
X141414204Y-87608885D01*
X141413000Y-87584381D01*
X141413000Y-86934379D01*
X141414204Y-86909875D01*
X141417804Y-86885607D01*
X141423765Y-86861808D01*
X141432030Y-86838709D01*
X141442520Y-86816530D01*
X141455132Y-86795487D01*
X141469747Y-86775781D01*
X141486223Y-86757603D01*
X141504401Y-86741127D01*
X141524107Y-86726512D01*
X141545150Y-86713900D01*
X141567329Y-86703410D01*
X141590428Y-86695145D01*
X141614227Y-86689184D01*
X141638495Y-86685584D01*
X141662999Y-86684380D01*
X142563001Y-86684380D01*
X142587505Y-86685584D01*
X142587505Y-86685584D01*
G37*
D17*
X142113000Y-87259380D03*
D11*
G36*
X142587505Y-84635584D02*
X142611773Y-84639184D01*
X142635572Y-84645145D01*
X142658671Y-84653410D01*
X142680850Y-84663900D01*
X142701893Y-84676512D01*
X142721599Y-84691127D01*
X142739777Y-84707603D01*
X142756253Y-84725781D01*
X142770868Y-84745487D01*
X142783480Y-84766530D01*
X142793970Y-84788709D01*
X142802235Y-84811808D01*
X142808196Y-84835607D01*
X142811796Y-84859875D01*
X142813000Y-84884379D01*
X142813000Y-85534381D01*
X142811796Y-85558885D01*
X142808196Y-85583153D01*
X142802235Y-85606952D01*
X142793970Y-85630051D01*
X142783480Y-85652230D01*
X142770868Y-85673273D01*
X142756253Y-85692979D01*
X142739777Y-85711157D01*
X142721599Y-85727633D01*
X142701893Y-85742248D01*
X142680850Y-85754860D01*
X142658671Y-85765350D01*
X142635572Y-85773615D01*
X142611773Y-85779576D01*
X142587505Y-85783176D01*
X142563001Y-85784380D01*
X141662999Y-85784380D01*
X141638495Y-85783176D01*
X141614227Y-85779576D01*
X141590428Y-85773615D01*
X141567329Y-85765350D01*
X141545150Y-85754860D01*
X141524107Y-85742248D01*
X141504401Y-85727633D01*
X141486223Y-85711157D01*
X141469747Y-85692979D01*
X141455132Y-85673273D01*
X141442520Y-85652230D01*
X141432030Y-85630051D01*
X141423765Y-85606952D01*
X141417804Y-85583153D01*
X141414204Y-85558885D01*
X141413000Y-85534381D01*
X141413000Y-84884379D01*
X141414204Y-84859875D01*
X141417804Y-84835607D01*
X141423765Y-84811808D01*
X141432030Y-84788709D01*
X141442520Y-84766530D01*
X141455132Y-84745487D01*
X141469747Y-84725781D01*
X141486223Y-84707603D01*
X141504401Y-84691127D01*
X141524107Y-84676512D01*
X141545150Y-84663900D01*
X141567329Y-84653410D01*
X141590428Y-84645145D01*
X141614227Y-84639184D01*
X141638495Y-84635584D01*
X141662999Y-84634380D01*
X142563001Y-84634380D01*
X142587505Y-84635584D01*
X142587505Y-84635584D01*
G37*
D17*
X142113000Y-85209380D03*
G04 #@! TD*
D11*
G04 #@! TO.C,D4*
G36*
X143324505Y-104226204D02*
X143348773Y-104229804D01*
X143372572Y-104235765D01*
X143395671Y-104244030D01*
X143417850Y-104254520D01*
X143438893Y-104267132D01*
X143458599Y-104281747D01*
X143476777Y-104298223D01*
X143493253Y-104316401D01*
X143507868Y-104336107D01*
X143520480Y-104357150D01*
X143530970Y-104379329D01*
X143539235Y-104402428D01*
X143545196Y-104426227D01*
X143548796Y-104450495D01*
X143550000Y-104474999D01*
X143550000Y-105125001D01*
X143548796Y-105149505D01*
X143545196Y-105173773D01*
X143539235Y-105197572D01*
X143530970Y-105220671D01*
X143520480Y-105242850D01*
X143507868Y-105263893D01*
X143493253Y-105283599D01*
X143476777Y-105301777D01*
X143458599Y-105318253D01*
X143438893Y-105332868D01*
X143417850Y-105345480D01*
X143395671Y-105355970D01*
X143372572Y-105364235D01*
X143348773Y-105370196D01*
X143324505Y-105373796D01*
X143300001Y-105375000D01*
X142399999Y-105375000D01*
X142375495Y-105373796D01*
X142351227Y-105370196D01*
X142327428Y-105364235D01*
X142304329Y-105355970D01*
X142282150Y-105345480D01*
X142261107Y-105332868D01*
X142241401Y-105318253D01*
X142223223Y-105301777D01*
X142206747Y-105283599D01*
X142192132Y-105263893D01*
X142179520Y-105242850D01*
X142169030Y-105220671D01*
X142160765Y-105197572D01*
X142154804Y-105173773D01*
X142151204Y-105149505D01*
X142150000Y-105125001D01*
X142150000Y-104474999D01*
X142151204Y-104450495D01*
X142154804Y-104426227D01*
X142160765Y-104402428D01*
X142169030Y-104379329D01*
X142179520Y-104357150D01*
X142192132Y-104336107D01*
X142206747Y-104316401D01*
X142223223Y-104298223D01*
X142241401Y-104281747D01*
X142261107Y-104267132D01*
X142282150Y-104254520D01*
X142304329Y-104244030D01*
X142327428Y-104235765D01*
X142351227Y-104229804D01*
X142375495Y-104226204D01*
X142399999Y-104225000D01*
X143300001Y-104225000D01*
X143324505Y-104226204D01*
X143324505Y-104226204D01*
G37*
D17*
X142850000Y-104800000D03*
D11*
G36*
X143324505Y-102176204D02*
X143348773Y-102179804D01*
X143372572Y-102185765D01*
X143395671Y-102194030D01*
X143417850Y-102204520D01*
X143438893Y-102217132D01*
X143458599Y-102231747D01*
X143476777Y-102248223D01*
X143493253Y-102266401D01*
X143507868Y-102286107D01*
X143520480Y-102307150D01*
X143530970Y-102329329D01*
X143539235Y-102352428D01*
X143545196Y-102376227D01*
X143548796Y-102400495D01*
X143550000Y-102424999D01*
X143550000Y-103075001D01*
X143548796Y-103099505D01*
X143545196Y-103123773D01*
X143539235Y-103147572D01*
X143530970Y-103170671D01*
X143520480Y-103192850D01*
X143507868Y-103213893D01*
X143493253Y-103233599D01*
X143476777Y-103251777D01*
X143458599Y-103268253D01*
X143438893Y-103282868D01*
X143417850Y-103295480D01*
X143395671Y-103305970D01*
X143372572Y-103314235D01*
X143348773Y-103320196D01*
X143324505Y-103323796D01*
X143300001Y-103325000D01*
X142399999Y-103325000D01*
X142375495Y-103323796D01*
X142351227Y-103320196D01*
X142327428Y-103314235D01*
X142304329Y-103305970D01*
X142282150Y-103295480D01*
X142261107Y-103282868D01*
X142241401Y-103268253D01*
X142223223Y-103251777D01*
X142206747Y-103233599D01*
X142192132Y-103213893D01*
X142179520Y-103192850D01*
X142169030Y-103170671D01*
X142160765Y-103147572D01*
X142154804Y-103123773D01*
X142151204Y-103099505D01*
X142150000Y-103075001D01*
X142150000Y-102424999D01*
X142151204Y-102400495D01*
X142154804Y-102376227D01*
X142160765Y-102352428D01*
X142169030Y-102329329D01*
X142179520Y-102307150D01*
X142192132Y-102286107D01*
X142206747Y-102266401D01*
X142223223Y-102248223D01*
X142241401Y-102231747D01*
X142261107Y-102217132D01*
X142282150Y-102204520D01*
X142304329Y-102194030D01*
X142327428Y-102185765D01*
X142351227Y-102179804D01*
X142375495Y-102176204D01*
X142399999Y-102175000D01*
X143300001Y-102175000D01*
X143324505Y-102176204D01*
X143324505Y-102176204D01*
G37*
D17*
X142850000Y-102750000D03*
G04 #@! TD*
D10*
G04 #@! TO.C,U1*
X125026420Y-92456800D03*
X123756420Y-92456800D03*
X122486420Y-92456800D03*
X121216420Y-92456800D03*
X121216420Y-97856800D03*
X122486420Y-97856800D03*
X123756420Y-97856800D03*
X125026420Y-97856800D03*
G04 #@! TD*
D11*
G04 #@! TO.C,R19*
G36*
X122563919Y-87550284D02*
X122586974Y-87553703D01*
X122609583Y-87559367D01*
X122631527Y-87567219D01*
X122652597Y-87577184D01*
X122672588Y-87589166D01*
X122691308Y-87603050D01*
X122708578Y-87618702D01*
X122724230Y-87635972D01*
X122738114Y-87654692D01*
X122750096Y-87674683D01*
X122760061Y-87695753D01*
X122767913Y-87717697D01*
X122773577Y-87740306D01*
X122776996Y-87763361D01*
X122778140Y-87786640D01*
X122778140Y-88361640D01*
X122776996Y-88384919D01*
X122773577Y-88407974D01*
X122767913Y-88430583D01*
X122760061Y-88452527D01*
X122750096Y-88473597D01*
X122738114Y-88493588D01*
X122724230Y-88512308D01*
X122708578Y-88529578D01*
X122691308Y-88545230D01*
X122672588Y-88559114D01*
X122652597Y-88571096D01*
X122631527Y-88581061D01*
X122609583Y-88588913D01*
X122586974Y-88594577D01*
X122563919Y-88597996D01*
X122540640Y-88599140D01*
X122065640Y-88599140D01*
X122042361Y-88597996D01*
X122019306Y-88594577D01*
X121996697Y-88588913D01*
X121974753Y-88581061D01*
X121953683Y-88571096D01*
X121933692Y-88559114D01*
X121914972Y-88545230D01*
X121897702Y-88529578D01*
X121882050Y-88512308D01*
X121868166Y-88493588D01*
X121856184Y-88473597D01*
X121846219Y-88452527D01*
X121838367Y-88430583D01*
X121832703Y-88407974D01*
X121829284Y-88384919D01*
X121828140Y-88361640D01*
X121828140Y-87786640D01*
X121829284Y-87763361D01*
X121832703Y-87740306D01*
X121838367Y-87717697D01*
X121846219Y-87695753D01*
X121856184Y-87674683D01*
X121868166Y-87654692D01*
X121882050Y-87635972D01*
X121897702Y-87618702D01*
X121914972Y-87603050D01*
X121933692Y-87589166D01*
X121953683Y-87577184D01*
X121974753Y-87567219D01*
X121996697Y-87559367D01*
X122019306Y-87553703D01*
X122042361Y-87550284D01*
X122065640Y-87549140D01*
X122540640Y-87549140D01*
X122563919Y-87550284D01*
X122563919Y-87550284D01*
G37*
D12*
X122303140Y-88074140D03*
D11*
G36*
X122563919Y-85800284D02*
X122586974Y-85803703D01*
X122609583Y-85809367D01*
X122631527Y-85817219D01*
X122652597Y-85827184D01*
X122672588Y-85839166D01*
X122691308Y-85853050D01*
X122708578Y-85868702D01*
X122724230Y-85885972D01*
X122738114Y-85904692D01*
X122750096Y-85924683D01*
X122760061Y-85945753D01*
X122767913Y-85967697D01*
X122773577Y-85990306D01*
X122776996Y-86013361D01*
X122778140Y-86036640D01*
X122778140Y-86611640D01*
X122776996Y-86634919D01*
X122773577Y-86657974D01*
X122767913Y-86680583D01*
X122760061Y-86702527D01*
X122750096Y-86723597D01*
X122738114Y-86743588D01*
X122724230Y-86762308D01*
X122708578Y-86779578D01*
X122691308Y-86795230D01*
X122672588Y-86809114D01*
X122652597Y-86821096D01*
X122631527Y-86831061D01*
X122609583Y-86838913D01*
X122586974Y-86844577D01*
X122563919Y-86847996D01*
X122540640Y-86849140D01*
X122065640Y-86849140D01*
X122042361Y-86847996D01*
X122019306Y-86844577D01*
X121996697Y-86838913D01*
X121974753Y-86831061D01*
X121953683Y-86821096D01*
X121933692Y-86809114D01*
X121914972Y-86795230D01*
X121897702Y-86779578D01*
X121882050Y-86762308D01*
X121868166Y-86743588D01*
X121856184Y-86723597D01*
X121846219Y-86702527D01*
X121838367Y-86680583D01*
X121832703Y-86657974D01*
X121829284Y-86634919D01*
X121828140Y-86611640D01*
X121828140Y-86036640D01*
X121829284Y-86013361D01*
X121832703Y-85990306D01*
X121838367Y-85967697D01*
X121846219Y-85945753D01*
X121856184Y-85924683D01*
X121868166Y-85904692D01*
X121882050Y-85885972D01*
X121897702Y-85868702D01*
X121914972Y-85853050D01*
X121933692Y-85839166D01*
X121953683Y-85827184D01*
X121974753Y-85817219D01*
X121996697Y-85809367D01*
X122019306Y-85803703D01*
X122042361Y-85800284D01*
X122065640Y-85799140D01*
X122540640Y-85799140D01*
X122563919Y-85800284D01*
X122563919Y-85800284D01*
G37*
D12*
X122303140Y-86324140D03*
G04 #@! TD*
D11*
G04 #@! TO.C,R20*
G36*
X124238299Y-103126144D02*
X124261354Y-103129563D01*
X124283963Y-103135227D01*
X124305907Y-103143079D01*
X124326977Y-103153044D01*
X124346968Y-103165026D01*
X124365688Y-103178910D01*
X124382958Y-103194562D01*
X124398610Y-103211832D01*
X124412494Y-103230552D01*
X124424476Y-103250543D01*
X124434441Y-103271613D01*
X124442293Y-103293557D01*
X124447957Y-103316166D01*
X124451376Y-103339221D01*
X124452520Y-103362500D01*
X124452520Y-103937500D01*
X124451376Y-103960779D01*
X124447957Y-103983834D01*
X124442293Y-104006443D01*
X124434441Y-104028387D01*
X124424476Y-104049457D01*
X124412494Y-104069448D01*
X124398610Y-104088168D01*
X124382958Y-104105438D01*
X124365688Y-104121090D01*
X124346968Y-104134974D01*
X124326977Y-104146956D01*
X124305907Y-104156921D01*
X124283963Y-104164773D01*
X124261354Y-104170437D01*
X124238299Y-104173856D01*
X124215020Y-104175000D01*
X123740020Y-104175000D01*
X123716741Y-104173856D01*
X123693686Y-104170437D01*
X123671077Y-104164773D01*
X123649133Y-104156921D01*
X123628063Y-104146956D01*
X123608072Y-104134974D01*
X123589352Y-104121090D01*
X123572082Y-104105438D01*
X123556430Y-104088168D01*
X123542546Y-104069448D01*
X123530564Y-104049457D01*
X123520599Y-104028387D01*
X123512747Y-104006443D01*
X123507083Y-103983834D01*
X123503664Y-103960779D01*
X123502520Y-103937500D01*
X123502520Y-103362500D01*
X123503664Y-103339221D01*
X123507083Y-103316166D01*
X123512747Y-103293557D01*
X123520599Y-103271613D01*
X123530564Y-103250543D01*
X123542546Y-103230552D01*
X123556430Y-103211832D01*
X123572082Y-103194562D01*
X123589352Y-103178910D01*
X123608072Y-103165026D01*
X123628063Y-103153044D01*
X123649133Y-103143079D01*
X123671077Y-103135227D01*
X123693686Y-103129563D01*
X123716741Y-103126144D01*
X123740020Y-103125000D01*
X124215020Y-103125000D01*
X124238299Y-103126144D01*
X124238299Y-103126144D01*
G37*
D12*
X123977520Y-103650000D03*
D11*
G36*
X124238299Y-101376144D02*
X124261354Y-101379563D01*
X124283963Y-101385227D01*
X124305907Y-101393079D01*
X124326977Y-101403044D01*
X124346968Y-101415026D01*
X124365688Y-101428910D01*
X124382958Y-101444562D01*
X124398610Y-101461832D01*
X124412494Y-101480552D01*
X124424476Y-101500543D01*
X124434441Y-101521613D01*
X124442293Y-101543557D01*
X124447957Y-101566166D01*
X124451376Y-101589221D01*
X124452520Y-101612500D01*
X124452520Y-102187500D01*
X124451376Y-102210779D01*
X124447957Y-102233834D01*
X124442293Y-102256443D01*
X124434441Y-102278387D01*
X124424476Y-102299457D01*
X124412494Y-102319448D01*
X124398610Y-102338168D01*
X124382958Y-102355438D01*
X124365688Y-102371090D01*
X124346968Y-102384974D01*
X124326977Y-102396956D01*
X124305907Y-102406921D01*
X124283963Y-102414773D01*
X124261354Y-102420437D01*
X124238299Y-102423856D01*
X124215020Y-102425000D01*
X123740020Y-102425000D01*
X123716741Y-102423856D01*
X123693686Y-102420437D01*
X123671077Y-102414773D01*
X123649133Y-102406921D01*
X123628063Y-102396956D01*
X123608072Y-102384974D01*
X123589352Y-102371090D01*
X123572082Y-102355438D01*
X123556430Y-102338168D01*
X123542546Y-102319448D01*
X123530564Y-102299457D01*
X123520599Y-102278387D01*
X123512747Y-102256443D01*
X123507083Y-102233834D01*
X123503664Y-102210779D01*
X123502520Y-102187500D01*
X123502520Y-101612500D01*
X123503664Y-101589221D01*
X123507083Y-101566166D01*
X123512747Y-101543557D01*
X123520599Y-101521613D01*
X123530564Y-101500543D01*
X123542546Y-101480552D01*
X123556430Y-101461832D01*
X123572082Y-101444562D01*
X123589352Y-101428910D01*
X123608072Y-101415026D01*
X123628063Y-101403044D01*
X123649133Y-101393079D01*
X123671077Y-101385227D01*
X123693686Y-101379563D01*
X123716741Y-101376144D01*
X123740020Y-101375000D01*
X124215020Y-101375000D01*
X124238299Y-101376144D01*
X124238299Y-101376144D01*
G37*
D12*
X123977520Y-101900000D03*
G04 #@! TD*
D18*
G04 #@! TO.C,Q2*
X147078740Y-102936800D03*
X145178740Y-102936800D03*
X146128740Y-104936800D03*
G04 #@! TD*
G04 #@! TO.C,Q1*
X138023560Y-87022180D03*
X139923560Y-87022180D03*
X138973560Y-85022180D03*
G04 #@! TD*
M02*
