G04 #@! TF.GenerationSoftware,KiCad,Pcbnew,(5.0.1)-3*
G04 #@! TF.CreationDate,2019-05-27T15:52:32-04:00*
G04 #@! TF.ProjectId,mars-aqua-adapter,6D6172732D617175612D616461707465,rev?*
G04 #@! TF.SameCoordinates,Original*
G04 #@! TF.FileFunction,Paste,Top*
G04 #@! TF.FilePolarity,Positive*
%FSLAX46Y46*%
G04 Gerber Fmt 4.6, Leading zero omitted, Abs format (unit mm)*
G04 Created by KiCad (PCBNEW (5.0.1)-3) date 5/27/2019 3:52:32 PM*
%MOMM*%
%LPD*%
G01*
G04 APERTURE LIST*
%ADD10R,0.600000X1.550000*%
%ADD11C,0.100000*%
%ADD12C,0.950000*%
%ADD13R,1.700000X1.300000*%
%ADD14R,1.600200X1.089660*%
%ADD15R,1.600200X1.600200*%
%ADD16C,1.150000*%
%ADD17R,0.800000X0.900000*%
%ADD18C,0.975000*%
G04 APERTURE END LIST*
D10*
G04 #@! TO.C,U2*
X136155000Y-97950000D03*
X134885000Y-97950000D03*
X133615000Y-97950000D03*
X132345000Y-97950000D03*
X132345000Y-92550000D03*
X133615000Y-92550000D03*
X134885000Y-92550000D03*
X136155000Y-92550000D03*
G04 #@! TD*
D11*
G04 #@! TO.C,R16*
G36*
X140260779Y-101376144D02*
X140283834Y-101379563D01*
X140306443Y-101385227D01*
X140328387Y-101393079D01*
X140349457Y-101403044D01*
X140369448Y-101415026D01*
X140388168Y-101428910D01*
X140405438Y-101444562D01*
X140421090Y-101461832D01*
X140434974Y-101480552D01*
X140446956Y-101500543D01*
X140456921Y-101521613D01*
X140464773Y-101543557D01*
X140470437Y-101566166D01*
X140473856Y-101589221D01*
X140475000Y-101612500D01*
X140475000Y-102187500D01*
X140473856Y-102210779D01*
X140470437Y-102233834D01*
X140464773Y-102256443D01*
X140456921Y-102278387D01*
X140446956Y-102299457D01*
X140434974Y-102319448D01*
X140421090Y-102338168D01*
X140405438Y-102355438D01*
X140388168Y-102371090D01*
X140369448Y-102384974D01*
X140349457Y-102396956D01*
X140328387Y-102406921D01*
X140306443Y-102414773D01*
X140283834Y-102420437D01*
X140260779Y-102423856D01*
X140237500Y-102425000D01*
X139762500Y-102425000D01*
X139739221Y-102423856D01*
X139716166Y-102420437D01*
X139693557Y-102414773D01*
X139671613Y-102406921D01*
X139650543Y-102396956D01*
X139630552Y-102384974D01*
X139611832Y-102371090D01*
X139594562Y-102355438D01*
X139578910Y-102338168D01*
X139565026Y-102319448D01*
X139553044Y-102299457D01*
X139543079Y-102278387D01*
X139535227Y-102256443D01*
X139529563Y-102233834D01*
X139526144Y-102210779D01*
X139525000Y-102187500D01*
X139525000Y-101612500D01*
X139526144Y-101589221D01*
X139529563Y-101566166D01*
X139535227Y-101543557D01*
X139543079Y-101521613D01*
X139553044Y-101500543D01*
X139565026Y-101480552D01*
X139578910Y-101461832D01*
X139594562Y-101444562D01*
X139611832Y-101428910D01*
X139630552Y-101415026D01*
X139650543Y-101403044D01*
X139671613Y-101393079D01*
X139693557Y-101385227D01*
X139716166Y-101379563D01*
X139739221Y-101376144D01*
X139762500Y-101375000D01*
X140237500Y-101375000D01*
X140260779Y-101376144D01*
X140260779Y-101376144D01*
G37*
D12*
X140000000Y-101900000D03*
D11*
G36*
X140260779Y-103126144D02*
X140283834Y-103129563D01*
X140306443Y-103135227D01*
X140328387Y-103143079D01*
X140349457Y-103153044D01*
X140369448Y-103165026D01*
X140388168Y-103178910D01*
X140405438Y-103194562D01*
X140421090Y-103211832D01*
X140434974Y-103230552D01*
X140446956Y-103250543D01*
X140456921Y-103271613D01*
X140464773Y-103293557D01*
X140470437Y-103316166D01*
X140473856Y-103339221D01*
X140475000Y-103362500D01*
X140475000Y-103937500D01*
X140473856Y-103960779D01*
X140470437Y-103983834D01*
X140464773Y-104006443D01*
X140456921Y-104028387D01*
X140446956Y-104049457D01*
X140434974Y-104069448D01*
X140421090Y-104088168D01*
X140405438Y-104105438D01*
X140388168Y-104121090D01*
X140369448Y-104134974D01*
X140349457Y-104146956D01*
X140328387Y-104156921D01*
X140306443Y-104164773D01*
X140283834Y-104170437D01*
X140260779Y-104173856D01*
X140237500Y-104175000D01*
X139762500Y-104175000D01*
X139739221Y-104173856D01*
X139716166Y-104170437D01*
X139693557Y-104164773D01*
X139671613Y-104156921D01*
X139650543Y-104146956D01*
X139630552Y-104134974D01*
X139611832Y-104121090D01*
X139594562Y-104105438D01*
X139578910Y-104088168D01*
X139565026Y-104069448D01*
X139553044Y-104049457D01*
X139543079Y-104028387D01*
X139535227Y-104006443D01*
X139529563Y-103983834D01*
X139526144Y-103960779D01*
X139525000Y-103937500D01*
X139525000Y-103362500D01*
X139526144Y-103339221D01*
X139529563Y-103316166D01*
X139535227Y-103293557D01*
X139543079Y-103271613D01*
X139553044Y-103250543D01*
X139565026Y-103230552D01*
X139578910Y-103211832D01*
X139594562Y-103194562D01*
X139611832Y-103178910D01*
X139630552Y-103165026D01*
X139650543Y-103153044D01*
X139671613Y-103143079D01*
X139693557Y-103135227D01*
X139716166Y-103129563D01*
X139739221Y-103126144D01*
X139762500Y-103125000D01*
X140237500Y-103125000D01*
X140260779Y-103126144D01*
X140260779Y-103126144D01*
G37*
D12*
X140000000Y-103650000D03*
G04 #@! TD*
D13*
G04 #@! TO.C,D2*
X127736280Y-108039020D03*
X127736280Y-111539020D03*
G04 #@! TD*
D11*
G04 #@! TO.C,R1*
G36*
X116760779Y-87550284D02*
X116783834Y-87553703D01*
X116806443Y-87559367D01*
X116828387Y-87567219D01*
X116849457Y-87577184D01*
X116869448Y-87589166D01*
X116888168Y-87603050D01*
X116905438Y-87618702D01*
X116921090Y-87635972D01*
X116934974Y-87654692D01*
X116946956Y-87674683D01*
X116956921Y-87695753D01*
X116964773Y-87717697D01*
X116970437Y-87740306D01*
X116973856Y-87763361D01*
X116975000Y-87786640D01*
X116975000Y-88361640D01*
X116973856Y-88384919D01*
X116970437Y-88407974D01*
X116964773Y-88430583D01*
X116956921Y-88452527D01*
X116946956Y-88473597D01*
X116934974Y-88493588D01*
X116921090Y-88512308D01*
X116905438Y-88529578D01*
X116888168Y-88545230D01*
X116869448Y-88559114D01*
X116849457Y-88571096D01*
X116828387Y-88581061D01*
X116806443Y-88588913D01*
X116783834Y-88594577D01*
X116760779Y-88597996D01*
X116737500Y-88599140D01*
X116262500Y-88599140D01*
X116239221Y-88597996D01*
X116216166Y-88594577D01*
X116193557Y-88588913D01*
X116171613Y-88581061D01*
X116150543Y-88571096D01*
X116130552Y-88559114D01*
X116111832Y-88545230D01*
X116094562Y-88529578D01*
X116078910Y-88512308D01*
X116065026Y-88493588D01*
X116053044Y-88473597D01*
X116043079Y-88452527D01*
X116035227Y-88430583D01*
X116029563Y-88407974D01*
X116026144Y-88384919D01*
X116025000Y-88361640D01*
X116025000Y-87786640D01*
X116026144Y-87763361D01*
X116029563Y-87740306D01*
X116035227Y-87717697D01*
X116043079Y-87695753D01*
X116053044Y-87674683D01*
X116065026Y-87654692D01*
X116078910Y-87635972D01*
X116094562Y-87618702D01*
X116111832Y-87603050D01*
X116130552Y-87589166D01*
X116150543Y-87577184D01*
X116171613Y-87567219D01*
X116193557Y-87559367D01*
X116216166Y-87553703D01*
X116239221Y-87550284D01*
X116262500Y-87549140D01*
X116737500Y-87549140D01*
X116760779Y-87550284D01*
X116760779Y-87550284D01*
G37*
D12*
X116500000Y-88074140D03*
D11*
G36*
X116760779Y-85800284D02*
X116783834Y-85803703D01*
X116806443Y-85809367D01*
X116828387Y-85817219D01*
X116849457Y-85827184D01*
X116869448Y-85839166D01*
X116888168Y-85853050D01*
X116905438Y-85868702D01*
X116921090Y-85885972D01*
X116934974Y-85904692D01*
X116946956Y-85924683D01*
X116956921Y-85945753D01*
X116964773Y-85967697D01*
X116970437Y-85990306D01*
X116973856Y-86013361D01*
X116975000Y-86036640D01*
X116975000Y-86611640D01*
X116973856Y-86634919D01*
X116970437Y-86657974D01*
X116964773Y-86680583D01*
X116956921Y-86702527D01*
X116946956Y-86723597D01*
X116934974Y-86743588D01*
X116921090Y-86762308D01*
X116905438Y-86779578D01*
X116888168Y-86795230D01*
X116869448Y-86809114D01*
X116849457Y-86821096D01*
X116828387Y-86831061D01*
X116806443Y-86838913D01*
X116783834Y-86844577D01*
X116760779Y-86847996D01*
X116737500Y-86849140D01*
X116262500Y-86849140D01*
X116239221Y-86847996D01*
X116216166Y-86844577D01*
X116193557Y-86838913D01*
X116171613Y-86831061D01*
X116150543Y-86821096D01*
X116130552Y-86809114D01*
X116111832Y-86795230D01*
X116094562Y-86779578D01*
X116078910Y-86762308D01*
X116065026Y-86743588D01*
X116053044Y-86723597D01*
X116043079Y-86702527D01*
X116035227Y-86680583D01*
X116029563Y-86657974D01*
X116026144Y-86634919D01*
X116025000Y-86611640D01*
X116025000Y-86036640D01*
X116026144Y-86013361D01*
X116029563Y-85990306D01*
X116035227Y-85967697D01*
X116043079Y-85945753D01*
X116053044Y-85924683D01*
X116065026Y-85904692D01*
X116078910Y-85885972D01*
X116094562Y-85868702D01*
X116111832Y-85853050D01*
X116130552Y-85839166D01*
X116150543Y-85827184D01*
X116171613Y-85817219D01*
X116193557Y-85809367D01*
X116216166Y-85803703D01*
X116239221Y-85800284D01*
X116262500Y-85799140D01*
X116737500Y-85799140D01*
X116760779Y-85800284D01*
X116760779Y-85800284D01*
G37*
D12*
X116500000Y-86324140D03*
G04 #@! TD*
D11*
G04 #@! TO.C,R2*
G36*
X116760779Y-103126144D02*
X116783834Y-103129563D01*
X116806443Y-103135227D01*
X116828387Y-103143079D01*
X116849457Y-103153044D01*
X116869448Y-103165026D01*
X116888168Y-103178910D01*
X116905438Y-103194562D01*
X116921090Y-103211832D01*
X116934974Y-103230552D01*
X116946956Y-103250543D01*
X116956921Y-103271613D01*
X116964773Y-103293557D01*
X116970437Y-103316166D01*
X116973856Y-103339221D01*
X116975000Y-103362500D01*
X116975000Y-103937500D01*
X116973856Y-103960779D01*
X116970437Y-103983834D01*
X116964773Y-104006443D01*
X116956921Y-104028387D01*
X116946956Y-104049457D01*
X116934974Y-104069448D01*
X116921090Y-104088168D01*
X116905438Y-104105438D01*
X116888168Y-104121090D01*
X116869448Y-104134974D01*
X116849457Y-104146956D01*
X116828387Y-104156921D01*
X116806443Y-104164773D01*
X116783834Y-104170437D01*
X116760779Y-104173856D01*
X116737500Y-104175000D01*
X116262500Y-104175000D01*
X116239221Y-104173856D01*
X116216166Y-104170437D01*
X116193557Y-104164773D01*
X116171613Y-104156921D01*
X116150543Y-104146956D01*
X116130552Y-104134974D01*
X116111832Y-104121090D01*
X116094562Y-104105438D01*
X116078910Y-104088168D01*
X116065026Y-104069448D01*
X116053044Y-104049457D01*
X116043079Y-104028387D01*
X116035227Y-104006443D01*
X116029563Y-103983834D01*
X116026144Y-103960779D01*
X116025000Y-103937500D01*
X116025000Y-103362500D01*
X116026144Y-103339221D01*
X116029563Y-103316166D01*
X116035227Y-103293557D01*
X116043079Y-103271613D01*
X116053044Y-103250543D01*
X116065026Y-103230552D01*
X116078910Y-103211832D01*
X116094562Y-103194562D01*
X116111832Y-103178910D01*
X116130552Y-103165026D01*
X116150543Y-103153044D01*
X116171613Y-103143079D01*
X116193557Y-103135227D01*
X116216166Y-103129563D01*
X116239221Y-103126144D01*
X116262500Y-103125000D01*
X116737500Y-103125000D01*
X116760779Y-103126144D01*
X116760779Y-103126144D01*
G37*
D12*
X116500000Y-103650000D03*
D11*
G36*
X116760779Y-101376144D02*
X116783834Y-101379563D01*
X116806443Y-101385227D01*
X116828387Y-101393079D01*
X116849457Y-101403044D01*
X116869448Y-101415026D01*
X116888168Y-101428910D01*
X116905438Y-101444562D01*
X116921090Y-101461832D01*
X116934974Y-101480552D01*
X116946956Y-101500543D01*
X116956921Y-101521613D01*
X116964773Y-101543557D01*
X116970437Y-101566166D01*
X116973856Y-101589221D01*
X116975000Y-101612500D01*
X116975000Y-102187500D01*
X116973856Y-102210779D01*
X116970437Y-102233834D01*
X116964773Y-102256443D01*
X116956921Y-102278387D01*
X116946956Y-102299457D01*
X116934974Y-102319448D01*
X116921090Y-102338168D01*
X116905438Y-102355438D01*
X116888168Y-102371090D01*
X116869448Y-102384974D01*
X116849457Y-102396956D01*
X116828387Y-102406921D01*
X116806443Y-102414773D01*
X116783834Y-102420437D01*
X116760779Y-102423856D01*
X116737500Y-102425000D01*
X116262500Y-102425000D01*
X116239221Y-102423856D01*
X116216166Y-102420437D01*
X116193557Y-102414773D01*
X116171613Y-102406921D01*
X116150543Y-102396956D01*
X116130552Y-102384974D01*
X116111832Y-102371090D01*
X116094562Y-102355438D01*
X116078910Y-102338168D01*
X116065026Y-102319448D01*
X116053044Y-102299457D01*
X116043079Y-102278387D01*
X116035227Y-102256443D01*
X116029563Y-102233834D01*
X116026144Y-102210779D01*
X116025000Y-102187500D01*
X116025000Y-101612500D01*
X116026144Y-101589221D01*
X116029563Y-101566166D01*
X116035227Y-101543557D01*
X116043079Y-101521613D01*
X116053044Y-101500543D01*
X116065026Y-101480552D01*
X116078910Y-101461832D01*
X116094562Y-101444562D01*
X116111832Y-101428910D01*
X116130552Y-101415026D01*
X116150543Y-101403044D01*
X116171613Y-101393079D01*
X116193557Y-101385227D01*
X116216166Y-101379563D01*
X116239221Y-101376144D01*
X116262500Y-101375000D01*
X116737500Y-101375000D01*
X116760779Y-101376144D01*
X116760779Y-101376144D01*
G37*
D12*
X116500000Y-101900000D03*
G04 #@! TD*
D11*
G04 #@! TO.C,R3*
G36*
X118435159Y-87550284D02*
X118458214Y-87553703D01*
X118480823Y-87559367D01*
X118502767Y-87567219D01*
X118523837Y-87577184D01*
X118543828Y-87589166D01*
X118562548Y-87603050D01*
X118579818Y-87618702D01*
X118595470Y-87635972D01*
X118609354Y-87654692D01*
X118621336Y-87674683D01*
X118631301Y-87695753D01*
X118639153Y-87717697D01*
X118644817Y-87740306D01*
X118648236Y-87763361D01*
X118649380Y-87786640D01*
X118649380Y-88361640D01*
X118648236Y-88384919D01*
X118644817Y-88407974D01*
X118639153Y-88430583D01*
X118631301Y-88452527D01*
X118621336Y-88473597D01*
X118609354Y-88493588D01*
X118595470Y-88512308D01*
X118579818Y-88529578D01*
X118562548Y-88545230D01*
X118543828Y-88559114D01*
X118523837Y-88571096D01*
X118502767Y-88581061D01*
X118480823Y-88588913D01*
X118458214Y-88594577D01*
X118435159Y-88597996D01*
X118411880Y-88599140D01*
X117936880Y-88599140D01*
X117913601Y-88597996D01*
X117890546Y-88594577D01*
X117867937Y-88588913D01*
X117845993Y-88581061D01*
X117824923Y-88571096D01*
X117804932Y-88559114D01*
X117786212Y-88545230D01*
X117768942Y-88529578D01*
X117753290Y-88512308D01*
X117739406Y-88493588D01*
X117727424Y-88473597D01*
X117717459Y-88452527D01*
X117709607Y-88430583D01*
X117703943Y-88407974D01*
X117700524Y-88384919D01*
X117699380Y-88361640D01*
X117699380Y-87786640D01*
X117700524Y-87763361D01*
X117703943Y-87740306D01*
X117709607Y-87717697D01*
X117717459Y-87695753D01*
X117727424Y-87674683D01*
X117739406Y-87654692D01*
X117753290Y-87635972D01*
X117768942Y-87618702D01*
X117786212Y-87603050D01*
X117804932Y-87589166D01*
X117824923Y-87577184D01*
X117845993Y-87567219D01*
X117867937Y-87559367D01*
X117890546Y-87553703D01*
X117913601Y-87550284D01*
X117936880Y-87549140D01*
X118411880Y-87549140D01*
X118435159Y-87550284D01*
X118435159Y-87550284D01*
G37*
D12*
X118174380Y-88074140D03*
D11*
G36*
X118435159Y-85800284D02*
X118458214Y-85803703D01*
X118480823Y-85809367D01*
X118502767Y-85817219D01*
X118523837Y-85827184D01*
X118543828Y-85839166D01*
X118562548Y-85853050D01*
X118579818Y-85868702D01*
X118595470Y-85885972D01*
X118609354Y-85904692D01*
X118621336Y-85924683D01*
X118631301Y-85945753D01*
X118639153Y-85967697D01*
X118644817Y-85990306D01*
X118648236Y-86013361D01*
X118649380Y-86036640D01*
X118649380Y-86611640D01*
X118648236Y-86634919D01*
X118644817Y-86657974D01*
X118639153Y-86680583D01*
X118631301Y-86702527D01*
X118621336Y-86723597D01*
X118609354Y-86743588D01*
X118595470Y-86762308D01*
X118579818Y-86779578D01*
X118562548Y-86795230D01*
X118543828Y-86809114D01*
X118523837Y-86821096D01*
X118502767Y-86831061D01*
X118480823Y-86838913D01*
X118458214Y-86844577D01*
X118435159Y-86847996D01*
X118411880Y-86849140D01*
X117936880Y-86849140D01*
X117913601Y-86847996D01*
X117890546Y-86844577D01*
X117867937Y-86838913D01*
X117845993Y-86831061D01*
X117824923Y-86821096D01*
X117804932Y-86809114D01*
X117786212Y-86795230D01*
X117768942Y-86779578D01*
X117753290Y-86762308D01*
X117739406Y-86743588D01*
X117727424Y-86723597D01*
X117717459Y-86702527D01*
X117709607Y-86680583D01*
X117703943Y-86657974D01*
X117700524Y-86634919D01*
X117699380Y-86611640D01*
X117699380Y-86036640D01*
X117700524Y-86013361D01*
X117703943Y-85990306D01*
X117709607Y-85967697D01*
X117717459Y-85945753D01*
X117727424Y-85924683D01*
X117739406Y-85904692D01*
X117753290Y-85885972D01*
X117768942Y-85868702D01*
X117786212Y-85853050D01*
X117804932Y-85839166D01*
X117824923Y-85827184D01*
X117845993Y-85817219D01*
X117867937Y-85809367D01*
X117890546Y-85803703D01*
X117913601Y-85800284D01*
X117936880Y-85799140D01*
X118411880Y-85799140D01*
X118435159Y-85800284D01*
X118435159Y-85800284D01*
G37*
D12*
X118174380Y-86324140D03*
G04 #@! TD*
D11*
G04 #@! TO.C,R4*
G36*
X118435159Y-103126144D02*
X118458214Y-103129563D01*
X118480823Y-103135227D01*
X118502767Y-103143079D01*
X118523837Y-103153044D01*
X118543828Y-103165026D01*
X118562548Y-103178910D01*
X118579818Y-103194562D01*
X118595470Y-103211832D01*
X118609354Y-103230552D01*
X118621336Y-103250543D01*
X118631301Y-103271613D01*
X118639153Y-103293557D01*
X118644817Y-103316166D01*
X118648236Y-103339221D01*
X118649380Y-103362500D01*
X118649380Y-103937500D01*
X118648236Y-103960779D01*
X118644817Y-103983834D01*
X118639153Y-104006443D01*
X118631301Y-104028387D01*
X118621336Y-104049457D01*
X118609354Y-104069448D01*
X118595470Y-104088168D01*
X118579818Y-104105438D01*
X118562548Y-104121090D01*
X118543828Y-104134974D01*
X118523837Y-104146956D01*
X118502767Y-104156921D01*
X118480823Y-104164773D01*
X118458214Y-104170437D01*
X118435159Y-104173856D01*
X118411880Y-104175000D01*
X117936880Y-104175000D01*
X117913601Y-104173856D01*
X117890546Y-104170437D01*
X117867937Y-104164773D01*
X117845993Y-104156921D01*
X117824923Y-104146956D01*
X117804932Y-104134974D01*
X117786212Y-104121090D01*
X117768942Y-104105438D01*
X117753290Y-104088168D01*
X117739406Y-104069448D01*
X117727424Y-104049457D01*
X117717459Y-104028387D01*
X117709607Y-104006443D01*
X117703943Y-103983834D01*
X117700524Y-103960779D01*
X117699380Y-103937500D01*
X117699380Y-103362500D01*
X117700524Y-103339221D01*
X117703943Y-103316166D01*
X117709607Y-103293557D01*
X117717459Y-103271613D01*
X117727424Y-103250543D01*
X117739406Y-103230552D01*
X117753290Y-103211832D01*
X117768942Y-103194562D01*
X117786212Y-103178910D01*
X117804932Y-103165026D01*
X117824923Y-103153044D01*
X117845993Y-103143079D01*
X117867937Y-103135227D01*
X117890546Y-103129563D01*
X117913601Y-103126144D01*
X117936880Y-103125000D01*
X118411880Y-103125000D01*
X118435159Y-103126144D01*
X118435159Y-103126144D01*
G37*
D12*
X118174380Y-103650000D03*
D11*
G36*
X118435159Y-101376144D02*
X118458214Y-101379563D01*
X118480823Y-101385227D01*
X118502767Y-101393079D01*
X118523837Y-101403044D01*
X118543828Y-101415026D01*
X118562548Y-101428910D01*
X118579818Y-101444562D01*
X118595470Y-101461832D01*
X118609354Y-101480552D01*
X118621336Y-101500543D01*
X118631301Y-101521613D01*
X118639153Y-101543557D01*
X118644817Y-101566166D01*
X118648236Y-101589221D01*
X118649380Y-101612500D01*
X118649380Y-102187500D01*
X118648236Y-102210779D01*
X118644817Y-102233834D01*
X118639153Y-102256443D01*
X118631301Y-102278387D01*
X118621336Y-102299457D01*
X118609354Y-102319448D01*
X118595470Y-102338168D01*
X118579818Y-102355438D01*
X118562548Y-102371090D01*
X118543828Y-102384974D01*
X118523837Y-102396956D01*
X118502767Y-102406921D01*
X118480823Y-102414773D01*
X118458214Y-102420437D01*
X118435159Y-102423856D01*
X118411880Y-102425000D01*
X117936880Y-102425000D01*
X117913601Y-102423856D01*
X117890546Y-102420437D01*
X117867937Y-102414773D01*
X117845993Y-102406921D01*
X117824923Y-102396956D01*
X117804932Y-102384974D01*
X117786212Y-102371090D01*
X117768942Y-102355438D01*
X117753290Y-102338168D01*
X117739406Y-102319448D01*
X117727424Y-102299457D01*
X117717459Y-102278387D01*
X117709607Y-102256443D01*
X117703943Y-102233834D01*
X117700524Y-102210779D01*
X117699380Y-102187500D01*
X117699380Y-101612500D01*
X117700524Y-101589221D01*
X117703943Y-101566166D01*
X117709607Y-101543557D01*
X117717459Y-101521613D01*
X117727424Y-101500543D01*
X117739406Y-101480552D01*
X117753290Y-101461832D01*
X117768942Y-101444562D01*
X117786212Y-101428910D01*
X117804932Y-101415026D01*
X117824923Y-101403044D01*
X117845993Y-101393079D01*
X117867937Y-101385227D01*
X117890546Y-101379563D01*
X117913601Y-101376144D01*
X117936880Y-101375000D01*
X118411880Y-101375000D01*
X118435159Y-101376144D01*
X118435159Y-101376144D01*
G37*
D12*
X118174380Y-101900000D03*
G04 #@! TD*
D11*
G04 #@! TO.C,R5*
G36*
X124238299Y-87550284D02*
X124261354Y-87553703D01*
X124283963Y-87559367D01*
X124305907Y-87567219D01*
X124326977Y-87577184D01*
X124346968Y-87589166D01*
X124365688Y-87603050D01*
X124382958Y-87618702D01*
X124398610Y-87635972D01*
X124412494Y-87654692D01*
X124424476Y-87674683D01*
X124434441Y-87695753D01*
X124442293Y-87717697D01*
X124447957Y-87740306D01*
X124451376Y-87763361D01*
X124452520Y-87786640D01*
X124452520Y-88361640D01*
X124451376Y-88384919D01*
X124447957Y-88407974D01*
X124442293Y-88430583D01*
X124434441Y-88452527D01*
X124424476Y-88473597D01*
X124412494Y-88493588D01*
X124398610Y-88512308D01*
X124382958Y-88529578D01*
X124365688Y-88545230D01*
X124346968Y-88559114D01*
X124326977Y-88571096D01*
X124305907Y-88581061D01*
X124283963Y-88588913D01*
X124261354Y-88594577D01*
X124238299Y-88597996D01*
X124215020Y-88599140D01*
X123740020Y-88599140D01*
X123716741Y-88597996D01*
X123693686Y-88594577D01*
X123671077Y-88588913D01*
X123649133Y-88581061D01*
X123628063Y-88571096D01*
X123608072Y-88559114D01*
X123589352Y-88545230D01*
X123572082Y-88529578D01*
X123556430Y-88512308D01*
X123542546Y-88493588D01*
X123530564Y-88473597D01*
X123520599Y-88452527D01*
X123512747Y-88430583D01*
X123507083Y-88407974D01*
X123503664Y-88384919D01*
X123502520Y-88361640D01*
X123502520Y-87786640D01*
X123503664Y-87763361D01*
X123507083Y-87740306D01*
X123512747Y-87717697D01*
X123520599Y-87695753D01*
X123530564Y-87674683D01*
X123542546Y-87654692D01*
X123556430Y-87635972D01*
X123572082Y-87618702D01*
X123589352Y-87603050D01*
X123608072Y-87589166D01*
X123628063Y-87577184D01*
X123649133Y-87567219D01*
X123671077Y-87559367D01*
X123693686Y-87553703D01*
X123716741Y-87550284D01*
X123740020Y-87549140D01*
X124215020Y-87549140D01*
X124238299Y-87550284D01*
X124238299Y-87550284D01*
G37*
D12*
X123977520Y-88074140D03*
D11*
G36*
X124238299Y-85800284D02*
X124261354Y-85803703D01*
X124283963Y-85809367D01*
X124305907Y-85817219D01*
X124326977Y-85827184D01*
X124346968Y-85839166D01*
X124365688Y-85853050D01*
X124382958Y-85868702D01*
X124398610Y-85885972D01*
X124412494Y-85904692D01*
X124424476Y-85924683D01*
X124434441Y-85945753D01*
X124442293Y-85967697D01*
X124447957Y-85990306D01*
X124451376Y-86013361D01*
X124452520Y-86036640D01*
X124452520Y-86611640D01*
X124451376Y-86634919D01*
X124447957Y-86657974D01*
X124442293Y-86680583D01*
X124434441Y-86702527D01*
X124424476Y-86723597D01*
X124412494Y-86743588D01*
X124398610Y-86762308D01*
X124382958Y-86779578D01*
X124365688Y-86795230D01*
X124346968Y-86809114D01*
X124326977Y-86821096D01*
X124305907Y-86831061D01*
X124283963Y-86838913D01*
X124261354Y-86844577D01*
X124238299Y-86847996D01*
X124215020Y-86849140D01*
X123740020Y-86849140D01*
X123716741Y-86847996D01*
X123693686Y-86844577D01*
X123671077Y-86838913D01*
X123649133Y-86831061D01*
X123628063Y-86821096D01*
X123608072Y-86809114D01*
X123589352Y-86795230D01*
X123572082Y-86779578D01*
X123556430Y-86762308D01*
X123542546Y-86743588D01*
X123530564Y-86723597D01*
X123520599Y-86702527D01*
X123512747Y-86680583D01*
X123507083Y-86657974D01*
X123503664Y-86634919D01*
X123502520Y-86611640D01*
X123502520Y-86036640D01*
X123503664Y-86013361D01*
X123507083Y-85990306D01*
X123512747Y-85967697D01*
X123520599Y-85945753D01*
X123530564Y-85924683D01*
X123542546Y-85904692D01*
X123556430Y-85885972D01*
X123572082Y-85868702D01*
X123589352Y-85853050D01*
X123608072Y-85839166D01*
X123628063Y-85827184D01*
X123649133Y-85817219D01*
X123671077Y-85809367D01*
X123693686Y-85803703D01*
X123716741Y-85800284D01*
X123740020Y-85799140D01*
X124215020Y-85799140D01*
X124238299Y-85800284D01*
X124238299Y-85800284D01*
G37*
D12*
X123977520Y-86324140D03*
G04 #@! TD*
D11*
G04 #@! TO.C,R6*
G36*
X122563919Y-103126144D02*
X122586974Y-103129563D01*
X122609583Y-103135227D01*
X122631527Y-103143079D01*
X122652597Y-103153044D01*
X122672588Y-103165026D01*
X122691308Y-103178910D01*
X122708578Y-103194562D01*
X122724230Y-103211832D01*
X122738114Y-103230552D01*
X122750096Y-103250543D01*
X122760061Y-103271613D01*
X122767913Y-103293557D01*
X122773577Y-103316166D01*
X122776996Y-103339221D01*
X122778140Y-103362500D01*
X122778140Y-103937500D01*
X122776996Y-103960779D01*
X122773577Y-103983834D01*
X122767913Y-104006443D01*
X122760061Y-104028387D01*
X122750096Y-104049457D01*
X122738114Y-104069448D01*
X122724230Y-104088168D01*
X122708578Y-104105438D01*
X122691308Y-104121090D01*
X122672588Y-104134974D01*
X122652597Y-104146956D01*
X122631527Y-104156921D01*
X122609583Y-104164773D01*
X122586974Y-104170437D01*
X122563919Y-104173856D01*
X122540640Y-104175000D01*
X122065640Y-104175000D01*
X122042361Y-104173856D01*
X122019306Y-104170437D01*
X121996697Y-104164773D01*
X121974753Y-104156921D01*
X121953683Y-104146956D01*
X121933692Y-104134974D01*
X121914972Y-104121090D01*
X121897702Y-104105438D01*
X121882050Y-104088168D01*
X121868166Y-104069448D01*
X121856184Y-104049457D01*
X121846219Y-104028387D01*
X121838367Y-104006443D01*
X121832703Y-103983834D01*
X121829284Y-103960779D01*
X121828140Y-103937500D01*
X121828140Y-103362500D01*
X121829284Y-103339221D01*
X121832703Y-103316166D01*
X121838367Y-103293557D01*
X121846219Y-103271613D01*
X121856184Y-103250543D01*
X121868166Y-103230552D01*
X121882050Y-103211832D01*
X121897702Y-103194562D01*
X121914972Y-103178910D01*
X121933692Y-103165026D01*
X121953683Y-103153044D01*
X121974753Y-103143079D01*
X121996697Y-103135227D01*
X122019306Y-103129563D01*
X122042361Y-103126144D01*
X122065640Y-103125000D01*
X122540640Y-103125000D01*
X122563919Y-103126144D01*
X122563919Y-103126144D01*
G37*
D12*
X122303140Y-103650000D03*
D11*
G36*
X122563919Y-101376144D02*
X122586974Y-101379563D01*
X122609583Y-101385227D01*
X122631527Y-101393079D01*
X122652597Y-101403044D01*
X122672588Y-101415026D01*
X122691308Y-101428910D01*
X122708578Y-101444562D01*
X122724230Y-101461832D01*
X122738114Y-101480552D01*
X122750096Y-101500543D01*
X122760061Y-101521613D01*
X122767913Y-101543557D01*
X122773577Y-101566166D01*
X122776996Y-101589221D01*
X122778140Y-101612500D01*
X122778140Y-102187500D01*
X122776996Y-102210779D01*
X122773577Y-102233834D01*
X122767913Y-102256443D01*
X122760061Y-102278387D01*
X122750096Y-102299457D01*
X122738114Y-102319448D01*
X122724230Y-102338168D01*
X122708578Y-102355438D01*
X122691308Y-102371090D01*
X122672588Y-102384974D01*
X122652597Y-102396956D01*
X122631527Y-102406921D01*
X122609583Y-102414773D01*
X122586974Y-102420437D01*
X122563919Y-102423856D01*
X122540640Y-102425000D01*
X122065640Y-102425000D01*
X122042361Y-102423856D01*
X122019306Y-102420437D01*
X121996697Y-102414773D01*
X121974753Y-102406921D01*
X121953683Y-102396956D01*
X121933692Y-102384974D01*
X121914972Y-102371090D01*
X121897702Y-102355438D01*
X121882050Y-102338168D01*
X121868166Y-102319448D01*
X121856184Y-102299457D01*
X121846219Y-102278387D01*
X121838367Y-102256443D01*
X121832703Y-102233834D01*
X121829284Y-102210779D01*
X121828140Y-102187500D01*
X121828140Y-101612500D01*
X121829284Y-101589221D01*
X121832703Y-101566166D01*
X121838367Y-101543557D01*
X121846219Y-101521613D01*
X121856184Y-101500543D01*
X121868166Y-101480552D01*
X121882050Y-101461832D01*
X121897702Y-101444562D01*
X121914972Y-101428910D01*
X121933692Y-101415026D01*
X121953683Y-101403044D01*
X121974753Y-101393079D01*
X121996697Y-101385227D01*
X122019306Y-101379563D01*
X122042361Y-101376144D01*
X122065640Y-101375000D01*
X122540640Y-101375000D01*
X122563919Y-101376144D01*
X122563919Y-101376144D01*
G37*
D12*
X122303140Y-101900000D03*
G04 #@! TD*
D11*
G04 #@! TO.C,R7*
G36*
X125912679Y-87550284D02*
X125935734Y-87553703D01*
X125958343Y-87559367D01*
X125980287Y-87567219D01*
X126001357Y-87577184D01*
X126021348Y-87589166D01*
X126040068Y-87603050D01*
X126057338Y-87618702D01*
X126072990Y-87635972D01*
X126086874Y-87654692D01*
X126098856Y-87674683D01*
X126108821Y-87695753D01*
X126116673Y-87717697D01*
X126122337Y-87740306D01*
X126125756Y-87763361D01*
X126126900Y-87786640D01*
X126126900Y-88361640D01*
X126125756Y-88384919D01*
X126122337Y-88407974D01*
X126116673Y-88430583D01*
X126108821Y-88452527D01*
X126098856Y-88473597D01*
X126086874Y-88493588D01*
X126072990Y-88512308D01*
X126057338Y-88529578D01*
X126040068Y-88545230D01*
X126021348Y-88559114D01*
X126001357Y-88571096D01*
X125980287Y-88581061D01*
X125958343Y-88588913D01*
X125935734Y-88594577D01*
X125912679Y-88597996D01*
X125889400Y-88599140D01*
X125414400Y-88599140D01*
X125391121Y-88597996D01*
X125368066Y-88594577D01*
X125345457Y-88588913D01*
X125323513Y-88581061D01*
X125302443Y-88571096D01*
X125282452Y-88559114D01*
X125263732Y-88545230D01*
X125246462Y-88529578D01*
X125230810Y-88512308D01*
X125216926Y-88493588D01*
X125204944Y-88473597D01*
X125194979Y-88452527D01*
X125187127Y-88430583D01*
X125181463Y-88407974D01*
X125178044Y-88384919D01*
X125176900Y-88361640D01*
X125176900Y-87786640D01*
X125178044Y-87763361D01*
X125181463Y-87740306D01*
X125187127Y-87717697D01*
X125194979Y-87695753D01*
X125204944Y-87674683D01*
X125216926Y-87654692D01*
X125230810Y-87635972D01*
X125246462Y-87618702D01*
X125263732Y-87603050D01*
X125282452Y-87589166D01*
X125302443Y-87577184D01*
X125323513Y-87567219D01*
X125345457Y-87559367D01*
X125368066Y-87553703D01*
X125391121Y-87550284D01*
X125414400Y-87549140D01*
X125889400Y-87549140D01*
X125912679Y-87550284D01*
X125912679Y-87550284D01*
G37*
D12*
X125651900Y-88074140D03*
D11*
G36*
X125912679Y-85800284D02*
X125935734Y-85803703D01*
X125958343Y-85809367D01*
X125980287Y-85817219D01*
X126001357Y-85827184D01*
X126021348Y-85839166D01*
X126040068Y-85853050D01*
X126057338Y-85868702D01*
X126072990Y-85885972D01*
X126086874Y-85904692D01*
X126098856Y-85924683D01*
X126108821Y-85945753D01*
X126116673Y-85967697D01*
X126122337Y-85990306D01*
X126125756Y-86013361D01*
X126126900Y-86036640D01*
X126126900Y-86611640D01*
X126125756Y-86634919D01*
X126122337Y-86657974D01*
X126116673Y-86680583D01*
X126108821Y-86702527D01*
X126098856Y-86723597D01*
X126086874Y-86743588D01*
X126072990Y-86762308D01*
X126057338Y-86779578D01*
X126040068Y-86795230D01*
X126021348Y-86809114D01*
X126001357Y-86821096D01*
X125980287Y-86831061D01*
X125958343Y-86838913D01*
X125935734Y-86844577D01*
X125912679Y-86847996D01*
X125889400Y-86849140D01*
X125414400Y-86849140D01*
X125391121Y-86847996D01*
X125368066Y-86844577D01*
X125345457Y-86838913D01*
X125323513Y-86831061D01*
X125302443Y-86821096D01*
X125282452Y-86809114D01*
X125263732Y-86795230D01*
X125246462Y-86779578D01*
X125230810Y-86762308D01*
X125216926Y-86743588D01*
X125204944Y-86723597D01*
X125194979Y-86702527D01*
X125187127Y-86680583D01*
X125181463Y-86657974D01*
X125178044Y-86634919D01*
X125176900Y-86611640D01*
X125176900Y-86036640D01*
X125178044Y-86013361D01*
X125181463Y-85990306D01*
X125187127Y-85967697D01*
X125194979Y-85945753D01*
X125204944Y-85924683D01*
X125216926Y-85904692D01*
X125230810Y-85885972D01*
X125246462Y-85868702D01*
X125263732Y-85853050D01*
X125282452Y-85839166D01*
X125302443Y-85827184D01*
X125323513Y-85817219D01*
X125345457Y-85809367D01*
X125368066Y-85803703D01*
X125391121Y-85800284D01*
X125414400Y-85799140D01*
X125889400Y-85799140D01*
X125912679Y-85800284D01*
X125912679Y-85800284D01*
G37*
D12*
X125651900Y-86324140D03*
G04 #@! TD*
D11*
G04 #@! TO.C,R8*
G36*
X125912679Y-103126144D02*
X125935734Y-103129563D01*
X125958343Y-103135227D01*
X125980287Y-103143079D01*
X126001357Y-103153044D01*
X126021348Y-103165026D01*
X126040068Y-103178910D01*
X126057338Y-103194562D01*
X126072990Y-103211832D01*
X126086874Y-103230552D01*
X126098856Y-103250543D01*
X126108821Y-103271613D01*
X126116673Y-103293557D01*
X126122337Y-103316166D01*
X126125756Y-103339221D01*
X126126900Y-103362500D01*
X126126900Y-103937500D01*
X126125756Y-103960779D01*
X126122337Y-103983834D01*
X126116673Y-104006443D01*
X126108821Y-104028387D01*
X126098856Y-104049457D01*
X126086874Y-104069448D01*
X126072990Y-104088168D01*
X126057338Y-104105438D01*
X126040068Y-104121090D01*
X126021348Y-104134974D01*
X126001357Y-104146956D01*
X125980287Y-104156921D01*
X125958343Y-104164773D01*
X125935734Y-104170437D01*
X125912679Y-104173856D01*
X125889400Y-104175000D01*
X125414400Y-104175000D01*
X125391121Y-104173856D01*
X125368066Y-104170437D01*
X125345457Y-104164773D01*
X125323513Y-104156921D01*
X125302443Y-104146956D01*
X125282452Y-104134974D01*
X125263732Y-104121090D01*
X125246462Y-104105438D01*
X125230810Y-104088168D01*
X125216926Y-104069448D01*
X125204944Y-104049457D01*
X125194979Y-104028387D01*
X125187127Y-104006443D01*
X125181463Y-103983834D01*
X125178044Y-103960779D01*
X125176900Y-103937500D01*
X125176900Y-103362500D01*
X125178044Y-103339221D01*
X125181463Y-103316166D01*
X125187127Y-103293557D01*
X125194979Y-103271613D01*
X125204944Y-103250543D01*
X125216926Y-103230552D01*
X125230810Y-103211832D01*
X125246462Y-103194562D01*
X125263732Y-103178910D01*
X125282452Y-103165026D01*
X125302443Y-103153044D01*
X125323513Y-103143079D01*
X125345457Y-103135227D01*
X125368066Y-103129563D01*
X125391121Y-103126144D01*
X125414400Y-103125000D01*
X125889400Y-103125000D01*
X125912679Y-103126144D01*
X125912679Y-103126144D01*
G37*
D12*
X125651900Y-103650000D03*
D11*
G36*
X125912679Y-101376144D02*
X125935734Y-101379563D01*
X125958343Y-101385227D01*
X125980287Y-101393079D01*
X126001357Y-101403044D01*
X126021348Y-101415026D01*
X126040068Y-101428910D01*
X126057338Y-101444562D01*
X126072990Y-101461832D01*
X126086874Y-101480552D01*
X126098856Y-101500543D01*
X126108821Y-101521613D01*
X126116673Y-101543557D01*
X126122337Y-101566166D01*
X126125756Y-101589221D01*
X126126900Y-101612500D01*
X126126900Y-102187500D01*
X126125756Y-102210779D01*
X126122337Y-102233834D01*
X126116673Y-102256443D01*
X126108821Y-102278387D01*
X126098856Y-102299457D01*
X126086874Y-102319448D01*
X126072990Y-102338168D01*
X126057338Y-102355438D01*
X126040068Y-102371090D01*
X126021348Y-102384974D01*
X126001357Y-102396956D01*
X125980287Y-102406921D01*
X125958343Y-102414773D01*
X125935734Y-102420437D01*
X125912679Y-102423856D01*
X125889400Y-102425000D01*
X125414400Y-102425000D01*
X125391121Y-102423856D01*
X125368066Y-102420437D01*
X125345457Y-102414773D01*
X125323513Y-102406921D01*
X125302443Y-102396956D01*
X125282452Y-102384974D01*
X125263732Y-102371090D01*
X125246462Y-102355438D01*
X125230810Y-102338168D01*
X125216926Y-102319448D01*
X125204944Y-102299457D01*
X125194979Y-102278387D01*
X125187127Y-102256443D01*
X125181463Y-102233834D01*
X125178044Y-102210779D01*
X125176900Y-102187500D01*
X125176900Y-101612500D01*
X125178044Y-101589221D01*
X125181463Y-101566166D01*
X125187127Y-101543557D01*
X125194979Y-101521613D01*
X125204944Y-101500543D01*
X125216926Y-101480552D01*
X125230810Y-101461832D01*
X125246462Y-101444562D01*
X125263732Y-101428910D01*
X125282452Y-101415026D01*
X125302443Y-101403044D01*
X125323513Y-101393079D01*
X125345457Y-101385227D01*
X125368066Y-101379563D01*
X125391121Y-101376144D01*
X125414400Y-101375000D01*
X125889400Y-101375000D01*
X125912679Y-101376144D01*
X125912679Y-101376144D01*
G37*
D12*
X125651900Y-101900000D03*
G04 #@! TD*
D11*
G04 #@! TO.C,R9*
G36*
X130260779Y-87565884D02*
X130283834Y-87569303D01*
X130306443Y-87574967D01*
X130328387Y-87582819D01*
X130349457Y-87592784D01*
X130369448Y-87604766D01*
X130388168Y-87618650D01*
X130405438Y-87634302D01*
X130421090Y-87651572D01*
X130434974Y-87670292D01*
X130446956Y-87690283D01*
X130456921Y-87711353D01*
X130464773Y-87733297D01*
X130470437Y-87755906D01*
X130473856Y-87778961D01*
X130475000Y-87802240D01*
X130475000Y-88377240D01*
X130473856Y-88400519D01*
X130470437Y-88423574D01*
X130464773Y-88446183D01*
X130456921Y-88468127D01*
X130446956Y-88489197D01*
X130434974Y-88509188D01*
X130421090Y-88527908D01*
X130405438Y-88545178D01*
X130388168Y-88560830D01*
X130369448Y-88574714D01*
X130349457Y-88586696D01*
X130328387Y-88596661D01*
X130306443Y-88604513D01*
X130283834Y-88610177D01*
X130260779Y-88613596D01*
X130237500Y-88614740D01*
X129762500Y-88614740D01*
X129739221Y-88613596D01*
X129716166Y-88610177D01*
X129693557Y-88604513D01*
X129671613Y-88596661D01*
X129650543Y-88586696D01*
X129630552Y-88574714D01*
X129611832Y-88560830D01*
X129594562Y-88545178D01*
X129578910Y-88527908D01*
X129565026Y-88509188D01*
X129553044Y-88489197D01*
X129543079Y-88468127D01*
X129535227Y-88446183D01*
X129529563Y-88423574D01*
X129526144Y-88400519D01*
X129525000Y-88377240D01*
X129525000Y-87802240D01*
X129526144Y-87778961D01*
X129529563Y-87755906D01*
X129535227Y-87733297D01*
X129543079Y-87711353D01*
X129553044Y-87690283D01*
X129565026Y-87670292D01*
X129578910Y-87651572D01*
X129594562Y-87634302D01*
X129611832Y-87618650D01*
X129630552Y-87604766D01*
X129650543Y-87592784D01*
X129671613Y-87582819D01*
X129693557Y-87574967D01*
X129716166Y-87569303D01*
X129739221Y-87565884D01*
X129762500Y-87564740D01*
X130237500Y-87564740D01*
X130260779Y-87565884D01*
X130260779Y-87565884D01*
G37*
D12*
X130000000Y-88089740D03*
D11*
G36*
X130260779Y-85815884D02*
X130283834Y-85819303D01*
X130306443Y-85824967D01*
X130328387Y-85832819D01*
X130349457Y-85842784D01*
X130369448Y-85854766D01*
X130388168Y-85868650D01*
X130405438Y-85884302D01*
X130421090Y-85901572D01*
X130434974Y-85920292D01*
X130446956Y-85940283D01*
X130456921Y-85961353D01*
X130464773Y-85983297D01*
X130470437Y-86005906D01*
X130473856Y-86028961D01*
X130475000Y-86052240D01*
X130475000Y-86627240D01*
X130473856Y-86650519D01*
X130470437Y-86673574D01*
X130464773Y-86696183D01*
X130456921Y-86718127D01*
X130446956Y-86739197D01*
X130434974Y-86759188D01*
X130421090Y-86777908D01*
X130405438Y-86795178D01*
X130388168Y-86810830D01*
X130369448Y-86824714D01*
X130349457Y-86836696D01*
X130328387Y-86846661D01*
X130306443Y-86854513D01*
X130283834Y-86860177D01*
X130260779Y-86863596D01*
X130237500Y-86864740D01*
X129762500Y-86864740D01*
X129739221Y-86863596D01*
X129716166Y-86860177D01*
X129693557Y-86854513D01*
X129671613Y-86846661D01*
X129650543Y-86836696D01*
X129630552Y-86824714D01*
X129611832Y-86810830D01*
X129594562Y-86795178D01*
X129578910Y-86777908D01*
X129565026Y-86759188D01*
X129553044Y-86739197D01*
X129543079Y-86718127D01*
X129535227Y-86696183D01*
X129529563Y-86673574D01*
X129526144Y-86650519D01*
X129525000Y-86627240D01*
X129525000Y-86052240D01*
X129526144Y-86028961D01*
X129529563Y-86005906D01*
X129535227Y-85983297D01*
X129543079Y-85961353D01*
X129553044Y-85940283D01*
X129565026Y-85920292D01*
X129578910Y-85901572D01*
X129594562Y-85884302D01*
X129611832Y-85868650D01*
X129630552Y-85854766D01*
X129650543Y-85842784D01*
X129671613Y-85832819D01*
X129693557Y-85824967D01*
X129716166Y-85819303D01*
X129739221Y-85815884D01*
X129762500Y-85814740D01*
X130237500Y-85814740D01*
X130260779Y-85815884D01*
X130260779Y-85815884D01*
G37*
D12*
X130000000Y-86339740D03*
G04 #@! TD*
D11*
G04 #@! TO.C,R10*
G36*
X130260779Y-103126144D02*
X130283834Y-103129563D01*
X130306443Y-103135227D01*
X130328387Y-103143079D01*
X130349457Y-103153044D01*
X130369448Y-103165026D01*
X130388168Y-103178910D01*
X130405438Y-103194562D01*
X130421090Y-103211832D01*
X130434974Y-103230552D01*
X130446956Y-103250543D01*
X130456921Y-103271613D01*
X130464773Y-103293557D01*
X130470437Y-103316166D01*
X130473856Y-103339221D01*
X130475000Y-103362500D01*
X130475000Y-103937500D01*
X130473856Y-103960779D01*
X130470437Y-103983834D01*
X130464773Y-104006443D01*
X130456921Y-104028387D01*
X130446956Y-104049457D01*
X130434974Y-104069448D01*
X130421090Y-104088168D01*
X130405438Y-104105438D01*
X130388168Y-104121090D01*
X130369448Y-104134974D01*
X130349457Y-104146956D01*
X130328387Y-104156921D01*
X130306443Y-104164773D01*
X130283834Y-104170437D01*
X130260779Y-104173856D01*
X130237500Y-104175000D01*
X129762500Y-104175000D01*
X129739221Y-104173856D01*
X129716166Y-104170437D01*
X129693557Y-104164773D01*
X129671613Y-104156921D01*
X129650543Y-104146956D01*
X129630552Y-104134974D01*
X129611832Y-104121090D01*
X129594562Y-104105438D01*
X129578910Y-104088168D01*
X129565026Y-104069448D01*
X129553044Y-104049457D01*
X129543079Y-104028387D01*
X129535227Y-104006443D01*
X129529563Y-103983834D01*
X129526144Y-103960779D01*
X129525000Y-103937500D01*
X129525000Y-103362500D01*
X129526144Y-103339221D01*
X129529563Y-103316166D01*
X129535227Y-103293557D01*
X129543079Y-103271613D01*
X129553044Y-103250543D01*
X129565026Y-103230552D01*
X129578910Y-103211832D01*
X129594562Y-103194562D01*
X129611832Y-103178910D01*
X129630552Y-103165026D01*
X129650543Y-103153044D01*
X129671613Y-103143079D01*
X129693557Y-103135227D01*
X129716166Y-103129563D01*
X129739221Y-103126144D01*
X129762500Y-103125000D01*
X130237500Y-103125000D01*
X130260779Y-103126144D01*
X130260779Y-103126144D01*
G37*
D12*
X130000000Y-103650000D03*
D11*
G36*
X130260779Y-101376144D02*
X130283834Y-101379563D01*
X130306443Y-101385227D01*
X130328387Y-101393079D01*
X130349457Y-101403044D01*
X130369448Y-101415026D01*
X130388168Y-101428910D01*
X130405438Y-101444562D01*
X130421090Y-101461832D01*
X130434974Y-101480552D01*
X130446956Y-101500543D01*
X130456921Y-101521613D01*
X130464773Y-101543557D01*
X130470437Y-101566166D01*
X130473856Y-101589221D01*
X130475000Y-101612500D01*
X130475000Y-102187500D01*
X130473856Y-102210779D01*
X130470437Y-102233834D01*
X130464773Y-102256443D01*
X130456921Y-102278387D01*
X130446956Y-102299457D01*
X130434974Y-102319448D01*
X130421090Y-102338168D01*
X130405438Y-102355438D01*
X130388168Y-102371090D01*
X130369448Y-102384974D01*
X130349457Y-102396956D01*
X130328387Y-102406921D01*
X130306443Y-102414773D01*
X130283834Y-102420437D01*
X130260779Y-102423856D01*
X130237500Y-102425000D01*
X129762500Y-102425000D01*
X129739221Y-102423856D01*
X129716166Y-102420437D01*
X129693557Y-102414773D01*
X129671613Y-102406921D01*
X129650543Y-102396956D01*
X129630552Y-102384974D01*
X129611832Y-102371090D01*
X129594562Y-102355438D01*
X129578910Y-102338168D01*
X129565026Y-102319448D01*
X129553044Y-102299457D01*
X129543079Y-102278387D01*
X129535227Y-102256443D01*
X129529563Y-102233834D01*
X129526144Y-102210779D01*
X129525000Y-102187500D01*
X129525000Y-101612500D01*
X129526144Y-101589221D01*
X129529563Y-101566166D01*
X129535227Y-101543557D01*
X129543079Y-101521613D01*
X129553044Y-101500543D01*
X129565026Y-101480552D01*
X129578910Y-101461832D01*
X129594562Y-101444562D01*
X129611832Y-101428910D01*
X129630552Y-101415026D01*
X129650543Y-101403044D01*
X129671613Y-101393079D01*
X129693557Y-101385227D01*
X129716166Y-101379563D01*
X129739221Y-101376144D01*
X129762500Y-101375000D01*
X130237500Y-101375000D01*
X130260779Y-101376144D01*
X130260779Y-101376144D01*
G37*
D12*
X130000000Y-101900000D03*
G04 #@! TD*
D11*
G04 #@! TO.C,R11*
G36*
X131927445Y-87565884D02*
X131950500Y-87569303D01*
X131973109Y-87574967D01*
X131995053Y-87582819D01*
X132016123Y-87592784D01*
X132036114Y-87604766D01*
X132054834Y-87618650D01*
X132072104Y-87634302D01*
X132087756Y-87651572D01*
X132101640Y-87670292D01*
X132113622Y-87690283D01*
X132123587Y-87711353D01*
X132131439Y-87733297D01*
X132137103Y-87755906D01*
X132140522Y-87778961D01*
X132141666Y-87802240D01*
X132141666Y-88377240D01*
X132140522Y-88400519D01*
X132137103Y-88423574D01*
X132131439Y-88446183D01*
X132123587Y-88468127D01*
X132113622Y-88489197D01*
X132101640Y-88509188D01*
X132087756Y-88527908D01*
X132072104Y-88545178D01*
X132054834Y-88560830D01*
X132036114Y-88574714D01*
X132016123Y-88586696D01*
X131995053Y-88596661D01*
X131973109Y-88604513D01*
X131950500Y-88610177D01*
X131927445Y-88613596D01*
X131904166Y-88614740D01*
X131429166Y-88614740D01*
X131405887Y-88613596D01*
X131382832Y-88610177D01*
X131360223Y-88604513D01*
X131338279Y-88596661D01*
X131317209Y-88586696D01*
X131297218Y-88574714D01*
X131278498Y-88560830D01*
X131261228Y-88545178D01*
X131245576Y-88527908D01*
X131231692Y-88509188D01*
X131219710Y-88489197D01*
X131209745Y-88468127D01*
X131201893Y-88446183D01*
X131196229Y-88423574D01*
X131192810Y-88400519D01*
X131191666Y-88377240D01*
X131191666Y-87802240D01*
X131192810Y-87778961D01*
X131196229Y-87755906D01*
X131201893Y-87733297D01*
X131209745Y-87711353D01*
X131219710Y-87690283D01*
X131231692Y-87670292D01*
X131245576Y-87651572D01*
X131261228Y-87634302D01*
X131278498Y-87618650D01*
X131297218Y-87604766D01*
X131317209Y-87592784D01*
X131338279Y-87582819D01*
X131360223Y-87574967D01*
X131382832Y-87569303D01*
X131405887Y-87565884D01*
X131429166Y-87564740D01*
X131904166Y-87564740D01*
X131927445Y-87565884D01*
X131927445Y-87565884D01*
G37*
D12*
X131666666Y-88089740D03*
D11*
G36*
X131927445Y-85815884D02*
X131950500Y-85819303D01*
X131973109Y-85824967D01*
X131995053Y-85832819D01*
X132016123Y-85842784D01*
X132036114Y-85854766D01*
X132054834Y-85868650D01*
X132072104Y-85884302D01*
X132087756Y-85901572D01*
X132101640Y-85920292D01*
X132113622Y-85940283D01*
X132123587Y-85961353D01*
X132131439Y-85983297D01*
X132137103Y-86005906D01*
X132140522Y-86028961D01*
X132141666Y-86052240D01*
X132141666Y-86627240D01*
X132140522Y-86650519D01*
X132137103Y-86673574D01*
X132131439Y-86696183D01*
X132123587Y-86718127D01*
X132113622Y-86739197D01*
X132101640Y-86759188D01*
X132087756Y-86777908D01*
X132072104Y-86795178D01*
X132054834Y-86810830D01*
X132036114Y-86824714D01*
X132016123Y-86836696D01*
X131995053Y-86846661D01*
X131973109Y-86854513D01*
X131950500Y-86860177D01*
X131927445Y-86863596D01*
X131904166Y-86864740D01*
X131429166Y-86864740D01*
X131405887Y-86863596D01*
X131382832Y-86860177D01*
X131360223Y-86854513D01*
X131338279Y-86846661D01*
X131317209Y-86836696D01*
X131297218Y-86824714D01*
X131278498Y-86810830D01*
X131261228Y-86795178D01*
X131245576Y-86777908D01*
X131231692Y-86759188D01*
X131219710Y-86739197D01*
X131209745Y-86718127D01*
X131201893Y-86696183D01*
X131196229Y-86673574D01*
X131192810Y-86650519D01*
X131191666Y-86627240D01*
X131191666Y-86052240D01*
X131192810Y-86028961D01*
X131196229Y-86005906D01*
X131201893Y-85983297D01*
X131209745Y-85961353D01*
X131219710Y-85940283D01*
X131231692Y-85920292D01*
X131245576Y-85901572D01*
X131261228Y-85884302D01*
X131278498Y-85868650D01*
X131297218Y-85854766D01*
X131317209Y-85842784D01*
X131338279Y-85832819D01*
X131360223Y-85824967D01*
X131382832Y-85819303D01*
X131405887Y-85815884D01*
X131429166Y-85814740D01*
X131904166Y-85814740D01*
X131927445Y-85815884D01*
X131927445Y-85815884D01*
G37*
D12*
X131666666Y-86339740D03*
G04 #@! TD*
D11*
G04 #@! TO.C,R12*
G36*
X133594111Y-87565884D02*
X133617166Y-87569303D01*
X133639775Y-87574967D01*
X133661719Y-87582819D01*
X133682789Y-87592784D01*
X133702780Y-87604766D01*
X133721500Y-87618650D01*
X133738770Y-87634302D01*
X133754422Y-87651572D01*
X133768306Y-87670292D01*
X133780288Y-87690283D01*
X133790253Y-87711353D01*
X133798105Y-87733297D01*
X133803769Y-87755906D01*
X133807188Y-87778961D01*
X133808332Y-87802240D01*
X133808332Y-88377240D01*
X133807188Y-88400519D01*
X133803769Y-88423574D01*
X133798105Y-88446183D01*
X133790253Y-88468127D01*
X133780288Y-88489197D01*
X133768306Y-88509188D01*
X133754422Y-88527908D01*
X133738770Y-88545178D01*
X133721500Y-88560830D01*
X133702780Y-88574714D01*
X133682789Y-88586696D01*
X133661719Y-88596661D01*
X133639775Y-88604513D01*
X133617166Y-88610177D01*
X133594111Y-88613596D01*
X133570832Y-88614740D01*
X133095832Y-88614740D01*
X133072553Y-88613596D01*
X133049498Y-88610177D01*
X133026889Y-88604513D01*
X133004945Y-88596661D01*
X132983875Y-88586696D01*
X132963884Y-88574714D01*
X132945164Y-88560830D01*
X132927894Y-88545178D01*
X132912242Y-88527908D01*
X132898358Y-88509188D01*
X132886376Y-88489197D01*
X132876411Y-88468127D01*
X132868559Y-88446183D01*
X132862895Y-88423574D01*
X132859476Y-88400519D01*
X132858332Y-88377240D01*
X132858332Y-87802240D01*
X132859476Y-87778961D01*
X132862895Y-87755906D01*
X132868559Y-87733297D01*
X132876411Y-87711353D01*
X132886376Y-87690283D01*
X132898358Y-87670292D01*
X132912242Y-87651572D01*
X132927894Y-87634302D01*
X132945164Y-87618650D01*
X132963884Y-87604766D01*
X132983875Y-87592784D01*
X133004945Y-87582819D01*
X133026889Y-87574967D01*
X133049498Y-87569303D01*
X133072553Y-87565884D01*
X133095832Y-87564740D01*
X133570832Y-87564740D01*
X133594111Y-87565884D01*
X133594111Y-87565884D01*
G37*
D12*
X133333332Y-88089740D03*
D11*
G36*
X133594111Y-85815884D02*
X133617166Y-85819303D01*
X133639775Y-85824967D01*
X133661719Y-85832819D01*
X133682789Y-85842784D01*
X133702780Y-85854766D01*
X133721500Y-85868650D01*
X133738770Y-85884302D01*
X133754422Y-85901572D01*
X133768306Y-85920292D01*
X133780288Y-85940283D01*
X133790253Y-85961353D01*
X133798105Y-85983297D01*
X133803769Y-86005906D01*
X133807188Y-86028961D01*
X133808332Y-86052240D01*
X133808332Y-86627240D01*
X133807188Y-86650519D01*
X133803769Y-86673574D01*
X133798105Y-86696183D01*
X133790253Y-86718127D01*
X133780288Y-86739197D01*
X133768306Y-86759188D01*
X133754422Y-86777908D01*
X133738770Y-86795178D01*
X133721500Y-86810830D01*
X133702780Y-86824714D01*
X133682789Y-86836696D01*
X133661719Y-86846661D01*
X133639775Y-86854513D01*
X133617166Y-86860177D01*
X133594111Y-86863596D01*
X133570832Y-86864740D01*
X133095832Y-86864740D01*
X133072553Y-86863596D01*
X133049498Y-86860177D01*
X133026889Y-86854513D01*
X133004945Y-86846661D01*
X132983875Y-86836696D01*
X132963884Y-86824714D01*
X132945164Y-86810830D01*
X132927894Y-86795178D01*
X132912242Y-86777908D01*
X132898358Y-86759188D01*
X132886376Y-86739197D01*
X132876411Y-86718127D01*
X132868559Y-86696183D01*
X132862895Y-86673574D01*
X132859476Y-86650519D01*
X132858332Y-86627240D01*
X132858332Y-86052240D01*
X132859476Y-86028961D01*
X132862895Y-86005906D01*
X132868559Y-85983297D01*
X132876411Y-85961353D01*
X132886376Y-85940283D01*
X132898358Y-85920292D01*
X132912242Y-85901572D01*
X132927894Y-85884302D01*
X132945164Y-85868650D01*
X132963884Y-85854766D01*
X132983875Y-85842784D01*
X133004945Y-85832819D01*
X133026889Y-85824967D01*
X133049498Y-85819303D01*
X133072553Y-85815884D01*
X133095832Y-85814740D01*
X133570832Y-85814740D01*
X133594111Y-85815884D01*
X133594111Y-85815884D01*
G37*
D12*
X133333332Y-86339740D03*
G04 #@! TD*
D11*
G04 #@! TO.C,R13*
G36*
X131927445Y-103126144D02*
X131950500Y-103129563D01*
X131973109Y-103135227D01*
X131995053Y-103143079D01*
X132016123Y-103153044D01*
X132036114Y-103165026D01*
X132054834Y-103178910D01*
X132072104Y-103194562D01*
X132087756Y-103211832D01*
X132101640Y-103230552D01*
X132113622Y-103250543D01*
X132123587Y-103271613D01*
X132131439Y-103293557D01*
X132137103Y-103316166D01*
X132140522Y-103339221D01*
X132141666Y-103362500D01*
X132141666Y-103937500D01*
X132140522Y-103960779D01*
X132137103Y-103983834D01*
X132131439Y-104006443D01*
X132123587Y-104028387D01*
X132113622Y-104049457D01*
X132101640Y-104069448D01*
X132087756Y-104088168D01*
X132072104Y-104105438D01*
X132054834Y-104121090D01*
X132036114Y-104134974D01*
X132016123Y-104146956D01*
X131995053Y-104156921D01*
X131973109Y-104164773D01*
X131950500Y-104170437D01*
X131927445Y-104173856D01*
X131904166Y-104175000D01*
X131429166Y-104175000D01*
X131405887Y-104173856D01*
X131382832Y-104170437D01*
X131360223Y-104164773D01*
X131338279Y-104156921D01*
X131317209Y-104146956D01*
X131297218Y-104134974D01*
X131278498Y-104121090D01*
X131261228Y-104105438D01*
X131245576Y-104088168D01*
X131231692Y-104069448D01*
X131219710Y-104049457D01*
X131209745Y-104028387D01*
X131201893Y-104006443D01*
X131196229Y-103983834D01*
X131192810Y-103960779D01*
X131191666Y-103937500D01*
X131191666Y-103362500D01*
X131192810Y-103339221D01*
X131196229Y-103316166D01*
X131201893Y-103293557D01*
X131209745Y-103271613D01*
X131219710Y-103250543D01*
X131231692Y-103230552D01*
X131245576Y-103211832D01*
X131261228Y-103194562D01*
X131278498Y-103178910D01*
X131297218Y-103165026D01*
X131317209Y-103153044D01*
X131338279Y-103143079D01*
X131360223Y-103135227D01*
X131382832Y-103129563D01*
X131405887Y-103126144D01*
X131429166Y-103125000D01*
X131904166Y-103125000D01*
X131927445Y-103126144D01*
X131927445Y-103126144D01*
G37*
D12*
X131666666Y-103650000D03*
D11*
G36*
X131927445Y-101376144D02*
X131950500Y-101379563D01*
X131973109Y-101385227D01*
X131995053Y-101393079D01*
X132016123Y-101403044D01*
X132036114Y-101415026D01*
X132054834Y-101428910D01*
X132072104Y-101444562D01*
X132087756Y-101461832D01*
X132101640Y-101480552D01*
X132113622Y-101500543D01*
X132123587Y-101521613D01*
X132131439Y-101543557D01*
X132137103Y-101566166D01*
X132140522Y-101589221D01*
X132141666Y-101612500D01*
X132141666Y-102187500D01*
X132140522Y-102210779D01*
X132137103Y-102233834D01*
X132131439Y-102256443D01*
X132123587Y-102278387D01*
X132113622Y-102299457D01*
X132101640Y-102319448D01*
X132087756Y-102338168D01*
X132072104Y-102355438D01*
X132054834Y-102371090D01*
X132036114Y-102384974D01*
X132016123Y-102396956D01*
X131995053Y-102406921D01*
X131973109Y-102414773D01*
X131950500Y-102420437D01*
X131927445Y-102423856D01*
X131904166Y-102425000D01*
X131429166Y-102425000D01*
X131405887Y-102423856D01*
X131382832Y-102420437D01*
X131360223Y-102414773D01*
X131338279Y-102406921D01*
X131317209Y-102396956D01*
X131297218Y-102384974D01*
X131278498Y-102371090D01*
X131261228Y-102355438D01*
X131245576Y-102338168D01*
X131231692Y-102319448D01*
X131219710Y-102299457D01*
X131209745Y-102278387D01*
X131201893Y-102256443D01*
X131196229Y-102233834D01*
X131192810Y-102210779D01*
X131191666Y-102187500D01*
X131191666Y-101612500D01*
X131192810Y-101589221D01*
X131196229Y-101566166D01*
X131201893Y-101543557D01*
X131209745Y-101521613D01*
X131219710Y-101500543D01*
X131231692Y-101480552D01*
X131245576Y-101461832D01*
X131261228Y-101444562D01*
X131278498Y-101428910D01*
X131297218Y-101415026D01*
X131317209Y-101403044D01*
X131338279Y-101393079D01*
X131360223Y-101385227D01*
X131382832Y-101379563D01*
X131405887Y-101376144D01*
X131429166Y-101375000D01*
X131904166Y-101375000D01*
X131927445Y-101376144D01*
X131927445Y-101376144D01*
G37*
D12*
X131666666Y-101900000D03*
G04 #@! TD*
D11*
G04 #@! TO.C,R14*
G36*
X133594111Y-103126144D02*
X133617166Y-103129563D01*
X133639775Y-103135227D01*
X133661719Y-103143079D01*
X133682789Y-103153044D01*
X133702780Y-103165026D01*
X133721500Y-103178910D01*
X133738770Y-103194562D01*
X133754422Y-103211832D01*
X133768306Y-103230552D01*
X133780288Y-103250543D01*
X133790253Y-103271613D01*
X133798105Y-103293557D01*
X133803769Y-103316166D01*
X133807188Y-103339221D01*
X133808332Y-103362500D01*
X133808332Y-103937500D01*
X133807188Y-103960779D01*
X133803769Y-103983834D01*
X133798105Y-104006443D01*
X133790253Y-104028387D01*
X133780288Y-104049457D01*
X133768306Y-104069448D01*
X133754422Y-104088168D01*
X133738770Y-104105438D01*
X133721500Y-104121090D01*
X133702780Y-104134974D01*
X133682789Y-104146956D01*
X133661719Y-104156921D01*
X133639775Y-104164773D01*
X133617166Y-104170437D01*
X133594111Y-104173856D01*
X133570832Y-104175000D01*
X133095832Y-104175000D01*
X133072553Y-104173856D01*
X133049498Y-104170437D01*
X133026889Y-104164773D01*
X133004945Y-104156921D01*
X132983875Y-104146956D01*
X132963884Y-104134974D01*
X132945164Y-104121090D01*
X132927894Y-104105438D01*
X132912242Y-104088168D01*
X132898358Y-104069448D01*
X132886376Y-104049457D01*
X132876411Y-104028387D01*
X132868559Y-104006443D01*
X132862895Y-103983834D01*
X132859476Y-103960779D01*
X132858332Y-103937500D01*
X132858332Y-103362500D01*
X132859476Y-103339221D01*
X132862895Y-103316166D01*
X132868559Y-103293557D01*
X132876411Y-103271613D01*
X132886376Y-103250543D01*
X132898358Y-103230552D01*
X132912242Y-103211832D01*
X132927894Y-103194562D01*
X132945164Y-103178910D01*
X132963884Y-103165026D01*
X132983875Y-103153044D01*
X133004945Y-103143079D01*
X133026889Y-103135227D01*
X133049498Y-103129563D01*
X133072553Y-103126144D01*
X133095832Y-103125000D01*
X133570832Y-103125000D01*
X133594111Y-103126144D01*
X133594111Y-103126144D01*
G37*
D12*
X133333332Y-103650000D03*
D11*
G36*
X133594111Y-101376144D02*
X133617166Y-101379563D01*
X133639775Y-101385227D01*
X133661719Y-101393079D01*
X133682789Y-101403044D01*
X133702780Y-101415026D01*
X133721500Y-101428910D01*
X133738770Y-101444562D01*
X133754422Y-101461832D01*
X133768306Y-101480552D01*
X133780288Y-101500543D01*
X133790253Y-101521613D01*
X133798105Y-101543557D01*
X133803769Y-101566166D01*
X133807188Y-101589221D01*
X133808332Y-101612500D01*
X133808332Y-102187500D01*
X133807188Y-102210779D01*
X133803769Y-102233834D01*
X133798105Y-102256443D01*
X133790253Y-102278387D01*
X133780288Y-102299457D01*
X133768306Y-102319448D01*
X133754422Y-102338168D01*
X133738770Y-102355438D01*
X133721500Y-102371090D01*
X133702780Y-102384974D01*
X133682789Y-102396956D01*
X133661719Y-102406921D01*
X133639775Y-102414773D01*
X133617166Y-102420437D01*
X133594111Y-102423856D01*
X133570832Y-102425000D01*
X133095832Y-102425000D01*
X133072553Y-102423856D01*
X133049498Y-102420437D01*
X133026889Y-102414773D01*
X133004945Y-102406921D01*
X132983875Y-102396956D01*
X132963884Y-102384974D01*
X132945164Y-102371090D01*
X132927894Y-102355438D01*
X132912242Y-102338168D01*
X132898358Y-102319448D01*
X132886376Y-102299457D01*
X132876411Y-102278387D01*
X132868559Y-102256443D01*
X132862895Y-102233834D01*
X132859476Y-102210779D01*
X132858332Y-102187500D01*
X132858332Y-101612500D01*
X132859476Y-101589221D01*
X132862895Y-101566166D01*
X132868559Y-101543557D01*
X132876411Y-101521613D01*
X132886376Y-101500543D01*
X132898358Y-101480552D01*
X132912242Y-101461832D01*
X132927894Y-101444562D01*
X132945164Y-101428910D01*
X132963884Y-101415026D01*
X132983875Y-101403044D01*
X133004945Y-101393079D01*
X133026889Y-101385227D01*
X133049498Y-101379563D01*
X133072553Y-101376144D01*
X133095832Y-101375000D01*
X133570832Y-101375000D01*
X133594111Y-101376144D01*
X133594111Y-101376144D01*
G37*
D12*
X133333332Y-101900000D03*
G04 #@! TD*
D11*
G04 #@! TO.C,R15*
G36*
X140260779Y-85815884D02*
X140283834Y-85819303D01*
X140306443Y-85824967D01*
X140328387Y-85832819D01*
X140349457Y-85842784D01*
X140369448Y-85854766D01*
X140388168Y-85868650D01*
X140405438Y-85884302D01*
X140421090Y-85901572D01*
X140434974Y-85920292D01*
X140446956Y-85940283D01*
X140456921Y-85961353D01*
X140464773Y-85983297D01*
X140470437Y-86005906D01*
X140473856Y-86028961D01*
X140475000Y-86052240D01*
X140475000Y-86627240D01*
X140473856Y-86650519D01*
X140470437Y-86673574D01*
X140464773Y-86696183D01*
X140456921Y-86718127D01*
X140446956Y-86739197D01*
X140434974Y-86759188D01*
X140421090Y-86777908D01*
X140405438Y-86795178D01*
X140388168Y-86810830D01*
X140369448Y-86824714D01*
X140349457Y-86836696D01*
X140328387Y-86846661D01*
X140306443Y-86854513D01*
X140283834Y-86860177D01*
X140260779Y-86863596D01*
X140237500Y-86864740D01*
X139762500Y-86864740D01*
X139739221Y-86863596D01*
X139716166Y-86860177D01*
X139693557Y-86854513D01*
X139671613Y-86846661D01*
X139650543Y-86836696D01*
X139630552Y-86824714D01*
X139611832Y-86810830D01*
X139594562Y-86795178D01*
X139578910Y-86777908D01*
X139565026Y-86759188D01*
X139553044Y-86739197D01*
X139543079Y-86718127D01*
X139535227Y-86696183D01*
X139529563Y-86673574D01*
X139526144Y-86650519D01*
X139525000Y-86627240D01*
X139525000Y-86052240D01*
X139526144Y-86028961D01*
X139529563Y-86005906D01*
X139535227Y-85983297D01*
X139543079Y-85961353D01*
X139553044Y-85940283D01*
X139565026Y-85920292D01*
X139578910Y-85901572D01*
X139594562Y-85884302D01*
X139611832Y-85868650D01*
X139630552Y-85854766D01*
X139650543Y-85842784D01*
X139671613Y-85832819D01*
X139693557Y-85824967D01*
X139716166Y-85819303D01*
X139739221Y-85815884D01*
X139762500Y-85814740D01*
X140237500Y-85814740D01*
X140260779Y-85815884D01*
X140260779Y-85815884D01*
G37*
D12*
X140000000Y-86339740D03*
D11*
G36*
X140260779Y-87565884D02*
X140283834Y-87569303D01*
X140306443Y-87574967D01*
X140328387Y-87582819D01*
X140349457Y-87592784D01*
X140369448Y-87604766D01*
X140388168Y-87618650D01*
X140405438Y-87634302D01*
X140421090Y-87651572D01*
X140434974Y-87670292D01*
X140446956Y-87690283D01*
X140456921Y-87711353D01*
X140464773Y-87733297D01*
X140470437Y-87755906D01*
X140473856Y-87778961D01*
X140475000Y-87802240D01*
X140475000Y-88377240D01*
X140473856Y-88400519D01*
X140470437Y-88423574D01*
X140464773Y-88446183D01*
X140456921Y-88468127D01*
X140446956Y-88489197D01*
X140434974Y-88509188D01*
X140421090Y-88527908D01*
X140405438Y-88545178D01*
X140388168Y-88560830D01*
X140369448Y-88574714D01*
X140349457Y-88586696D01*
X140328387Y-88596661D01*
X140306443Y-88604513D01*
X140283834Y-88610177D01*
X140260779Y-88613596D01*
X140237500Y-88614740D01*
X139762500Y-88614740D01*
X139739221Y-88613596D01*
X139716166Y-88610177D01*
X139693557Y-88604513D01*
X139671613Y-88596661D01*
X139650543Y-88586696D01*
X139630552Y-88574714D01*
X139611832Y-88560830D01*
X139594562Y-88545178D01*
X139578910Y-88527908D01*
X139565026Y-88509188D01*
X139553044Y-88489197D01*
X139543079Y-88468127D01*
X139535227Y-88446183D01*
X139529563Y-88423574D01*
X139526144Y-88400519D01*
X139525000Y-88377240D01*
X139525000Y-87802240D01*
X139526144Y-87778961D01*
X139529563Y-87755906D01*
X139535227Y-87733297D01*
X139543079Y-87711353D01*
X139553044Y-87690283D01*
X139565026Y-87670292D01*
X139578910Y-87651572D01*
X139594562Y-87634302D01*
X139611832Y-87618650D01*
X139630552Y-87604766D01*
X139650543Y-87592784D01*
X139671613Y-87582819D01*
X139693557Y-87574967D01*
X139716166Y-87569303D01*
X139739221Y-87565884D01*
X139762500Y-87564740D01*
X140237500Y-87564740D01*
X140260779Y-87565884D01*
X140260779Y-87565884D01*
G37*
D12*
X140000000Y-88089740D03*
G04 #@! TD*
D11*
G04 #@! TO.C,R17*
G36*
X138594109Y-87565884D02*
X138617164Y-87569303D01*
X138639773Y-87574967D01*
X138661717Y-87582819D01*
X138682787Y-87592784D01*
X138702778Y-87604766D01*
X138721498Y-87618650D01*
X138738768Y-87634302D01*
X138754420Y-87651572D01*
X138768304Y-87670292D01*
X138780286Y-87690283D01*
X138790251Y-87711353D01*
X138798103Y-87733297D01*
X138803767Y-87755906D01*
X138807186Y-87778961D01*
X138808330Y-87802240D01*
X138808330Y-88377240D01*
X138807186Y-88400519D01*
X138803767Y-88423574D01*
X138798103Y-88446183D01*
X138790251Y-88468127D01*
X138780286Y-88489197D01*
X138768304Y-88509188D01*
X138754420Y-88527908D01*
X138738768Y-88545178D01*
X138721498Y-88560830D01*
X138702778Y-88574714D01*
X138682787Y-88586696D01*
X138661717Y-88596661D01*
X138639773Y-88604513D01*
X138617164Y-88610177D01*
X138594109Y-88613596D01*
X138570830Y-88614740D01*
X138095830Y-88614740D01*
X138072551Y-88613596D01*
X138049496Y-88610177D01*
X138026887Y-88604513D01*
X138004943Y-88596661D01*
X137983873Y-88586696D01*
X137963882Y-88574714D01*
X137945162Y-88560830D01*
X137927892Y-88545178D01*
X137912240Y-88527908D01*
X137898356Y-88509188D01*
X137886374Y-88489197D01*
X137876409Y-88468127D01*
X137868557Y-88446183D01*
X137862893Y-88423574D01*
X137859474Y-88400519D01*
X137858330Y-88377240D01*
X137858330Y-87802240D01*
X137859474Y-87778961D01*
X137862893Y-87755906D01*
X137868557Y-87733297D01*
X137876409Y-87711353D01*
X137886374Y-87690283D01*
X137898356Y-87670292D01*
X137912240Y-87651572D01*
X137927892Y-87634302D01*
X137945162Y-87618650D01*
X137963882Y-87604766D01*
X137983873Y-87592784D01*
X138004943Y-87582819D01*
X138026887Y-87574967D01*
X138049496Y-87569303D01*
X138072551Y-87565884D01*
X138095830Y-87564740D01*
X138570830Y-87564740D01*
X138594109Y-87565884D01*
X138594109Y-87565884D01*
G37*
D12*
X138333330Y-88089740D03*
D11*
G36*
X138594109Y-85815884D02*
X138617164Y-85819303D01*
X138639773Y-85824967D01*
X138661717Y-85832819D01*
X138682787Y-85842784D01*
X138702778Y-85854766D01*
X138721498Y-85868650D01*
X138738768Y-85884302D01*
X138754420Y-85901572D01*
X138768304Y-85920292D01*
X138780286Y-85940283D01*
X138790251Y-85961353D01*
X138798103Y-85983297D01*
X138803767Y-86005906D01*
X138807186Y-86028961D01*
X138808330Y-86052240D01*
X138808330Y-86627240D01*
X138807186Y-86650519D01*
X138803767Y-86673574D01*
X138798103Y-86696183D01*
X138790251Y-86718127D01*
X138780286Y-86739197D01*
X138768304Y-86759188D01*
X138754420Y-86777908D01*
X138738768Y-86795178D01*
X138721498Y-86810830D01*
X138702778Y-86824714D01*
X138682787Y-86836696D01*
X138661717Y-86846661D01*
X138639773Y-86854513D01*
X138617164Y-86860177D01*
X138594109Y-86863596D01*
X138570830Y-86864740D01*
X138095830Y-86864740D01*
X138072551Y-86863596D01*
X138049496Y-86860177D01*
X138026887Y-86854513D01*
X138004943Y-86846661D01*
X137983873Y-86836696D01*
X137963882Y-86824714D01*
X137945162Y-86810830D01*
X137927892Y-86795178D01*
X137912240Y-86777908D01*
X137898356Y-86759188D01*
X137886374Y-86739197D01*
X137876409Y-86718127D01*
X137868557Y-86696183D01*
X137862893Y-86673574D01*
X137859474Y-86650519D01*
X137858330Y-86627240D01*
X137858330Y-86052240D01*
X137859474Y-86028961D01*
X137862893Y-86005906D01*
X137868557Y-85983297D01*
X137876409Y-85961353D01*
X137886374Y-85940283D01*
X137898356Y-85920292D01*
X137912240Y-85901572D01*
X137927892Y-85884302D01*
X137945162Y-85868650D01*
X137963882Y-85854766D01*
X137983873Y-85842784D01*
X138004943Y-85832819D01*
X138026887Y-85824967D01*
X138049496Y-85819303D01*
X138072551Y-85815884D01*
X138095830Y-85814740D01*
X138570830Y-85814740D01*
X138594109Y-85815884D01*
X138594109Y-85815884D01*
G37*
D12*
X138333330Y-86339740D03*
G04 #@! TD*
D11*
G04 #@! TO.C,R18*
G36*
X138594109Y-103126144D02*
X138617164Y-103129563D01*
X138639773Y-103135227D01*
X138661717Y-103143079D01*
X138682787Y-103153044D01*
X138702778Y-103165026D01*
X138721498Y-103178910D01*
X138738768Y-103194562D01*
X138754420Y-103211832D01*
X138768304Y-103230552D01*
X138780286Y-103250543D01*
X138790251Y-103271613D01*
X138798103Y-103293557D01*
X138803767Y-103316166D01*
X138807186Y-103339221D01*
X138808330Y-103362500D01*
X138808330Y-103937500D01*
X138807186Y-103960779D01*
X138803767Y-103983834D01*
X138798103Y-104006443D01*
X138790251Y-104028387D01*
X138780286Y-104049457D01*
X138768304Y-104069448D01*
X138754420Y-104088168D01*
X138738768Y-104105438D01*
X138721498Y-104121090D01*
X138702778Y-104134974D01*
X138682787Y-104146956D01*
X138661717Y-104156921D01*
X138639773Y-104164773D01*
X138617164Y-104170437D01*
X138594109Y-104173856D01*
X138570830Y-104175000D01*
X138095830Y-104175000D01*
X138072551Y-104173856D01*
X138049496Y-104170437D01*
X138026887Y-104164773D01*
X138004943Y-104156921D01*
X137983873Y-104146956D01*
X137963882Y-104134974D01*
X137945162Y-104121090D01*
X137927892Y-104105438D01*
X137912240Y-104088168D01*
X137898356Y-104069448D01*
X137886374Y-104049457D01*
X137876409Y-104028387D01*
X137868557Y-104006443D01*
X137862893Y-103983834D01*
X137859474Y-103960779D01*
X137858330Y-103937500D01*
X137858330Y-103362500D01*
X137859474Y-103339221D01*
X137862893Y-103316166D01*
X137868557Y-103293557D01*
X137876409Y-103271613D01*
X137886374Y-103250543D01*
X137898356Y-103230552D01*
X137912240Y-103211832D01*
X137927892Y-103194562D01*
X137945162Y-103178910D01*
X137963882Y-103165026D01*
X137983873Y-103153044D01*
X138004943Y-103143079D01*
X138026887Y-103135227D01*
X138049496Y-103129563D01*
X138072551Y-103126144D01*
X138095830Y-103125000D01*
X138570830Y-103125000D01*
X138594109Y-103126144D01*
X138594109Y-103126144D01*
G37*
D12*
X138333330Y-103650000D03*
D11*
G36*
X138594109Y-101376144D02*
X138617164Y-101379563D01*
X138639773Y-101385227D01*
X138661717Y-101393079D01*
X138682787Y-101403044D01*
X138702778Y-101415026D01*
X138721498Y-101428910D01*
X138738768Y-101444562D01*
X138754420Y-101461832D01*
X138768304Y-101480552D01*
X138780286Y-101500543D01*
X138790251Y-101521613D01*
X138798103Y-101543557D01*
X138803767Y-101566166D01*
X138807186Y-101589221D01*
X138808330Y-101612500D01*
X138808330Y-102187500D01*
X138807186Y-102210779D01*
X138803767Y-102233834D01*
X138798103Y-102256443D01*
X138790251Y-102278387D01*
X138780286Y-102299457D01*
X138768304Y-102319448D01*
X138754420Y-102338168D01*
X138738768Y-102355438D01*
X138721498Y-102371090D01*
X138702778Y-102384974D01*
X138682787Y-102396956D01*
X138661717Y-102406921D01*
X138639773Y-102414773D01*
X138617164Y-102420437D01*
X138594109Y-102423856D01*
X138570830Y-102425000D01*
X138095830Y-102425000D01*
X138072551Y-102423856D01*
X138049496Y-102420437D01*
X138026887Y-102414773D01*
X138004943Y-102406921D01*
X137983873Y-102396956D01*
X137963882Y-102384974D01*
X137945162Y-102371090D01*
X137927892Y-102355438D01*
X137912240Y-102338168D01*
X137898356Y-102319448D01*
X137886374Y-102299457D01*
X137876409Y-102278387D01*
X137868557Y-102256443D01*
X137862893Y-102233834D01*
X137859474Y-102210779D01*
X137858330Y-102187500D01*
X137858330Y-101612500D01*
X137859474Y-101589221D01*
X137862893Y-101566166D01*
X137868557Y-101543557D01*
X137876409Y-101521613D01*
X137886374Y-101500543D01*
X137898356Y-101480552D01*
X137912240Y-101461832D01*
X137927892Y-101444562D01*
X137945162Y-101428910D01*
X137963882Y-101415026D01*
X137983873Y-101403044D01*
X138004943Y-101393079D01*
X138026887Y-101385227D01*
X138049496Y-101379563D01*
X138072551Y-101376144D01*
X138095830Y-101375000D01*
X138570830Y-101375000D01*
X138594109Y-101376144D01*
X138594109Y-101376144D01*
G37*
D12*
X138333330Y-101900000D03*
G04 #@! TD*
D14*
G04 #@! TO.C,VR1*
X133039720Y-78996840D03*
D15*
X130200000Y-80150000D03*
D14*
X133039720Y-81303160D03*
G04 #@! TD*
G04 #@! TO.C,VR2*
X133039720Y-110561120D03*
D15*
X130200000Y-109407960D03*
D14*
X133039720Y-108254800D03*
G04 #@! TD*
D13*
G04 #@! TO.C,D1*
X127696280Y-78572420D03*
X127696280Y-82072420D03*
G04 #@! TD*
D11*
G04 #@! TO.C,D3*
G36*
X147358245Y-87865944D02*
X147382513Y-87869544D01*
X147406312Y-87875505D01*
X147429411Y-87883770D01*
X147451590Y-87894260D01*
X147472633Y-87906872D01*
X147492339Y-87921487D01*
X147510517Y-87937963D01*
X147526993Y-87956141D01*
X147541608Y-87975847D01*
X147554220Y-87996890D01*
X147564710Y-88019069D01*
X147572975Y-88042168D01*
X147578936Y-88065967D01*
X147582536Y-88090235D01*
X147583740Y-88114739D01*
X147583740Y-88764741D01*
X147582536Y-88789245D01*
X147578936Y-88813513D01*
X147572975Y-88837312D01*
X147564710Y-88860411D01*
X147554220Y-88882590D01*
X147541608Y-88903633D01*
X147526993Y-88923339D01*
X147510517Y-88941517D01*
X147492339Y-88957993D01*
X147472633Y-88972608D01*
X147451590Y-88985220D01*
X147429411Y-88995710D01*
X147406312Y-89003975D01*
X147382513Y-89009936D01*
X147358245Y-89013536D01*
X147333741Y-89014740D01*
X146433739Y-89014740D01*
X146409235Y-89013536D01*
X146384967Y-89009936D01*
X146361168Y-89003975D01*
X146338069Y-88995710D01*
X146315890Y-88985220D01*
X146294847Y-88972608D01*
X146275141Y-88957993D01*
X146256963Y-88941517D01*
X146240487Y-88923339D01*
X146225872Y-88903633D01*
X146213260Y-88882590D01*
X146202770Y-88860411D01*
X146194505Y-88837312D01*
X146188544Y-88813513D01*
X146184944Y-88789245D01*
X146183740Y-88764741D01*
X146183740Y-88114739D01*
X146184944Y-88090235D01*
X146188544Y-88065967D01*
X146194505Y-88042168D01*
X146202770Y-88019069D01*
X146213260Y-87996890D01*
X146225872Y-87975847D01*
X146240487Y-87956141D01*
X146256963Y-87937963D01*
X146275141Y-87921487D01*
X146294847Y-87906872D01*
X146315890Y-87894260D01*
X146338069Y-87883770D01*
X146361168Y-87875505D01*
X146384967Y-87869544D01*
X146409235Y-87865944D01*
X146433739Y-87864740D01*
X147333741Y-87864740D01*
X147358245Y-87865944D01*
X147358245Y-87865944D01*
G37*
D16*
X146883740Y-88439740D03*
D11*
G36*
X147358245Y-85815944D02*
X147382513Y-85819544D01*
X147406312Y-85825505D01*
X147429411Y-85833770D01*
X147451590Y-85844260D01*
X147472633Y-85856872D01*
X147492339Y-85871487D01*
X147510517Y-85887963D01*
X147526993Y-85906141D01*
X147541608Y-85925847D01*
X147554220Y-85946890D01*
X147564710Y-85969069D01*
X147572975Y-85992168D01*
X147578936Y-86015967D01*
X147582536Y-86040235D01*
X147583740Y-86064739D01*
X147583740Y-86714741D01*
X147582536Y-86739245D01*
X147578936Y-86763513D01*
X147572975Y-86787312D01*
X147564710Y-86810411D01*
X147554220Y-86832590D01*
X147541608Y-86853633D01*
X147526993Y-86873339D01*
X147510517Y-86891517D01*
X147492339Y-86907993D01*
X147472633Y-86922608D01*
X147451590Y-86935220D01*
X147429411Y-86945710D01*
X147406312Y-86953975D01*
X147382513Y-86959936D01*
X147358245Y-86963536D01*
X147333741Y-86964740D01*
X146433739Y-86964740D01*
X146409235Y-86963536D01*
X146384967Y-86959936D01*
X146361168Y-86953975D01*
X146338069Y-86945710D01*
X146315890Y-86935220D01*
X146294847Y-86922608D01*
X146275141Y-86907993D01*
X146256963Y-86891517D01*
X146240487Y-86873339D01*
X146225872Y-86853633D01*
X146213260Y-86832590D01*
X146202770Y-86810411D01*
X146194505Y-86787312D01*
X146188544Y-86763513D01*
X146184944Y-86739245D01*
X146183740Y-86714741D01*
X146183740Y-86064739D01*
X146184944Y-86040235D01*
X146188544Y-86015967D01*
X146194505Y-85992168D01*
X146202770Y-85969069D01*
X146213260Y-85946890D01*
X146225872Y-85925847D01*
X146240487Y-85906141D01*
X146256963Y-85887963D01*
X146275141Y-85871487D01*
X146294847Y-85856872D01*
X146315890Y-85844260D01*
X146338069Y-85833770D01*
X146361168Y-85825505D01*
X146384967Y-85819544D01*
X146409235Y-85815944D01*
X146433739Y-85814740D01*
X147333741Y-85814740D01*
X147358245Y-85815944D01*
X147358245Y-85815944D01*
G37*
D16*
X146883740Y-86389740D03*
G04 #@! TD*
D11*
G04 #@! TO.C,D4*
G36*
X143474505Y-103026204D02*
X143498773Y-103029804D01*
X143522572Y-103035765D01*
X143545671Y-103044030D01*
X143567850Y-103054520D01*
X143588893Y-103067132D01*
X143608599Y-103081747D01*
X143626777Y-103098223D01*
X143643253Y-103116401D01*
X143657868Y-103136107D01*
X143670480Y-103157150D01*
X143680970Y-103179329D01*
X143689235Y-103202428D01*
X143695196Y-103226227D01*
X143698796Y-103250495D01*
X143700000Y-103274999D01*
X143700000Y-103925001D01*
X143698796Y-103949505D01*
X143695196Y-103973773D01*
X143689235Y-103997572D01*
X143680970Y-104020671D01*
X143670480Y-104042850D01*
X143657868Y-104063893D01*
X143643253Y-104083599D01*
X143626777Y-104101777D01*
X143608599Y-104118253D01*
X143588893Y-104132868D01*
X143567850Y-104145480D01*
X143545671Y-104155970D01*
X143522572Y-104164235D01*
X143498773Y-104170196D01*
X143474505Y-104173796D01*
X143450001Y-104175000D01*
X142549999Y-104175000D01*
X142525495Y-104173796D01*
X142501227Y-104170196D01*
X142477428Y-104164235D01*
X142454329Y-104155970D01*
X142432150Y-104145480D01*
X142411107Y-104132868D01*
X142391401Y-104118253D01*
X142373223Y-104101777D01*
X142356747Y-104083599D01*
X142342132Y-104063893D01*
X142329520Y-104042850D01*
X142319030Y-104020671D01*
X142310765Y-103997572D01*
X142304804Y-103973773D01*
X142301204Y-103949505D01*
X142300000Y-103925001D01*
X142300000Y-103274999D01*
X142301204Y-103250495D01*
X142304804Y-103226227D01*
X142310765Y-103202428D01*
X142319030Y-103179329D01*
X142329520Y-103157150D01*
X142342132Y-103136107D01*
X142356747Y-103116401D01*
X142373223Y-103098223D01*
X142391401Y-103081747D01*
X142411107Y-103067132D01*
X142432150Y-103054520D01*
X142454329Y-103044030D01*
X142477428Y-103035765D01*
X142501227Y-103029804D01*
X142525495Y-103026204D01*
X142549999Y-103025000D01*
X143450001Y-103025000D01*
X143474505Y-103026204D01*
X143474505Y-103026204D01*
G37*
D16*
X143000000Y-103600000D03*
D11*
G36*
X143474505Y-100976204D02*
X143498773Y-100979804D01*
X143522572Y-100985765D01*
X143545671Y-100994030D01*
X143567850Y-101004520D01*
X143588893Y-101017132D01*
X143608599Y-101031747D01*
X143626777Y-101048223D01*
X143643253Y-101066401D01*
X143657868Y-101086107D01*
X143670480Y-101107150D01*
X143680970Y-101129329D01*
X143689235Y-101152428D01*
X143695196Y-101176227D01*
X143698796Y-101200495D01*
X143700000Y-101224999D01*
X143700000Y-101875001D01*
X143698796Y-101899505D01*
X143695196Y-101923773D01*
X143689235Y-101947572D01*
X143680970Y-101970671D01*
X143670480Y-101992850D01*
X143657868Y-102013893D01*
X143643253Y-102033599D01*
X143626777Y-102051777D01*
X143608599Y-102068253D01*
X143588893Y-102082868D01*
X143567850Y-102095480D01*
X143545671Y-102105970D01*
X143522572Y-102114235D01*
X143498773Y-102120196D01*
X143474505Y-102123796D01*
X143450001Y-102125000D01*
X142549999Y-102125000D01*
X142525495Y-102123796D01*
X142501227Y-102120196D01*
X142477428Y-102114235D01*
X142454329Y-102105970D01*
X142432150Y-102095480D01*
X142411107Y-102082868D01*
X142391401Y-102068253D01*
X142373223Y-102051777D01*
X142356747Y-102033599D01*
X142342132Y-102013893D01*
X142329520Y-101992850D01*
X142319030Y-101970671D01*
X142310765Y-101947572D01*
X142304804Y-101923773D01*
X142301204Y-101899505D01*
X142300000Y-101875001D01*
X142300000Y-101224999D01*
X142301204Y-101200495D01*
X142304804Y-101176227D01*
X142310765Y-101152428D01*
X142319030Y-101129329D01*
X142329520Y-101107150D01*
X142342132Y-101086107D01*
X142356747Y-101066401D01*
X142373223Y-101048223D01*
X142391401Y-101031747D01*
X142411107Y-101017132D01*
X142432150Y-101004520D01*
X142454329Y-100994030D01*
X142477428Y-100985765D01*
X142501227Y-100979804D01*
X142525495Y-100976204D01*
X142549999Y-100975000D01*
X143450001Y-100975000D01*
X143474505Y-100976204D01*
X143474505Y-100976204D01*
G37*
D16*
X143000000Y-101550000D03*
G04 #@! TD*
D10*
G04 #@! TO.C,U1*
X125026420Y-92456800D03*
X123756420Y-92456800D03*
X122486420Y-92456800D03*
X121216420Y-92456800D03*
X121216420Y-97856800D03*
X122486420Y-97856800D03*
X123756420Y-97856800D03*
X125026420Y-97856800D03*
G04 #@! TD*
D11*
G04 #@! TO.C,R19*
G36*
X122563919Y-87550284D02*
X122586974Y-87553703D01*
X122609583Y-87559367D01*
X122631527Y-87567219D01*
X122652597Y-87577184D01*
X122672588Y-87589166D01*
X122691308Y-87603050D01*
X122708578Y-87618702D01*
X122724230Y-87635972D01*
X122738114Y-87654692D01*
X122750096Y-87674683D01*
X122760061Y-87695753D01*
X122767913Y-87717697D01*
X122773577Y-87740306D01*
X122776996Y-87763361D01*
X122778140Y-87786640D01*
X122778140Y-88361640D01*
X122776996Y-88384919D01*
X122773577Y-88407974D01*
X122767913Y-88430583D01*
X122760061Y-88452527D01*
X122750096Y-88473597D01*
X122738114Y-88493588D01*
X122724230Y-88512308D01*
X122708578Y-88529578D01*
X122691308Y-88545230D01*
X122672588Y-88559114D01*
X122652597Y-88571096D01*
X122631527Y-88581061D01*
X122609583Y-88588913D01*
X122586974Y-88594577D01*
X122563919Y-88597996D01*
X122540640Y-88599140D01*
X122065640Y-88599140D01*
X122042361Y-88597996D01*
X122019306Y-88594577D01*
X121996697Y-88588913D01*
X121974753Y-88581061D01*
X121953683Y-88571096D01*
X121933692Y-88559114D01*
X121914972Y-88545230D01*
X121897702Y-88529578D01*
X121882050Y-88512308D01*
X121868166Y-88493588D01*
X121856184Y-88473597D01*
X121846219Y-88452527D01*
X121838367Y-88430583D01*
X121832703Y-88407974D01*
X121829284Y-88384919D01*
X121828140Y-88361640D01*
X121828140Y-87786640D01*
X121829284Y-87763361D01*
X121832703Y-87740306D01*
X121838367Y-87717697D01*
X121846219Y-87695753D01*
X121856184Y-87674683D01*
X121868166Y-87654692D01*
X121882050Y-87635972D01*
X121897702Y-87618702D01*
X121914972Y-87603050D01*
X121933692Y-87589166D01*
X121953683Y-87577184D01*
X121974753Y-87567219D01*
X121996697Y-87559367D01*
X122019306Y-87553703D01*
X122042361Y-87550284D01*
X122065640Y-87549140D01*
X122540640Y-87549140D01*
X122563919Y-87550284D01*
X122563919Y-87550284D01*
G37*
D12*
X122303140Y-88074140D03*
D11*
G36*
X122563919Y-85800284D02*
X122586974Y-85803703D01*
X122609583Y-85809367D01*
X122631527Y-85817219D01*
X122652597Y-85827184D01*
X122672588Y-85839166D01*
X122691308Y-85853050D01*
X122708578Y-85868702D01*
X122724230Y-85885972D01*
X122738114Y-85904692D01*
X122750096Y-85924683D01*
X122760061Y-85945753D01*
X122767913Y-85967697D01*
X122773577Y-85990306D01*
X122776996Y-86013361D01*
X122778140Y-86036640D01*
X122778140Y-86611640D01*
X122776996Y-86634919D01*
X122773577Y-86657974D01*
X122767913Y-86680583D01*
X122760061Y-86702527D01*
X122750096Y-86723597D01*
X122738114Y-86743588D01*
X122724230Y-86762308D01*
X122708578Y-86779578D01*
X122691308Y-86795230D01*
X122672588Y-86809114D01*
X122652597Y-86821096D01*
X122631527Y-86831061D01*
X122609583Y-86838913D01*
X122586974Y-86844577D01*
X122563919Y-86847996D01*
X122540640Y-86849140D01*
X122065640Y-86849140D01*
X122042361Y-86847996D01*
X122019306Y-86844577D01*
X121996697Y-86838913D01*
X121974753Y-86831061D01*
X121953683Y-86821096D01*
X121933692Y-86809114D01*
X121914972Y-86795230D01*
X121897702Y-86779578D01*
X121882050Y-86762308D01*
X121868166Y-86743588D01*
X121856184Y-86723597D01*
X121846219Y-86702527D01*
X121838367Y-86680583D01*
X121832703Y-86657974D01*
X121829284Y-86634919D01*
X121828140Y-86611640D01*
X121828140Y-86036640D01*
X121829284Y-86013361D01*
X121832703Y-85990306D01*
X121838367Y-85967697D01*
X121846219Y-85945753D01*
X121856184Y-85924683D01*
X121868166Y-85904692D01*
X121882050Y-85885972D01*
X121897702Y-85868702D01*
X121914972Y-85853050D01*
X121933692Y-85839166D01*
X121953683Y-85827184D01*
X121974753Y-85817219D01*
X121996697Y-85809367D01*
X122019306Y-85803703D01*
X122042361Y-85800284D01*
X122065640Y-85799140D01*
X122540640Y-85799140D01*
X122563919Y-85800284D01*
X122563919Y-85800284D01*
G37*
D12*
X122303140Y-86324140D03*
G04 #@! TD*
D11*
G04 #@! TO.C,R20*
G36*
X124238299Y-103126144D02*
X124261354Y-103129563D01*
X124283963Y-103135227D01*
X124305907Y-103143079D01*
X124326977Y-103153044D01*
X124346968Y-103165026D01*
X124365688Y-103178910D01*
X124382958Y-103194562D01*
X124398610Y-103211832D01*
X124412494Y-103230552D01*
X124424476Y-103250543D01*
X124434441Y-103271613D01*
X124442293Y-103293557D01*
X124447957Y-103316166D01*
X124451376Y-103339221D01*
X124452520Y-103362500D01*
X124452520Y-103937500D01*
X124451376Y-103960779D01*
X124447957Y-103983834D01*
X124442293Y-104006443D01*
X124434441Y-104028387D01*
X124424476Y-104049457D01*
X124412494Y-104069448D01*
X124398610Y-104088168D01*
X124382958Y-104105438D01*
X124365688Y-104121090D01*
X124346968Y-104134974D01*
X124326977Y-104146956D01*
X124305907Y-104156921D01*
X124283963Y-104164773D01*
X124261354Y-104170437D01*
X124238299Y-104173856D01*
X124215020Y-104175000D01*
X123740020Y-104175000D01*
X123716741Y-104173856D01*
X123693686Y-104170437D01*
X123671077Y-104164773D01*
X123649133Y-104156921D01*
X123628063Y-104146956D01*
X123608072Y-104134974D01*
X123589352Y-104121090D01*
X123572082Y-104105438D01*
X123556430Y-104088168D01*
X123542546Y-104069448D01*
X123530564Y-104049457D01*
X123520599Y-104028387D01*
X123512747Y-104006443D01*
X123507083Y-103983834D01*
X123503664Y-103960779D01*
X123502520Y-103937500D01*
X123502520Y-103362500D01*
X123503664Y-103339221D01*
X123507083Y-103316166D01*
X123512747Y-103293557D01*
X123520599Y-103271613D01*
X123530564Y-103250543D01*
X123542546Y-103230552D01*
X123556430Y-103211832D01*
X123572082Y-103194562D01*
X123589352Y-103178910D01*
X123608072Y-103165026D01*
X123628063Y-103153044D01*
X123649133Y-103143079D01*
X123671077Y-103135227D01*
X123693686Y-103129563D01*
X123716741Y-103126144D01*
X123740020Y-103125000D01*
X124215020Y-103125000D01*
X124238299Y-103126144D01*
X124238299Y-103126144D01*
G37*
D12*
X123977520Y-103650000D03*
D11*
G36*
X124238299Y-101376144D02*
X124261354Y-101379563D01*
X124283963Y-101385227D01*
X124305907Y-101393079D01*
X124326977Y-101403044D01*
X124346968Y-101415026D01*
X124365688Y-101428910D01*
X124382958Y-101444562D01*
X124398610Y-101461832D01*
X124412494Y-101480552D01*
X124424476Y-101500543D01*
X124434441Y-101521613D01*
X124442293Y-101543557D01*
X124447957Y-101566166D01*
X124451376Y-101589221D01*
X124452520Y-101612500D01*
X124452520Y-102187500D01*
X124451376Y-102210779D01*
X124447957Y-102233834D01*
X124442293Y-102256443D01*
X124434441Y-102278387D01*
X124424476Y-102299457D01*
X124412494Y-102319448D01*
X124398610Y-102338168D01*
X124382958Y-102355438D01*
X124365688Y-102371090D01*
X124346968Y-102384974D01*
X124326977Y-102396956D01*
X124305907Y-102406921D01*
X124283963Y-102414773D01*
X124261354Y-102420437D01*
X124238299Y-102423856D01*
X124215020Y-102425000D01*
X123740020Y-102425000D01*
X123716741Y-102423856D01*
X123693686Y-102420437D01*
X123671077Y-102414773D01*
X123649133Y-102406921D01*
X123628063Y-102396956D01*
X123608072Y-102384974D01*
X123589352Y-102371090D01*
X123572082Y-102355438D01*
X123556430Y-102338168D01*
X123542546Y-102319448D01*
X123530564Y-102299457D01*
X123520599Y-102278387D01*
X123512747Y-102256443D01*
X123507083Y-102233834D01*
X123503664Y-102210779D01*
X123502520Y-102187500D01*
X123502520Y-101612500D01*
X123503664Y-101589221D01*
X123507083Y-101566166D01*
X123512747Y-101543557D01*
X123520599Y-101521613D01*
X123530564Y-101500543D01*
X123542546Y-101480552D01*
X123556430Y-101461832D01*
X123572082Y-101444562D01*
X123589352Y-101428910D01*
X123608072Y-101415026D01*
X123628063Y-101403044D01*
X123649133Y-101393079D01*
X123671077Y-101385227D01*
X123693686Y-101379563D01*
X123716741Y-101376144D01*
X123740020Y-101375000D01*
X124215020Y-101375000D01*
X124238299Y-101376144D01*
X124238299Y-101376144D01*
G37*
D12*
X123977520Y-101900000D03*
G04 #@! TD*
D17*
G04 #@! TO.C,Q2*
X146950000Y-101725000D03*
X145050000Y-101725000D03*
X146000000Y-103725000D03*
G04 #@! TD*
G04 #@! TO.C,Q1*
X142655000Y-88264740D03*
X144555000Y-88264740D03*
X143605000Y-86264740D03*
G04 #@! TD*
D11*
G04 #@! TO.C,C1*
G36*
X127980142Y-87650314D02*
X128003803Y-87653824D01*
X128027007Y-87659636D01*
X128049529Y-87667694D01*
X128071153Y-87677922D01*
X128091670Y-87690219D01*
X128110883Y-87704469D01*
X128128607Y-87720533D01*
X128144671Y-87738257D01*
X128158921Y-87757470D01*
X128171218Y-87777987D01*
X128181446Y-87799611D01*
X128189504Y-87822133D01*
X128195316Y-87845337D01*
X128198826Y-87868998D01*
X128200000Y-87892890D01*
X128200000Y-88380390D01*
X128198826Y-88404282D01*
X128195316Y-88427943D01*
X128189504Y-88451147D01*
X128181446Y-88473669D01*
X128171218Y-88495293D01*
X128158921Y-88515810D01*
X128144671Y-88535023D01*
X128128607Y-88552747D01*
X128110883Y-88568811D01*
X128091670Y-88583061D01*
X128071153Y-88595358D01*
X128049529Y-88605586D01*
X128027007Y-88613644D01*
X128003803Y-88619456D01*
X127980142Y-88622966D01*
X127956250Y-88624140D01*
X127043750Y-88624140D01*
X127019858Y-88622966D01*
X126996197Y-88619456D01*
X126972993Y-88613644D01*
X126950471Y-88605586D01*
X126928847Y-88595358D01*
X126908330Y-88583061D01*
X126889117Y-88568811D01*
X126871393Y-88552747D01*
X126855329Y-88535023D01*
X126841079Y-88515810D01*
X126828782Y-88495293D01*
X126818554Y-88473669D01*
X126810496Y-88451147D01*
X126804684Y-88427943D01*
X126801174Y-88404282D01*
X126800000Y-88380390D01*
X126800000Y-87892890D01*
X126801174Y-87868998D01*
X126804684Y-87845337D01*
X126810496Y-87822133D01*
X126818554Y-87799611D01*
X126828782Y-87777987D01*
X126841079Y-87757470D01*
X126855329Y-87738257D01*
X126871393Y-87720533D01*
X126889117Y-87704469D01*
X126908330Y-87690219D01*
X126928847Y-87677922D01*
X126950471Y-87667694D01*
X126972993Y-87659636D01*
X126996197Y-87653824D01*
X127019858Y-87650314D01*
X127043750Y-87649140D01*
X127956250Y-87649140D01*
X127980142Y-87650314D01*
X127980142Y-87650314D01*
G37*
D18*
X127500000Y-88136640D03*
D11*
G36*
X127980142Y-85775314D02*
X128003803Y-85778824D01*
X128027007Y-85784636D01*
X128049529Y-85792694D01*
X128071153Y-85802922D01*
X128091670Y-85815219D01*
X128110883Y-85829469D01*
X128128607Y-85845533D01*
X128144671Y-85863257D01*
X128158921Y-85882470D01*
X128171218Y-85902987D01*
X128181446Y-85924611D01*
X128189504Y-85947133D01*
X128195316Y-85970337D01*
X128198826Y-85993998D01*
X128200000Y-86017890D01*
X128200000Y-86505390D01*
X128198826Y-86529282D01*
X128195316Y-86552943D01*
X128189504Y-86576147D01*
X128181446Y-86598669D01*
X128171218Y-86620293D01*
X128158921Y-86640810D01*
X128144671Y-86660023D01*
X128128607Y-86677747D01*
X128110883Y-86693811D01*
X128091670Y-86708061D01*
X128071153Y-86720358D01*
X128049529Y-86730586D01*
X128027007Y-86738644D01*
X128003803Y-86744456D01*
X127980142Y-86747966D01*
X127956250Y-86749140D01*
X127043750Y-86749140D01*
X127019858Y-86747966D01*
X126996197Y-86744456D01*
X126972993Y-86738644D01*
X126950471Y-86730586D01*
X126928847Y-86720358D01*
X126908330Y-86708061D01*
X126889117Y-86693811D01*
X126871393Y-86677747D01*
X126855329Y-86660023D01*
X126841079Y-86640810D01*
X126828782Y-86620293D01*
X126818554Y-86598669D01*
X126810496Y-86576147D01*
X126804684Y-86552943D01*
X126801174Y-86529282D01*
X126800000Y-86505390D01*
X126800000Y-86017890D01*
X126801174Y-85993998D01*
X126804684Y-85970337D01*
X126810496Y-85947133D01*
X126818554Y-85924611D01*
X126828782Y-85902987D01*
X126841079Y-85882470D01*
X126855329Y-85863257D01*
X126871393Y-85845533D01*
X126889117Y-85829469D01*
X126908330Y-85815219D01*
X126928847Y-85802922D01*
X126950471Y-85792694D01*
X126972993Y-85784636D01*
X126996197Y-85778824D01*
X127019858Y-85775314D01*
X127043750Y-85774140D01*
X127956250Y-85774140D01*
X127980142Y-85775314D01*
X127980142Y-85775314D01*
G37*
D18*
X127500000Y-86261640D03*
G04 #@! TD*
D11*
G04 #@! TO.C,C2*
G36*
X120718902Y-85775314D02*
X120742563Y-85778824D01*
X120765767Y-85784636D01*
X120788289Y-85792694D01*
X120809913Y-85802922D01*
X120830430Y-85815219D01*
X120849643Y-85829469D01*
X120867367Y-85845533D01*
X120883431Y-85863257D01*
X120897681Y-85882470D01*
X120909978Y-85902987D01*
X120920206Y-85924611D01*
X120928264Y-85947133D01*
X120934076Y-85970337D01*
X120937586Y-85993998D01*
X120938760Y-86017890D01*
X120938760Y-86505390D01*
X120937586Y-86529282D01*
X120934076Y-86552943D01*
X120928264Y-86576147D01*
X120920206Y-86598669D01*
X120909978Y-86620293D01*
X120897681Y-86640810D01*
X120883431Y-86660023D01*
X120867367Y-86677747D01*
X120849643Y-86693811D01*
X120830430Y-86708061D01*
X120809913Y-86720358D01*
X120788289Y-86730586D01*
X120765767Y-86738644D01*
X120742563Y-86744456D01*
X120718902Y-86747966D01*
X120695010Y-86749140D01*
X119782510Y-86749140D01*
X119758618Y-86747966D01*
X119734957Y-86744456D01*
X119711753Y-86738644D01*
X119689231Y-86730586D01*
X119667607Y-86720358D01*
X119647090Y-86708061D01*
X119627877Y-86693811D01*
X119610153Y-86677747D01*
X119594089Y-86660023D01*
X119579839Y-86640810D01*
X119567542Y-86620293D01*
X119557314Y-86598669D01*
X119549256Y-86576147D01*
X119543444Y-86552943D01*
X119539934Y-86529282D01*
X119538760Y-86505390D01*
X119538760Y-86017890D01*
X119539934Y-85993998D01*
X119543444Y-85970337D01*
X119549256Y-85947133D01*
X119557314Y-85924611D01*
X119567542Y-85902987D01*
X119579839Y-85882470D01*
X119594089Y-85863257D01*
X119610153Y-85845533D01*
X119627877Y-85829469D01*
X119647090Y-85815219D01*
X119667607Y-85802922D01*
X119689231Y-85792694D01*
X119711753Y-85784636D01*
X119734957Y-85778824D01*
X119758618Y-85775314D01*
X119782510Y-85774140D01*
X120695010Y-85774140D01*
X120718902Y-85775314D01*
X120718902Y-85775314D01*
G37*
D18*
X120238760Y-86261640D03*
D11*
G36*
X120718902Y-87650314D02*
X120742563Y-87653824D01*
X120765767Y-87659636D01*
X120788289Y-87667694D01*
X120809913Y-87677922D01*
X120830430Y-87690219D01*
X120849643Y-87704469D01*
X120867367Y-87720533D01*
X120883431Y-87738257D01*
X120897681Y-87757470D01*
X120909978Y-87777987D01*
X120920206Y-87799611D01*
X120928264Y-87822133D01*
X120934076Y-87845337D01*
X120937586Y-87868998D01*
X120938760Y-87892890D01*
X120938760Y-88380390D01*
X120937586Y-88404282D01*
X120934076Y-88427943D01*
X120928264Y-88451147D01*
X120920206Y-88473669D01*
X120909978Y-88495293D01*
X120897681Y-88515810D01*
X120883431Y-88535023D01*
X120867367Y-88552747D01*
X120849643Y-88568811D01*
X120830430Y-88583061D01*
X120809913Y-88595358D01*
X120788289Y-88605586D01*
X120765767Y-88613644D01*
X120742563Y-88619456D01*
X120718902Y-88622966D01*
X120695010Y-88624140D01*
X119782510Y-88624140D01*
X119758618Y-88622966D01*
X119734957Y-88619456D01*
X119711753Y-88613644D01*
X119689231Y-88605586D01*
X119667607Y-88595358D01*
X119647090Y-88583061D01*
X119627877Y-88568811D01*
X119610153Y-88552747D01*
X119594089Y-88535023D01*
X119579839Y-88515810D01*
X119567542Y-88495293D01*
X119557314Y-88473669D01*
X119549256Y-88451147D01*
X119543444Y-88427943D01*
X119539934Y-88404282D01*
X119538760Y-88380390D01*
X119538760Y-87892890D01*
X119539934Y-87868998D01*
X119543444Y-87845337D01*
X119549256Y-87822133D01*
X119557314Y-87799611D01*
X119567542Y-87777987D01*
X119579839Y-87757470D01*
X119594089Y-87738257D01*
X119610153Y-87720533D01*
X119627877Y-87704469D01*
X119647090Y-87690219D01*
X119667607Y-87677922D01*
X119689231Y-87667694D01*
X119711753Y-87659636D01*
X119734957Y-87653824D01*
X119758618Y-87650314D01*
X119782510Y-87649140D01*
X120695010Y-87649140D01*
X120718902Y-87650314D01*
X120718902Y-87650314D01*
G37*
D18*
X120238760Y-88136640D03*
G04 #@! TD*
D11*
G04 #@! TO.C,C3*
G36*
X120718902Y-101351174D02*
X120742563Y-101354684D01*
X120765767Y-101360496D01*
X120788289Y-101368554D01*
X120809913Y-101378782D01*
X120830430Y-101391079D01*
X120849643Y-101405329D01*
X120867367Y-101421393D01*
X120883431Y-101439117D01*
X120897681Y-101458330D01*
X120909978Y-101478847D01*
X120920206Y-101500471D01*
X120928264Y-101522993D01*
X120934076Y-101546197D01*
X120937586Y-101569858D01*
X120938760Y-101593750D01*
X120938760Y-102081250D01*
X120937586Y-102105142D01*
X120934076Y-102128803D01*
X120928264Y-102152007D01*
X120920206Y-102174529D01*
X120909978Y-102196153D01*
X120897681Y-102216670D01*
X120883431Y-102235883D01*
X120867367Y-102253607D01*
X120849643Y-102269671D01*
X120830430Y-102283921D01*
X120809913Y-102296218D01*
X120788289Y-102306446D01*
X120765767Y-102314504D01*
X120742563Y-102320316D01*
X120718902Y-102323826D01*
X120695010Y-102325000D01*
X119782510Y-102325000D01*
X119758618Y-102323826D01*
X119734957Y-102320316D01*
X119711753Y-102314504D01*
X119689231Y-102306446D01*
X119667607Y-102296218D01*
X119647090Y-102283921D01*
X119627877Y-102269671D01*
X119610153Y-102253607D01*
X119594089Y-102235883D01*
X119579839Y-102216670D01*
X119567542Y-102196153D01*
X119557314Y-102174529D01*
X119549256Y-102152007D01*
X119543444Y-102128803D01*
X119539934Y-102105142D01*
X119538760Y-102081250D01*
X119538760Y-101593750D01*
X119539934Y-101569858D01*
X119543444Y-101546197D01*
X119549256Y-101522993D01*
X119557314Y-101500471D01*
X119567542Y-101478847D01*
X119579839Y-101458330D01*
X119594089Y-101439117D01*
X119610153Y-101421393D01*
X119627877Y-101405329D01*
X119647090Y-101391079D01*
X119667607Y-101378782D01*
X119689231Y-101368554D01*
X119711753Y-101360496D01*
X119734957Y-101354684D01*
X119758618Y-101351174D01*
X119782510Y-101350000D01*
X120695010Y-101350000D01*
X120718902Y-101351174D01*
X120718902Y-101351174D01*
G37*
D18*
X120238760Y-101837500D03*
D11*
G36*
X120718902Y-103226174D02*
X120742563Y-103229684D01*
X120765767Y-103235496D01*
X120788289Y-103243554D01*
X120809913Y-103253782D01*
X120830430Y-103266079D01*
X120849643Y-103280329D01*
X120867367Y-103296393D01*
X120883431Y-103314117D01*
X120897681Y-103333330D01*
X120909978Y-103353847D01*
X120920206Y-103375471D01*
X120928264Y-103397993D01*
X120934076Y-103421197D01*
X120937586Y-103444858D01*
X120938760Y-103468750D01*
X120938760Y-103956250D01*
X120937586Y-103980142D01*
X120934076Y-104003803D01*
X120928264Y-104027007D01*
X120920206Y-104049529D01*
X120909978Y-104071153D01*
X120897681Y-104091670D01*
X120883431Y-104110883D01*
X120867367Y-104128607D01*
X120849643Y-104144671D01*
X120830430Y-104158921D01*
X120809913Y-104171218D01*
X120788289Y-104181446D01*
X120765767Y-104189504D01*
X120742563Y-104195316D01*
X120718902Y-104198826D01*
X120695010Y-104200000D01*
X119782510Y-104200000D01*
X119758618Y-104198826D01*
X119734957Y-104195316D01*
X119711753Y-104189504D01*
X119689231Y-104181446D01*
X119667607Y-104171218D01*
X119647090Y-104158921D01*
X119627877Y-104144671D01*
X119610153Y-104128607D01*
X119594089Y-104110883D01*
X119579839Y-104091670D01*
X119567542Y-104071153D01*
X119557314Y-104049529D01*
X119549256Y-104027007D01*
X119543444Y-104003803D01*
X119539934Y-103980142D01*
X119538760Y-103956250D01*
X119538760Y-103468750D01*
X119539934Y-103444858D01*
X119543444Y-103421197D01*
X119549256Y-103397993D01*
X119557314Y-103375471D01*
X119567542Y-103353847D01*
X119579839Y-103333330D01*
X119594089Y-103314117D01*
X119610153Y-103296393D01*
X119627877Y-103280329D01*
X119647090Y-103266079D01*
X119667607Y-103253782D01*
X119689231Y-103243554D01*
X119711753Y-103235496D01*
X119734957Y-103229684D01*
X119758618Y-103226174D01*
X119782510Y-103225000D01*
X120695010Y-103225000D01*
X120718902Y-103226174D01*
X120718902Y-103226174D01*
G37*
D18*
X120238760Y-103712500D03*
G04 #@! TD*
D11*
G04 #@! TO.C,C4*
G36*
X127980142Y-103226174D02*
X128003803Y-103229684D01*
X128027007Y-103235496D01*
X128049529Y-103243554D01*
X128071153Y-103253782D01*
X128091670Y-103266079D01*
X128110883Y-103280329D01*
X128128607Y-103296393D01*
X128144671Y-103314117D01*
X128158921Y-103333330D01*
X128171218Y-103353847D01*
X128181446Y-103375471D01*
X128189504Y-103397993D01*
X128195316Y-103421197D01*
X128198826Y-103444858D01*
X128200000Y-103468750D01*
X128200000Y-103956250D01*
X128198826Y-103980142D01*
X128195316Y-104003803D01*
X128189504Y-104027007D01*
X128181446Y-104049529D01*
X128171218Y-104071153D01*
X128158921Y-104091670D01*
X128144671Y-104110883D01*
X128128607Y-104128607D01*
X128110883Y-104144671D01*
X128091670Y-104158921D01*
X128071153Y-104171218D01*
X128049529Y-104181446D01*
X128027007Y-104189504D01*
X128003803Y-104195316D01*
X127980142Y-104198826D01*
X127956250Y-104200000D01*
X127043750Y-104200000D01*
X127019858Y-104198826D01*
X126996197Y-104195316D01*
X126972993Y-104189504D01*
X126950471Y-104181446D01*
X126928847Y-104171218D01*
X126908330Y-104158921D01*
X126889117Y-104144671D01*
X126871393Y-104128607D01*
X126855329Y-104110883D01*
X126841079Y-104091670D01*
X126828782Y-104071153D01*
X126818554Y-104049529D01*
X126810496Y-104027007D01*
X126804684Y-104003803D01*
X126801174Y-103980142D01*
X126800000Y-103956250D01*
X126800000Y-103468750D01*
X126801174Y-103444858D01*
X126804684Y-103421197D01*
X126810496Y-103397993D01*
X126818554Y-103375471D01*
X126828782Y-103353847D01*
X126841079Y-103333330D01*
X126855329Y-103314117D01*
X126871393Y-103296393D01*
X126889117Y-103280329D01*
X126908330Y-103266079D01*
X126928847Y-103253782D01*
X126950471Y-103243554D01*
X126972993Y-103235496D01*
X126996197Y-103229684D01*
X127019858Y-103226174D01*
X127043750Y-103225000D01*
X127956250Y-103225000D01*
X127980142Y-103226174D01*
X127980142Y-103226174D01*
G37*
D18*
X127500000Y-103712500D03*
D11*
G36*
X127980142Y-101351174D02*
X128003803Y-101354684D01*
X128027007Y-101360496D01*
X128049529Y-101368554D01*
X128071153Y-101378782D01*
X128091670Y-101391079D01*
X128110883Y-101405329D01*
X128128607Y-101421393D01*
X128144671Y-101439117D01*
X128158921Y-101458330D01*
X128171218Y-101478847D01*
X128181446Y-101500471D01*
X128189504Y-101522993D01*
X128195316Y-101546197D01*
X128198826Y-101569858D01*
X128200000Y-101593750D01*
X128200000Y-102081250D01*
X128198826Y-102105142D01*
X128195316Y-102128803D01*
X128189504Y-102152007D01*
X128181446Y-102174529D01*
X128171218Y-102196153D01*
X128158921Y-102216670D01*
X128144671Y-102235883D01*
X128128607Y-102253607D01*
X128110883Y-102269671D01*
X128091670Y-102283921D01*
X128071153Y-102296218D01*
X128049529Y-102306446D01*
X128027007Y-102314504D01*
X128003803Y-102320316D01*
X127980142Y-102323826D01*
X127956250Y-102325000D01*
X127043750Y-102325000D01*
X127019858Y-102323826D01*
X126996197Y-102320316D01*
X126972993Y-102314504D01*
X126950471Y-102306446D01*
X126928847Y-102296218D01*
X126908330Y-102283921D01*
X126889117Y-102269671D01*
X126871393Y-102253607D01*
X126855329Y-102235883D01*
X126841079Y-102216670D01*
X126828782Y-102196153D01*
X126818554Y-102174529D01*
X126810496Y-102152007D01*
X126804684Y-102128803D01*
X126801174Y-102105142D01*
X126800000Y-102081250D01*
X126800000Y-101593750D01*
X126801174Y-101569858D01*
X126804684Y-101546197D01*
X126810496Y-101522993D01*
X126818554Y-101500471D01*
X126828782Y-101478847D01*
X126841079Y-101458330D01*
X126855329Y-101439117D01*
X126871393Y-101421393D01*
X126889117Y-101405329D01*
X126908330Y-101391079D01*
X126928847Y-101378782D01*
X126950471Y-101368554D01*
X126972993Y-101360496D01*
X126996197Y-101354684D01*
X127019858Y-101351174D01*
X127043750Y-101350000D01*
X127956250Y-101350000D01*
X127980142Y-101351174D01*
X127980142Y-101351174D01*
G37*
D18*
X127500000Y-101837500D03*
G04 #@! TD*
D11*
G04 #@! TO.C,R21*
G36*
X136927443Y-85815884D02*
X136950498Y-85819303D01*
X136973107Y-85824967D01*
X136995051Y-85832819D01*
X137016121Y-85842784D01*
X137036112Y-85854766D01*
X137054832Y-85868650D01*
X137072102Y-85884302D01*
X137087754Y-85901572D01*
X137101638Y-85920292D01*
X137113620Y-85940283D01*
X137123585Y-85961353D01*
X137131437Y-85983297D01*
X137137101Y-86005906D01*
X137140520Y-86028961D01*
X137141664Y-86052240D01*
X137141664Y-86627240D01*
X137140520Y-86650519D01*
X137137101Y-86673574D01*
X137131437Y-86696183D01*
X137123585Y-86718127D01*
X137113620Y-86739197D01*
X137101638Y-86759188D01*
X137087754Y-86777908D01*
X137072102Y-86795178D01*
X137054832Y-86810830D01*
X137036112Y-86824714D01*
X137016121Y-86836696D01*
X136995051Y-86846661D01*
X136973107Y-86854513D01*
X136950498Y-86860177D01*
X136927443Y-86863596D01*
X136904164Y-86864740D01*
X136429164Y-86864740D01*
X136405885Y-86863596D01*
X136382830Y-86860177D01*
X136360221Y-86854513D01*
X136338277Y-86846661D01*
X136317207Y-86836696D01*
X136297216Y-86824714D01*
X136278496Y-86810830D01*
X136261226Y-86795178D01*
X136245574Y-86777908D01*
X136231690Y-86759188D01*
X136219708Y-86739197D01*
X136209743Y-86718127D01*
X136201891Y-86696183D01*
X136196227Y-86673574D01*
X136192808Y-86650519D01*
X136191664Y-86627240D01*
X136191664Y-86052240D01*
X136192808Y-86028961D01*
X136196227Y-86005906D01*
X136201891Y-85983297D01*
X136209743Y-85961353D01*
X136219708Y-85940283D01*
X136231690Y-85920292D01*
X136245574Y-85901572D01*
X136261226Y-85884302D01*
X136278496Y-85868650D01*
X136297216Y-85854766D01*
X136317207Y-85842784D01*
X136338277Y-85832819D01*
X136360221Y-85824967D01*
X136382830Y-85819303D01*
X136405885Y-85815884D01*
X136429164Y-85814740D01*
X136904164Y-85814740D01*
X136927443Y-85815884D01*
X136927443Y-85815884D01*
G37*
D12*
X136666664Y-86339740D03*
D11*
G36*
X136927443Y-87565884D02*
X136950498Y-87569303D01*
X136973107Y-87574967D01*
X136995051Y-87582819D01*
X137016121Y-87592784D01*
X137036112Y-87604766D01*
X137054832Y-87618650D01*
X137072102Y-87634302D01*
X137087754Y-87651572D01*
X137101638Y-87670292D01*
X137113620Y-87690283D01*
X137123585Y-87711353D01*
X137131437Y-87733297D01*
X137137101Y-87755906D01*
X137140520Y-87778961D01*
X137141664Y-87802240D01*
X137141664Y-88377240D01*
X137140520Y-88400519D01*
X137137101Y-88423574D01*
X137131437Y-88446183D01*
X137123585Y-88468127D01*
X137113620Y-88489197D01*
X137101638Y-88509188D01*
X137087754Y-88527908D01*
X137072102Y-88545178D01*
X137054832Y-88560830D01*
X137036112Y-88574714D01*
X137016121Y-88586696D01*
X136995051Y-88596661D01*
X136973107Y-88604513D01*
X136950498Y-88610177D01*
X136927443Y-88613596D01*
X136904164Y-88614740D01*
X136429164Y-88614740D01*
X136405885Y-88613596D01*
X136382830Y-88610177D01*
X136360221Y-88604513D01*
X136338277Y-88596661D01*
X136317207Y-88586696D01*
X136297216Y-88574714D01*
X136278496Y-88560830D01*
X136261226Y-88545178D01*
X136245574Y-88527908D01*
X136231690Y-88509188D01*
X136219708Y-88489197D01*
X136209743Y-88468127D01*
X136201891Y-88446183D01*
X136196227Y-88423574D01*
X136192808Y-88400519D01*
X136191664Y-88377240D01*
X136191664Y-87802240D01*
X136192808Y-87778961D01*
X136196227Y-87755906D01*
X136201891Y-87733297D01*
X136209743Y-87711353D01*
X136219708Y-87690283D01*
X136231690Y-87670292D01*
X136245574Y-87651572D01*
X136261226Y-87634302D01*
X136278496Y-87618650D01*
X136297216Y-87604766D01*
X136317207Y-87592784D01*
X136338277Y-87582819D01*
X136360221Y-87574967D01*
X136382830Y-87569303D01*
X136405885Y-87565884D01*
X136429164Y-87564740D01*
X136904164Y-87564740D01*
X136927443Y-87565884D01*
X136927443Y-87565884D01*
G37*
D12*
X136666664Y-88089740D03*
G04 #@! TD*
D11*
G04 #@! TO.C,R22*
G36*
X136927443Y-101376144D02*
X136950498Y-101379563D01*
X136973107Y-101385227D01*
X136995051Y-101393079D01*
X137016121Y-101403044D01*
X137036112Y-101415026D01*
X137054832Y-101428910D01*
X137072102Y-101444562D01*
X137087754Y-101461832D01*
X137101638Y-101480552D01*
X137113620Y-101500543D01*
X137123585Y-101521613D01*
X137131437Y-101543557D01*
X137137101Y-101566166D01*
X137140520Y-101589221D01*
X137141664Y-101612500D01*
X137141664Y-102187500D01*
X137140520Y-102210779D01*
X137137101Y-102233834D01*
X137131437Y-102256443D01*
X137123585Y-102278387D01*
X137113620Y-102299457D01*
X137101638Y-102319448D01*
X137087754Y-102338168D01*
X137072102Y-102355438D01*
X137054832Y-102371090D01*
X137036112Y-102384974D01*
X137016121Y-102396956D01*
X136995051Y-102406921D01*
X136973107Y-102414773D01*
X136950498Y-102420437D01*
X136927443Y-102423856D01*
X136904164Y-102425000D01*
X136429164Y-102425000D01*
X136405885Y-102423856D01*
X136382830Y-102420437D01*
X136360221Y-102414773D01*
X136338277Y-102406921D01*
X136317207Y-102396956D01*
X136297216Y-102384974D01*
X136278496Y-102371090D01*
X136261226Y-102355438D01*
X136245574Y-102338168D01*
X136231690Y-102319448D01*
X136219708Y-102299457D01*
X136209743Y-102278387D01*
X136201891Y-102256443D01*
X136196227Y-102233834D01*
X136192808Y-102210779D01*
X136191664Y-102187500D01*
X136191664Y-101612500D01*
X136192808Y-101589221D01*
X136196227Y-101566166D01*
X136201891Y-101543557D01*
X136209743Y-101521613D01*
X136219708Y-101500543D01*
X136231690Y-101480552D01*
X136245574Y-101461832D01*
X136261226Y-101444562D01*
X136278496Y-101428910D01*
X136297216Y-101415026D01*
X136317207Y-101403044D01*
X136338277Y-101393079D01*
X136360221Y-101385227D01*
X136382830Y-101379563D01*
X136405885Y-101376144D01*
X136429164Y-101375000D01*
X136904164Y-101375000D01*
X136927443Y-101376144D01*
X136927443Y-101376144D01*
G37*
D12*
X136666664Y-101900000D03*
D11*
G36*
X136927443Y-103126144D02*
X136950498Y-103129563D01*
X136973107Y-103135227D01*
X136995051Y-103143079D01*
X137016121Y-103153044D01*
X137036112Y-103165026D01*
X137054832Y-103178910D01*
X137072102Y-103194562D01*
X137087754Y-103211832D01*
X137101638Y-103230552D01*
X137113620Y-103250543D01*
X137123585Y-103271613D01*
X137131437Y-103293557D01*
X137137101Y-103316166D01*
X137140520Y-103339221D01*
X137141664Y-103362500D01*
X137141664Y-103937500D01*
X137140520Y-103960779D01*
X137137101Y-103983834D01*
X137131437Y-104006443D01*
X137123585Y-104028387D01*
X137113620Y-104049457D01*
X137101638Y-104069448D01*
X137087754Y-104088168D01*
X137072102Y-104105438D01*
X137054832Y-104121090D01*
X137036112Y-104134974D01*
X137016121Y-104146956D01*
X136995051Y-104156921D01*
X136973107Y-104164773D01*
X136950498Y-104170437D01*
X136927443Y-104173856D01*
X136904164Y-104175000D01*
X136429164Y-104175000D01*
X136405885Y-104173856D01*
X136382830Y-104170437D01*
X136360221Y-104164773D01*
X136338277Y-104156921D01*
X136317207Y-104146956D01*
X136297216Y-104134974D01*
X136278496Y-104121090D01*
X136261226Y-104105438D01*
X136245574Y-104088168D01*
X136231690Y-104069448D01*
X136219708Y-104049457D01*
X136209743Y-104028387D01*
X136201891Y-104006443D01*
X136196227Y-103983834D01*
X136192808Y-103960779D01*
X136191664Y-103937500D01*
X136191664Y-103362500D01*
X136192808Y-103339221D01*
X136196227Y-103316166D01*
X136201891Y-103293557D01*
X136209743Y-103271613D01*
X136219708Y-103250543D01*
X136231690Y-103230552D01*
X136245574Y-103211832D01*
X136261226Y-103194562D01*
X136278496Y-103178910D01*
X136297216Y-103165026D01*
X136317207Y-103153044D01*
X136338277Y-103143079D01*
X136360221Y-103135227D01*
X136382830Y-103129563D01*
X136405885Y-103126144D01*
X136429164Y-103125000D01*
X136904164Y-103125000D01*
X136927443Y-103126144D01*
X136927443Y-103126144D01*
G37*
D12*
X136666664Y-103650000D03*
G04 #@! TD*
D11*
G04 #@! TO.C,R23*
G36*
X135260777Y-85815884D02*
X135283832Y-85819303D01*
X135306441Y-85824967D01*
X135328385Y-85832819D01*
X135349455Y-85842784D01*
X135369446Y-85854766D01*
X135388166Y-85868650D01*
X135405436Y-85884302D01*
X135421088Y-85901572D01*
X135434972Y-85920292D01*
X135446954Y-85940283D01*
X135456919Y-85961353D01*
X135464771Y-85983297D01*
X135470435Y-86005906D01*
X135473854Y-86028961D01*
X135474998Y-86052240D01*
X135474998Y-86627240D01*
X135473854Y-86650519D01*
X135470435Y-86673574D01*
X135464771Y-86696183D01*
X135456919Y-86718127D01*
X135446954Y-86739197D01*
X135434972Y-86759188D01*
X135421088Y-86777908D01*
X135405436Y-86795178D01*
X135388166Y-86810830D01*
X135369446Y-86824714D01*
X135349455Y-86836696D01*
X135328385Y-86846661D01*
X135306441Y-86854513D01*
X135283832Y-86860177D01*
X135260777Y-86863596D01*
X135237498Y-86864740D01*
X134762498Y-86864740D01*
X134739219Y-86863596D01*
X134716164Y-86860177D01*
X134693555Y-86854513D01*
X134671611Y-86846661D01*
X134650541Y-86836696D01*
X134630550Y-86824714D01*
X134611830Y-86810830D01*
X134594560Y-86795178D01*
X134578908Y-86777908D01*
X134565024Y-86759188D01*
X134553042Y-86739197D01*
X134543077Y-86718127D01*
X134535225Y-86696183D01*
X134529561Y-86673574D01*
X134526142Y-86650519D01*
X134524998Y-86627240D01*
X134524998Y-86052240D01*
X134526142Y-86028961D01*
X134529561Y-86005906D01*
X134535225Y-85983297D01*
X134543077Y-85961353D01*
X134553042Y-85940283D01*
X134565024Y-85920292D01*
X134578908Y-85901572D01*
X134594560Y-85884302D01*
X134611830Y-85868650D01*
X134630550Y-85854766D01*
X134650541Y-85842784D01*
X134671611Y-85832819D01*
X134693555Y-85824967D01*
X134716164Y-85819303D01*
X134739219Y-85815884D01*
X134762498Y-85814740D01*
X135237498Y-85814740D01*
X135260777Y-85815884D01*
X135260777Y-85815884D01*
G37*
D12*
X134999998Y-86339740D03*
D11*
G36*
X135260777Y-87565884D02*
X135283832Y-87569303D01*
X135306441Y-87574967D01*
X135328385Y-87582819D01*
X135349455Y-87592784D01*
X135369446Y-87604766D01*
X135388166Y-87618650D01*
X135405436Y-87634302D01*
X135421088Y-87651572D01*
X135434972Y-87670292D01*
X135446954Y-87690283D01*
X135456919Y-87711353D01*
X135464771Y-87733297D01*
X135470435Y-87755906D01*
X135473854Y-87778961D01*
X135474998Y-87802240D01*
X135474998Y-88377240D01*
X135473854Y-88400519D01*
X135470435Y-88423574D01*
X135464771Y-88446183D01*
X135456919Y-88468127D01*
X135446954Y-88489197D01*
X135434972Y-88509188D01*
X135421088Y-88527908D01*
X135405436Y-88545178D01*
X135388166Y-88560830D01*
X135369446Y-88574714D01*
X135349455Y-88586696D01*
X135328385Y-88596661D01*
X135306441Y-88604513D01*
X135283832Y-88610177D01*
X135260777Y-88613596D01*
X135237498Y-88614740D01*
X134762498Y-88614740D01*
X134739219Y-88613596D01*
X134716164Y-88610177D01*
X134693555Y-88604513D01*
X134671611Y-88596661D01*
X134650541Y-88586696D01*
X134630550Y-88574714D01*
X134611830Y-88560830D01*
X134594560Y-88545178D01*
X134578908Y-88527908D01*
X134565024Y-88509188D01*
X134553042Y-88489197D01*
X134543077Y-88468127D01*
X134535225Y-88446183D01*
X134529561Y-88423574D01*
X134526142Y-88400519D01*
X134524998Y-88377240D01*
X134524998Y-87802240D01*
X134526142Y-87778961D01*
X134529561Y-87755906D01*
X134535225Y-87733297D01*
X134543077Y-87711353D01*
X134553042Y-87690283D01*
X134565024Y-87670292D01*
X134578908Y-87651572D01*
X134594560Y-87634302D01*
X134611830Y-87618650D01*
X134630550Y-87604766D01*
X134650541Y-87592784D01*
X134671611Y-87582819D01*
X134693555Y-87574967D01*
X134716164Y-87569303D01*
X134739219Y-87565884D01*
X134762498Y-87564740D01*
X135237498Y-87564740D01*
X135260777Y-87565884D01*
X135260777Y-87565884D01*
G37*
D12*
X134999998Y-88089740D03*
G04 #@! TD*
D11*
G04 #@! TO.C,R24*
G36*
X135260777Y-101376144D02*
X135283832Y-101379563D01*
X135306441Y-101385227D01*
X135328385Y-101393079D01*
X135349455Y-101403044D01*
X135369446Y-101415026D01*
X135388166Y-101428910D01*
X135405436Y-101444562D01*
X135421088Y-101461832D01*
X135434972Y-101480552D01*
X135446954Y-101500543D01*
X135456919Y-101521613D01*
X135464771Y-101543557D01*
X135470435Y-101566166D01*
X135473854Y-101589221D01*
X135474998Y-101612500D01*
X135474998Y-102187500D01*
X135473854Y-102210779D01*
X135470435Y-102233834D01*
X135464771Y-102256443D01*
X135456919Y-102278387D01*
X135446954Y-102299457D01*
X135434972Y-102319448D01*
X135421088Y-102338168D01*
X135405436Y-102355438D01*
X135388166Y-102371090D01*
X135369446Y-102384974D01*
X135349455Y-102396956D01*
X135328385Y-102406921D01*
X135306441Y-102414773D01*
X135283832Y-102420437D01*
X135260777Y-102423856D01*
X135237498Y-102425000D01*
X134762498Y-102425000D01*
X134739219Y-102423856D01*
X134716164Y-102420437D01*
X134693555Y-102414773D01*
X134671611Y-102406921D01*
X134650541Y-102396956D01*
X134630550Y-102384974D01*
X134611830Y-102371090D01*
X134594560Y-102355438D01*
X134578908Y-102338168D01*
X134565024Y-102319448D01*
X134553042Y-102299457D01*
X134543077Y-102278387D01*
X134535225Y-102256443D01*
X134529561Y-102233834D01*
X134526142Y-102210779D01*
X134524998Y-102187500D01*
X134524998Y-101612500D01*
X134526142Y-101589221D01*
X134529561Y-101566166D01*
X134535225Y-101543557D01*
X134543077Y-101521613D01*
X134553042Y-101500543D01*
X134565024Y-101480552D01*
X134578908Y-101461832D01*
X134594560Y-101444562D01*
X134611830Y-101428910D01*
X134630550Y-101415026D01*
X134650541Y-101403044D01*
X134671611Y-101393079D01*
X134693555Y-101385227D01*
X134716164Y-101379563D01*
X134739219Y-101376144D01*
X134762498Y-101375000D01*
X135237498Y-101375000D01*
X135260777Y-101376144D01*
X135260777Y-101376144D01*
G37*
D12*
X134999998Y-101900000D03*
D11*
G36*
X135260777Y-103126144D02*
X135283832Y-103129563D01*
X135306441Y-103135227D01*
X135328385Y-103143079D01*
X135349455Y-103153044D01*
X135369446Y-103165026D01*
X135388166Y-103178910D01*
X135405436Y-103194562D01*
X135421088Y-103211832D01*
X135434972Y-103230552D01*
X135446954Y-103250543D01*
X135456919Y-103271613D01*
X135464771Y-103293557D01*
X135470435Y-103316166D01*
X135473854Y-103339221D01*
X135474998Y-103362500D01*
X135474998Y-103937500D01*
X135473854Y-103960779D01*
X135470435Y-103983834D01*
X135464771Y-104006443D01*
X135456919Y-104028387D01*
X135446954Y-104049457D01*
X135434972Y-104069448D01*
X135421088Y-104088168D01*
X135405436Y-104105438D01*
X135388166Y-104121090D01*
X135369446Y-104134974D01*
X135349455Y-104146956D01*
X135328385Y-104156921D01*
X135306441Y-104164773D01*
X135283832Y-104170437D01*
X135260777Y-104173856D01*
X135237498Y-104175000D01*
X134762498Y-104175000D01*
X134739219Y-104173856D01*
X134716164Y-104170437D01*
X134693555Y-104164773D01*
X134671611Y-104156921D01*
X134650541Y-104146956D01*
X134630550Y-104134974D01*
X134611830Y-104121090D01*
X134594560Y-104105438D01*
X134578908Y-104088168D01*
X134565024Y-104069448D01*
X134553042Y-104049457D01*
X134543077Y-104028387D01*
X134535225Y-104006443D01*
X134529561Y-103983834D01*
X134526142Y-103960779D01*
X134524998Y-103937500D01*
X134524998Y-103362500D01*
X134526142Y-103339221D01*
X134529561Y-103316166D01*
X134535225Y-103293557D01*
X134543077Y-103271613D01*
X134553042Y-103250543D01*
X134565024Y-103230552D01*
X134578908Y-103211832D01*
X134594560Y-103194562D01*
X134611830Y-103178910D01*
X134630550Y-103165026D01*
X134650541Y-103153044D01*
X134671611Y-103143079D01*
X134693555Y-103135227D01*
X134716164Y-103129563D01*
X134739219Y-103126144D01*
X134762498Y-103125000D01*
X135237498Y-103125000D01*
X135260777Y-103126144D01*
X135260777Y-103126144D01*
G37*
D12*
X134999998Y-103650000D03*
G04 #@! TD*
M02*
