G04 #@! TF.GenerationSoftware,KiCad,Pcbnew,(5.0.1)-3*
G04 #@! TF.CreationDate,2019-06-18T21:55:43-04:00*
G04 #@! TF.ProjectId,mars-aqua-adapter,6D6172732D617175612D616461707465,rev?*
G04 #@! TF.SameCoordinates,Original*
G04 #@! TF.FileFunction,Soldermask,Bot*
G04 #@! TF.FilePolarity,Negative*
%FSLAX46Y46*%
G04 Gerber Fmt 4.6, Leading zero omitted, Abs format (unit mm)*
G04 Created by KiCad (PCBNEW (5.0.1)-3) date 6/18/2019 9:55:43 PM*
%MOMM*%
%LPD*%
G01*
G04 APERTURE LIST*
%ADD10C,0.100000*%
G04 APERTURE END LIST*
D10*
G36*
X154045256Y-108627298D02*
X154151579Y-108648447D01*
X154452042Y-108772903D01*
X154718852Y-108951180D01*
X154722454Y-108953587D01*
X154952413Y-109183546D01*
X154952415Y-109183549D01*
X155133097Y-109453958D01*
X155246830Y-109728533D01*
X155257553Y-109754422D01*
X155321000Y-110073389D01*
X155321000Y-110398611D01*
X155278702Y-110611256D01*
X155257553Y-110717579D01*
X155133097Y-111018042D01*
X154991231Y-111230359D01*
X154952413Y-111288454D01*
X154722454Y-111518413D01*
X154722451Y-111518415D01*
X154452042Y-111699097D01*
X154151579Y-111823553D01*
X154045256Y-111844702D01*
X153832611Y-111887000D01*
X153507389Y-111887000D01*
X153294744Y-111844702D01*
X153188421Y-111823553D01*
X152887958Y-111699097D01*
X152617549Y-111518415D01*
X152617546Y-111518413D01*
X152387587Y-111288454D01*
X152348769Y-111230359D01*
X152206903Y-111018042D01*
X152082447Y-110717579D01*
X152061298Y-110611256D01*
X152019000Y-110398611D01*
X152019000Y-110073389D01*
X152082447Y-109754422D01*
X152093171Y-109728533D01*
X152206903Y-109453958D01*
X152387585Y-109183549D01*
X152387587Y-109183546D01*
X152617546Y-108953587D01*
X152621148Y-108951180D01*
X152887958Y-108772903D01*
X153188421Y-108648447D01*
X153294744Y-108627298D01*
X153507389Y-108585000D01*
X153832611Y-108585000D01*
X154045256Y-108627298D01*
X154045256Y-108627298D01*
G37*
G36*
X110611256Y-108627298D02*
X110717579Y-108648447D01*
X111018042Y-108772903D01*
X111284852Y-108951180D01*
X111288454Y-108953587D01*
X111518413Y-109183546D01*
X111518415Y-109183549D01*
X111699097Y-109453958D01*
X111812830Y-109728533D01*
X111823553Y-109754422D01*
X111887000Y-110073389D01*
X111887000Y-110398611D01*
X111844702Y-110611256D01*
X111823553Y-110717579D01*
X111699097Y-111018042D01*
X111557231Y-111230359D01*
X111518413Y-111288454D01*
X111288454Y-111518413D01*
X111288451Y-111518415D01*
X111018042Y-111699097D01*
X110717579Y-111823553D01*
X110611256Y-111844702D01*
X110398611Y-111887000D01*
X110073389Y-111887000D01*
X109860744Y-111844702D01*
X109754421Y-111823553D01*
X109453958Y-111699097D01*
X109183549Y-111518415D01*
X109183546Y-111518413D01*
X108953587Y-111288454D01*
X108914769Y-111230359D01*
X108772903Y-111018042D01*
X108648447Y-110717579D01*
X108627298Y-110611256D01*
X108585000Y-110398611D01*
X108585000Y-110073389D01*
X108648447Y-109754422D01*
X108659171Y-109728533D01*
X108772903Y-109453958D01*
X108953585Y-109183549D01*
X108953587Y-109183546D01*
X109183546Y-108953587D01*
X109187148Y-108951180D01*
X109453958Y-108772903D01*
X109754421Y-108648447D01*
X109860744Y-108627298D01*
X110073389Y-108585000D01*
X110398611Y-108585000D01*
X110611256Y-108627298D01*
X110611256Y-108627298D01*
G37*
G36*
X138576627Y-109187037D02*
X138689853Y-109221384D01*
X138746467Y-109238557D01*
X138885087Y-109312652D01*
X138902991Y-109322222D01*
X138938729Y-109351552D01*
X139040186Y-109434814D01*
X139123448Y-109536271D01*
X139152778Y-109572009D01*
X139236443Y-109728534D01*
X139287963Y-109898374D01*
X139301000Y-110030743D01*
X139301000Y-110369258D01*
X139287963Y-110501627D01*
X139253616Y-110614853D01*
X139236443Y-110671467D01*
X139211795Y-110717579D01*
X139152778Y-110827991D01*
X139123448Y-110863729D01*
X139040186Y-110965186D01*
X138902989Y-111077779D01*
X138746466Y-111161443D01*
X138705733Y-111173799D01*
X138576626Y-111212963D01*
X138400000Y-111230359D01*
X138223373Y-111212963D01*
X138094266Y-111173799D01*
X138053533Y-111161443D01*
X137897011Y-111077779D01*
X137897009Y-111077778D01*
X137854749Y-111043096D01*
X137759814Y-110965186D01*
X137647221Y-110827989D01*
X137563557Y-110671466D01*
X137546384Y-110614852D01*
X137512037Y-110501626D01*
X137499000Y-110369257D01*
X137499000Y-110030742D01*
X137512037Y-109898373D01*
X137563557Y-109728534D01*
X137563557Y-109728533D01*
X137647222Y-109572008D01*
X137759812Y-109434817D01*
X137854750Y-109356904D01*
X137897010Y-109322222D01*
X137914914Y-109312652D01*
X138053534Y-109238557D01*
X138110148Y-109221384D01*
X138223374Y-109187037D01*
X138400000Y-109169641D01*
X138576627Y-109187037D01*
X138576627Y-109187037D01*
G37*
G36*
X141076627Y-109187037D02*
X141189853Y-109221384D01*
X141246467Y-109238557D01*
X141385087Y-109312652D01*
X141402991Y-109322222D01*
X141438729Y-109351552D01*
X141540186Y-109434814D01*
X141623448Y-109536271D01*
X141652778Y-109572009D01*
X141736443Y-109728534D01*
X141787963Y-109898374D01*
X141801000Y-110030743D01*
X141801000Y-110369258D01*
X141787963Y-110501627D01*
X141753616Y-110614853D01*
X141736443Y-110671467D01*
X141711795Y-110717579D01*
X141652778Y-110827991D01*
X141623448Y-110863729D01*
X141540186Y-110965186D01*
X141402989Y-111077779D01*
X141246466Y-111161443D01*
X141205733Y-111173799D01*
X141076626Y-111212963D01*
X140900000Y-111230359D01*
X140723373Y-111212963D01*
X140594266Y-111173799D01*
X140553533Y-111161443D01*
X140397011Y-111077779D01*
X140397009Y-111077778D01*
X140354749Y-111043096D01*
X140259814Y-110965186D01*
X140147221Y-110827989D01*
X140063557Y-110671466D01*
X140046384Y-110614852D01*
X140012037Y-110501626D01*
X139999000Y-110369257D01*
X139999000Y-110030742D01*
X140012037Y-109898373D01*
X140063557Y-109728534D01*
X140063557Y-109728533D01*
X140147222Y-109572008D01*
X140259812Y-109434817D01*
X140354750Y-109356904D01*
X140397010Y-109322222D01*
X140414914Y-109312652D01*
X140553534Y-109238557D01*
X140610148Y-109221384D01*
X140723374Y-109187037D01*
X140900000Y-109169641D01*
X141076627Y-109187037D01*
X141076627Y-109187037D01*
G37*
G36*
X143576627Y-109187037D02*
X143689853Y-109221384D01*
X143746467Y-109238557D01*
X143885087Y-109312652D01*
X143902991Y-109322222D01*
X143938729Y-109351552D01*
X144040186Y-109434814D01*
X144123448Y-109536271D01*
X144152778Y-109572009D01*
X144236443Y-109728534D01*
X144287963Y-109898374D01*
X144301000Y-110030743D01*
X144301000Y-110369258D01*
X144287963Y-110501627D01*
X144253616Y-110614853D01*
X144236443Y-110671467D01*
X144211795Y-110717579D01*
X144152778Y-110827991D01*
X144123448Y-110863729D01*
X144040186Y-110965186D01*
X143902989Y-111077779D01*
X143746466Y-111161443D01*
X143705733Y-111173799D01*
X143576626Y-111212963D01*
X143400000Y-111230359D01*
X143223373Y-111212963D01*
X143094266Y-111173799D01*
X143053533Y-111161443D01*
X142897011Y-111077779D01*
X142897009Y-111077778D01*
X142854749Y-111043096D01*
X142759814Y-110965186D01*
X142647221Y-110827989D01*
X142563557Y-110671466D01*
X142546384Y-110614852D01*
X142512037Y-110501626D01*
X142499000Y-110369257D01*
X142499000Y-110030742D01*
X142512037Y-109898373D01*
X142563557Y-109728534D01*
X142563557Y-109728533D01*
X142647222Y-109572008D01*
X142759812Y-109434817D01*
X142854750Y-109356904D01*
X142897010Y-109322222D01*
X142914914Y-109312652D01*
X143053534Y-109238557D01*
X143110148Y-109221384D01*
X143223374Y-109187037D01*
X143400000Y-109169641D01*
X143576627Y-109187037D01*
X143576627Y-109187037D01*
G37*
G36*
X118376627Y-109187037D02*
X118489853Y-109221384D01*
X118546467Y-109238557D01*
X118685087Y-109312652D01*
X118702991Y-109322222D01*
X118738729Y-109351552D01*
X118840186Y-109434814D01*
X118923448Y-109536271D01*
X118952778Y-109572009D01*
X119036443Y-109728534D01*
X119087963Y-109898374D01*
X119101000Y-110030743D01*
X119101000Y-110369258D01*
X119087963Y-110501627D01*
X119053616Y-110614853D01*
X119036443Y-110671467D01*
X119011795Y-110717579D01*
X118952778Y-110827991D01*
X118923448Y-110863729D01*
X118840186Y-110965186D01*
X118702989Y-111077779D01*
X118546466Y-111161443D01*
X118505733Y-111173799D01*
X118376626Y-111212963D01*
X118200000Y-111230359D01*
X118023373Y-111212963D01*
X117894266Y-111173799D01*
X117853533Y-111161443D01*
X117697011Y-111077779D01*
X117697009Y-111077778D01*
X117654749Y-111043096D01*
X117559814Y-110965186D01*
X117447221Y-110827989D01*
X117363557Y-110671466D01*
X117346384Y-110614852D01*
X117312037Y-110501626D01*
X117299000Y-110369257D01*
X117299000Y-110030742D01*
X117312037Y-109898373D01*
X117363557Y-109728534D01*
X117363557Y-109728533D01*
X117447222Y-109572008D01*
X117559812Y-109434817D01*
X117654750Y-109356904D01*
X117697010Y-109322222D01*
X117714914Y-109312652D01*
X117853534Y-109238557D01*
X117910148Y-109221384D01*
X118023374Y-109187037D01*
X118200000Y-109169641D01*
X118376627Y-109187037D01*
X118376627Y-109187037D01*
G37*
G36*
X120876627Y-109187037D02*
X120989853Y-109221384D01*
X121046467Y-109238557D01*
X121185087Y-109312652D01*
X121202991Y-109322222D01*
X121238729Y-109351552D01*
X121340186Y-109434814D01*
X121423448Y-109536271D01*
X121452778Y-109572009D01*
X121536443Y-109728534D01*
X121587963Y-109898374D01*
X121601000Y-110030743D01*
X121601000Y-110369258D01*
X121587963Y-110501627D01*
X121553616Y-110614853D01*
X121536443Y-110671467D01*
X121511795Y-110717579D01*
X121452778Y-110827991D01*
X121423448Y-110863729D01*
X121340186Y-110965186D01*
X121202989Y-111077779D01*
X121046466Y-111161443D01*
X121005733Y-111173799D01*
X120876626Y-111212963D01*
X120700000Y-111230359D01*
X120523373Y-111212963D01*
X120394266Y-111173799D01*
X120353533Y-111161443D01*
X120197011Y-111077779D01*
X120197009Y-111077778D01*
X120154749Y-111043096D01*
X120059814Y-110965186D01*
X119947221Y-110827989D01*
X119863557Y-110671466D01*
X119846384Y-110614852D01*
X119812037Y-110501626D01*
X119799000Y-110369257D01*
X119799000Y-110030742D01*
X119812037Y-109898373D01*
X119863557Y-109728534D01*
X119863557Y-109728533D01*
X119947222Y-109572008D01*
X120059812Y-109434817D01*
X120154750Y-109356904D01*
X120197010Y-109322222D01*
X120214914Y-109312652D01*
X120353534Y-109238557D01*
X120410148Y-109221384D01*
X120523374Y-109187037D01*
X120700000Y-109169641D01*
X120876627Y-109187037D01*
X120876627Y-109187037D01*
G37*
G36*
X146658600Y-109177989D02*
X146691649Y-109188014D01*
X146722106Y-109204294D01*
X146748799Y-109226201D01*
X146770706Y-109252894D01*
X146786986Y-109283351D01*
X146797011Y-109316400D01*
X146801000Y-109356904D01*
X146801000Y-111043096D01*
X146797011Y-111083600D01*
X146786986Y-111116649D01*
X146770706Y-111147106D01*
X146748799Y-111173799D01*
X146722106Y-111195706D01*
X146691649Y-111211986D01*
X146658600Y-111222011D01*
X146618096Y-111226000D01*
X145181904Y-111226000D01*
X145141400Y-111222011D01*
X145108351Y-111211986D01*
X145077894Y-111195706D01*
X145051201Y-111173799D01*
X145029294Y-111147106D01*
X145013014Y-111116649D01*
X145002989Y-111083600D01*
X144999000Y-111043096D01*
X144999000Y-109356904D01*
X145002989Y-109316400D01*
X145013014Y-109283351D01*
X145029294Y-109252894D01*
X145051201Y-109226201D01*
X145077894Y-109204294D01*
X145108351Y-109188014D01*
X145141400Y-109177989D01*
X145181904Y-109174000D01*
X146618096Y-109174000D01*
X146658600Y-109177989D01*
X146658600Y-109177989D01*
G37*
G36*
X123958600Y-109177989D02*
X123991649Y-109188014D01*
X124022106Y-109204294D01*
X124048799Y-109226201D01*
X124070706Y-109252894D01*
X124086986Y-109283351D01*
X124097011Y-109316400D01*
X124101000Y-109356904D01*
X124101000Y-111043096D01*
X124097011Y-111083600D01*
X124086986Y-111116649D01*
X124070706Y-111147106D01*
X124048799Y-111173799D01*
X124022106Y-111195706D01*
X123991649Y-111211986D01*
X123958600Y-111222011D01*
X123918096Y-111226000D01*
X122481904Y-111226000D01*
X122441400Y-111222011D01*
X122408351Y-111211986D01*
X122377894Y-111195706D01*
X122351201Y-111173799D01*
X122329294Y-111147106D01*
X122313014Y-111116649D01*
X122302989Y-111083600D01*
X122299000Y-111043096D01*
X122299000Y-109356904D01*
X122302989Y-109316400D01*
X122313014Y-109283351D01*
X122329294Y-109252894D01*
X122351201Y-109226201D01*
X122377894Y-109204294D01*
X122408351Y-109188014D01*
X122441400Y-109177989D01*
X122481904Y-109174000D01*
X123918096Y-109174000D01*
X123958600Y-109177989D01*
X123958600Y-109177989D01*
G37*
G36*
X111982202Y-101109378D02*
X112048387Y-101115897D01*
X112161613Y-101150244D01*
X112218227Y-101167417D01*
X112356847Y-101241512D01*
X112374751Y-101251082D01*
X112410489Y-101280412D01*
X112511946Y-101363674D01*
X112595208Y-101465131D01*
X112624538Y-101500869D01*
X112624539Y-101500871D01*
X112708203Y-101657393D01*
X112708203Y-101657394D01*
X112759723Y-101827233D01*
X112777119Y-102003860D01*
X112759723Y-102180487D01*
X112725376Y-102293713D01*
X112708203Y-102350327D01*
X112634108Y-102488947D01*
X112624538Y-102506851D01*
X112595208Y-102542589D01*
X112511946Y-102644046D01*
X112410489Y-102727308D01*
X112374751Y-102756638D01*
X112374749Y-102756639D01*
X112218227Y-102840303D01*
X112161613Y-102857476D01*
X112048387Y-102891823D01*
X111982203Y-102898341D01*
X111916020Y-102904860D01*
X111827500Y-102904860D01*
X111761318Y-102898342D01*
X111695133Y-102891823D01*
X111581907Y-102857476D01*
X111525293Y-102840303D01*
X111368771Y-102756639D01*
X111368769Y-102756638D01*
X111333031Y-102727308D01*
X111231574Y-102644046D01*
X111148312Y-102542589D01*
X111118982Y-102506851D01*
X111109412Y-102488947D01*
X111035317Y-102350327D01*
X111018144Y-102293713D01*
X110983797Y-102180487D01*
X110966401Y-102003860D01*
X110983797Y-101827233D01*
X111035317Y-101657394D01*
X111035317Y-101657393D01*
X111118981Y-101500871D01*
X111118982Y-101500869D01*
X111148312Y-101465131D01*
X111231574Y-101363674D01*
X111333031Y-101280412D01*
X111368769Y-101251082D01*
X111386673Y-101241512D01*
X111525293Y-101167417D01*
X111581907Y-101150244D01*
X111695133Y-101115897D01*
X111761317Y-101109379D01*
X111827500Y-101102860D01*
X111916020Y-101102860D01*
X111982202Y-101109378D01*
X111982202Y-101109378D01*
G37*
G36*
X111982203Y-98569379D02*
X112048387Y-98575897D01*
X112161613Y-98610244D01*
X112218227Y-98627417D01*
X112356847Y-98701512D01*
X112374751Y-98711082D01*
X112410489Y-98740412D01*
X112511946Y-98823674D01*
X112595208Y-98925131D01*
X112624538Y-98960869D01*
X112624539Y-98960871D01*
X112708203Y-99117393D01*
X112708203Y-99117394D01*
X112759723Y-99287233D01*
X112777119Y-99463860D01*
X112759723Y-99640487D01*
X112725376Y-99753713D01*
X112708203Y-99810327D01*
X112634108Y-99948947D01*
X112624538Y-99966851D01*
X112595208Y-100002589D01*
X112511946Y-100104046D01*
X112410489Y-100187308D01*
X112374751Y-100216638D01*
X112374749Y-100216639D01*
X112218227Y-100300303D01*
X112161613Y-100317476D01*
X112048387Y-100351823D01*
X111982202Y-100358342D01*
X111916020Y-100364860D01*
X111827500Y-100364860D01*
X111761318Y-100358342D01*
X111695133Y-100351823D01*
X111581907Y-100317476D01*
X111525293Y-100300303D01*
X111368771Y-100216639D01*
X111368769Y-100216638D01*
X111333031Y-100187308D01*
X111231574Y-100104046D01*
X111148312Y-100002589D01*
X111118982Y-99966851D01*
X111109412Y-99948947D01*
X111035317Y-99810327D01*
X111018144Y-99753713D01*
X110983797Y-99640487D01*
X110966401Y-99463860D01*
X110983797Y-99287233D01*
X111035317Y-99117394D01*
X111035317Y-99117393D01*
X111118981Y-98960871D01*
X111118982Y-98960869D01*
X111148312Y-98925131D01*
X111231574Y-98823674D01*
X111333031Y-98740412D01*
X111368769Y-98711082D01*
X111386673Y-98701512D01*
X111525293Y-98627417D01*
X111581907Y-98610244D01*
X111695133Y-98575897D01*
X111761318Y-98569378D01*
X111827500Y-98562860D01*
X111916020Y-98562860D01*
X111982203Y-98569379D01*
X111982203Y-98569379D01*
G37*
G36*
X112772760Y-97824860D02*
X110970760Y-97824860D01*
X110970760Y-96022860D01*
X112772760Y-96022860D01*
X112772760Y-97824860D01*
X112772760Y-97824860D01*
G37*
G36*
X111941563Y-91485319D02*
X112007747Y-91491837D01*
X112120973Y-91526184D01*
X112177587Y-91543357D01*
X112316207Y-91617452D01*
X112334111Y-91627022D01*
X112369849Y-91656352D01*
X112471306Y-91739614D01*
X112554568Y-91841071D01*
X112583898Y-91876809D01*
X112583899Y-91876811D01*
X112667563Y-92033333D01*
X112667563Y-92033334D01*
X112719083Y-92203173D01*
X112736479Y-92379800D01*
X112719083Y-92556427D01*
X112684736Y-92669653D01*
X112667563Y-92726267D01*
X112593468Y-92864887D01*
X112583898Y-92882791D01*
X112554568Y-92918529D01*
X112471306Y-93019986D01*
X112369849Y-93103248D01*
X112334111Y-93132578D01*
X112334109Y-93132579D01*
X112177587Y-93216243D01*
X112120973Y-93233416D01*
X112007747Y-93267763D01*
X111941563Y-93274281D01*
X111875380Y-93280800D01*
X111786860Y-93280800D01*
X111720677Y-93274281D01*
X111654493Y-93267763D01*
X111541267Y-93233416D01*
X111484653Y-93216243D01*
X111328131Y-93132579D01*
X111328129Y-93132578D01*
X111292391Y-93103248D01*
X111190934Y-93019986D01*
X111107672Y-92918529D01*
X111078342Y-92882791D01*
X111068772Y-92864887D01*
X110994677Y-92726267D01*
X110977504Y-92669653D01*
X110943157Y-92556427D01*
X110925761Y-92379800D01*
X110943157Y-92203173D01*
X110994677Y-92033334D01*
X110994677Y-92033333D01*
X111078341Y-91876811D01*
X111078342Y-91876809D01*
X111107672Y-91841071D01*
X111190934Y-91739614D01*
X111292391Y-91656352D01*
X111328129Y-91627022D01*
X111346033Y-91617452D01*
X111484653Y-91543357D01*
X111541267Y-91526184D01*
X111654493Y-91491837D01*
X111720677Y-91485319D01*
X111786860Y-91478800D01*
X111875380Y-91478800D01*
X111941563Y-91485319D01*
X111941563Y-91485319D01*
G37*
G36*
X111941563Y-88945319D02*
X112007747Y-88951837D01*
X112120973Y-88986184D01*
X112177587Y-89003357D01*
X112316207Y-89077452D01*
X112334111Y-89087022D01*
X112369849Y-89116352D01*
X112471306Y-89199614D01*
X112554568Y-89301071D01*
X112583898Y-89336809D01*
X112583899Y-89336811D01*
X112667563Y-89493333D01*
X112667563Y-89493334D01*
X112719083Y-89663173D01*
X112736479Y-89839800D01*
X112719083Y-90016427D01*
X112684736Y-90129653D01*
X112667563Y-90186267D01*
X112593468Y-90324887D01*
X112583898Y-90342791D01*
X112554568Y-90378529D01*
X112471306Y-90479986D01*
X112369849Y-90563248D01*
X112334111Y-90592578D01*
X112334109Y-90592579D01*
X112177587Y-90676243D01*
X112120973Y-90693416D01*
X112007747Y-90727763D01*
X111941562Y-90734282D01*
X111875380Y-90740800D01*
X111786860Y-90740800D01*
X111720678Y-90734282D01*
X111654493Y-90727763D01*
X111541267Y-90693416D01*
X111484653Y-90676243D01*
X111328131Y-90592579D01*
X111328129Y-90592578D01*
X111292391Y-90563248D01*
X111190934Y-90479986D01*
X111107672Y-90378529D01*
X111078342Y-90342791D01*
X111068772Y-90324887D01*
X110994677Y-90186267D01*
X110977504Y-90129653D01*
X110943157Y-90016427D01*
X110925761Y-89839800D01*
X110943157Y-89663173D01*
X110994677Y-89493334D01*
X110994677Y-89493333D01*
X111078341Y-89336811D01*
X111078342Y-89336809D01*
X111107672Y-89301071D01*
X111190934Y-89199614D01*
X111292391Y-89116352D01*
X111328129Y-89087022D01*
X111346033Y-89077452D01*
X111484653Y-89003357D01*
X111541267Y-88986184D01*
X111654493Y-88951837D01*
X111720677Y-88945319D01*
X111786860Y-88938800D01*
X111875380Y-88938800D01*
X111941563Y-88945319D01*
X111941563Y-88945319D01*
G37*
G36*
X112732120Y-88200800D02*
X110930120Y-88200800D01*
X110930120Y-86398800D01*
X112732120Y-86398800D01*
X112732120Y-88200800D01*
X112732120Y-88200800D01*
G37*
G36*
X118376627Y-80037037D02*
X118489853Y-80071384D01*
X118546467Y-80088557D01*
X118685087Y-80162652D01*
X118702991Y-80172222D01*
X118738729Y-80201552D01*
X118840186Y-80284814D01*
X118923448Y-80386271D01*
X118952778Y-80422009D01*
X119036443Y-80578534D01*
X119087963Y-80748374D01*
X119089619Y-80765185D01*
X119099195Y-80862411D01*
X119101000Y-80880743D01*
X119101000Y-81219258D01*
X119087963Y-81351627D01*
X119053616Y-81464853D01*
X119036443Y-81521467D01*
X118962348Y-81660087D01*
X118952778Y-81677991D01*
X118923448Y-81713729D01*
X118840186Y-81815186D01*
X118702989Y-81927779D01*
X118546466Y-82011443D01*
X118505733Y-82023799D01*
X118376626Y-82062963D01*
X118200000Y-82080359D01*
X118023373Y-82062963D01*
X117894266Y-82023799D01*
X117853533Y-82011443D01*
X117697011Y-81927779D01*
X117697009Y-81927778D01*
X117654749Y-81893096D01*
X117559814Y-81815186D01*
X117447221Y-81677989D01*
X117363557Y-81521466D01*
X117346384Y-81464852D01*
X117312037Y-81351626D01*
X117299000Y-81219257D01*
X117299000Y-80880742D01*
X117312037Y-80748373D01*
X117363557Y-80578534D01*
X117363557Y-80578533D01*
X117447222Y-80422008D01*
X117559812Y-80284817D01*
X117654750Y-80206904D01*
X117697010Y-80172222D01*
X117714914Y-80162652D01*
X117853534Y-80088557D01*
X117910148Y-80071384D01*
X118023374Y-80037037D01*
X118200000Y-80019641D01*
X118376627Y-80037037D01*
X118376627Y-80037037D01*
G37*
G36*
X120876627Y-80037037D02*
X120989853Y-80071384D01*
X121046467Y-80088557D01*
X121185087Y-80162652D01*
X121202991Y-80172222D01*
X121238729Y-80201552D01*
X121340186Y-80284814D01*
X121423448Y-80386271D01*
X121452778Y-80422009D01*
X121536443Y-80578534D01*
X121587963Y-80748374D01*
X121589619Y-80765185D01*
X121599195Y-80862411D01*
X121601000Y-80880743D01*
X121601000Y-81219258D01*
X121587963Y-81351627D01*
X121553616Y-81464853D01*
X121536443Y-81521467D01*
X121462348Y-81660087D01*
X121452778Y-81677991D01*
X121423448Y-81713729D01*
X121340186Y-81815186D01*
X121202989Y-81927779D01*
X121046466Y-82011443D01*
X121005733Y-82023799D01*
X120876626Y-82062963D01*
X120700000Y-82080359D01*
X120523373Y-82062963D01*
X120394266Y-82023799D01*
X120353533Y-82011443D01*
X120197011Y-81927779D01*
X120197009Y-81927778D01*
X120154749Y-81893096D01*
X120059814Y-81815186D01*
X119947221Y-81677989D01*
X119863557Y-81521466D01*
X119846384Y-81464852D01*
X119812037Y-81351626D01*
X119799000Y-81219257D01*
X119799000Y-80880742D01*
X119812037Y-80748373D01*
X119863557Y-80578534D01*
X119863557Y-80578533D01*
X119947222Y-80422008D01*
X120059812Y-80284817D01*
X120154750Y-80206904D01*
X120197010Y-80172222D01*
X120214914Y-80162652D01*
X120353534Y-80088557D01*
X120410148Y-80071384D01*
X120523374Y-80037037D01*
X120700000Y-80019641D01*
X120876627Y-80037037D01*
X120876627Y-80037037D01*
G37*
G36*
X123958600Y-80027989D02*
X123991649Y-80038014D01*
X124022106Y-80054294D01*
X124048799Y-80076201D01*
X124070706Y-80102894D01*
X124086986Y-80133351D01*
X124097011Y-80166400D01*
X124101000Y-80206904D01*
X124101000Y-81893096D01*
X124097011Y-81933600D01*
X124086986Y-81966649D01*
X124070706Y-81997106D01*
X124048799Y-82023799D01*
X124022106Y-82045706D01*
X123991649Y-82061986D01*
X123958600Y-82072011D01*
X123918096Y-82076000D01*
X122481904Y-82076000D01*
X122441400Y-82072011D01*
X122408351Y-82061986D01*
X122377894Y-82045706D01*
X122351201Y-82023799D01*
X122329294Y-81997106D01*
X122313014Y-81966649D01*
X122302989Y-81933600D01*
X122299000Y-81893096D01*
X122299000Y-80206904D01*
X122302989Y-80166400D01*
X122313014Y-80133351D01*
X122329294Y-80102894D01*
X122351201Y-80076201D01*
X122377894Y-80054294D01*
X122408351Y-80038014D01*
X122441400Y-80027989D01*
X122481904Y-80024000D01*
X123918096Y-80024000D01*
X123958600Y-80027989D01*
X123958600Y-80027989D01*
G37*
G36*
X154045256Y-78401298D02*
X154151579Y-78422447D01*
X154452042Y-78546903D01*
X154718852Y-78725180D01*
X154722454Y-78727587D01*
X154952413Y-78957546D01*
X154952415Y-78957549D01*
X155133097Y-79227958D01*
X155257553Y-79528421D01*
X155278702Y-79634744D01*
X155321000Y-79847389D01*
X155321000Y-80172611D01*
X155295337Y-80301625D01*
X155261554Y-80471467D01*
X155257553Y-80491578D01*
X155151185Y-80748375D01*
X155133097Y-80792042D01*
X155006612Y-80981339D01*
X154952413Y-81062454D01*
X154722454Y-81292413D01*
X154722451Y-81292415D01*
X154452042Y-81473097D01*
X154151579Y-81597553D01*
X154045256Y-81618702D01*
X153832611Y-81661000D01*
X153507389Y-81661000D01*
X153294744Y-81618702D01*
X153188421Y-81597553D01*
X152887958Y-81473097D01*
X152617549Y-81292415D01*
X152617546Y-81292413D01*
X152387587Y-81062454D01*
X152333388Y-80981339D01*
X152206903Y-80792042D01*
X152188816Y-80748375D01*
X152082447Y-80491578D01*
X152078447Y-80471467D01*
X152044663Y-80301625D01*
X152019000Y-80172611D01*
X152019000Y-79847389D01*
X152061298Y-79634744D01*
X152082447Y-79528421D01*
X152206903Y-79227958D01*
X152387585Y-78957549D01*
X152387587Y-78957546D01*
X152617546Y-78727587D01*
X152621148Y-78725180D01*
X152887958Y-78546903D01*
X153188421Y-78422447D01*
X153294744Y-78401298D01*
X153507389Y-78359000D01*
X153832611Y-78359000D01*
X154045256Y-78401298D01*
X154045256Y-78401298D01*
G37*
G36*
X110611256Y-78401298D02*
X110717579Y-78422447D01*
X111018042Y-78546903D01*
X111284852Y-78725180D01*
X111288454Y-78727587D01*
X111518413Y-78957546D01*
X111518415Y-78957549D01*
X111699097Y-79227958D01*
X111823553Y-79528421D01*
X111844702Y-79634744D01*
X111887000Y-79847389D01*
X111887000Y-80172611D01*
X111861337Y-80301625D01*
X111827554Y-80471467D01*
X111823553Y-80491578D01*
X111717185Y-80748375D01*
X111699097Y-80792042D01*
X111572612Y-80981339D01*
X111518413Y-81062454D01*
X111288454Y-81292413D01*
X111288451Y-81292415D01*
X111018042Y-81473097D01*
X110717579Y-81597553D01*
X110611256Y-81618702D01*
X110398611Y-81661000D01*
X110073389Y-81661000D01*
X109860744Y-81618702D01*
X109754421Y-81597553D01*
X109453958Y-81473097D01*
X109183549Y-81292415D01*
X109183546Y-81292413D01*
X108953587Y-81062454D01*
X108899388Y-80981339D01*
X108772903Y-80792042D01*
X108754816Y-80748375D01*
X108648447Y-80491578D01*
X108644447Y-80471467D01*
X108610663Y-80301625D01*
X108585000Y-80172611D01*
X108585000Y-79847389D01*
X108627298Y-79634744D01*
X108648447Y-79528421D01*
X108772903Y-79227958D01*
X108953585Y-78957549D01*
X108953587Y-78957546D01*
X109183546Y-78727587D01*
X109187148Y-78725180D01*
X109453958Y-78546903D01*
X109754421Y-78422447D01*
X109860744Y-78401298D01*
X110073389Y-78359000D01*
X110398611Y-78359000D01*
X110611256Y-78401298D01*
X110611256Y-78401298D01*
G37*
G36*
X146058986Y-78987037D02*
X146172212Y-79021384D01*
X146228826Y-79038557D01*
X146385349Y-79122221D01*
X146522546Y-79234814D01*
X146605808Y-79336271D01*
X146635138Y-79372009D01*
X146635139Y-79372011D01*
X146718803Y-79528533D01*
X146735976Y-79585147D01*
X146770323Y-79698373D01*
X146770323Y-79698375D01*
X146783360Y-79830740D01*
X146783360Y-80169259D01*
X146779652Y-80206904D01*
X146770323Y-80301626D01*
X146718803Y-80471466D01*
X146635138Y-80627991D01*
X146635137Y-80627992D01*
X146522546Y-80765186D01*
X146427611Y-80843096D01*
X146385351Y-80877778D01*
X146379808Y-80880741D01*
X146228827Y-80961443D01*
X146188094Y-80973799D01*
X146058987Y-81012963D01*
X145882360Y-81030359D01*
X145705734Y-81012963D01*
X145576627Y-80973799D01*
X145535894Y-80961443D01*
X145384913Y-80880741D01*
X145379370Y-80877778D01*
X145242176Y-80765186D01*
X145242172Y-80765183D01*
X145129582Y-80627992D01*
X145045917Y-80471467D01*
X145028744Y-80414853D01*
X144994397Y-80301627D01*
X144981360Y-80169258D01*
X144981360Y-79830743D01*
X144994397Y-79698374D01*
X145045917Y-79528535D01*
X145045917Y-79528534D01*
X145129581Y-79372011D01*
X145242174Y-79234814D01*
X145343631Y-79151552D01*
X145379369Y-79122222D01*
X145397273Y-79112652D01*
X145535893Y-79038557D01*
X145592507Y-79021384D01*
X145705733Y-78987037D01*
X145882360Y-78969641D01*
X146058986Y-78987037D01*
X146058986Y-78987037D01*
G37*
G36*
X143558986Y-78987037D02*
X143672212Y-79021384D01*
X143728826Y-79038557D01*
X143885349Y-79122221D01*
X144022546Y-79234814D01*
X144105808Y-79336271D01*
X144135138Y-79372009D01*
X144135139Y-79372011D01*
X144218803Y-79528533D01*
X144235976Y-79585147D01*
X144270323Y-79698373D01*
X144270323Y-79698375D01*
X144283360Y-79830740D01*
X144283360Y-80169259D01*
X144279652Y-80206904D01*
X144270323Y-80301626D01*
X144218803Y-80471466D01*
X144135138Y-80627991D01*
X144135137Y-80627992D01*
X144022546Y-80765186D01*
X143927611Y-80843096D01*
X143885351Y-80877778D01*
X143879808Y-80880741D01*
X143728827Y-80961443D01*
X143688094Y-80973799D01*
X143558987Y-81012963D01*
X143382360Y-81030359D01*
X143205734Y-81012963D01*
X143076627Y-80973799D01*
X143035894Y-80961443D01*
X142884913Y-80880741D01*
X142879370Y-80877778D01*
X142742176Y-80765186D01*
X142742172Y-80765183D01*
X142629582Y-80627992D01*
X142545917Y-80471467D01*
X142528744Y-80414853D01*
X142494397Y-80301627D01*
X142481360Y-80169258D01*
X142481360Y-79830743D01*
X142494397Y-79698374D01*
X142545917Y-79528535D01*
X142545917Y-79528534D01*
X142629581Y-79372011D01*
X142742174Y-79234814D01*
X142843631Y-79151552D01*
X142879369Y-79122222D01*
X142897273Y-79112652D01*
X143035893Y-79038557D01*
X143092507Y-79021384D01*
X143205733Y-78987037D01*
X143382360Y-78969641D01*
X143558986Y-78987037D01*
X143558986Y-78987037D01*
G37*
G36*
X141058986Y-78987037D02*
X141172212Y-79021384D01*
X141228826Y-79038557D01*
X141385349Y-79122221D01*
X141522546Y-79234814D01*
X141605808Y-79336271D01*
X141635138Y-79372009D01*
X141635139Y-79372011D01*
X141718803Y-79528533D01*
X141735976Y-79585147D01*
X141770323Y-79698373D01*
X141770323Y-79698375D01*
X141783360Y-79830740D01*
X141783360Y-80169259D01*
X141779652Y-80206904D01*
X141770323Y-80301626D01*
X141718803Y-80471466D01*
X141635138Y-80627991D01*
X141635137Y-80627992D01*
X141522546Y-80765186D01*
X141427611Y-80843096D01*
X141385351Y-80877778D01*
X141379808Y-80880741D01*
X141228827Y-80961443D01*
X141188094Y-80973799D01*
X141058987Y-81012963D01*
X140882360Y-81030359D01*
X140705734Y-81012963D01*
X140576627Y-80973799D01*
X140535894Y-80961443D01*
X140384913Y-80880741D01*
X140379370Y-80877778D01*
X140242176Y-80765186D01*
X140242172Y-80765183D01*
X140129582Y-80627992D01*
X140045917Y-80471467D01*
X140028744Y-80414853D01*
X139994397Y-80301627D01*
X139981360Y-80169258D01*
X139981360Y-79830743D01*
X139994397Y-79698374D01*
X140045917Y-79528535D01*
X140045917Y-79528534D01*
X140129581Y-79372011D01*
X140242174Y-79234814D01*
X140343631Y-79151552D01*
X140379369Y-79122222D01*
X140397273Y-79112652D01*
X140535893Y-79038557D01*
X140592507Y-79021384D01*
X140705733Y-78987037D01*
X140882360Y-78969641D01*
X141058986Y-78987037D01*
X141058986Y-78987037D01*
G37*
G36*
X139140960Y-78977989D02*
X139174009Y-78988014D01*
X139204466Y-79004294D01*
X139231159Y-79026201D01*
X139253066Y-79052894D01*
X139269346Y-79083351D01*
X139279371Y-79116400D01*
X139283360Y-79156904D01*
X139283360Y-80843096D01*
X139279371Y-80883600D01*
X139269346Y-80916649D01*
X139253066Y-80947106D01*
X139231159Y-80973799D01*
X139204466Y-80995706D01*
X139174009Y-81011986D01*
X139140960Y-81022011D01*
X139100456Y-81026000D01*
X137664264Y-81026000D01*
X137623760Y-81022011D01*
X137590711Y-81011986D01*
X137560254Y-80995706D01*
X137533561Y-80973799D01*
X137511654Y-80947106D01*
X137495374Y-80916649D01*
X137485349Y-80883600D01*
X137481360Y-80843096D01*
X137481360Y-79156904D01*
X137485349Y-79116400D01*
X137495374Y-79083351D01*
X137511654Y-79052894D01*
X137533561Y-79026201D01*
X137560254Y-79004294D01*
X137590711Y-78988014D01*
X137623760Y-78977989D01*
X137664264Y-78974000D01*
X139100456Y-78974000D01*
X139140960Y-78977989D01*
X139140960Y-78977989D01*
G37*
M02*
