G04 #@! TF.GenerationSoftware,KiCad,Pcbnew,(5.0.1)-3*
G04 #@! TF.CreationDate,2019-06-18T21:55:42-04:00*
G04 #@! TF.ProjectId,mars-aqua-adapter,6D6172732D617175612D616461707465,rev?*
G04 #@! TF.SameCoordinates,Original*
G04 #@! TF.FileFunction,Legend,Bot*
G04 #@! TF.FilePolarity,Positive*
%FSLAX46Y46*%
G04 Gerber Fmt 4.6, Leading zero omitted, Abs format (unit mm)*
G04 Created by KiCad (PCBNEW (5.0.1)-3) date 6/18/2019 9:55:42 PM*
%MOMM*%
%LPD*%
G01*
G04 APERTURE LIST*
%ADD10C,0.200000*%
%ADD11C,0.010000*%
G04 APERTURE END LIST*
D10*
X125332380Y-84950095D02*
X124332380Y-84950095D01*
X125046666Y-85283428D01*
X124332380Y-85616761D01*
X125332380Y-85616761D01*
X125332380Y-86521523D02*
X124808571Y-86521523D01*
X124713333Y-86473904D01*
X124665714Y-86378666D01*
X124665714Y-86188190D01*
X124713333Y-86092952D01*
X125284761Y-86521523D02*
X125332380Y-86426285D01*
X125332380Y-86188190D01*
X125284761Y-86092952D01*
X125189523Y-86045333D01*
X125094285Y-86045333D01*
X124999047Y-86092952D01*
X124951428Y-86188190D01*
X124951428Y-86426285D01*
X124903809Y-86521523D01*
X125332380Y-86997714D02*
X124665714Y-86997714D01*
X124856190Y-86997714D02*
X124760952Y-87045333D01*
X124713333Y-87092952D01*
X124665714Y-87188190D01*
X124665714Y-87283428D01*
X125284761Y-87569142D02*
X125332380Y-87664380D01*
X125332380Y-87854857D01*
X125284761Y-87950095D01*
X125189523Y-87997714D01*
X125141904Y-87997714D01*
X125046666Y-87950095D01*
X124999047Y-87854857D01*
X124999047Y-87712000D01*
X124951428Y-87616761D01*
X124856190Y-87569142D01*
X124808571Y-87569142D01*
X124713333Y-87616761D01*
X124665714Y-87712000D01*
X124665714Y-87854857D01*
X124713333Y-87950095D01*
X125046666Y-89140571D02*
X125046666Y-89616761D01*
X125332380Y-89045333D02*
X124332380Y-89378666D01*
X125332380Y-89712000D01*
X124665714Y-90473904D02*
X125665714Y-90473904D01*
X125284761Y-90473904D02*
X125332380Y-90378666D01*
X125332380Y-90188190D01*
X125284761Y-90092952D01*
X125237142Y-90045333D01*
X125141904Y-89997714D01*
X124856190Y-89997714D01*
X124760952Y-90045333D01*
X124713333Y-90092952D01*
X124665714Y-90188190D01*
X124665714Y-90378666D01*
X124713333Y-90473904D01*
X124665714Y-91378666D02*
X125332380Y-91378666D01*
X124665714Y-90950095D02*
X125189523Y-90950095D01*
X125284761Y-90997714D01*
X125332380Y-91092952D01*
X125332380Y-91235809D01*
X125284761Y-91331047D01*
X125237142Y-91378666D01*
X125332380Y-92283428D02*
X124808571Y-92283428D01*
X124713333Y-92235809D01*
X124665714Y-92140571D01*
X124665714Y-91950095D01*
X124713333Y-91854857D01*
X125284761Y-92283428D02*
X125332380Y-92188190D01*
X125332380Y-91950095D01*
X125284761Y-91854857D01*
X125189523Y-91807238D01*
X125094285Y-91807238D01*
X124999047Y-91854857D01*
X124951428Y-91950095D01*
X124951428Y-92188190D01*
X124903809Y-92283428D01*
X125046666Y-93473904D02*
X125046666Y-93950095D01*
X125332380Y-93378666D02*
X124332380Y-93712000D01*
X125332380Y-94045333D01*
X125332380Y-94807238D02*
X124332380Y-94807238D01*
X125284761Y-94807238D02*
X125332380Y-94712000D01*
X125332380Y-94521523D01*
X125284761Y-94426285D01*
X125237142Y-94378666D01*
X125141904Y-94331047D01*
X124856190Y-94331047D01*
X124760952Y-94378666D01*
X124713333Y-94426285D01*
X124665714Y-94521523D01*
X124665714Y-94712000D01*
X124713333Y-94807238D01*
X125332380Y-95712000D02*
X124808571Y-95712000D01*
X124713333Y-95664380D01*
X124665714Y-95569142D01*
X124665714Y-95378666D01*
X124713333Y-95283428D01*
X125284761Y-95712000D02*
X125332380Y-95616761D01*
X125332380Y-95378666D01*
X125284761Y-95283428D01*
X125189523Y-95235809D01*
X125094285Y-95235809D01*
X124999047Y-95283428D01*
X124951428Y-95378666D01*
X124951428Y-95616761D01*
X124903809Y-95712000D01*
X124665714Y-96188190D02*
X125665714Y-96188190D01*
X124713333Y-96188190D02*
X124665714Y-96283428D01*
X124665714Y-96473904D01*
X124713333Y-96569142D01*
X124760952Y-96616761D01*
X124856190Y-96664380D01*
X125141904Y-96664380D01*
X125237142Y-96616761D01*
X125284761Y-96569142D01*
X125332380Y-96473904D01*
X125332380Y-96283428D01*
X125284761Y-96188190D01*
X124665714Y-96950095D02*
X124665714Y-97331047D01*
X124332380Y-97092952D02*
X125189523Y-97092952D01*
X125284761Y-97140571D01*
X125332380Y-97235809D01*
X125332380Y-97331047D01*
X125284761Y-98045333D02*
X125332380Y-97950095D01*
X125332380Y-97759619D01*
X125284761Y-97664380D01*
X125189523Y-97616761D01*
X124808571Y-97616761D01*
X124713333Y-97664380D01*
X124665714Y-97759619D01*
X124665714Y-97950095D01*
X124713333Y-98045333D01*
X124808571Y-98092952D01*
X124903809Y-98092952D01*
X124999047Y-97616761D01*
X125332380Y-98521523D02*
X124665714Y-98521523D01*
X124856190Y-98521523D02*
X124760952Y-98569142D01*
X124713333Y-98616761D01*
X124665714Y-98712000D01*
X124665714Y-98807238D01*
X124665714Y-99807238D02*
X125332380Y-100045333D01*
X124665714Y-100283428D01*
X124332380Y-100569142D02*
X124332380Y-101188190D01*
X124713333Y-100854857D01*
X124713333Y-100997714D01*
X124760952Y-101092952D01*
X124808571Y-101140571D01*
X124903809Y-101188190D01*
X125141904Y-101188190D01*
X125237142Y-101140571D01*
X125284761Y-101092952D01*
X125332380Y-100997714D01*
X125332380Y-100712000D01*
X125284761Y-100616761D01*
X125237142Y-100569142D01*
X126365714Y-85378666D02*
X127175238Y-85378666D01*
X127270476Y-85331047D01*
X127318095Y-85283428D01*
X127365714Y-85188190D01*
X127365714Y-85045333D01*
X127318095Y-84950095D01*
X126984761Y-85378666D02*
X127032380Y-85283428D01*
X127032380Y-85092952D01*
X126984761Y-84997714D01*
X126937142Y-84950095D01*
X126841904Y-84902476D01*
X126556190Y-84902476D01*
X126460952Y-84950095D01*
X126413333Y-84997714D01*
X126365714Y-85092952D01*
X126365714Y-85283428D01*
X126413333Y-85378666D01*
X127032380Y-85854857D02*
X126365714Y-85854857D01*
X126032380Y-85854857D02*
X126080000Y-85807238D01*
X126127619Y-85854857D01*
X126080000Y-85902476D01*
X126032380Y-85854857D01*
X126127619Y-85854857D01*
X126365714Y-86188190D02*
X126365714Y-86569142D01*
X126032380Y-86331047D02*
X126889523Y-86331047D01*
X126984761Y-86378666D01*
X127032380Y-86473904D01*
X127032380Y-86569142D01*
X127032380Y-86902476D02*
X126032380Y-86902476D01*
X127032380Y-87331047D02*
X126508571Y-87331047D01*
X126413333Y-87283428D01*
X126365714Y-87188190D01*
X126365714Y-87045333D01*
X126413333Y-86950095D01*
X126460952Y-86902476D01*
X126365714Y-88235809D02*
X127032380Y-88235809D01*
X126365714Y-87807238D02*
X126889523Y-87807238D01*
X126984761Y-87854857D01*
X127032380Y-87950095D01*
X127032380Y-88092952D01*
X126984761Y-88188190D01*
X126937142Y-88235809D01*
X127032380Y-88712000D02*
X126032380Y-88712000D01*
X126413333Y-88712000D02*
X126365714Y-88807238D01*
X126365714Y-88997714D01*
X126413333Y-89092952D01*
X126460952Y-89140571D01*
X126556190Y-89188190D01*
X126841904Y-89188190D01*
X126937142Y-89140571D01*
X126984761Y-89092952D01*
X127032380Y-88997714D01*
X127032380Y-88807238D01*
X126984761Y-88712000D01*
X126937142Y-89616761D02*
X126984761Y-89664380D01*
X127032380Y-89616761D01*
X126984761Y-89569142D01*
X126937142Y-89616761D01*
X127032380Y-89616761D01*
X126984761Y-90521523D02*
X127032380Y-90426285D01*
X127032380Y-90235809D01*
X126984761Y-90140571D01*
X126937142Y-90092952D01*
X126841904Y-90045333D01*
X126556190Y-90045333D01*
X126460952Y-90092952D01*
X126413333Y-90140571D01*
X126365714Y-90235809D01*
X126365714Y-90426285D01*
X126413333Y-90521523D01*
X127032380Y-91092952D02*
X126984761Y-90997714D01*
X126937142Y-90950095D01*
X126841904Y-90902476D01*
X126556190Y-90902476D01*
X126460952Y-90950095D01*
X126413333Y-90997714D01*
X126365714Y-91092952D01*
X126365714Y-91235809D01*
X126413333Y-91331047D01*
X126460952Y-91378666D01*
X126556190Y-91426285D01*
X126841904Y-91426285D01*
X126937142Y-91378666D01*
X126984761Y-91331047D01*
X127032380Y-91235809D01*
X127032380Y-91092952D01*
X127032380Y-91854857D02*
X126365714Y-91854857D01*
X126460952Y-91854857D02*
X126413333Y-91902476D01*
X126365714Y-91997714D01*
X126365714Y-92140571D01*
X126413333Y-92235809D01*
X126508571Y-92283428D01*
X127032380Y-92283428D01*
X126508571Y-92283428D02*
X126413333Y-92331047D01*
X126365714Y-92426285D01*
X126365714Y-92569142D01*
X126413333Y-92664380D01*
X126508571Y-92712000D01*
X127032380Y-92712000D01*
X125984761Y-93902476D02*
X127270476Y-93045333D01*
X127032380Y-94235809D02*
X126365714Y-94235809D01*
X126556190Y-94235809D02*
X126460952Y-94283428D01*
X126413333Y-94331047D01*
X126365714Y-94426285D01*
X126365714Y-94521523D01*
X127032380Y-95283428D02*
X126508571Y-95283428D01*
X126413333Y-95235809D01*
X126365714Y-95140571D01*
X126365714Y-94950095D01*
X126413333Y-94854857D01*
X126984761Y-95283428D02*
X127032380Y-95188190D01*
X127032380Y-94950095D01*
X126984761Y-94854857D01*
X126889523Y-94807238D01*
X126794285Y-94807238D01*
X126699047Y-94854857D01*
X126651428Y-94950095D01*
X126651428Y-95188190D01*
X126603809Y-95283428D01*
X126365714Y-95759619D02*
X127032380Y-95759619D01*
X126460952Y-95759619D02*
X126413333Y-95807238D01*
X126365714Y-95902476D01*
X126365714Y-96045333D01*
X126413333Y-96140571D01*
X126508571Y-96188190D01*
X127032380Y-96188190D01*
X126365714Y-96521523D02*
X126365714Y-96902476D01*
X126032380Y-96664380D02*
X126889523Y-96664380D01*
X126984761Y-96712000D01*
X127032380Y-96807238D01*
X127032380Y-96902476D01*
X127032380Y-97235809D02*
X126032380Y-97235809D01*
X127032380Y-97664380D02*
X126508571Y-97664380D01*
X126413333Y-97616761D01*
X126365714Y-97521523D01*
X126365714Y-97378666D01*
X126413333Y-97283428D01*
X126460952Y-97235809D01*
X127032380Y-98569142D02*
X126508571Y-98569142D01*
X126413333Y-98521523D01*
X126365714Y-98426285D01*
X126365714Y-98235809D01*
X126413333Y-98140571D01*
X126984761Y-98569142D02*
X127032380Y-98473904D01*
X127032380Y-98235809D01*
X126984761Y-98140571D01*
X126889523Y-98092952D01*
X126794285Y-98092952D01*
X126699047Y-98140571D01*
X126651428Y-98235809D01*
X126651428Y-98473904D01*
X126603809Y-98569142D01*
X127032380Y-99188190D02*
X126984761Y-99092952D01*
X126889523Y-99045333D01*
X126032380Y-99045333D01*
X127032380Y-99569142D02*
X126365714Y-99569142D01*
X126032380Y-99569142D02*
X126080000Y-99521523D01*
X126127619Y-99569142D01*
X126080000Y-99616761D01*
X126032380Y-99569142D01*
X126127619Y-99569142D01*
X127032380Y-100188190D02*
X126984761Y-100092952D01*
X126937142Y-100045333D01*
X126841904Y-99997714D01*
X126556190Y-99997714D01*
X126460952Y-100045333D01*
X126413333Y-100092952D01*
X126365714Y-100188190D01*
X126365714Y-100331047D01*
X126413333Y-100426285D01*
X126460952Y-100473904D01*
X126556190Y-100521523D01*
X126841904Y-100521523D01*
X126937142Y-100473904D01*
X126984761Y-100426285D01*
X127032380Y-100331047D01*
X127032380Y-100188190D01*
X126365714Y-100950095D02*
X127032380Y-100950095D01*
X126460952Y-100950095D02*
X126413333Y-100997714D01*
X126365714Y-101092952D01*
X126365714Y-101235809D01*
X126413333Y-101331047D01*
X126508571Y-101378666D01*
X127032380Y-101378666D01*
X125984761Y-102569142D02*
X127270476Y-101712000D01*
X127032380Y-102902476D02*
X126365714Y-102902476D01*
X126460952Y-102902476D02*
X126413333Y-102950095D01*
X126365714Y-103045333D01*
X126365714Y-103188190D01*
X126413333Y-103283428D01*
X126508571Y-103331047D01*
X127032380Y-103331047D01*
X126508571Y-103331047D02*
X126413333Y-103378666D01*
X126365714Y-103473904D01*
X126365714Y-103616761D01*
X126413333Y-103712000D01*
X126508571Y-103759619D01*
X127032380Y-103759619D01*
X127032380Y-104664380D02*
X126508571Y-104664380D01*
X126413333Y-104616761D01*
X126365714Y-104521523D01*
X126365714Y-104331047D01*
X126413333Y-104235809D01*
X126984761Y-104664380D02*
X127032380Y-104569142D01*
X127032380Y-104331047D01*
X126984761Y-104235809D01*
X126889523Y-104188190D01*
X126794285Y-104188190D01*
X126699047Y-104235809D01*
X126651428Y-104331047D01*
X126651428Y-104569142D01*
X126603809Y-104664380D01*
X127032380Y-105140571D02*
X126365714Y-105140571D01*
X126556190Y-105140571D02*
X126460952Y-105188190D01*
X126413333Y-105235809D01*
X126365714Y-105331047D01*
X126365714Y-105426285D01*
X126984761Y-105712000D02*
X127032380Y-105807238D01*
X127032380Y-105997714D01*
X126984761Y-106092952D01*
X126889523Y-106140571D01*
X126841904Y-106140571D01*
X126746666Y-106092952D01*
X126699047Y-105997714D01*
X126699047Y-105854857D01*
X126651428Y-105759619D01*
X126556190Y-105712000D01*
X126508571Y-105712000D01*
X126413333Y-105759619D01*
X126365714Y-105854857D01*
X126365714Y-105997714D01*
X126413333Y-106092952D01*
X126651428Y-106569142D02*
X126651428Y-107331047D01*
X127032380Y-108235809D02*
X126508571Y-108235809D01*
X126413333Y-108188190D01*
X126365714Y-108092952D01*
X126365714Y-107902476D01*
X126413333Y-107807238D01*
X126984761Y-108235809D02*
X127032380Y-108140571D01*
X127032380Y-107902476D01*
X126984761Y-107807238D01*
X126889523Y-107759619D01*
X126794285Y-107759619D01*
X126699047Y-107807238D01*
X126651428Y-107902476D01*
X126651428Y-108140571D01*
X126603809Y-108235809D01*
X126365714Y-109140571D02*
X127365714Y-109140571D01*
X126984761Y-109140571D02*
X127032380Y-109045333D01*
X127032380Y-108854857D01*
X126984761Y-108759619D01*
X126937142Y-108712000D01*
X126841904Y-108664380D01*
X126556190Y-108664380D01*
X126460952Y-108712000D01*
X126413333Y-108759619D01*
X126365714Y-108854857D01*
X126365714Y-109045333D01*
X126413333Y-109140571D01*
X126365714Y-110045333D02*
X127032380Y-110045333D01*
X126365714Y-109616761D02*
X126889523Y-109616761D01*
X126984761Y-109664380D01*
X127032380Y-109759619D01*
X127032380Y-109902476D01*
X126984761Y-109997714D01*
X126937142Y-110045333D01*
X127032380Y-110950095D02*
X126508571Y-110950095D01*
X126413333Y-110902476D01*
X126365714Y-110807238D01*
X126365714Y-110616761D01*
X126413333Y-110521523D01*
X126984761Y-110950095D02*
X127032380Y-110854857D01*
X127032380Y-110616761D01*
X126984761Y-110521523D01*
X126889523Y-110473904D01*
X126794285Y-110473904D01*
X126699047Y-110521523D01*
X126651428Y-110616761D01*
X126651428Y-110854857D01*
X126603809Y-110950095D01*
D11*
G04 #@! TO.C,G\002A\002A\002A*
G36*
X117277746Y-90861015D02*
X117739619Y-90894479D01*
X118493598Y-90819872D01*
X119526748Y-90638095D01*
X120139902Y-90508201D01*
X121267332Y-90335611D01*
X122134950Y-90374577D01*
X122742098Y-90624860D01*
X123088119Y-91086216D01*
X123176543Y-91622865D01*
X123107839Y-91992870D01*
X122926138Y-92553836D01*
X122668056Y-93195397D01*
X122616913Y-93309609D01*
X122253062Y-94168760D01*
X122013597Y-94864136D01*
X121908720Y-95356800D01*
X121948631Y-95607814D01*
X122008544Y-95631842D01*
X122198256Y-95494782D01*
X122278354Y-95337471D01*
X122386084Y-95060766D01*
X122592780Y-94559615D01*
X122863463Y-93918178D01*
X123030028Y-93528899D01*
X123441428Y-92447497D01*
X123642242Y-91592746D01*
X123637340Y-90932917D01*
X123490673Y-90527670D01*
X123136373Y-90191673D01*
X122561055Y-89921660D01*
X121879551Y-89763945D01*
X121541880Y-89741692D01*
X121116512Y-89772747D01*
X120459493Y-89858911D01*
X119668407Y-89986113D01*
X119013298Y-90106276D01*
X118124282Y-90292526D01*
X117535345Y-90450856D01*
X117212405Y-90592292D01*
X117120914Y-90718579D01*
X117277746Y-90861015D01*
X117277746Y-90861015D01*
G37*
X117277746Y-90861015D02*
X117739619Y-90894479D01*
X118493598Y-90819872D01*
X119526748Y-90638095D01*
X120139902Y-90508201D01*
X121267332Y-90335611D01*
X122134950Y-90374577D01*
X122742098Y-90624860D01*
X123088119Y-91086216D01*
X123176543Y-91622865D01*
X123107839Y-91992870D01*
X122926138Y-92553836D01*
X122668056Y-93195397D01*
X122616913Y-93309609D01*
X122253062Y-94168760D01*
X122013597Y-94864136D01*
X121908720Y-95356800D01*
X121948631Y-95607814D01*
X122008544Y-95631842D01*
X122198256Y-95494782D01*
X122278354Y-95337471D01*
X122386084Y-95060766D01*
X122592780Y-94559615D01*
X122863463Y-93918178D01*
X123030028Y-93528899D01*
X123441428Y-92447497D01*
X123642242Y-91592746D01*
X123637340Y-90932917D01*
X123490673Y-90527670D01*
X123136373Y-90191673D01*
X122561055Y-89921660D01*
X121879551Y-89763945D01*
X121541880Y-89741692D01*
X121116512Y-89772747D01*
X120459493Y-89858911D01*
X119668407Y-89986113D01*
X119013298Y-90106276D01*
X118124282Y-90292526D01*
X117535345Y-90450856D01*
X117212405Y-90592292D01*
X117120914Y-90718579D01*
X117277746Y-90861015D01*
G36*
X116480841Y-88960201D02*
X116606503Y-89057464D01*
X116866056Y-89130962D01*
X117300505Y-89186010D01*
X117950854Y-89227921D01*
X118858108Y-89262009D01*
X119980517Y-89291636D01*
X120931832Y-89321245D01*
X121779582Y-89360852D01*
X122460222Y-89406458D01*
X122910205Y-89454066D01*
X123050384Y-89484817D01*
X123290539Y-89521700D01*
X123344755Y-89452998D01*
X123179975Y-89224082D01*
X122695226Y-89035775D01*
X121904893Y-88891440D01*
X120823364Y-88794437D01*
X120443100Y-88775017D01*
X119672770Y-88732469D01*
X119042818Y-88680517D01*
X118618895Y-88625782D01*
X118466609Y-88575651D01*
X118614649Y-88474286D01*
X118994764Y-88335740D01*
X119325040Y-88242321D01*
X119985958Y-88032499D01*
X120701859Y-87740891D01*
X121396347Y-87406833D01*
X121993025Y-87069663D01*
X122415497Y-86768718D01*
X122582531Y-86565004D01*
X122614647Y-86163295D01*
X122576594Y-85991105D01*
X122313621Y-85672296D01*
X121822660Y-85351592D01*
X121206837Y-85086633D01*
X120732764Y-84960600D01*
X120381242Y-84874321D01*
X120264798Y-84784864D01*
X120402062Y-84685804D01*
X120811664Y-84570716D01*
X121512234Y-84433173D01*
X122522402Y-84266753D01*
X122924225Y-84204805D01*
X123806673Y-84068734D01*
X124595340Y-83944041D01*
X125217669Y-83842419D01*
X125601101Y-83775563D01*
X125657669Y-83764256D01*
X125924295Y-83615660D01*
X126037658Y-83393336D01*
X125963012Y-83217237D01*
X125825881Y-83183524D01*
X125565975Y-83214344D01*
X125009090Y-83303484D01*
X124188483Y-83445060D01*
X123137416Y-83633185D01*
X121889148Y-83861973D01*
X120476939Y-84125539D01*
X120080465Y-84200273D01*
X119358247Y-84350168D01*
X118755942Y-84500249D01*
X118353787Y-84629155D01*
X118238545Y-84690635D01*
X118149007Y-84918264D01*
X118378900Y-85107684D01*
X118933454Y-85261220D01*
X119785784Y-85377987D01*
X120647400Y-85486728D01*
X121247719Y-85624494D01*
X121661843Y-85816260D01*
X121964872Y-86087004D01*
X121983208Y-86108768D01*
X122013484Y-86356845D01*
X121726160Y-86649519D01*
X121117722Y-86988682D01*
X120184654Y-87376226D01*
X118923441Y-87814045D01*
X118657964Y-87899400D01*
X117669520Y-88230757D01*
X116961631Y-88505375D01*
X116551101Y-88716148D01*
X116448066Y-88833860D01*
X116480841Y-88960201D01*
X116480841Y-88960201D01*
G37*
X116480841Y-88960201D02*
X116606503Y-89057464D01*
X116866056Y-89130962D01*
X117300505Y-89186010D01*
X117950854Y-89227921D01*
X118858108Y-89262009D01*
X119980517Y-89291636D01*
X120931832Y-89321245D01*
X121779582Y-89360852D01*
X122460222Y-89406458D01*
X122910205Y-89454066D01*
X123050384Y-89484817D01*
X123290539Y-89521700D01*
X123344755Y-89452998D01*
X123179975Y-89224082D01*
X122695226Y-89035775D01*
X121904893Y-88891440D01*
X120823364Y-88794437D01*
X120443100Y-88775017D01*
X119672770Y-88732469D01*
X119042818Y-88680517D01*
X118618895Y-88625782D01*
X118466609Y-88575651D01*
X118614649Y-88474286D01*
X118994764Y-88335740D01*
X119325040Y-88242321D01*
X119985958Y-88032499D01*
X120701859Y-87740891D01*
X121396347Y-87406833D01*
X121993025Y-87069663D01*
X122415497Y-86768718D01*
X122582531Y-86565004D01*
X122614647Y-86163295D01*
X122576594Y-85991105D01*
X122313621Y-85672296D01*
X121822660Y-85351592D01*
X121206837Y-85086633D01*
X120732764Y-84960600D01*
X120381242Y-84874321D01*
X120264798Y-84784864D01*
X120402062Y-84685804D01*
X120811664Y-84570716D01*
X121512234Y-84433173D01*
X122522402Y-84266753D01*
X122924225Y-84204805D01*
X123806673Y-84068734D01*
X124595340Y-83944041D01*
X125217669Y-83842419D01*
X125601101Y-83775563D01*
X125657669Y-83764256D01*
X125924295Y-83615660D01*
X126037658Y-83393336D01*
X125963012Y-83217237D01*
X125825881Y-83183524D01*
X125565975Y-83214344D01*
X125009090Y-83303484D01*
X124188483Y-83445060D01*
X123137416Y-83633185D01*
X121889148Y-83861973D01*
X120476939Y-84125539D01*
X120080465Y-84200273D01*
X119358247Y-84350168D01*
X118755942Y-84500249D01*
X118353787Y-84629155D01*
X118238545Y-84690635D01*
X118149007Y-84918264D01*
X118378900Y-85107684D01*
X118933454Y-85261220D01*
X119785784Y-85377987D01*
X120647400Y-85486728D01*
X121247719Y-85624494D01*
X121661843Y-85816260D01*
X121964872Y-86087004D01*
X121983208Y-86108768D01*
X122013484Y-86356845D01*
X121726160Y-86649519D01*
X121117722Y-86988682D01*
X120184654Y-87376226D01*
X118923441Y-87814045D01*
X118657964Y-87899400D01*
X117669520Y-88230757D01*
X116961631Y-88505375D01*
X116551101Y-88716148D01*
X116448066Y-88833860D01*
X116480841Y-88960201D01*
G04 #@! TD*
M02*
